%TF.GenerationSoftware,KiCad,Pcbnew,(5.1.6)-1*%
%TF.CreationDate,2022-02-05T23:25:30+08:00*%
%TF.ProjectId,brake_board,6272616b-655f-4626-9f61-72642e6b6963,rev?*%
%TF.SameCoordinates,Original*%
%TF.FileFunction,Copper,L2,Bot*%
%TF.FilePolarity,Positive*%
%FSLAX46Y46*%
G04 Gerber Fmt 4.6, Leading zero omitted, Abs format (unit mm)*
G04 Created by KiCad (PCBNEW (5.1.6)-1) date 2022-02-05 23:25:30*
%MOMM*%
%LPD*%
G01*
G04 APERTURE LIST*
%TA.AperFunction,ComponentPad*%
%ADD10C,2.800000*%
%TD*%
%TA.AperFunction,ComponentPad*%
%ADD11C,2.400000*%
%TD*%
%TA.AperFunction,ComponentPad*%
%ADD12O,2.400000X2.400000*%
%TD*%
%TA.AperFunction,ComponentPad*%
%ADD13R,1.700000X1.700000*%
%TD*%
%TA.AperFunction,ComponentPad*%
%ADD14O,1.700000X1.700000*%
%TD*%
%TA.AperFunction,ComponentPad*%
%ADD15C,6.400000*%
%TD*%
%TA.AperFunction,ComponentPad*%
%ADD16C,0.800000*%
%TD*%
%TA.AperFunction,ViaPad*%
%ADD17C,0.800000*%
%TD*%
%TA.AperFunction,Conductor*%
%ADD18C,0.254000*%
%TD*%
%ADD19C,0.350000*%
G04 APERTURE END LIST*
D10*
%TO.P,POS1,1*%
%TO.N,VBUS*%
X35000000Y3506000D03*
%TD*%
%TO.P,NEG1,1*%
%TO.N,GND*%
X25000000Y3506000D03*
%TD*%
D11*
%TO.P,R6,1*%
%TO.N,GND*%
X2000000Y41000000D03*
D12*
%TO.P,R6,2*%
%TO.N,Net-(C7-Pad2)*%
X57880000Y41000000D03*
%TD*%
D13*
%TO.P,J1,1*%
%TO.N,GND*%
X5000000Y19000000D03*
D14*
%TO.P,J1,2*%
%TO.N,+9V*%
X5000000Y21540000D03*
%TO.P,J1,3*%
%TO.N,Net-(J1-Pad3)*%
X5000000Y24080000D03*
%TD*%
D15*
%TO.P,H4,1*%
%TO.N,GND*%
X5000000Y55000000D03*
D16*
X7400000Y55000000D03*
X6697056Y53302944D03*
X5000000Y52600000D03*
X3302944Y53302944D03*
X2600000Y55000000D03*
X3302944Y56697056D03*
X5000000Y57400000D03*
X6697056Y56697056D03*
%TD*%
D15*
%TO.P,H3,1*%
%TO.N,GND*%
X55000000Y55000000D03*
D16*
X57400000Y55000000D03*
X56697056Y53302944D03*
X55000000Y52600000D03*
X53302944Y53302944D03*
X52600000Y55000000D03*
X53302944Y56697056D03*
X55000000Y57400000D03*
X56697056Y56697056D03*
%TD*%
D15*
%TO.P,H2,1*%
%TO.N,GND*%
X5000000Y5000000D03*
D16*
X7400000Y5000000D03*
X6697056Y3302944D03*
X5000000Y2600000D03*
X3302944Y3302944D03*
X2600000Y5000000D03*
X3302944Y6697056D03*
X5000000Y7400000D03*
X6697056Y6697056D03*
%TD*%
D15*
%TO.P,H1,1*%
%TO.N,GND*%
X55000000Y5000000D03*
D16*
X57400000Y5000000D03*
X56697056Y3302944D03*
X55000000Y2600000D03*
X53302944Y3302944D03*
X52600000Y5000000D03*
X53302944Y6697056D03*
X55000000Y7400000D03*
X56697056Y6697056D03*
%TD*%
D17*
%TO.N,GND*%
X40259000Y29845000D03*
X40259000Y28956000D03*
X40259000Y27051000D03*
X41402000Y28575000D03*
X41402000Y29591000D03*
X40259000Y27940000D03*
X41402000Y27559000D03*
X27686000Y11811000D03*
X26797000Y11811000D03*
X24003000Y10795000D03*
X24003000Y9906000D03*
X15875000Y10668000D03*
X15875000Y9525000D03*
X33528000Y10922000D03*
X33528000Y9652000D03*
X32131000Y10922000D03*
X32131000Y9652000D03*
X46990000Y22860000D03*
X46990000Y21590000D03*
X46990000Y20320000D03*
X46990000Y19050000D03*
X45720000Y19050000D03*
X45720000Y20320000D03*
X45720000Y21590000D03*
X45720000Y22860000D03*
X58420000Y22860000D03*
X58420000Y21590000D03*
X58420000Y20320000D03*
X58420000Y19050000D03*
X32004000Y19304000D03*
X32004000Y18288000D03*
X33528000Y18288000D03*
X33528000Y19304000D03*
X17780000Y21336000D03*
X17780000Y20320000D03*
X17780000Y19304000D03*
X16256000Y13716000D03*
X16256000Y12700000D03*
X58420000Y17780000D03*
X58420000Y16510000D03*
X58420000Y15240000D03*
X26797000Y24130000D03*
X25654000Y24130000D03*
%TD*%
D18*
%TO.N,GND*%
G36*
X57503463Y59542688D02*
G01*
X57987756Y59396471D01*
X58434422Y59158975D01*
X58826450Y58839245D01*
X59148907Y58449461D01*
X59389518Y58004460D01*
X59539111Y57521204D01*
X59594001Y56998965D01*
X59594001Y56998872D01*
X59594000Y3019854D01*
X59542688Y2496536D01*
X59396472Y2012244D01*
X59158975Y1565578D01*
X58839245Y1173550D01*
X58449458Y851090D01*
X58004460Y610482D01*
X57521205Y460889D01*
X56998971Y406000D01*
X3019854Y406000D01*
X2496536Y457312D01*
X2012244Y603528D01*
X1565578Y841025D01*
X1173550Y1160755D01*
X851090Y1550542D01*
X610482Y1995540D01*
X460889Y2478795D01*
X406000Y3001029D01*
X406000Y3681413D01*
X33219000Y3681413D01*
X33219000Y3330587D01*
X33287443Y2986502D01*
X33421699Y2662380D01*
X33616607Y2370679D01*
X33864679Y2122607D01*
X34156380Y1927699D01*
X34480502Y1793443D01*
X34824587Y1725000D01*
X35175413Y1725000D01*
X35519498Y1793443D01*
X35843620Y1927699D01*
X36135321Y2122607D01*
X36383393Y2370679D01*
X36578301Y2662380D01*
X36712557Y2986502D01*
X36781000Y3330587D01*
X36781000Y3681413D01*
X36712557Y4025498D01*
X36578301Y4349620D01*
X36383393Y4641321D01*
X36135321Y4889393D01*
X35843620Y5084301D01*
X35519498Y5218557D01*
X35175413Y5287000D01*
X34824587Y5287000D01*
X34480502Y5218557D01*
X34156380Y5084301D01*
X33864679Y4889393D01*
X33616607Y4641321D01*
X33421699Y4349620D01*
X33287443Y4025498D01*
X33219000Y3681413D01*
X406000Y3681413D01*
X406000Y21661243D01*
X3769000Y21661243D01*
X3769000Y21418757D01*
X3816307Y21180931D01*
X3909102Y20956903D01*
X4043820Y20755283D01*
X4215283Y20583820D01*
X4416903Y20449102D01*
X4640931Y20356307D01*
X4878757Y20309000D01*
X5121243Y20309000D01*
X5359069Y20356307D01*
X5583097Y20449102D01*
X5784717Y20583820D01*
X5956180Y20755283D01*
X6090898Y20956903D01*
X6183693Y21180931D01*
X6231000Y21418757D01*
X6231000Y21661243D01*
X6183693Y21899069D01*
X6090898Y22123097D01*
X5956180Y22324717D01*
X5784717Y22496180D01*
X5583097Y22630898D01*
X5359069Y22723693D01*
X5121243Y22771000D01*
X4878757Y22771000D01*
X4640931Y22723693D01*
X4416903Y22630898D01*
X4215283Y22496180D01*
X4043820Y22324717D01*
X3909102Y22123097D01*
X3816307Y21899069D01*
X3769000Y21661243D01*
X406000Y21661243D01*
X406000Y24201243D01*
X3769000Y24201243D01*
X3769000Y23958757D01*
X3816307Y23720931D01*
X3909102Y23496903D01*
X4043820Y23295283D01*
X4215283Y23123820D01*
X4416903Y22989102D01*
X4640931Y22896307D01*
X4878757Y22849000D01*
X5121243Y22849000D01*
X5359069Y22896307D01*
X5583097Y22989102D01*
X5784717Y23123820D01*
X5956180Y23295283D01*
X6090898Y23496903D01*
X6183693Y23720931D01*
X6231000Y23958757D01*
X6231000Y24201243D01*
X6183693Y24439069D01*
X6090898Y24663097D01*
X5956180Y24864717D01*
X5784717Y25036180D01*
X5583097Y25170898D01*
X5359069Y25263693D01*
X5121243Y25311000D01*
X4878757Y25311000D01*
X4640931Y25263693D01*
X4416903Y25170898D01*
X4215283Y25036180D01*
X4043820Y24864717D01*
X3909102Y24663097D01*
X3816307Y24439069D01*
X3769000Y24201243D01*
X406000Y24201243D01*
X406000Y56980146D01*
X407946Y57000000D01*
X10092036Y57000000D01*
X10094001Y56980049D01*
X10094000Y43019941D01*
X10092036Y43000000D01*
X10099875Y42920410D01*
X10123090Y42843879D01*
X10160790Y42773347D01*
X10211526Y42711526D01*
X10273347Y42660790D01*
X10343879Y42623090D01*
X10420410Y42599875D01*
X10500000Y42592036D01*
X10519940Y42594000D01*
X13480060Y42594000D01*
X13500000Y42592036D01*
X13579590Y42599875D01*
X13656121Y42623090D01*
X13726653Y42660790D01*
X13788474Y42711526D01*
X13839210Y42773347D01*
X13876910Y42843879D01*
X13900125Y42920410D01*
X13906000Y42980059D01*
X13906000Y42980060D01*
X13907964Y43000000D01*
X13906000Y43019941D01*
X13906000Y56980059D01*
X13907964Y57000000D01*
X16092036Y57000000D01*
X16094001Y56980049D01*
X16094000Y34019941D01*
X16092036Y34000000D01*
X16099875Y33920410D01*
X16123090Y33843879D01*
X16160790Y33773347D01*
X16211526Y33711526D01*
X16273347Y33660790D01*
X16343879Y33623090D01*
X16420410Y33599875D01*
X16500000Y33592036D01*
X16519940Y33594000D01*
X19480060Y33594000D01*
X19500000Y33592036D01*
X19579590Y33599875D01*
X19656121Y33623090D01*
X19726653Y33660790D01*
X19788474Y33711526D01*
X19839210Y33773347D01*
X19876910Y33843879D01*
X19900125Y33920410D01*
X19906000Y33980059D01*
X19906000Y33980060D01*
X19907964Y34000000D01*
X19906000Y34019941D01*
X19906000Y56980059D01*
X19907964Y57000000D01*
X22092036Y57000000D01*
X22094001Y56980049D01*
X22094000Y34019941D01*
X22092036Y34000000D01*
X22099875Y33920410D01*
X22123090Y33843879D01*
X22160790Y33773347D01*
X22211526Y33711526D01*
X22273347Y33660790D01*
X22343879Y33623090D01*
X22420410Y33599875D01*
X22500000Y33592036D01*
X22519940Y33594000D01*
X25480060Y33594000D01*
X25500000Y33592036D01*
X25579590Y33599875D01*
X25656121Y33623090D01*
X25726653Y33660790D01*
X25788474Y33711526D01*
X25839210Y33773347D01*
X25876910Y33843879D01*
X25900125Y33920410D01*
X25906000Y33980059D01*
X25906000Y33980060D01*
X25907964Y34000000D01*
X25906000Y34019941D01*
X25906000Y56980059D01*
X25907964Y57000000D01*
X28092036Y57000000D01*
X28094001Y56980049D01*
X28094000Y34019941D01*
X28092036Y34000000D01*
X28099875Y33920410D01*
X28123090Y33843879D01*
X28160790Y33773347D01*
X28211526Y33711526D01*
X28273347Y33660790D01*
X28343879Y33623090D01*
X28420410Y33599875D01*
X28500000Y33592036D01*
X28519940Y33594000D01*
X31480060Y33594000D01*
X31500000Y33592036D01*
X31579590Y33599875D01*
X31656121Y33623090D01*
X31726653Y33660790D01*
X31788474Y33711526D01*
X31839210Y33773347D01*
X31876910Y33843879D01*
X31900125Y33920410D01*
X31906000Y33980059D01*
X31906000Y33980060D01*
X31907964Y34000000D01*
X31906000Y34019941D01*
X31906000Y56980059D01*
X31907964Y57000000D01*
X34092036Y57000000D01*
X34094001Y56980049D01*
X34094000Y34019941D01*
X34092036Y34000000D01*
X34099875Y33920410D01*
X34123090Y33843879D01*
X34160790Y33773347D01*
X34211526Y33711526D01*
X34273347Y33660790D01*
X34343879Y33623090D01*
X34420410Y33599875D01*
X34500000Y33592036D01*
X34519940Y33594000D01*
X37480060Y33594000D01*
X37500000Y33592036D01*
X37579590Y33599875D01*
X37656121Y33623090D01*
X37726653Y33660790D01*
X37788474Y33711526D01*
X37839210Y33773347D01*
X37876910Y33843879D01*
X37900125Y33920410D01*
X37906000Y33980059D01*
X37906000Y33980060D01*
X37907964Y34000000D01*
X37906000Y34019941D01*
X37906000Y56980059D01*
X37907964Y57000000D01*
X40092036Y57000000D01*
X40094001Y56980049D01*
X40094000Y34019941D01*
X40092036Y34000000D01*
X40099875Y33920410D01*
X40123090Y33843879D01*
X40160790Y33773347D01*
X40211526Y33711526D01*
X40273347Y33660790D01*
X40343879Y33623090D01*
X40420410Y33599875D01*
X40500000Y33592036D01*
X40519940Y33594000D01*
X43480060Y33594000D01*
X43500000Y33592036D01*
X43579590Y33599875D01*
X43656121Y33623090D01*
X43726653Y33660790D01*
X43788474Y33711526D01*
X43839210Y33773347D01*
X43876910Y33843879D01*
X43900125Y33920410D01*
X43906000Y33980059D01*
X43906000Y33980060D01*
X43907964Y34000000D01*
X43906000Y34019941D01*
X43906000Y41155715D01*
X56299000Y41155715D01*
X56299000Y40844285D01*
X56359757Y40538839D01*
X56478936Y40251116D01*
X56651957Y39992171D01*
X56872171Y39771957D01*
X57131116Y39598936D01*
X57418839Y39479757D01*
X57724285Y39419000D01*
X58035715Y39419000D01*
X58341161Y39479757D01*
X58628884Y39598936D01*
X58887829Y39771957D01*
X59108043Y39992171D01*
X59281064Y40251116D01*
X59400243Y40538839D01*
X59461000Y40844285D01*
X59461000Y41155715D01*
X59400243Y41461161D01*
X59281064Y41748884D01*
X59108043Y42007829D01*
X58887829Y42228043D01*
X58628884Y42401064D01*
X58341161Y42520243D01*
X58035715Y42581000D01*
X57724285Y42581000D01*
X57418839Y42520243D01*
X57131116Y42401064D01*
X56872171Y42228043D01*
X56651957Y42007829D01*
X56478936Y41748884D01*
X56359757Y41461161D01*
X56299000Y41155715D01*
X43906000Y41155715D01*
X43906000Y56980059D01*
X43907964Y57000000D01*
X46092036Y57000000D01*
X46094001Y56980049D01*
X46094000Y43019941D01*
X46092036Y43000000D01*
X46099875Y42920410D01*
X46123090Y42843879D01*
X46160790Y42773347D01*
X46211526Y42711526D01*
X46273347Y42660790D01*
X46343879Y42623090D01*
X46420410Y42599875D01*
X46500000Y42592036D01*
X46519940Y42594000D01*
X49480060Y42594000D01*
X49500000Y42592036D01*
X49579590Y42599875D01*
X49656121Y42623090D01*
X49726653Y42660790D01*
X49788474Y42711526D01*
X49839210Y42773347D01*
X49876910Y42843879D01*
X49900125Y42920410D01*
X49906000Y42980059D01*
X49906000Y42980060D01*
X49907964Y43000000D01*
X49906000Y43019941D01*
X49906000Y56980059D01*
X49907964Y57000000D01*
X49900125Y57079590D01*
X49876910Y57156121D01*
X49839210Y57226653D01*
X49788474Y57288474D01*
X49726653Y57339210D01*
X49656121Y57376910D01*
X49579590Y57400125D01*
X49519941Y57406000D01*
X49519940Y57406000D01*
X49500000Y57407964D01*
X49480059Y57406000D01*
X46519941Y57406000D01*
X46500000Y57407964D01*
X46480060Y57406000D01*
X46480059Y57406000D01*
X46420410Y57400125D01*
X46343879Y57376910D01*
X46273347Y57339210D01*
X46211526Y57288474D01*
X46160790Y57226653D01*
X46123090Y57156121D01*
X46099875Y57079590D01*
X46092036Y57000000D01*
X43907964Y57000000D01*
X43900125Y57079590D01*
X43876910Y57156121D01*
X43839210Y57226653D01*
X43788474Y57288474D01*
X43726653Y57339210D01*
X43656121Y57376910D01*
X43579590Y57400125D01*
X43519941Y57406000D01*
X43519940Y57406000D01*
X43500000Y57407964D01*
X43480059Y57406000D01*
X40519941Y57406000D01*
X40500000Y57407964D01*
X40480060Y57406000D01*
X40480059Y57406000D01*
X40420410Y57400125D01*
X40343879Y57376910D01*
X40273347Y57339210D01*
X40211526Y57288474D01*
X40160790Y57226653D01*
X40123090Y57156121D01*
X40099875Y57079590D01*
X40092036Y57000000D01*
X37907964Y57000000D01*
X37900125Y57079590D01*
X37876910Y57156121D01*
X37839210Y57226653D01*
X37788474Y57288474D01*
X37726653Y57339210D01*
X37656121Y57376910D01*
X37579590Y57400125D01*
X37519941Y57406000D01*
X37519940Y57406000D01*
X37500000Y57407964D01*
X37480059Y57406000D01*
X34519941Y57406000D01*
X34500000Y57407964D01*
X34480060Y57406000D01*
X34480059Y57406000D01*
X34420410Y57400125D01*
X34343879Y57376910D01*
X34273347Y57339210D01*
X34211526Y57288474D01*
X34160790Y57226653D01*
X34123090Y57156121D01*
X34099875Y57079590D01*
X34092036Y57000000D01*
X31907964Y57000000D01*
X31900125Y57079590D01*
X31876910Y57156121D01*
X31839210Y57226653D01*
X31788474Y57288474D01*
X31726653Y57339210D01*
X31656121Y57376910D01*
X31579590Y57400125D01*
X31519941Y57406000D01*
X31519940Y57406000D01*
X31500000Y57407964D01*
X31480059Y57406000D01*
X28519941Y57406000D01*
X28500000Y57407964D01*
X28480060Y57406000D01*
X28480059Y57406000D01*
X28420410Y57400125D01*
X28343879Y57376910D01*
X28273347Y57339210D01*
X28211526Y57288474D01*
X28160790Y57226653D01*
X28123090Y57156121D01*
X28099875Y57079590D01*
X28092036Y57000000D01*
X25907964Y57000000D01*
X25900125Y57079590D01*
X25876910Y57156121D01*
X25839210Y57226653D01*
X25788474Y57288474D01*
X25726653Y57339210D01*
X25656121Y57376910D01*
X25579590Y57400125D01*
X25519941Y57406000D01*
X25519940Y57406000D01*
X25500000Y57407964D01*
X25480059Y57406000D01*
X22519941Y57406000D01*
X22500000Y57407964D01*
X22480060Y57406000D01*
X22480059Y57406000D01*
X22420410Y57400125D01*
X22343879Y57376910D01*
X22273347Y57339210D01*
X22211526Y57288474D01*
X22160790Y57226653D01*
X22123090Y57156121D01*
X22099875Y57079590D01*
X22092036Y57000000D01*
X19907964Y57000000D01*
X19900125Y57079590D01*
X19876910Y57156121D01*
X19839210Y57226653D01*
X19788474Y57288474D01*
X19726653Y57339210D01*
X19656121Y57376910D01*
X19579590Y57400125D01*
X19519941Y57406000D01*
X19519940Y57406000D01*
X19500000Y57407964D01*
X19480059Y57406000D01*
X16519941Y57406000D01*
X16500000Y57407964D01*
X16480060Y57406000D01*
X16480059Y57406000D01*
X16420410Y57400125D01*
X16343879Y57376910D01*
X16273347Y57339210D01*
X16211526Y57288474D01*
X16160790Y57226653D01*
X16123090Y57156121D01*
X16099875Y57079590D01*
X16092036Y57000000D01*
X13907964Y57000000D01*
X13900125Y57079590D01*
X13876910Y57156121D01*
X13839210Y57226653D01*
X13788474Y57288474D01*
X13726653Y57339210D01*
X13656121Y57376910D01*
X13579590Y57400125D01*
X13519941Y57406000D01*
X13519940Y57406000D01*
X13500000Y57407964D01*
X13480059Y57406000D01*
X10519941Y57406000D01*
X10500000Y57407964D01*
X10480060Y57406000D01*
X10480059Y57406000D01*
X10420410Y57400125D01*
X10343879Y57376910D01*
X10273347Y57339210D01*
X10211526Y57288474D01*
X10160790Y57226653D01*
X10123090Y57156121D01*
X10099875Y57079590D01*
X10092036Y57000000D01*
X407946Y57000000D01*
X457312Y57503463D01*
X603529Y57987756D01*
X841025Y58434422D01*
X1160755Y58826450D01*
X1550539Y59148907D01*
X1995540Y59389518D01*
X2478796Y59539111D01*
X3001029Y59594000D01*
X56980146Y59594000D01*
X57503463Y59542688D01*
G37*
X57503463Y59542688D02*
X57987756Y59396471D01*
X58434422Y59158975D01*
X58826450Y58839245D01*
X59148907Y58449461D01*
X59389518Y58004460D01*
X59539111Y57521204D01*
X59594001Y56998965D01*
X59594001Y56998872D01*
X59594000Y3019854D01*
X59542688Y2496536D01*
X59396472Y2012244D01*
X59158975Y1565578D01*
X58839245Y1173550D01*
X58449458Y851090D01*
X58004460Y610482D01*
X57521205Y460889D01*
X56998971Y406000D01*
X3019854Y406000D01*
X2496536Y457312D01*
X2012244Y603528D01*
X1565578Y841025D01*
X1173550Y1160755D01*
X851090Y1550542D01*
X610482Y1995540D01*
X460889Y2478795D01*
X406000Y3001029D01*
X406000Y3681413D01*
X33219000Y3681413D01*
X33219000Y3330587D01*
X33287443Y2986502D01*
X33421699Y2662380D01*
X33616607Y2370679D01*
X33864679Y2122607D01*
X34156380Y1927699D01*
X34480502Y1793443D01*
X34824587Y1725000D01*
X35175413Y1725000D01*
X35519498Y1793443D01*
X35843620Y1927699D01*
X36135321Y2122607D01*
X36383393Y2370679D01*
X36578301Y2662380D01*
X36712557Y2986502D01*
X36781000Y3330587D01*
X36781000Y3681413D01*
X36712557Y4025498D01*
X36578301Y4349620D01*
X36383393Y4641321D01*
X36135321Y4889393D01*
X35843620Y5084301D01*
X35519498Y5218557D01*
X35175413Y5287000D01*
X34824587Y5287000D01*
X34480502Y5218557D01*
X34156380Y5084301D01*
X33864679Y4889393D01*
X33616607Y4641321D01*
X33421699Y4349620D01*
X33287443Y4025498D01*
X33219000Y3681413D01*
X406000Y3681413D01*
X406000Y21661243D01*
X3769000Y21661243D01*
X3769000Y21418757D01*
X3816307Y21180931D01*
X3909102Y20956903D01*
X4043820Y20755283D01*
X4215283Y20583820D01*
X4416903Y20449102D01*
X4640931Y20356307D01*
X4878757Y20309000D01*
X5121243Y20309000D01*
X5359069Y20356307D01*
X5583097Y20449102D01*
X5784717Y20583820D01*
X5956180Y20755283D01*
X6090898Y20956903D01*
X6183693Y21180931D01*
X6231000Y21418757D01*
X6231000Y21661243D01*
X6183693Y21899069D01*
X6090898Y22123097D01*
X5956180Y22324717D01*
X5784717Y22496180D01*
X5583097Y22630898D01*
X5359069Y22723693D01*
X5121243Y22771000D01*
X4878757Y22771000D01*
X4640931Y22723693D01*
X4416903Y22630898D01*
X4215283Y22496180D01*
X4043820Y22324717D01*
X3909102Y22123097D01*
X3816307Y21899069D01*
X3769000Y21661243D01*
X406000Y21661243D01*
X406000Y24201243D01*
X3769000Y24201243D01*
X3769000Y23958757D01*
X3816307Y23720931D01*
X3909102Y23496903D01*
X4043820Y23295283D01*
X4215283Y23123820D01*
X4416903Y22989102D01*
X4640931Y22896307D01*
X4878757Y22849000D01*
X5121243Y22849000D01*
X5359069Y22896307D01*
X5583097Y22989102D01*
X5784717Y23123820D01*
X5956180Y23295283D01*
X6090898Y23496903D01*
X6183693Y23720931D01*
X6231000Y23958757D01*
X6231000Y24201243D01*
X6183693Y24439069D01*
X6090898Y24663097D01*
X5956180Y24864717D01*
X5784717Y25036180D01*
X5583097Y25170898D01*
X5359069Y25263693D01*
X5121243Y25311000D01*
X4878757Y25311000D01*
X4640931Y25263693D01*
X4416903Y25170898D01*
X4215283Y25036180D01*
X4043820Y24864717D01*
X3909102Y24663097D01*
X3816307Y24439069D01*
X3769000Y24201243D01*
X406000Y24201243D01*
X406000Y56980146D01*
X407946Y57000000D01*
X10092036Y57000000D01*
X10094001Y56980049D01*
X10094000Y43019941D01*
X10092036Y43000000D01*
X10099875Y42920410D01*
X10123090Y42843879D01*
X10160790Y42773347D01*
X10211526Y42711526D01*
X10273347Y42660790D01*
X10343879Y42623090D01*
X10420410Y42599875D01*
X10500000Y42592036D01*
X10519940Y42594000D01*
X13480060Y42594000D01*
X13500000Y42592036D01*
X13579590Y42599875D01*
X13656121Y42623090D01*
X13726653Y42660790D01*
X13788474Y42711526D01*
X13839210Y42773347D01*
X13876910Y42843879D01*
X13900125Y42920410D01*
X13906000Y42980059D01*
X13906000Y42980060D01*
X13907964Y43000000D01*
X13906000Y43019941D01*
X13906000Y56980059D01*
X13907964Y57000000D01*
X16092036Y57000000D01*
X16094001Y56980049D01*
X16094000Y34019941D01*
X16092036Y34000000D01*
X16099875Y33920410D01*
X16123090Y33843879D01*
X16160790Y33773347D01*
X16211526Y33711526D01*
X16273347Y33660790D01*
X16343879Y33623090D01*
X16420410Y33599875D01*
X16500000Y33592036D01*
X16519940Y33594000D01*
X19480060Y33594000D01*
X19500000Y33592036D01*
X19579590Y33599875D01*
X19656121Y33623090D01*
X19726653Y33660790D01*
X19788474Y33711526D01*
X19839210Y33773347D01*
X19876910Y33843879D01*
X19900125Y33920410D01*
X19906000Y33980059D01*
X19906000Y33980060D01*
X19907964Y34000000D01*
X19906000Y34019941D01*
X19906000Y56980059D01*
X19907964Y57000000D01*
X22092036Y57000000D01*
X22094001Y56980049D01*
X22094000Y34019941D01*
X22092036Y34000000D01*
X22099875Y33920410D01*
X22123090Y33843879D01*
X22160790Y33773347D01*
X22211526Y33711526D01*
X22273347Y33660790D01*
X22343879Y33623090D01*
X22420410Y33599875D01*
X22500000Y33592036D01*
X22519940Y33594000D01*
X25480060Y33594000D01*
X25500000Y33592036D01*
X25579590Y33599875D01*
X25656121Y33623090D01*
X25726653Y33660790D01*
X25788474Y33711526D01*
X25839210Y33773347D01*
X25876910Y33843879D01*
X25900125Y33920410D01*
X25906000Y33980059D01*
X25906000Y33980060D01*
X25907964Y34000000D01*
X25906000Y34019941D01*
X25906000Y56980059D01*
X25907964Y57000000D01*
X28092036Y57000000D01*
X28094001Y56980049D01*
X28094000Y34019941D01*
X28092036Y34000000D01*
X28099875Y33920410D01*
X28123090Y33843879D01*
X28160790Y33773347D01*
X28211526Y33711526D01*
X28273347Y33660790D01*
X28343879Y33623090D01*
X28420410Y33599875D01*
X28500000Y33592036D01*
X28519940Y33594000D01*
X31480060Y33594000D01*
X31500000Y33592036D01*
X31579590Y33599875D01*
X31656121Y33623090D01*
X31726653Y33660790D01*
X31788474Y33711526D01*
X31839210Y33773347D01*
X31876910Y33843879D01*
X31900125Y33920410D01*
X31906000Y33980059D01*
X31906000Y33980060D01*
X31907964Y34000000D01*
X31906000Y34019941D01*
X31906000Y56980059D01*
X31907964Y57000000D01*
X34092036Y57000000D01*
X34094001Y56980049D01*
X34094000Y34019941D01*
X34092036Y34000000D01*
X34099875Y33920410D01*
X34123090Y33843879D01*
X34160790Y33773347D01*
X34211526Y33711526D01*
X34273347Y33660790D01*
X34343879Y33623090D01*
X34420410Y33599875D01*
X34500000Y33592036D01*
X34519940Y33594000D01*
X37480060Y33594000D01*
X37500000Y33592036D01*
X37579590Y33599875D01*
X37656121Y33623090D01*
X37726653Y33660790D01*
X37788474Y33711526D01*
X37839210Y33773347D01*
X37876910Y33843879D01*
X37900125Y33920410D01*
X37906000Y33980059D01*
X37906000Y33980060D01*
X37907964Y34000000D01*
X37906000Y34019941D01*
X37906000Y56980059D01*
X37907964Y57000000D01*
X40092036Y57000000D01*
X40094001Y56980049D01*
X40094000Y34019941D01*
X40092036Y34000000D01*
X40099875Y33920410D01*
X40123090Y33843879D01*
X40160790Y33773347D01*
X40211526Y33711526D01*
X40273347Y33660790D01*
X40343879Y33623090D01*
X40420410Y33599875D01*
X40500000Y33592036D01*
X40519940Y33594000D01*
X43480060Y33594000D01*
X43500000Y33592036D01*
X43579590Y33599875D01*
X43656121Y33623090D01*
X43726653Y33660790D01*
X43788474Y33711526D01*
X43839210Y33773347D01*
X43876910Y33843879D01*
X43900125Y33920410D01*
X43906000Y33980059D01*
X43906000Y33980060D01*
X43907964Y34000000D01*
X43906000Y34019941D01*
X43906000Y41155715D01*
X56299000Y41155715D01*
X56299000Y40844285D01*
X56359757Y40538839D01*
X56478936Y40251116D01*
X56651957Y39992171D01*
X56872171Y39771957D01*
X57131116Y39598936D01*
X57418839Y39479757D01*
X57724285Y39419000D01*
X58035715Y39419000D01*
X58341161Y39479757D01*
X58628884Y39598936D01*
X58887829Y39771957D01*
X59108043Y39992171D01*
X59281064Y40251116D01*
X59400243Y40538839D01*
X59461000Y40844285D01*
X59461000Y41155715D01*
X59400243Y41461161D01*
X59281064Y41748884D01*
X59108043Y42007829D01*
X58887829Y42228043D01*
X58628884Y42401064D01*
X58341161Y42520243D01*
X58035715Y42581000D01*
X57724285Y42581000D01*
X57418839Y42520243D01*
X57131116Y42401064D01*
X56872171Y42228043D01*
X56651957Y42007829D01*
X56478936Y41748884D01*
X56359757Y41461161D01*
X56299000Y41155715D01*
X43906000Y41155715D01*
X43906000Y56980059D01*
X43907964Y57000000D01*
X46092036Y57000000D01*
X46094001Y56980049D01*
X46094000Y43019941D01*
X46092036Y43000000D01*
X46099875Y42920410D01*
X46123090Y42843879D01*
X46160790Y42773347D01*
X46211526Y42711526D01*
X46273347Y42660790D01*
X46343879Y42623090D01*
X46420410Y42599875D01*
X46500000Y42592036D01*
X46519940Y42594000D01*
X49480060Y42594000D01*
X49500000Y42592036D01*
X49579590Y42599875D01*
X49656121Y42623090D01*
X49726653Y42660790D01*
X49788474Y42711526D01*
X49839210Y42773347D01*
X49876910Y42843879D01*
X49900125Y42920410D01*
X49906000Y42980059D01*
X49906000Y42980060D01*
X49907964Y43000000D01*
X49906000Y43019941D01*
X49906000Y56980059D01*
X49907964Y57000000D01*
X49900125Y57079590D01*
X49876910Y57156121D01*
X49839210Y57226653D01*
X49788474Y57288474D01*
X49726653Y57339210D01*
X49656121Y57376910D01*
X49579590Y57400125D01*
X49519941Y57406000D01*
X49519940Y57406000D01*
X49500000Y57407964D01*
X49480059Y57406000D01*
X46519941Y57406000D01*
X46500000Y57407964D01*
X46480060Y57406000D01*
X46480059Y57406000D01*
X46420410Y57400125D01*
X46343879Y57376910D01*
X46273347Y57339210D01*
X46211526Y57288474D01*
X46160790Y57226653D01*
X46123090Y57156121D01*
X46099875Y57079590D01*
X46092036Y57000000D01*
X43907964Y57000000D01*
X43900125Y57079590D01*
X43876910Y57156121D01*
X43839210Y57226653D01*
X43788474Y57288474D01*
X43726653Y57339210D01*
X43656121Y57376910D01*
X43579590Y57400125D01*
X43519941Y57406000D01*
X43519940Y57406000D01*
X43500000Y57407964D01*
X43480059Y57406000D01*
X40519941Y57406000D01*
X40500000Y57407964D01*
X40480060Y57406000D01*
X40480059Y57406000D01*
X40420410Y57400125D01*
X40343879Y57376910D01*
X40273347Y57339210D01*
X40211526Y57288474D01*
X40160790Y57226653D01*
X40123090Y57156121D01*
X40099875Y57079590D01*
X40092036Y57000000D01*
X37907964Y57000000D01*
X37900125Y57079590D01*
X37876910Y57156121D01*
X37839210Y57226653D01*
X37788474Y57288474D01*
X37726653Y57339210D01*
X37656121Y57376910D01*
X37579590Y57400125D01*
X37519941Y57406000D01*
X37519940Y57406000D01*
X37500000Y57407964D01*
X37480059Y57406000D01*
X34519941Y57406000D01*
X34500000Y57407964D01*
X34480060Y57406000D01*
X34480059Y57406000D01*
X34420410Y57400125D01*
X34343879Y57376910D01*
X34273347Y57339210D01*
X34211526Y57288474D01*
X34160790Y57226653D01*
X34123090Y57156121D01*
X34099875Y57079590D01*
X34092036Y57000000D01*
X31907964Y57000000D01*
X31900125Y57079590D01*
X31876910Y57156121D01*
X31839210Y57226653D01*
X31788474Y57288474D01*
X31726653Y57339210D01*
X31656121Y57376910D01*
X31579590Y57400125D01*
X31519941Y57406000D01*
X31519940Y57406000D01*
X31500000Y57407964D01*
X31480059Y57406000D01*
X28519941Y57406000D01*
X28500000Y57407964D01*
X28480060Y57406000D01*
X28480059Y57406000D01*
X28420410Y57400125D01*
X28343879Y57376910D01*
X28273347Y57339210D01*
X28211526Y57288474D01*
X28160790Y57226653D01*
X28123090Y57156121D01*
X28099875Y57079590D01*
X28092036Y57000000D01*
X25907964Y57000000D01*
X25900125Y57079590D01*
X25876910Y57156121D01*
X25839210Y57226653D01*
X25788474Y57288474D01*
X25726653Y57339210D01*
X25656121Y57376910D01*
X25579590Y57400125D01*
X25519941Y57406000D01*
X25519940Y57406000D01*
X25500000Y57407964D01*
X25480059Y57406000D01*
X22519941Y57406000D01*
X22500000Y57407964D01*
X22480060Y57406000D01*
X22480059Y57406000D01*
X22420410Y57400125D01*
X22343879Y57376910D01*
X22273347Y57339210D01*
X22211526Y57288474D01*
X22160790Y57226653D01*
X22123090Y57156121D01*
X22099875Y57079590D01*
X22092036Y57000000D01*
X19907964Y57000000D01*
X19900125Y57079590D01*
X19876910Y57156121D01*
X19839210Y57226653D01*
X19788474Y57288474D01*
X19726653Y57339210D01*
X19656121Y57376910D01*
X19579590Y57400125D01*
X19519941Y57406000D01*
X19519940Y57406000D01*
X19500000Y57407964D01*
X19480059Y57406000D01*
X16519941Y57406000D01*
X16500000Y57407964D01*
X16480060Y57406000D01*
X16480059Y57406000D01*
X16420410Y57400125D01*
X16343879Y57376910D01*
X16273347Y57339210D01*
X16211526Y57288474D01*
X16160790Y57226653D01*
X16123090Y57156121D01*
X16099875Y57079590D01*
X16092036Y57000000D01*
X13907964Y57000000D01*
X13900125Y57079590D01*
X13876910Y57156121D01*
X13839210Y57226653D01*
X13788474Y57288474D01*
X13726653Y57339210D01*
X13656121Y57376910D01*
X13579590Y57400125D01*
X13519941Y57406000D01*
X13519940Y57406000D01*
X13500000Y57407964D01*
X13480059Y57406000D01*
X10519941Y57406000D01*
X10500000Y57407964D01*
X10480060Y57406000D01*
X10480059Y57406000D01*
X10420410Y57400125D01*
X10343879Y57376910D01*
X10273347Y57339210D01*
X10211526Y57288474D01*
X10160790Y57226653D01*
X10123090Y57156121D01*
X10099875Y57079590D01*
X10092036Y57000000D01*
X407946Y57000000D01*
X457312Y57503463D01*
X603529Y57987756D01*
X841025Y58434422D01*
X1160755Y58826450D01*
X1550539Y59148907D01*
X1995540Y59389518D01*
X2478796Y59539111D01*
X3001029Y59594000D01*
X56980146Y59594000D01*
X57503463Y59542688D01*
%TD*%
D19*
X40259000Y29845000D03*
X40259000Y28956000D03*
X40259000Y27051000D03*
X41402000Y28575000D03*
X41402000Y29591000D03*
X40259000Y27940000D03*
X41402000Y27559000D03*
X27686000Y11811000D03*
X26797000Y11811000D03*
X24003000Y10795000D03*
X24003000Y9906000D03*
X15875000Y10668000D03*
X15875000Y9525000D03*
X33528000Y10922000D03*
X33528000Y9652000D03*
X32131000Y10922000D03*
X32131000Y9652000D03*
X46990000Y22860000D03*
X46990000Y21590000D03*
X46990000Y20320000D03*
X46990000Y19050000D03*
X45720000Y19050000D03*
X45720000Y20320000D03*
X45720000Y21590000D03*
X45720000Y22860000D03*
X58420000Y22860000D03*
X58420000Y21590000D03*
X58420000Y20320000D03*
X58420000Y19050000D03*
X32004000Y19304000D03*
X32004000Y18288000D03*
X33528000Y18288000D03*
X33528000Y19304000D03*
X17780000Y21336000D03*
X17780000Y20320000D03*
X17780000Y19304000D03*
X16256000Y13716000D03*
X16256000Y12700000D03*
X58420000Y17780000D03*
X58420000Y16510000D03*
X58420000Y15240000D03*
X26797000Y24130000D03*
X25654000Y24130000D03*
X35000000Y3506000D03*
X25000000Y3506000D03*
X2000000Y41000000D03*
X57880000Y41000000D03*
X5000000Y19000000D03*
X5000000Y21540000D03*
X5000000Y24080000D03*
X5000000Y55000000D03*
X7400000Y55000000D03*
X6697056Y53302944D03*
X5000000Y52600000D03*
X3302944Y53302944D03*
X2600000Y55000000D03*
X3302944Y56697056D03*
X5000000Y57400000D03*
X6697056Y56697056D03*
X55000000Y55000000D03*
X57400000Y55000000D03*
X56697056Y53302944D03*
X55000000Y52600000D03*
X53302944Y53302944D03*
X52600000Y55000000D03*
X53302944Y56697056D03*
X55000000Y57400000D03*
X56697056Y56697056D03*
X5000000Y5000000D03*
X7400000Y5000000D03*
X6697056Y3302944D03*
X5000000Y2600000D03*
X3302944Y3302944D03*
X2600000Y5000000D03*
X3302944Y6697056D03*
X5000000Y7400000D03*
X6697056Y6697056D03*
X55000000Y5000000D03*
X57400000Y5000000D03*
X56697056Y3302944D03*
X55000000Y2600000D03*
X53302944Y3302944D03*
X52600000Y5000000D03*
X53302944Y6697056D03*
X55000000Y7400000D03*
X56697056Y6697056D03*
M02*
