%TF.GenerationSoftware,KiCad,Pcbnew,(5.1.6)-1*%
%TF.CreationDate,2022-02-05T23:25:30+08:00*%
%TF.ProjectId,brake_board,6272616b-655f-4626-9f61-72642e6b6963,rev?*%
%TF.SameCoordinates,Original*%
%TF.FileFunction,Paste,Top*%
%TF.FilePolarity,Positive*%
%FSLAX46Y46*%
G04 Gerber Fmt 4.6, Leading zero omitted, Abs format (unit mm)*
G04 Created by KiCad (PCBNEW (5.1.6)-1) date 2022-02-05 23:25:30*
%MOMM*%
%LPD*%
G01*
G04 APERTURE LIST*
%ADD10R,1.100000X0.750000*%
%ADD11R,2.450000X5.900000*%
%ADD12R,0.900000X1.200000*%
%ADD13R,2.500000X1.800000*%
G04 APERTURE END LIST*
%TO.C,R8*%
G36*
G01*
X23654800Y27716700D02*
X23654800Y28061700D01*
G75*
G02*
X23802300Y28209200I147500J0D01*
G01*
X24097300Y28209200D01*
G75*
G02*
X24244800Y28061700I0J-147500D01*
G01*
X24244800Y27716700D01*
G75*
G02*
X24097300Y27569200I-147500J0D01*
G01*
X23802300Y27569200D01*
G75*
G02*
X23654800Y27716700I0J147500D01*
G01*
G37*
G36*
G01*
X24624800Y27716700D02*
X24624800Y28061700D01*
G75*
G02*
X24772300Y28209200I147500J0D01*
G01*
X25067300Y28209200D01*
G75*
G02*
X25214800Y28061700I0J-147500D01*
G01*
X25214800Y27716700D01*
G75*
G02*
X25067300Y27569200I-147500J0D01*
G01*
X24772300Y27569200D01*
G75*
G02*
X24624800Y27716700I0J147500D01*
G01*
G37*
%TD*%
%TO.C,U2*%
G36*
G01*
X26282000Y29072000D02*
X26282000Y29372000D01*
G75*
G02*
X26432000Y29522000I150000J0D01*
G01*
X28082000Y29522000D01*
G75*
G02*
X28232000Y29372000I0J-150000D01*
G01*
X28232000Y29072000D01*
G75*
G02*
X28082000Y28922000I-150000J0D01*
G01*
X26432000Y28922000D01*
G75*
G02*
X26282000Y29072000I0J150000D01*
G01*
G37*
G36*
G01*
X26282000Y27802000D02*
X26282000Y28102000D01*
G75*
G02*
X26432000Y28252000I150000J0D01*
G01*
X28082000Y28252000D01*
G75*
G02*
X28232000Y28102000I0J-150000D01*
G01*
X28232000Y27802000D01*
G75*
G02*
X28082000Y27652000I-150000J0D01*
G01*
X26432000Y27652000D01*
G75*
G02*
X26282000Y27802000I0J150000D01*
G01*
G37*
G36*
G01*
X26282000Y26532000D02*
X26282000Y26832000D01*
G75*
G02*
X26432000Y26982000I150000J0D01*
G01*
X28082000Y26982000D01*
G75*
G02*
X28232000Y26832000I0J-150000D01*
G01*
X28232000Y26532000D01*
G75*
G02*
X28082000Y26382000I-150000J0D01*
G01*
X26432000Y26382000D01*
G75*
G02*
X26282000Y26532000I0J150000D01*
G01*
G37*
G36*
G01*
X26282000Y25262000D02*
X26282000Y25562000D01*
G75*
G02*
X26432000Y25712000I150000J0D01*
G01*
X28082000Y25712000D01*
G75*
G02*
X28232000Y25562000I0J-150000D01*
G01*
X28232000Y25262000D01*
G75*
G02*
X28082000Y25112000I-150000J0D01*
G01*
X26432000Y25112000D01*
G75*
G02*
X26282000Y25262000I0J150000D01*
G01*
G37*
G36*
G01*
X31232000Y25262000D02*
X31232000Y25562000D01*
G75*
G02*
X31382000Y25712000I150000J0D01*
G01*
X33032000Y25712000D01*
G75*
G02*
X33182000Y25562000I0J-150000D01*
G01*
X33182000Y25262000D01*
G75*
G02*
X33032000Y25112000I-150000J0D01*
G01*
X31382000Y25112000D01*
G75*
G02*
X31232000Y25262000I0J150000D01*
G01*
G37*
G36*
G01*
X31232000Y26532000D02*
X31232000Y26832000D01*
G75*
G02*
X31382000Y26982000I150000J0D01*
G01*
X33032000Y26982000D01*
G75*
G02*
X33182000Y26832000I0J-150000D01*
G01*
X33182000Y26532000D01*
G75*
G02*
X33032000Y26382000I-150000J0D01*
G01*
X31382000Y26382000D01*
G75*
G02*
X31232000Y26532000I0J150000D01*
G01*
G37*
G36*
G01*
X31232000Y27802000D02*
X31232000Y28102000D01*
G75*
G02*
X31382000Y28252000I150000J0D01*
G01*
X33032000Y28252000D01*
G75*
G02*
X33182000Y28102000I0J-150000D01*
G01*
X33182000Y27802000D01*
G75*
G02*
X33032000Y27652000I-150000J0D01*
G01*
X31382000Y27652000D01*
G75*
G02*
X31232000Y27802000I0J150000D01*
G01*
G37*
G36*
G01*
X31232000Y29072000D02*
X31232000Y29372000D01*
G75*
G02*
X31382000Y29522000I150000J0D01*
G01*
X33032000Y29522000D01*
G75*
G02*
X33182000Y29372000I0J-150000D01*
G01*
X33182000Y29072000D01*
G75*
G02*
X33032000Y28922000I-150000J0D01*
G01*
X31382000Y28922000D01*
G75*
G02*
X31232000Y29072000I0J150000D01*
G01*
G37*
%TD*%
%TO.C,U1*%
G36*
G01*
X26409000Y16374000D02*
X26409000Y16674000D01*
G75*
G02*
X26559000Y16824000I150000J0D01*
G01*
X28209000Y16824000D01*
G75*
G02*
X28359000Y16674000I0J-150000D01*
G01*
X28359000Y16374000D01*
G75*
G02*
X28209000Y16224000I-150000J0D01*
G01*
X26559000Y16224000D01*
G75*
G02*
X26409000Y16374000I0J150000D01*
G01*
G37*
G36*
G01*
X26409000Y15104000D02*
X26409000Y15404000D01*
G75*
G02*
X26559000Y15554000I150000J0D01*
G01*
X28209000Y15554000D01*
G75*
G02*
X28359000Y15404000I0J-150000D01*
G01*
X28359000Y15104000D01*
G75*
G02*
X28209000Y14954000I-150000J0D01*
G01*
X26559000Y14954000D01*
G75*
G02*
X26409000Y15104000I0J150000D01*
G01*
G37*
G36*
G01*
X26409000Y13834000D02*
X26409000Y14134000D01*
G75*
G02*
X26559000Y14284000I150000J0D01*
G01*
X28209000Y14284000D01*
G75*
G02*
X28359000Y14134000I0J-150000D01*
G01*
X28359000Y13834000D01*
G75*
G02*
X28209000Y13684000I-150000J0D01*
G01*
X26559000Y13684000D01*
G75*
G02*
X26409000Y13834000I0J150000D01*
G01*
G37*
G36*
G01*
X26409000Y12564000D02*
X26409000Y12864000D01*
G75*
G02*
X26559000Y13014000I150000J0D01*
G01*
X28209000Y13014000D01*
G75*
G02*
X28359000Y12864000I0J-150000D01*
G01*
X28359000Y12564000D01*
G75*
G02*
X28209000Y12414000I-150000J0D01*
G01*
X26559000Y12414000D01*
G75*
G02*
X26409000Y12564000I0J150000D01*
G01*
G37*
G36*
G01*
X31359000Y12564000D02*
X31359000Y12864000D01*
G75*
G02*
X31509000Y13014000I150000J0D01*
G01*
X33159000Y13014000D01*
G75*
G02*
X33309000Y12864000I0J-150000D01*
G01*
X33309000Y12564000D01*
G75*
G02*
X33159000Y12414000I-150000J0D01*
G01*
X31509000Y12414000D01*
G75*
G02*
X31359000Y12564000I0J150000D01*
G01*
G37*
G36*
G01*
X31359000Y13834000D02*
X31359000Y14134000D01*
G75*
G02*
X31509000Y14284000I150000J0D01*
G01*
X33159000Y14284000D01*
G75*
G02*
X33309000Y14134000I0J-150000D01*
G01*
X33309000Y13834000D01*
G75*
G02*
X33159000Y13684000I-150000J0D01*
G01*
X31509000Y13684000D01*
G75*
G02*
X31359000Y13834000I0J150000D01*
G01*
G37*
G36*
G01*
X31359000Y15104000D02*
X31359000Y15404000D01*
G75*
G02*
X31509000Y15554000I150000J0D01*
G01*
X33159000Y15554000D01*
G75*
G02*
X33309000Y15404000I0J-150000D01*
G01*
X33309000Y15104000D01*
G75*
G02*
X33159000Y14954000I-150000J0D01*
G01*
X31509000Y14954000D01*
G75*
G02*
X31359000Y15104000I0J150000D01*
G01*
G37*
G36*
G01*
X31359000Y16374000D02*
X31359000Y16674000D01*
G75*
G02*
X31509000Y16824000I150000J0D01*
G01*
X33159000Y16824000D01*
G75*
G02*
X33309000Y16674000I0J-150000D01*
G01*
X33309000Y16374000D01*
G75*
G02*
X33159000Y16224000I-150000J0D01*
G01*
X31509000Y16224000D01*
G75*
G02*
X31359000Y16374000I0J150000D01*
G01*
G37*
%TD*%
%TO.C,R7*%
G36*
G01*
X53635000Y31999500D02*
X53635000Y31654500D01*
G75*
G02*
X53487500Y31507000I-147500J0D01*
G01*
X53192500Y31507000D01*
G75*
G02*
X53045000Y31654500I0J147500D01*
G01*
X53045000Y31999500D01*
G75*
G02*
X53192500Y32147000I147500J0D01*
G01*
X53487500Y32147000D01*
G75*
G02*
X53635000Y31999500I0J-147500D01*
G01*
G37*
G36*
G01*
X52665000Y31999500D02*
X52665000Y31654500D01*
G75*
G02*
X52517500Y31507000I-147500J0D01*
G01*
X52222500Y31507000D01*
G75*
G02*
X52075000Y31654500I0J147500D01*
G01*
X52075000Y31999500D01*
G75*
G02*
X52222500Y32147000I147500J0D01*
G01*
X52517500Y32147000D01*
G75*
G02*
X52665000Y31999500I0J-147500D01*
G01*
G37*
%TD*%
%TO.C,R5*%
G36*
G01*
X35483000Y25953500D02*
X35483000Y25608500D01*
G75*
G02*
X35335500Y25461000I-147500J0D01*
G01*
X35040500Y25461000D01*
G75*
G02*
X34893000Y25608500I0J147500D01*
G01*
X34893000Y25953500D01*
G75*
G02*
X35040500Y26101000I147500J0D01*
G01*
X35335500Y26101000D01*
G75*
G02*
X35483000Y25953500I0J-147500D01*
G01*
G37*
G36*
G01*
X34513000Y25953500D02*
X34513000Y25608500D01*
G75*
G02*
X34365500Y25461000I-147500J0D01*
G01*
X34070500Y25461000D01*
G75*
G02*
X33923000Y25608500I0J147500D01*
G01*
X33923000Y25953500D01*
G75*
G02*
X34070500Y26101000I147500J0D01*
G01*
X34365500Y26101000D01*
G75*
G02*
X34513000Y25953500I0J-147500D01*
G01*
G37*
%TD*%
%TO.C,R4*%
G36*
G01*
X35483000Y24937500D02*
X35483000Y24592500D01*
G75*
G02*
X35335500Y24445000I-147500J0D01*
G01*
X35040500Y24445000D01*
G75*
G02*
X34893000Y24592500I0J147500D01*
G01*
X34893000Y24937500D01*
G75*
G02*
X35040500Y25085000I147500J0D01*
G01*
X35335500Y25085000D01*
G75*
G02*
X35483000Y24937500I0J-147500D01*
G01*
G37*
G36*
G01*
X34513000Y24937500D02*
X34513000Y24592500D01*
G75*
G02*
X34365500Y24445000I-147500J0D01*
G01*
X34070500Y24445000D01*
G75*
G02*
X33923000Y24592500I0J147500D01*
G01*
X33923000Y24937500D01*
G75*
G02*
X34070500Y25085000I147500J0D01*
G01*
X34365500Y25085000D01*
G75*
G02*
X34513000Y24937500I0J-147500D01*
G01*
G37*
%TD*%
%TO.C,R3*%
G36*
G01*
X23636000Y26304500D02*
X23636000Y26649500D01*
G75*
G02*
X23783500Y26797000I147500J0D01*
G01*
X24078500Y26797000D01*
G75*
G02*
X24226000Y26649500I0J-147500D01*
G01*
X24226000Y26304500D01*
G75*
G02*
X24078500Y26157000I-147500J0D01*
G01*
X23783500Y26157000D01*
G75*
G02*
X23636000Y26304500I0J147500D01*
G01*
G37*
G36*
G01*
X24606000Y26304500D02*
X24606000Y26649500D01*
G75*
G02*
X24753500Y26797000I147500J0D01*
G01*
X25048500Y26797000D01*
G75*
G02*
X25196000Y26649500I0J-147500D01*
G01*
X25196000Y26304500D01*
G75*
G02*
X25048500Y26157000I-147500J0D01*
G01*
X24753500Y26157000D01*
G75*
G02*
X24606000Y26304500I0J147500D01*
G01*
G37*
%TD*%
%TO.C,R2*%
G36*
G01*
X26398000Y9987500D02*
X26398000Y10332500D01*
G75*
G02*
X26545500Y10480000I147500J0D01*
G01*
X26840500Y10480000D01*
G75*
G02*
X26988000Y10332500I0J-147500D01*
G01*
X26988000Y9987500D01*
G75*
G02*
X26840500Y9840000I-147500J0D01*
G01*
X26545500Y9840000D01*
G75*
G02*
X26398000Y9987500I0J147500D01*
G01*
G37*
G36*
G01*
X27368000Y9987500D02*
X27368000Y10332500D01*
G75*
G02*
X27515500Y10480000I147500J0D01*
G01*
X27810500Y10480000D01*
G75*
G02*
X27958000Y10332500I0J-147500D01*
G01*
X27958000Y9987500D01*
G75*
G02*
X27810500Y9840000I-147500J0D01*
G01*
X27515500Y9840000D01*
G75*
G02*
X27368000Y9987500I0J147500D01*
G01*
G37*
%TD*%
%TO.C,R1*%
G36*
G01*
X28557000Y9987500D02*
X28557000Y10332500D01*
G75*
G02*
X28704500Y10480000I147500J0D01*
G01*
X28999500Y10480000D01*
G75*
G02*
X29147000Y10332500I0J-147500D01*
G01*
X29147000Y9987500D01*
G75*
G02*
X28999500Y9840000I-147500J0D01*
G01*
X28704500Y9840000D01*
G75*
G02*
X28557000Y9987500I0J147500D01*
G01*
G37*
G36*
G01*
X29527000Y9987500D02*
X29527000Y10332500D01*
G75*
G02*
X29674500Y10480000I147500J0D01*
G01*
X29969500Y10480000D01*
G75*
G02*
X30117000Y10332500I0J-147500D01*
G01*
X30117000Y9987500D01*
G75*
G02*
X29969500Y9840000I-147500J0D01*
G01*
X29674500Y9840000D01*
G75*
G02*
X29527000Y9987500I0J147500D01*
G01*
G37*
%TD*%
D10*
%TO.C,Q2*%
X48696000Y29524000D03*
X48696000Y25714000D03*
X42896000Y25714000D03*
X42896000Y26984000D03*
X42896000Y28254000D03*
X42896000Y29524000D03*
X48696000Y28254000D03*
X48696000Y26984000D03*
%TD*%
%TO.C,Q1*%
X56696000Y29524000D03*
X56696000Y25714000D03*
X50896000Y25714000D03*
X50896000Y26984000D03*
X50896000Y28254000D03*
X50896000Y29524000D03*
X56696000Y28254000D03*
X56696000Y26984000D03*
%TD*%
D11*
%TO.C,L1*%
X24397000Y14809000D03*
X18847000Y14809000D03*
%TD*%
%TO.C,D3*%
G36*
G01*
X57051000Y32039500D02*
X57051000Y31614500D01*
G75*
G02*
X56838500Y31402000I-212500J0D01*
G01*
X56038500Y31402000D01*
G75*
G02*
X55826000Y31614500I0J212500D01*
G01*
X55826000Y32039500D01*
G75*
G02*
X56038500Y32252000I212500J0D01*
G01*
X56838500Y32252000D01*
G75*
G02*
X57051000Y32039500I0J-212500D01*
G01*
G37*
G36*
G01*
X55426000Y32039500D02*
X55426000Y31614500D01*
G75*
G02*
X55213500Y31402000I-212500J0D01*
G01*
X54413500Y31402000D01*
G75*
G02*
X54201000Y31614500I0J212500D01*
G01*
X54201000Y32039500D01*
G75*
G02*
X54413500Y32252000I212500J0D01*
G01*
X55213500Y32252000D01*
G75*
G02*
X55426000Y32039500I0J-212500D01*
G01*
G37*
%TD*%
D12*
%TO.C,D2*%
X31400000Y31303000D03*
X28100000Y31303000D03*
%TD*%
D13*
%TO.C,D1*%
X24130000Y20016000D03*
X20130000Y20016000D03*
%TD*%
%TO.C,C9*%
G36*
G01*
X57016000Y20768000D02*
X57016000Y19518000D01*
G75*
G02*
X56766000Y19268000I-250000J0D01*
G01*
X56016000Y19268000D01*
G75*
G02*
X55766000Y19518000I0J250000D01*
G01*
X55766000Y20768000D01*
G75*
G02*
X56016000Y21018000I250000J0D01*
G01*
X56766000Y21018000D01*
G75*
G02*
X57016000Y20768000I0J-250000D01*
G01*
G37*
G36*
G01*
X54216000Y20768000D02*
X54216000Y19518000D01*
G75*
G02*
X53966000Y19268000I-250000J0D01*
G01*
X53216000Y19268000D01*
G75*
G02*
X52966000Y19518000I0J250000D01*
G01*
X52966000Y20768000D01*
G75*
G02*
X53216000Y21018000I250000J0D01*
G01*
X53966000Y21018000D01*
G75*
G02*
X54216000Y20768000I0J-250000D01*
G01*
G37*
%TD*%
%TO.C,C8*%
G36*
G01*
X48267000Y21931000D02*
X48267000Y23181000D01*
G75*
G02*
X48517000Y23431000I250000J0D01*
G01*
X49267000Y23431000D01*
G75*
G02*
X49517000Y23181000I0J-250000D01*
G01*
X49517000Y21931000D01*
G75*
G02*
X49267000Y21681000I-250000J0D01*
G01*
X48517000Y21681000D01*
G75*
G02*
X48267000Y21931000I0J250000D01*
G01*
G37*
G36*
G01*
X51067000Y21931000D02*
X51067000Y23181000D01*
G75*
G02*
X51317000Y23431000I250000J0D01*
G01*
X52067000Y23431000D01*
G75*
G02*
X52317000Y23181000I0J-250000D01*
G01*
X52317000Y21931000D01*
G75*
G02*
X52067000Y21681000I-250000J0D01*
G01*
X51317000Y21681000D01*
G75*
G02*
X51067000Y21931000I0J250000D01*
G01*
G37*
%TD*%
%TO.C,C7*%
G36*
G01*
X34192750Y29353000D02*
X34705250Y29353000D01*
G75*
G02*
X34924000Y29134250I0J-218750D01*
G01*
X34924000Y28696750D01*
G75*
G02*
X34705250Y28478000I-218750J0D01*
G01*
X34192750Y28478000D01*
G75*
G02*
X33974000Y28696750I0J218750D01*
G01*
X33974000Y29134250D01*
G75*
G02*
X34192750Y29353000I218750J0D01*
G01*
G37*
G36*
G01*
X34192750Y27778000D02*
X34705250Y27778000D01*
G75*
G02*
X34924000Y27559250I0J-218750D01*
G01*
X34924000Y27121750D01*
G75*
G02*
X34705250Y26903000I-218750J0D01*
G01*
X34192750Y26903000D01*
G75*
G02*
X33974000Y27121750I0J218750D01*
G01*
X33974000Y27559250D01*
G75*
G02*
X34192750Y27778000I218750J0D01*
G01*
G37*
%TD*%
%TO.C,C6*%
G36*
G01*
X25196000Y29443500D02*
X25196000Y29098500D01*
G75*
G02*
X25048500Y28951000I-147500J0D01*
G01*
X24753500Y28951000D01*
G75*
G02*
X24606000Y29098500I0J147500D01*
G01*
X24606000Y29443500D01*
G75*
G02*
X24753500Y29591000I147500J0D01*
G01*
X25048500Y29591000D01*
G75*
G02*
X25196000Y29443500I0J-147500D01*
G01*
G37*
G36*
G01*
X24226000Y29443500D02*
X24226000Y29098500D01*
G75*
G02*
X24078500Y28951000I-147500J0D01*
G01*
X23783500Y28951000D01*
G75*
G02*
X23636000Y29098500I0J147500D01*
G01*
X23636000Y29443500D01*
G75*
G02*
X23783500Y29591000I147500J0D01*
G01*
X24078500Y29591000D01*
G75*
G02*
X24226000Y29443500I0J-147500D01*
G01*
G37*
%TD*%
%TO.C,C5*%
G36*
G01*
X25552000Y10862000D02*
X25552000Y9612000D01*
G75*
G02*
X25302000Y9362000I-250000J0D01*
G01*
X24552000Y9362000D01*
G75*
G02*
X24302000Y9612000I0J250000D01*
G01*
X24302000Y10862000D01*
G75*
G02*
X24552000Y11112000I250000J0D01*
G01*
X25302000Y11112000D01*
G75*
G02*
X25552000Y10862000I0J-250000D01*
G01*
G37*
G36*
G01*
X22752000Y10862000D02*
X22752000Y9612000D01*
G75*
G02*
X22502000Y9362000I-250000J0D01*
G01*
X21752000Y9362000D01*
G75*
G02*
X21502000Y9612000I0J250000D01*
G01*
X21502000Y10862000D01*
G75*
G02*
X21752000Y11112000I250000J0D01*
G01*
X22502000Y11112000D01*
G75*
G02*
X22752000Y10862000I0J-250000D01*
G01*
G37*
%TD*%
%TO.C,C4*%
G36*
G01*
X16676000Y9612000D02*
X16676000Y10862000D01*
G75*
G02*
X16926000Y11112000I250000J0D01*
G01*
X17676000Y11112000D01*
G75*
G02*
X17926000Y10862000I0J-250000D01*
G01*
X17926000Y9612000D01*
G75*
G02*
X17676000Y9362000I-250000J0D01*
G01*
X16926000Y9362000D01*
G75*
G02*
X16676000Y9612000I0J250000D01*
G01*
G37*
G36*
G01*
X19476000Y9612000D02*
X19476000Y10862000D01*
G75*
G02*
X19726000Y11112000I250000J0D01*
G01*
X20476000Y11112000D01*
G75*
G02*
X20726000Y10862000I0J-250000D01*
G01*
X20726000Y9612000D01*
G75*
G02*
X20476000Y9362000I-250000J0D01*
G01*
X19726000Y9362000D01*
G75*
G02*
X19476000Y9612000I0J250000D01*
G01*
G37*
%TD*%
%TO.C,C3*%
G36*
G01*
X57016000Y23181000D02*
X57016000Y21931000D01*
G75*
G02*
X56766000Y21681000I-250000J0D01*
G01*
X56016000Y21681000D01*
G75*
G02*
X55766000Y21931000I0J250000D01*
G01*
X55766000Y23181000D01*
G75*
G02*
X56016000Y23431000I250000J0D01*
G01*
X56766000Y23431000D01*
G75*
G02*
X57016000Y23181000I0J-250000D01*
G01*
G37*
G36*
G01*
X54216000Y23181000D02*
X54216000Y21931000D01*
G75*
G02*
X53966000Y21681000I-250000J0D01*
G01*
X53216000Y21681000D01*
G75*
G02*
X52966000Y21931000I0J250000D01*
G01*
X52966000Y23181000D01*
G75*
G02*
X53216000Y23431000I250000J0D01*
G01*
X53966000Y23431000D01*
G75*
G02*
X54216000Y23181000I0J-250000D01*
G01*
G37*
%TD*%
%TO.C,C2*%
G36*
G01*
X48267000Y19518000D02*
X48267000Y20768000D01*
G75*
G02*
X48517000Y21018000I250000J0D01*
G01*
X49267000Y21018000D01*
G75*
G02*
X49517000Y20768000I0J-250000D01*
G01*
X49517000Y19518000D01*
G75*
G02*
X49267000Y19268000I-250000J0D01*
G01*
X48517000Y19268000D01*
G75*
G02*
X48267000Y19518000I0J250000D01*
G01*
G37*
G36*
G01*
X51067000Y19518000D02*
X51067000Y20768000D01*
G75*
G02*
X51317000Y21018000I250000J0D01*
G01*
X52067000Y21018000D01*
G75*
G02*
X52317000Y20768000I0J-250000D01*
G01*
X52317000Y19518000D01*
G75*
G02*
X52067000Y19268000I-250000J0D01*
G01*
X51317000Y19268000D01*
G75*
G02*
X51067000Y19518000I0J250000D01*
G01*
G37*
%TD*%
%TO.C,C1*%
G36*
G01*
X30886000Y19244000D02*
X30886000Y17994000D01*
G75*
G02*
X30636000Y17744000I-250000J0D01*
G01*
X29886000Y17744000D01*
G75*
G02*
X29636000Y17994000I0J250000D01*
G01*
X29636000Y19244000D01*
G75*
G02*
X29886000Y19494000I250000J0D01*
G01*
X30636000Y19494000D01*
G75*
G02*
X30886000Y19244000I0J-250000D01*
G01*
G37*
G36*
G01*
X28086000Y19244000D02*
X28086000Y17994000D01*
G75*
G02*
X27836000Y17744000I-250000J0D01*
G01*
X27086000Y17744000D01*
G75*
G02*
X26836000Y17994000I0J250000D01*
G01*
X26836000Y19244000D01*
G75*
G02*
X27086000Y19494000I250000J0D01*
G01*
X27836000Y19494000D01*
G75*
G02*
X28086000Y19244000I0J-250000D01*
G01*
G37*
%TD*%
M02*
