%TF.GenerationSoftware,KiCad,Pcbnew,(5.1.6)-1*%
%TF.CreationDate,2022-02-05T23:25:30+08:00*%
%TF.ProjectId,brake_board,6272616b-655f-4626-9f61-72642e6b6963,rev?*%
%TF.SameCoordinates,Original*%
%TF.FileFunction,Soldermask,Bot*%
%TF.FilePolarity,Negative*%
%FSLAX46Y46*%
G04 Gerber Fmt 4.6, Leading zero omitted, Abs format (unit mm)*
G04 Created by KiCad (PCBNEW (5.1.6)-1) date 2022-02-05 23:25:30*
%MOMM*%
%LPD*%
G01*
G04 APERTURE LIST*
%ADD10C,2.900000*%
%ADD11C,2.500000*%
%ADD12O,2.500000X2.500000*%
%ADD13R,1.800000X1.800000*%
%ADD14O,1.800000X1.800000*%
%ADD15C,6.500000*%
%ADD16C,0.900000*%
G04 APERTURE END LIST*
D10*
%TO.C,POS1*%
X35000000Y3506000D03*
%TD*%
%TO.C,NEG1*%
X25000000Y3506000D03*
%TD*%
D11*
%TO.C,R6*%
X2000000Y41000000D03*
D12*
X57880000Y41000000D03*
%TD*%
D13*
%TO.C,J1*%
X5000000Y19000000D03*
D14*
X5000000Y21540000D03*
X5000000Y24080000D03*
%TD*%
D15*
%TO.C,H4*%
X5000000Y55000000D03*
D16*
X7400000Y55000000D03*
X6697056Y53302944D03*
X5000000Y52600000D03*
X3302944Y53302944D03*
X2600000Y55000000D03*
X3302944Y56697056D03*
X5000000Y57400000D03*
X6697056Y56697056D03*
%TD*%
D15*
%TO.C,H3*%
X55000000Y55000000D03*
D16*
X57400000Y55000000D03*
X56697056Y53302944D03*
X55000000Y52600000D03*
X53302944Y53302944D03*
X52600000Y55000000D03*
X53302944Y56697056D03*
X55000000Y57400000D03*
X56697056Y56697056D03*
%TD*%
D15*
%TO.C,H2*%
X5000000Y5000000D03*
D16*
X7400000Y5000000D03*
X6697056Y3302944D03*
X5000000Y2600000D03*
X3302944Y3302944D03*
X2600000Y5000000D03*
X3302944Y6697056D03*
X5000000Y7400000D03*
X6697056Y6697056D03*
%TD*%
D15*
%TO.C,H1*%
X55000000Y5000000D03*
D16*
X57400000Y5000000D03*
X56697056Y3302944D03*
X55000000Y2600000D03*
X53302944Y3302944D03*
X52600000Y5000000D03*
X53302944Y6697056D03*
X55000000Y7400000D03*
X56697056Y6697056D03*
%TD*%
M02*
