%TF.GenerationSoftware,KiCad,Pcbnew,(5.1.6)-1*%
%TF.CreationDate,2022-02-05T23:25:30+08:00*%
%TF.ProjectId,brake_board,6272616b-655f-4626-9f61-72642e6b6963,rev?*%
%TF.SameCoordinates,Original*%
%TF.FileFunction,Copper,L1,Top*%
%TF.FilePolarity,Positive*%
%FSLAX46Y46*%
G04 Gerber Fmt 4.6, Leading zero omitted, Abs format (unit mm)*
G04 Created by KiCad (PCBNEW (5.1.6)-1) date 2022-02-05 23:25:30*
%MOMM*%
%LPD*%
G01*
G04 APERTURE LIST*
%TA.AperFunction,ComponentPad*%
%ADD10C,2.800000*%
%TD*%
%TA.AperFunction,ComponentPad*%
%ADD11C,2.400000*%
%TD*%
%TA.AperFunction,ComponentPad*%
%ADD12O,2.400000X2.400000*%
%TD*%
%TA.AperFunction,SMDPad,CuDef*%
%ADD13R,0.905000X5.560000*%
%TD*%
%TA.AperFunction,SMDPad,CuDef*%
%ADD14R,3.700000X4.560000*%
%TD*%
%TA.AperFunction,SMDPad,CuDef*%
%ADD15R,1.100000X0.750000*%
%TD*%
%TA.AperFunction,SMDPad,CuDef*%
%ADD16R,2.450000X5.900000*%
%TD*%
%TA.AperFunction,ComponentPad*%
%ADD17R,1.700000X1.700000*%
%TD*%
%TA.AperFunction,ComponentPad*%
%ADD18O,1.700000X1.700000*%
%TD*%
%TA.AperFunction,ComponentPad*%
%ADD19C,6.400000*%
%TD*%
%TA.AperFunction,ComponentPad*%
%ADD20C,0.800000*%
%TD*%
%TA.AperFunction,SMDPad,CuDef*%
%ADD21R,0.900000X1.200000*%
%TD*%
%TA.AperFunction,SMDPad,CuDef*%
%ADD22R,2.500000X1.800000*%
%TD*%
%TA.AperFunction,ViaPad*%
%ADD23C,0.800000*%
%TD*%
%TA.AperFunction,Conductor*%
%ADD24C,0.500000*%
%TD*%
%TA.AperFunction,Conductor*%
%ADD25C,0.250000*%
%TD*%
%TA.AperFunction,Conductor*%
%ADD26C,0.300000*%
%TD*%
%TA.AperFunction,Conductor*%
%ADD27C,0.254000*%
%TD*%
%TA.AperFunction,Conductor*%
%ADD28C,0.025400*%
%TD*%
%ADD29C,0.350000*%
G04 APERTURE END LIST*
%TO.P,R8,1*%
%TO.N,Net-(J1-Pad3)*%
%TA.AperFunction,SMDPad,CuDef*%
G36*
G01*
X23654800Y27716700D02*
X23654800Y28061700D01*
G75*
G02*
X23802300Y28209200I147500J0D01*
G01*
X24097300Y28209200D01*
G75*
G02*
X24244800Y28061700I0J-147500D01*
G01*
X24244800Y27716700D01*
G75*
G02*
X24097300Y27569200I-147500J0D01*
G01*
X23802300Y27569200D01*
G75*
G02*
X23654800Y27716700I0J147500D01*
G01*
G37*
%TD.AperFunction*%
%TO.P,R8,2*%
%TO.N,/BRAKE_H*%
%TA.AperFunction,SMDPad,CuDef*%
G36*
G01*
X24624800Y27716700D02*
X24624800Y28061700D01*
G75*
G02*
X24772300Y28209200I147500J0D01*
G01*
X25067300Y28209200D01*
G75*
G02*
X25214800Y28061700I0J-147500D01*
G01*
X25214800Y27716700D01*
G75*
G02*
X25067300Y27569200I-147500J0D01*
G01*
X24772300Y27569200D01*
G75*
G02*
X24624800Y27716700I0J147500D01*
G01*
G37*
%TD.AperFunction*%
%TD*%
D10*
%TO.P,POS1,1*%
%TO.N,VBUS*%
X35000000Y3506000D03*
%TD*%
%TO.P,NEG1,1*%
%TO.N,GND*%
X25000000Y3506000D03*
%TD*%
%TO.P,U2,1*%
%TO.N,+9V*%
%TA.AperFunction,SMDPad,CuDef*%
G36*
G01*
X26282000Y29072000D02*
X26282000Y29372000D01*
G75*
G02*
X26432000Y29522000I150000J0D01*
G01*
X28082000Y29522000D01*
G75*
G02*
X28232000Y29372000I0J-150000D01*
G01*
X28232000Y29072000D01*
G75*
G02*
X28082000Y28922000I-150000J0D01*
G01*
X26432000Y28922000D01*
G75*
G02*
X26282000Y29072000I0J150000D01*
G01*
G37*
%TD.AperFunction*%
%TO.P,U2,2*%
%TO.N,/BRAKE_H*%
%TA.AperFunction,SMDPad,CuDef*%
G36*
G01*
X26282000Y27802000D02*
X26282000Y28102000D01*
G75*
G02*
X26432000Y28252000I150000J0D01*
G01*
X28082000Y28252000D01*
G75*
G02*
X28232000Y28102000I0J-150000D01*
G01*
X28232000Y27802000D01*
G75*
G02*
X28082000Y27652000I-150000J0D01*
G01*
X26432000Y27652000D01*
G75*
G02*
X26282000Y27802000I0J150000D01*
G01*
G37*
%TD.AperFunction*%
%TO.P,U2,3*%
%TO.N,Net-(R3-Pad2)*%
%TA.AperFunction,SMDPad,CuDef*%
G36*
G01*
X26282000Y26532000D02*
X26282000Y26832000D01*
G75*
G02*
X26432000Y26982000I150000J0D01*
G01*
X28082000Y26982000D01*
G75*
G02*
X28232000Y26832000I0J-150000D01*
G01*
X28232000Y26532000D01*
G75*
G02*
X28082000Y26382000I-150000J0D01*
G01*
X26432000Y26382000D01*
G75*
G02*
X26282000Y26532000I0J150000D01*
G01*
G37*
%TD.AperFunction*%
%TO.P,U2,4*%
%TO.N,GND*%
%TA.AperFunction,SMDPad,CuDef*%
G36*
G01*
X26282000Y25262000D02*
X26282000Y25562000D01*
G75*
G02*
X26432000Y25712000I150000J0D01*
G01*
X28082000Y25712000D01*
G75*
G02*
X28232000Y25562000I0J-150000D01*
G01*
X28232000Y25262000D01*
G75*
G02*
X28082000Y25112000I-150000J0D01*
G01*
X26432000Y25112000D01*
G75*
G02*
X26282000Y25262000I0J150000D01*
G01*
G37*
%TD.AperFunction*%
%TO.P,U2,5*%
%TO.N,Net-(R5-Pad2)*%
%TA.AperFunction,SMDPad,CuDef*%
G36*
G01*
X31232000Y25262000D02*
X31232000Y25562000D01*
G75*
G02*
X31382000Y25712000I150000J0D01*
G01*
X33032000Y25712000D01*
G75*
G02*
X33182000Y25562000I0J-150000D01*
G01*
X33182000Y25262000D01*
G75*
G02*
X33032000Y25112000I-150000J0D01*
G01*
X31382000Y25112000D01*
G75*
G02*
X31232000Y25262000I0J150000D01*
G01*
G37*
%TD.AperFunction*%
%TO.P,U2,6*%
%TO.N,Net-(C7-Pad2)*%
%TA.AperFunction,SMDPad,CuDef*%
G36*
G01*
X31232000Y26532000D02*
X31232000Y26832000D01*
G75*
G02*
X31382000Y26982000I150000J0D01*
G01*
X33032000Y26982000D01*
G75*
G02*
X33182000Y26832000I0J-150000D01*
G01*
X33182000Y26532000D01*
G75*
G02*
X33032000Y26382000I-150000J0D01*
G01*
X31382000Y26382000D01*
G75*
G02*
X31232000Y26532000I0J150000D01*
G01*
G37*
%TD.AperFunction*%
%TO.P,U2,7*%
%TO.N,Net-(R4-Pad2)*%
%TA.AperFunction,SMDPad,CuDef*%
G36*
G01*
X31232000Y27802000D02*
X31232000Y28102000D01*
G75*
G02*
X31382000Y28252000I150000J0D01*
G01*
X33032000Y28252000D01*
G75*
G02*
X33182000Y28102000I0J-150000D01*
G01*
X33182000Y27802000D01*
G75*
G02*
X33032000Y27652000I-150000J0D01*
G01*
X31382000Y27652000D01*
G75*
G02*
X31232000Y27802000I0J150000D01*
G01*
G37*
%TD.AperFunction*%
%TO.P,U2,8*%
%TO.N,Net-(C7-Pad1)*%
%TA.AperFunction,SMDPad,CuDef*%
G36*
G01*
X31232000Y29072000D02*
X31232000Y29372000D01*
G75*
G02*
X31382000Y29522000I150000J0D01*
G01*
X33032000Y29522000D01*
G75*
G02*
X33182000Y29372000I0J-150000D01*
G01*
X33182000Y29072000D01*
G75*
G02*
X33032000Y28922000I-150000J0D01*
G01*
X31382000Y28922000D01*
G75*
G02*
X31232000Y29072000I0J150000D01*
G01*
G37*
%TD.AperFunction*%
%TD*%
%TO.P,U1,1*%
%TO.N,VBUS*%
%TA.AperFunction,SMDPad,CuDef*%
G36*
G01*
X26409000Y16374000D02*
X26409000Y16674000D01*
G75*
G02*
X26559000Y16824000I150000J0D01*
G01*
X28209000Y16824000D01*
G75*
G02*
X28359000Y16674000I0J-150000D01*
G01*
X28359000Y16374000D01*
G75*
G02*
X28209000Y16224000I-150000J0D01*
G01*
X26559000Y16224000D01*
G75*
G02*
X26409000Y16374000I0J150000D01*
G01*
G37*
%TD.AperFunction*%
%TO.P,U1,2*%
%TO.N,Net-(D1-Pad1)*%
%TA.AperFunction,SMDPad,CuDef*%
G36*
G01*
X26409000Y15104000D02*
X26409000Y15404000D01*
G75*
G02*
X26559000Y15554000I150000J0D01*
G01*
X28209000Y15554000D01*
G75*
G02*
X28359000Y15404000I0J-150000D01*
G01*
X28359000Y15104000D01*
G75*
G02*
X28209000Y14954000I-150000J0D01*
G01*
X26559000Y14954000D01*
G75*
G02*
X26409000Y15104000I0J150000D01*
G01*
G37*
%TD.AperFunction*%
%TO.P,U1,3*%
%TO.N,Net-(R1-Pad1)*%
%TA.AperFunction,SMDPad,CuDef*%
G36*
G01*
X26409000Y13834000D02*
X26409000Y14134000D01*
G75*
G02*
X26559000Y14284000I150000J0D01*
G01*
X28209000Y14284000D01*
G75*
G02*
X28359000Y14134000I0J-150000D01*
G01*
X28359000Y13834000D01*
G75*
G02*
X28209000Y13684000I-150000J0D01*
G01*
X26559000Y13684000D01*
G75*
G02*
X26409000Y13834000I0J150000D01*
G01*
G37*
%TD.AperFunction*%
%TO.P,U1,4*%
%TO.N,GND*%
%TA.AperFunction,SMDPad,CuDef*%
G36*
G01*
X26409000Y12564000D02*
X26409000Y12864000D01*
G75*
G02*
X26559000Y13014000I150000J0D01*
G01*
X28209000Y13014000D01*
G75*
G02*
X28359000Y12864000I0J-150000D01*
G01*
X28359000Y12564000D01*
G75*
G02*
X28209000Y12414000I-150000J0D01*
G01*
X26559000Y12414000D01*
G75*
G02*
X26409000Y12564000I0J150000D01*
G01*
G37*
%TD.AperFunction*%
%TO.P,U1,5*%
%TA.AperFunction,SMDPad,CuDef*%
G36*
G01*
X31359000Y12564000D02*
X31359000Y12864000D01*
G75*
G02*
X31509000Y13014000I150000J0D01*
G01*
X33159000Y13014000D01*
G75*
G02*
X33309000Y12864000I0J-150000D01*
G01*
X33309000Y12564000D01*
G75*
G02*
X33159000Y12414000I-150000J0D01*
G01*
X31509000Y12414000D01*
G75*
G02*
X31359000Y12564000I0J150000D01*
G01*
G37*
%TD.AperFunction*%
%TO.P,U1,6*%
%TA.AperFunction,SMDPad,CuDef*%
G36*
G01*
X31359000Y13834000D02*
X31359000Y14134000D01*
G75*
G02*
X31509000Y14284000I150000J0D01*
G01*
X33159000Y14284000D01*
G75*
G02*
X33309000Y14134000I0J-150000D01*
G01*
X33309000Y13834000D01*
G75*
G02*
X33159000Y13684000I-150000J0D01*
G01*
X31509000Y13684000D01*
G75*
G02*
X31359000Y13834000I0J150000D01*
G01*
G37*
%TD.AperFunction*%
%TO.P,U1,7*%
%TA.AperFunction,SMDPad,CuDef*%
G36*
G01*
X31359000Y15104000D02*
X31359000Y15404000D01*
G75*
G02*
X31509000Y15554000I150000J0D01*
G01*
X33159000Y15554000D01*
G75*
G02*
X33309000Y15404000I0J-150000D01*
G01*
X33309000Y15104000D01*
G75*
G02*
X33159000Y14954000I-150000J0D01*
G01*
X31509000Y14954000D01*
G75*
G02*
X31359000Y15104000I0J150000D01*
G01*
G37*
%TD.AperFunction*%
%TO.P,U1,8*%
%TA.AperFunction,SMDPad,CuDef*%
G36*
G01*
X31359000Y16374000D02*
X31359000Y16674000D01*
G75*
G02*
X31509000Y16824000I150000J0D01*
G01*
X33159000Y16824000D01*
G75*
G02*
X33309000Y16674000I0J-150000D01*
G01*
X33309000Y16374000D01*
G75*
G02*
X33159000Y16224000I-150000J0D01*
G01*
X31509000Y16224000D01*
G75*
G02*
X31359000Y16374000I0J150000D01*
G01*
G37*
%TD.AperFunction*%
%TD*%
%TO.P,R7,1*%
%TO.N,Net-(D3-Pad2)*%
%TA.AperFunction,SMDPad,CuDef*%
G36*
G01*
X53635000Y31999500D02*
X53635000Y31654500D01*
G75*
G02*
X53487500Y31507000I-147500J0D01*
G01*
X53192500Y31507000D01*
G75*
G02*
X53045000Y31654500I0J147500D01*
G01*
X53045000Y31999500D01*
G75*
G02*
X53192500Y32147000I147500J0D01*
G01*
X53487500Y32147000D01*
G75*
G02*
X53635000Y31999500I0J-147500D01*
G01*
G37*
%TD.AperFunction*%
%TO.P,R7,2*%
%TO.N,Net-(C7-Pad2)*%
%TA.AperFunction,SMDPad,CuDef*%
G36*
G01*
X52665000Y31999500D02*
X52665000Y31654500D01*
G75*
G02*
X52517500Y31507000I-147500J0D01*
G01*
X52222500Y31507000D01*
G75*
G02*
X52075000Y31654500I0J147500D01*
G01*
X52075000Y31999500D01*
G75*
G02*
X52222500Y32147000I147500J0D01*
G01*
X52517500Y32147000D01*
G75*
G02*
X52665000Y31999500I0J-147500D01*
G01*
G37*
%TD.AperFunction*%
%TD*%
D11*
%TO.P,R6,1*%
%TO.N,GND*%
X2000000Y41000000D03*
D12*
%TO.P,R6,2*%
%TO.N,Net-(C7-Pad2)*%
X57880000Y41000000D03*
%TD*%
%TO.P,R5,1*%
%TO.N,Net-(Q2-Pad1)*%
%TA.AperFunction,SMDPad,CuDef*%
G36*
G01*
X35483000Y25953500D02*
X35483000Y25608500D01*
G75*
G02*
X35335500Y25461000I-147500J0D01*
G01*
X35040500Y25461000D01*
G75*
G02*
X34893000Y25608500I0J147500D01*
G01*
X34893000Y25953500D01*
G75*
G02*
X35040500Y26101000I147500J0D01*
G01*
X35335500Y26101000D01*
G75*
G02*
X35483000Y25953500I0J-147500D01*
G01*
G37*
%TD.AperFunction*%
%TO.P,R5,2*%
%TO.N,Net-(R5-Pad2)*%
%TA.AperFunction,SMDPad,CuDef*%
G36*
G01*
X34513000Y25953500D02*
X34513000Y25608500D01*
G75*
G02*
X34365500Y25461000I-147500J0D01*
G01*
X34070500Y25461000D01*
G75*
G02*
X33923000Y25608500I0J147500D01*
G01*
X33923000Y25953500D01*
G75*
G02*
X34070500Y26101000I147500J0D01*
G01*
X34365500Y26101000D01*
G75*
G02*
X34513000Y25953500I0J-147500D01*
G01*
G37*
%TD.AperFunction*%
%TD*%
%TO.P,R4,1*%
%TO.N,Net-(Q1-Pad1)*%
%TA.AperFunction,SMDPad,CuDef*%
G36*
G01*
X35483000Y24937500D02*
X35483000Y24592500D01*
G75*
G02*
X35335500Y24445000I-147500J0D01*
G01*
X35040500Y24445000D01*
G75*
G02*
X34893000Y24592500I0J147500D01*
G01*
X34893000Y24937500D01*
G75*
G02*
X35040500Y25085000I147500J0D01*
G01*
X35335500Y25085000D01*
G75*
G02*
X35483000Y24937500I0J-147500D01*
G01*
G37*
%TD.AperFunction*%
%TO.P,R4,2*%
%TO.N,Net-(R4-Pad2)*%
%TA.AperFunction,SMDPad,CuDef*%
G36*
G01*
X34513000Y24937500D02*
X34513000Y24592500D01*
G75*
G02*
X34365500Y24445000I-147500J0D01*
G01*
X34070500Y24445000D01*
G75*
G02*
X33923000Y24592500I0J147500D01*
G01*
X33923000Y24937500D01*
G75*
G02*
X34070500Y25085000I147500J0D01*
G01*
X34365500Y25085000D01*
G75*
G02*
X34513000Y24937500I0J-147500D01*
G01*
G37*
%TD.AperFunction*%
%TD*%
%TO.P,R3,1*%
%TO.N,GND*%
%TA.AperFunction,SMDPad,CuDef*%
G36*
G01*
X23636000Y26304500D02*
X23636000Y26649500D01*
G75*
G02*
X23783500Y26797000I147500J0D01*
G01*
X24078500Y26797000D01*
G75*
G02*
X24226000Y26649500I0J-147500D01*
G01*
X24226000Y26304500D01*
G75*
G02*
X24078500Y26157000I-147500J0D01*
G01*
X23783500Y26157000D01*
G75*
G02*
X23636000Y26304500I0J147500D01*
G01*
G37*
%TD.AperFunction*%
%TO.P,R3,2*%
%TO.N,Net-(R3-Pad2)*%
%TA.AperFunction,SMDPad,CuDef*%
G36*
G01*
X24606000Y26304500D02*
X24606000Y26649500D01*
G75*
G02*
X24753500Y26797000I147500J0D01*
G01*
X25048500Y26797000D01*
G75*
G02*
X25196000Y26649500I0J-147500D01*
G01*
X25196000Y26304500D01*
G75*
G02*
X25048500Y26157000I-147500J0D01*
G01*
X24753500Y26157000D01*
G75*
G02*
X24606000Y26304500I0J147500D01*
G01*
G37*
%TD.AperFunction*%
%TD*%
%TO.P,R2,1*%
%TO.N,+9V*%
%TA.AperFunction,SMDPad,CuDef*%
G36*
G01*
X26398000Y9987500D02*
X26398000Y10332500D01*
G75*
G02*
X26545500Y10480000I147500J0D01*
G01*
X26840500Y10480000D01*
G75*
G02*
X26988000Y10332500I0J-147500D01*
G01*
X26988000Y9987500D01*
G75*
G02*
X26840500Y9840000I-147500J0D01*
G01*
X26545500Y9840000D01*
G75*
G02*
X26398000Y9987500I0J147500D01*
G01*
G37*
%TD.AperFunction*%
%TO.P,R2,2*%
%TO.N,Net-(R1-Pad1)*%
%TA.AperFunction,SMDPad,CuDef*%
G36*
G01*
X27368000Y9987500D02*
X27368000Y10332500D01*
G75*
G02*
X27515500Y10480000I147500J0D01*
G01*
X27810500Y10480000D01*
G75*
G02*
X27958000Y10332500I0J-147500D01*
G01*
X27958000Y9987500D01*
G75*
G02*
X27810500Y9840000I-147500J0D01*
G01*
X27515500Y9840000D01*
G75*
G02*
X27368000Y9987500I0J147500D01*
G01*
G37*
%TD.AperFunction*%
%TD*%
%TO.P,R1,1*%
%TO.N,Net-(R1-Pad1)*%
%TA.AperFunction,SMDPad,CuDef*%
G36*
G01*
X28557000Y9987500D02*
X28557000Y10332500D01*
G75*
G02*
X28704500Y10480000I147500J0D01*
G01*
X28999500Y10480000D01*
G75*
G02*
X29147000Y10332500I0J-147500D01*
G01*
X29147000Y9987500D01*
G75*
G02*
X28999500Y9840000I-147500J0D01*
G01*
X28704500Y9840000D01*
G75*
G02*
X28557000Y9987500I0J147500D01*
G01*
G37*
%TD.AperFunction*%
%TO.P,R1,2*%
%TO.N,GND*%
%TA.AperFunction,SMDPad,CuDef*%
G36*
G01*
X29527000Y9987500D02*
X29527000Y10332500D01*
G75*
G02*
X29674500Y10480000I147500J0D01*
G01*
X29969500Y10480000D01*
G75*
G02*
X30117000Y10332500I0J-147500D01*
G01*
X30117000Y9987500D01*
G75*
G02*
X29969500Y9840000I-147500J0D01*
G01*
X29674500Y9840000D01*
G75*
G02*
X29527000Y9987500I0J147500D01*
G01*
G37*
%TD.AperFunction*%
%TD*%
D13*
%TO.P,Q2,2*%
%TO.N,Net-(C7-Pad2)*%
X45396000Y27619000D03*
D14*
X46596000Y27619000D03*
D15*
X48696000Y29524000D03*
X48696000Y25714000D03*
%TO.P,Q2,1*%
%TO.N,Net-(Q2-Pad1)*%
X42896000Y25714000D03*
%TO.P,Q2,3*%
%TO.N,GND*%
X42896000Y26984000D03*
X42896000Y28254000D03*
X42896000Y29524000D03*
%TO.P,Q2,2*%
%TO.N,Net-(C7-Pad2)*%
X48696000Y28254000D03*
X48696000Y26984000D03*
%TD*%
D13*
%TO.P,Q1,2*%
%TO.N,VBUS*%
X53396000Y27619000D03*
D14*
X54596000Y27619000D03*
D15*
X56696000Y29524000D03*
X56696000Y25714000D03*
%TO.P,Q1,1*%
%TO.N,Net-(Q1-Pad1)*%
X50896000Y25714000D03*
%TO.P,Q1,3*%
%TO.N,Net-(C7-Pad2)*%
X50896000Y26984000D03*
X50896000Y28254000D03*
X50896000Y29524000D03*
%TO.P,Q1,2*%
%TO.N,VBUS*%
X56696000Y28254000D03*
X56696000Y26984000D03*
%TD*%
D16*
%TO.P,L1,1*%
%TO.N,Net-(D1-Pad1)*%
X24397000Y14809000D03*
%TO.P,L1,2*%
%TO.N,+9V*%
X18847000Y14809000D03*
%TD*%
D17*
%TO.P,J1,1*%
%TO.N,GND*%
X5000000Y19000000D03*
D18*
%TO.P,J1,2*%
%TO.N,+9V*%
X5000000Y21540000D03*
%TO.P,J1,3*%
%TO.N,Net-(J1-Pad3)*%
X5000000Y24080000D03*
%TD*%
D19*
%TO.P,H4,1*%
%TO.N,GND*%
X5000000Y55000000D03*
D20*
X7400000Y55000000D03*
X6697056Y53302944D03*
X5000000Y52600000D03*
X3302944Y53302944D03*
X2600000Y55000000D03*
X3302944Y56697056D03*
X5000000Y57400000D03*
X6697056Y56697056D03*
%TD*%
D19*
%TO.P,H3,1*%
%TO.N,GND*%
X55000000Y55000000D03*
D20*
X57400000Y55000000D03*
X56697056Y53302944D03*
X55000000Y52600000D03*
X53302944Y53302944D03*
X52600000Y55000000D03*
X53302944Y56697056D03*
X55000000Y57400000D03*
X56697056Y56697056D03*
%TD*%
D19*
%TO.P,H2,1*%
%TO.N,GND*%
X5000000Y5000000D03*
D20*
X7400000Y5000000D03*
X6697056Y3302944D03*
X5000000Y2600000D03*
X3302944Y3302944D03*
X2600000Y5000000D03*
X3302944Y6697056D03*
X5000000Y7400000D03*
X6697056Y6697056D03*
%TD*%
D19*
%TO.P,H1,1*%
%TO.N,GND*%
X55000000Y5000000D03*
D20*
X57400000Y5000000D03*
X56697056Y3302944D03*
X55000000Y2600000D03*
X53302944Y3302944D03*
X52600000Y5000000D03*
X53302944Y6697056D03*
X55000000Y7400000D03*
X56697056Y6697056D03*
%TD*%
%TO.P,D3,1*%
%TO.N,GND*%
%TA.AperFunction,SMDPad,CuDef*%
G36*
G01*
X57051000Y32039500D02*
X57051000Y31614500D01*
G75*
G02*
X56838500Y31402000I-212500J0D01*
G01*
X56038500Y31402000D01*
G75*
G02*
X55826000Y31614500I0J212500D01*
G01*
X55826000Y32039500D01*
G75*
G02*
X56038500Y32252000I212500J0D01*
G01*
X56838500Y32252000D01*
G75*
G02*
X57051000Y32039500I0J-212500D01*
G01*
G37*
%TD.AperFunction*%
%TO.P,D3,2*%
%TO.N,Net-(D3-Pad2)*%
%TA.AperFunction,SMDPad,CuDef*%
G36*
G01*
X55426000Y32039500D02*
X55426000Y31614500D01*
G75*
G02*
X55213500Y31402000I-212500J0D01*
G01*
X54413500Y31402000D01*
G75*
G02*
X54201000Y31614500I0J212500D01*
G01*
X54201000Y32039500D01*
G75*
G02*
X54413500Y32252000I212500J0D01*
G01*
X55213500Y32252000D01*
G75*
G02*
X55426000Y32039500I0J-212500D01*
G01*
G37*
%TD.AperFunction*%
%TD*%
D21*
%TO.P,D2,1*%
%TO.N,Net-(C7-Pad1)*%
X31400000Y31303000D03*
%TO.P,D2,2*%
%TO.N,+9V*%
X28100000Y31303000D03*
%TD*%
D22*
%TO.P,D1,1*%
%TO.N,Net-(D1-Pad1)*%
X24130000Y20016000D03*
%TO.P,D1,2*%
%TO.N,GND*%
X20130000Y20016000D03*
%TD*%
%TO.P,C9,1*%
%TO.N,GND*%
%TA.AperFunction,SMDPad,CuDef*%
G36*
G01*
X57016000Y20768000D02*
X57016000Y19518000D01*
G75*
G02*
X56766000Y19268000I-250000J0D01*
G01*
X56016000Y19268000D01*
G75*
G02*
X55766000Y19518000I0J250000D01*
G01*
X55766000Y20768000D01*
G75*
G02*
X56016000Y21018000I250000J0D01*
G01*
X56766000Y21018000D01*
G75*
G02*
X57016000Y20768000I0J-250000D01*
G01*
G37*
%TD.AperFunction*%
%TO.P,C9,2*%
%TO.N,VBUS*%
%TA.AperFunction,SMDPad,CuDef*%
G36*
G01*
X54216000Y20768000D02*
X54216000Y19518000D01*
G75*
G02*
X53966000Y19268000I-250000J0D01*
G01*
X53216000Y19268000D01*
G75*
G02*
X52966000Y19518000I0J250000D01*
G01*
X52966000Y20768000D01*
G75*
G02*
X53216000Y21018000I250000J0D01*
G01*
X53966000Y21018000D01*
G75*
G02*
X54216000Y20768000I0J-250000D01*
G01*
G37*
%TD.AperFunction*%
%TD*%
%TO.P,C8,1*%
%TO.N,GND*%
%TA.AperFunction,SMDPad,CuDef*%
G36*
G01*
X48267000Y21931000D02*
X48267000Y23181000D01*
G75*
G02*
X48517000Y23431000I250000J0D01*
G01*
X49267000Y23431000D01*
G75*
G02*
X49517000Y23181000I0J-250000D01*
G01*
X49517000Y21931000D01*
G75*
G02*
X49267000Y21681000I-250000J0D01*
G01*
X48517000Y21681000D01*
G75*
G02*
X48267000Y21931000I0J250000D01*
G01*
G37*
%TD.AperFunction*%
%TO.P,C8,2*%
%TO.N,VBUS*%
%TA.AperFunction,SMDPad,CuDef*%
G36*
G01*
X51067000Y21931000D02*
X51067000Y23181000D01*
G75*
G02*
X51317000Y23431000I250000J0D01*
G01*
X52067000Y23431000D01*
G75*
G02*
X52317000Y23181000I0J-250000D01*
G01*
X52317000Y21931000D01*
G75*
G02*
X52067000Y21681000I-250000J0D01*
G01*
X51317000Y21681000D01*
G75*
G02*
X51067000Y21931000I0J250000D01*
G01*
G37*
%TD.AperFunction*%
%TD*%
%TO.P,C7,1*%
%TO.N,Net-(C7-Pad1)*%
%TA.AperFunction,SMDPad,CuDef*%
G36*
G01*
X34192750Y29353000D02*
X34705250Y29353000D01*
G75*
G02*
X34924000Y29134250I0J-218750D01*
G01*
X34924000Y28696750D01*
G75*
G02*
X34705250Y28478000I-218750J0D01*
G01*
X34192750Y28478000D01*
G75*
G02*
X33974000Y28696750I0J218750D01*
G01*
X33974000Y29134250D01*
G75*
G02*
X34192750Y29353000I218750J0D01*
G01*
G37*
%TD.AperFunction*%
%TO.P,C7,2*%
%TO.N,Net-(C7-Pad2)*%
%TA.AperFunction,SMDPad,CuDef*%
G36*
G01*
X34192750Y27778000D02*
X34705250Y27778000D01*
G75*
G02*
X34924000Y27559250I0J-218750D01*
G01*
X34924000Y27121750D01*
G75*
G02*
X34705250Y26903000I-218750J0D01*
G01*
X34192750Y26903000D01*
G75*
G02*
X33974000Y27121750I0J218750D01*
G01*
X33974000Y27559250D01*
G75*
G02*
X34192750Y27778000I218750J0D01*
G01*
G37*
%TD.AperFunction*%
%TD*%
%TO.P,C6,1*%
%TO.N,+9V*%
%TA.AperFunction,SMDPad,CuDef*%
G36*
G01*
X25196000Y29443500D02*
X25196000Y29098500D01*
G75*
G02*
X25048500Y28951000I-147500J0D01*
G01*
X24753500Y28951000D01*
G75*
G02*
X24606000Y29098500I0J147500D01*
G01*
X24606000Y29443500D01*
G75*
G02*
X24753500Y29591000I147500J0D01*
G01*
X25048500Y29591000D01*
G75*
G02*
X25196000Y29443500I0J-147500D01*
G01*
G37*
%TD.AperFunction*%
%TO.P,C6,2*%
%TO.N,GND*%
%TA.AperFunction,SMDPad,CuDef*%
G36*
G01*
X24226000Y29443500D02*
X24226000Y29098500D01*
G75*
G02*
X24078500Y28951000I-147500J0D01*
G01*
X23783500Y28951000D01*
G75*
G02*
X23636000Y29098500I0J147500D01*
G01*
X23636000Y29443500D01*
G75*
G02*
X23783500Y29591000I147500J0D01*
G01*
X24078500Y29591000D01*
G75*
G02*
X24226000Y29443500I0J-147500D01*
G01*
G37*
%TD.AperFunction*%
%TD*%
%TO.P,C5,1*%
%TO.N,GND*%
%TA.AperFunction,SMDPad,CuDef*%
G36*
G01*
X25552000Y10862000D02*
X25552000Y9612000D01*
G75*
G02*
X25302000Y9362000I-250000J0D01*
G01*
X24552000Y9362000D01*
G75*
G02*
X24302000Y9612000I0J250000D01*
G01*
X24302000Y10862000D01*
G75*
G02*
X24552000Y11112000I250000J0D01*
G01*
X25302000Y11112000D01*
G75*
G02*
X25552000Y10862000I0J-250000D01*
G01*
G37*
%TD.AperFunction*%
%TO.P,C5,2*%
%TO.N,+9V*%
%TA.AperFunction,SMDPad,CuDef*%
G36*
G01*
X22752000Y10862000D02*
X22752000Y9612000D01*
G75*
G02*
X22502000Y9362000I-250000J0D01*
G01*
X21752000Y9362000D01*
G75*
G02*
X21502000Y9612000I0J250000D01*
G01*
X21502000Y10862000D01*
G75*
G02*
X21752000Y11112000I250000J0D01*
G01*
X22502000Y11112000D01*
G75*
G02*
X22752000Y10862000I0J-250000D01*
G01*
G37*
%TD.AperFunction*%
%TD*%
%TO.P,C4,1*%
%TO.N,GND*%
%TA.AperFunction,SMDPad,CuDef*%
G36*
G01*
X16676000Y9612000D02*
X16676000Y10862000D01*
G75*
G02*
X16926000Y11112000I250000J0D01*
G01*
X17676000Y11112000D01*
G75*
G02*
X17926000Y10862000I0J-250000D01*
G01*
X17926000Y9612000D01*
G75*
G02*
X17676000Y9362000I-250000J0D01*
G01*
X16926000Y9362000D01*
G75*
G02*
X16676000Y9612000I0J250000D01*
G01*
G37*
%TD.AperFunction*%
%TO.P,C4,2*%
%TO.N,+9V*%
%TA.AperFunction,SMDPad,CuDef*%
G36*
G01*
X19476000Y9612000D02*
X19476000Y10862000D01*
G75*
G02*
X19726000Y11112000I250000J0D01*
G01*
X20476000Y11112000D01*
G75*
G02*
X20726000Y10862000I0J-250000D01*
G01*
X20726000Y9612000D01*
G75*
G02*
X20476000Y9362000I-250000J0D01*
G01*
X19726000Y9362000D01*
G75*
G02*
X19476000Y9612000I0J250000D01*
G01*
G37*
%TD.AperFunction*%
%TD*%
%TO.P,C3,1*%
%TO.N,GND*%
%TA.AperFunction,SMDPad,CuDef*%
G36*
G01*
X57016000Y23181000D02*
X57016000Y21931000D01*
G75*
G02*
X56766000Y21681000I-250000J0D01*
G01*
X56016000Y21681000D01*
G75*
G02*
X55766000Y21931000I0J250000D01*
G01*
X55766000Y23181000D01*
G75*
G02*
X56016000Y23431000I250000J0D01*
G01*
X56766000Y23431000D01*
G75*
G02*
X57016000Y23181000I0J-250000D01*
G01*
G37*
%TD.AperFunction*%
%TO.P,C3,2*%
%TO.N,VBUS*%
%TA.AperFunction,SMDPad,CuDef*%
G36*
G01*
X54216000Y23181000D02*
X54216000Y21931000D01*
G75*
G02*
X53966000Y21681000I-250000J0D01*
G01*
X53216000Y21681000D01*
G75*
G02*
X52966000Y21931000I0J250000D01*
G01*
X52966000Y23181000D01*
G75*
G02*
X53216000Y23431000I250000J0D01*
G01*
X53966000Y23431000D01*
G75*
G02*
X54216000Y23181000I0J-250000D01*
G01*
G37*
%TD.AperFunction*%
%TD*%
%TO.P,C2,1*%
%TO.N,GND*%
%TA.AperFunction,SMDPad,CuDef*%
G36*
G01*
X48267000Y19518000D02*
X48267000Y20768000D01*
G75*
G02*
X48517000Y21018000I250000J0D01*
G01*
X49267000Y21018000D01*
G75*
G02*
X49517000Y20768000I0J-250000D01*
G01*
X49517000Y19518000D01*
G75*
G02*
X49267000Y19268000I-250000J0D01*
G01*
X48517000Y19268000D01*
G75*
G02*
X48267000Y19518000I0J250000D01*
G01*
G37*
%TD.AperFunction*%
%TO.P,C2,2*%
%TO.N,VBUS*%
%TA.AperFunction,SMDPad,CuDef*%
G36*
G01*
X51067000Y19518000D02*
X51067000Y20768000D01*
G75*
G02*
X51317000Y21018000I250000J0D01*
G01*
X52067000Y21018000D01*
G75*
G02*
X52317000Y20768000I0J-250000D01*
G01*
X52317000Y19518000D01*
G75*
G02*
X52067000Y19268000I-250000J0D01*
G01*
X51317000Y19268000D01*
G75*
G02*
X51067000Y19518000I0J250000D01*
G01*
G37*
%TD.AperFunction*%
%TD*%
%TO.P,C1,1*%
%TO.N,GND*%
%TA.AperFunction,SMDPad,CuDef*%
G36*
G01*
X30886000Y19244000D02*
X30886000Y17994000D01*
G75*
G02*
X30636000Y17744000I-250000J0D01*
G01*
X29886000Y17744000D01*
G75*
G02*
X29636000Y17994000I0J250000D01*
G01*
X29636000Y19244000D01*
G75*
G02*
X29886000Y19494000I250000J0D01*
G01*
X30636000Y19494000D01*
G75*
G02*
X30886000Y19244000I0J-250000D01*
G01*
G37*
%TD.AperFunction*%
%TO.P,C1,2*%
%TO.N,VBUS*%
%TA.AperFunction,SMDPad,CuDef*%
G36*
G01*
X28086000Y19244000D02*
X28086000Y17994000D01*
G75*
G02*
X27836000Y17744000I-250000J0D01*
G01*
X27086000Y17744000D01*
G75*
G02*
X26836000Y17994000I0J250000D01*
G01*
X26836000Y19244000D01*
G75*
G02*
X27086000Y19494000I250000J0D01*
G01*
X27836000Y19494000D01*
G75*
G02*
X28086000Y19244000I0J-250000D01*
G01*
G37*
%TD.AperFunction*%
%TD*%
D23*
%TO.N,GND*%
X40259000Y29845000D03*
X40259000Y28956000D03*
X40259000Y27051000D03*
X41402000Y28575000D03*
X41402000Y29591000D03*
X40259000Y27940000D03*
X41402000Y27559000D03*
X27686000Y11811000D03*
X26797000Y11811000D03*
X24003000Y10795000D03*
X24003000Y9906000D03*
X15875000Y10668000D03*
X15875000Y9525000D03*
X33528000Y10922000D03*
X33528000Y9652000D03*
X32131000Y10922000D03*
X32131000Y9652000D03*
X46990000Y22860000D03*
X46990000Y21590000D03*
X46990000Y20320000D03*
X46990000Y19050000D03*
X45720000Y19050000D03*
X45720000Y20320000D03*
X45720000Y21590000D03*
X45720000Y22860000D03*
X58420000Y22860000D03*
X58420000Y21590000D03*
X58420000Y20320000D03*
X58420000Y19050000D03*
X32004000Y19304000D03*
X32004000Y18288000D03*
X33528000Y18288000D03*
X33528000Y19304000D03*
X17780000Y21336000D03*
X17780000Y20320000D03*
X17780000Y19304000D03*
X16256000Y13716000D03*
X16256000Y12700000D03*
X58420000Y17780000D03*
X58420000Y16510000D03*
X58420000Y15240000D03*
X26797000Y24130000D03*
X25654000Y24130000D03*
%TD*%
D24*
%TO.N,VBUS*%
X27384000Y18542000D02*
X27461000Y18619000D01*
X27384000Y16524000D02*
X27384000Y18542000D01*
X35000000Y19483000D02*
X35000000Y3506000D01*
X33274000Y21209000D02*
X35000000Y19483000D01*
X28575000Y21209000D02*
X33274000Y21209000D01*
X27461000Y18619000D02*
X27461000Y20095000D01*
X27461000Y20095000D02*
X28575000Y21209000D01*
D25*
%TO.N,+9V*%
X26693000Y10160000D02*
X26693000Y9421000D01*
X26693000Y9421000D02*
X25781000Y8509000D01*
X23855000Y8509000D02*
X22127000Y10237000D01*
X25781000Y8509000D02*
X23855000Y8509000D01*
D24*
X27208000Y29271000D02*
X27257000Y29222000D01*
X24901000Y29271000D02*
X27208000Y29271000D01*
D25*
X28100000Y30065000D02*
X27257000Y29222000D01*
X28100000Y31303000D02*
X28100000Y30065000D01*
D26*
X8051000Y21540000D02*
X5000000Y21540000D01*
X9117000Y22606000D02*
X8051000Y21540000D01*
X28563000Y29222000D02*
X29083000Y28702000D01*
X27257000Y29222000D02*
X28563000Y29222000D01*
X29083000Y28702000D02*
X29083000Y23749000D01*
X29083000Y23749000D02*
X27940000Y22606000D01*
X18847000Y14809000D02*
X16890200Y14809000D01*
X15849600Y15849600D02*
X15849600Y22606000D01*
X16890200Y14809000D02*
X15849600Y15849600D01*
X27940000Y22606000D02*
X15849600Y22606000D01*
X15849600Y22606000D02*
X9117000Y22606000D01*
D25*
%TO.N,Net-(C7-Pad2)*%
X33790500Y26682000D02*
X34449000Y27340500D01*
X32207000Y26682000D02*
X33790500Y26682000D01*
X50804000Y31827000D02*
X46596000Y27619000D01*
X52370000Y31827000D02*
X50804000Y31827000D01*
X50896000Y26984000D02*
X50896000Y29524000D01*
X44907200Y30734000D02*
X46596000Y29045200D01*
X39497000Y30734000D02*
X44907200Y30734000D01*
X34449000Y27340500D02*
X36103500Y27340500D01*
X46596000Y29045200D02*
X46596000Y27619000D01*
X36103500Y27340500D02*
X39497000Y30734000D01*
%TO.N,Net-(C7-Pad1)*%
X34142500Y29222000D02*
X34449000Y28915500D01*
X32207000Y29222000D02*
X34142500Y29222000D01*
X31400000Y30029000D02*
X32207000Y29222000D01*
X31400000Y31303000D02*
X31400000Y30029000D01*
%TO.N,Net-(D3-Pad2)*%
X53340000Y31827000D02*
X54813500Y31827000D01*
%TO.N,/BRAKE_H*%
X27194200Y27889200D02*
X27257000Y27952000D01*
X24919800Y27889200D02*
X27194200Y27889200D01*
%TO.N,Net-(Q1-Pad1)*%
X49312000Y24130000D02*
X50896000Y25714000D01*
X35188000Y24765000D02*
X35823000Y24130000D01*
X35823000Y24130000D02*
X49312000Y24130000D01*
%TO.N,Net-(Q2-Pad1)*%
X35255000Y25714000D02*
X35188000Y25781000D01*
X42896000Y25714000D02*
X35255000Y25714000D01*
%TO.N,Net-(R1-Pad1)*%
X27384000Y13984000D02*
X28561000Y13984000D01*
X28561000Y13984000D02*
X28852000Y13693000D01*
X27663000Y10160000D02*
X28852000Y10160000D01*
X28852000Y13693000D02*
X28852000Y10160000D01*
%TO.N,Net-(R3-Pad2)*%
X25106000Y26682000D02*
X24901000Y26477000D01*
X27257000Y26682000D02*
X25106000Y26682000D01*
%TO.N,Net-(R4-Pad2)*%
X30746000Y27952000D02*
X32207000Y27952000D01*
X33655000Y24511000D02*
X30861000Y24511000D01*
X33909000Y24765000D02*
X33655000Y24511000D01*
X34218000Y24765000D02*
X33909000Y24765000D01*
X30353000Y25019000D02*
X30353000Y27559000D01*
X30353000Y27559000D02*
X30746000Y27952000D01*
X30861000Y24511000D02*
X30353000Y25019000D01*
%TO.N,Net-(R5-Pad2)*%
X33849000Y25412000D02*
X34218000Y25781000D01*
X32207000Y25412000D02*
X33849000Y25412000D01*
%TO.N,Net-(J1-Pad3)*%
X23949800Y27889200D02*
X13157200Y27889200D01*
X9348000Y24080000D02*
X5000000Y24080000D01*
X13157200Y27889200D02*
X9348000Y24080000D01*
%TD*%
D27*
%TO.N,Net-(C7-Pad2)*%
G36*
X59594001Y38227000D02*
G01*
X56388000Y38227000D01*
X56363224Y38224560D01*
X56339399Y38217333D01*
X56317443Y38205597D01*
X56298197Y38189803D01*
X51726197Y33617803D01*
X51710403Y33598557D01*
X51698667Y33576601D01*
X51691440Y33552776D01*
X51689000Y33528000D01*
X51689000Y26382453D01*
X51658696Y26407322D01*
X51592508Y26442701D01*
X51520689Y26464487D01*
X51446000Y26471843D01*
X50346000Y26471843D01*
X50271311Y26464487D01*
X50199492Y26442701D01*
X50133304Y26407322D01*
X50075289Y26359711D01*
X50027678Y26301696D01*
X49992299Y26235508D01*
X49970513Y26163689D01*
X49963157Y26089000D01*
X49963157Y25496749D01*
X49485408Y25019000D01*
X44829627Y25019000D01*
X44704580Y36523305D01*
X51867948Y43561000D01*
X59594001Y43561000D01*
X59594001Y38227000D01*
G37*
X59594001Y38227000D02*
X56388000Y38227000D01*
X56363224Y38224560D01*
X56339399Y38217333D01*
X56317443Y38205597D01*
X56298197Y38189803D01*
X51726197Y33617803D01*
X51710403Y33598557D01*
X51698667Y33576601D01*
X51691440Y33552776D01*
X51689000Y33528000D01*
X51689000Y26382453D01*
X51658696Y26407322D01*
X51592508Y26442701D01*
X51520689Y26464487D01*
X51446000Y26471843D01*
X50346000Y26471843D01*
X50271311Y26464487D01*
X50199492Y26442701D01*
X50133304Y26407322D01*
X50075289Y26359711D01*
X50027678Y26301696D01*
X49992299Y26235508D01*
X49970513Y26163689D01*
X49963157Y26089000D01*
X49963157Y25496749D01*
X49485408Y25019000D01*
X44829627Y25019000D01*
X44704580Y36523305D01*
X51867948Y43561000D01*
X59594001Y43561000D01*
X59594001Y38227000D01*
%TO.N,VBUS*%
G36*
X57150000Y25198606D02*
G01*
X55631917Y23680523D01*
X55568512Y23628488D01*
X55516477Y23565083D01*
X55282197Y23330803D01*
X55266403Y23311557D01*
X55254667Y23289601D01*
X55247440Y23265776D01*
X55245000Y23241000D01*
X55245000Y19050000D01*
X55247440Y19025224D01*
X55254667Y19001399D01*
X55266403Y18979443D01*
X55282197Y18960197D01*
X55301443Y18944403D01*
X55323399Y18932667D01*
X55347224Y18925440D01*
X55372000Y18923000D01*
X55807872Y18923000D01*
X55892538Y18897317D01*
X56016000Y18885157D01*
X56766000Y18885157D01*
X56889462Y18897317D01*
X56974128Y18923000D01*
X57150000Y18923000D01*
X57150000Y16181606D01*
X41374394Y406000D01*
X31623000Y406000D01*
X31623000Y5842000D01*
X37973000Y5842000D01*
X37997776Y5844440D01*
X38021601Y5851667D01*
X38043557Y5863403D01*
X38062803Y5879197D01*
X50762803Y18579197D01*
X50778597Y18598443D01*
X50790333Y18620399D01*
X50797560Y18644224D01*
X50800000Y18669000D01*
X50800000Y23442394D01*
X52794803Y25437197D01*
X52810597Y25456443D01*
X52822333Y25478399D01*
X52829560Y25502224D01*
X52832000Y25527000D01*
X52832000Y29845000D01*
X57150000Y29845000D01*
X57150000Y25198606D01*
G37*
X57150000Y25198606D02*
X55631917Y23680523D01*
X55568512Y23628488D01*
X55516477Y23565083D01*
X55282197Y23330803D01*
X55266403Y23311557D01*
X55254667Y23289601D01*
X55247440Y23265776D01*
X55245000Y23241000D01*
X55245000Y19050000D01*
X55247440Y19025224D01*
X55254667Y19001399D01*
X55266403Y18979443D01*
X55282197Y18960197D01*
X55301443Y18944403D01*
X55323399Y18932667D01*
X55347224Y18925440D01*
X55372000Y18923000D01*
X55807872Y18923000D01*
X55892538Y18897317D01*
X56016000Y18885157D01*
X56766000Y18885157D01*
X56889462Y18897317D01*
X56974128Y18923000D01*
X57150000Y18923000D01*
X57150000Y16181606D01*
X41374394Y406000D01*
X31623000Y406000D01*
X31623000Y5842000D01*
X37973000Y5842000D01*
X37997776Y5844440D01*
X38021601Y5851667D01*
X38043557Y5863403D01*
X38062803Y5879197D01*
X50762803Y18579197D01*
X50778597Y18598443D01*
X50790333Y18620399D01*
X50797560Y18644224D01*
X50800000Y18669000D01*
X50800000Y23442394D01*
X52794803Y25437197D01*
X52810597Y25456443D01*
X52822333Y25478399D01*
X52829560Y25502224D01*
X52832000Y25527000D01*
X52832000Y29845000D01*
X57150000Y29845000D01*
X57150000Y25198606D01*
%TO.N,GND*%
G36*
X59594000Y3019854D02*
G01*
X59542688Y2496536D01*
X59396472Y2012244D01*
X59158975Y1565578D01*
X58839245Y1173550D01*
X58449458Y851090D01*
X58004460Y610482D01*
X57521205Y460889D01*
X56998971Y406000D01*
X42092816Y406000D01*
X57546408Y15859592D01*
X57593790Y15917328D01*
X57628998Y15983198D01*
X57650679Y16054671D01*
X57658000Y16129000D01*
X57658000Y19050000D01*
X57650679Y19124329D01*
X57628998Y19195802D01*
X57593790Y19261672D01*
X57546408Y19319408D01*
X57488672Y19366790D01*
X57422802Y19401998D01*
X57351329Y19423679D01*
X57277000Y19431000D01*
X55753000Y19431000D01*
X55753000Y23083184D01*
X57546408Y24876592D01*
X57593790Y24934328D01*
X57628998Y25000198D01*
X57650679Y25071671D01*
X57658000Y25146000D01*
X57658000Y29972000D01*
X57650679Y30046329D01*
X57628998Y30117802D01*
X57593790Y30183672D01*
X57546408Y30241408D01*
X57488672Y30288790D01*
X57422802Y30323998D01*
X57351329Y30345679D01*
X57277000Y30353000D01*
X54231343Y30353000D01*
X54231343Y30399000D01*
X54223987Y30473689D01*
X54202201Y30545508D01*
X54166822Y30611696D01*
X54119211Y30669711D01*
X54061196Y30717322D01*
X53995008Y30752701D01*
X53923189Y30774487D01*
X53848500Y30781843D01*
X52943500Y30781843D01*
X52868811Y30774487D01*
X52796992Y30752701D01*
X52730804Y30717322D01*
X52672789Y30669711D01*
X52625178Y30611696D01*
X52589799Y30545508D01*
X52568013Y30473689D01*
X52560657Y30399000D01*
X52560657Y30324441D01*
X52559198Y30323998D01*
X52493328Y30288790D01*
X52435592Y30241408D01*
X52388210Y30183672D01*
X52353002Y30117802D01*
X52331321Y30046329D01*
X52324000Y29972000D01*
X52324000Y25684816D01*
X52197000Y25557816D01*
X52197000Y31126668D01*
X52222500Y31124157D01*
X52517500Y31124157D01*
X52620965Y31134347D01*
X52720453Y31164527D01*
X52812143Y31213536D01*
X52855000Y31248708D01*
X52897857Y31213536D01*
X52989547Y31164527D01*
X53089035Y31134347D01*
X53192500Y31124157D01*
X53487500Y31124157D01*
X53590965Y31134347D01*
X53690453Y31164527D01*
X53782143Y31213536D01*
X53862509Y31279491D01*
X53896575Y31321000D01*
X53898577Y31321000D01*
X53918490Y31283745D01*
X53992529Y31193529D01*
X54082745Y31119490D01*
X54185672Y31064475D01*
X54297354Y31030596D01*
X54413500Y31019157D01*
X55213500Y31019157D01*
X55329646Y31030596D01*
X55441328Y31064475D01*
X55544255Y31119490D01*
X55634471Y31193529D01*
X55708510Y31283745D01*
X55763525Y31386672D01*
X55797404Y31498354D01*
X55808843Y31614500D01*
X55808843Y32039500D01*
X55797404Y32155646D01*
X55763525Y32267328D01*
X55708510Y32370255D01*
X55634471Y32460471D01*
X55544255Y32534510D01*
X55441328Y32589525D01*
X55329646Y32623404D01*
X55213500Y32634843D01*
X54413500Y32634843D01*
X54297354Y32623404D01*
X54185672Y32589525D01*
X54082745Y32534510D01*
X53992529Y32460471D01*
X53918490Y32370255D01*
X53898577Y32333000D01*
X53896575Y32333000D01*
X53862509Y32374509D01*
X53782143Y32440464D01*
X53690453Y32489473D01*
X53590965Y32519653D01*
X53487500Y32529843D01*
X53192500Y32529843D01*
X53089035Y32519653D01*
X52989547Y32489473D01*
X52897857Y32440464D01*
X52855000Y32405292D01*
X52812143Y32440464D01*
X52720453Y32489473D01*
X52620965Y32519653D01*
X52517500Y32529843D01*
X52222500Y32529843D01*
X52197000Y32527332D01*
X52197000Y33370184D01*
X56545816Y37719000D01*
X59594001Y37719000D01*
X59594000Y3019854D01*
G37*
X59594000Y3019854D02*
X59542688Y2496536D01*
X59396472Y2012244D01*
X59158975Y1565578D01*
X58839245Y1173550D01*
X58449458Y851090D01*
X58004460Y610482D01*
X57521205Y460889D01*
X56998971Y406000D01*
X42092816Y406000D01*
X57546408Y15859592D01*
X57593790Y15917328D01*
X57628998Y15983198D01*
X57650679Y16054671D01*
X57658000Y16129000D01*
X57658000Y19050000D01*
X57650679Y19124329D01*
X57628998Y19195802D01*
X57593790Y19261672D01*
X57546408Y19319408D01*
X57488672Y19366790D01*
X57422802Y19401998D01*
X57351329Y19423679D01*
X57277000Y19431000D01*
X55753000Y19431000D01*
X55753000Y23083184D01*
X57546408Y24876592D01*
X57593790Y24934328D01*
X57628998Y25000198D01*
X57650679Y25071671D01*
X57658000Y25146000D01*
X57658000Y29972000D01*
X57650679Y30046329D01*
X57628998Y30117802D01*
X57593790Y30183672D01*
X57546408Y30241408D01*
X57488672Y30288790D01*
X57422802Y30323998D01*
X57351329Y30345679D01*
X57277000Y30353000D01*
X54231343Y30353000D01*
X54231343Y30399000D01*
X54223987Y30473689D01*
X54202201Y30545508D01*
X54166822Y30611696D01*
X54119211Y30669711D01*
X54061196Y30717322D01*
X53995008Y30752701D01*
X53923189Y30774487D01*
X53848500Y30781843D01*
X52943500Y30781843D01*
X52868811Y30774487D01*
X52796992Y30752701D01*
X52730804Y30717322D01*
X52672789Y30669711D01*
X52625178Y30611696D01*
X52589799Y30545508D01*
X52568013Y30473689D01*
X52560657Y30399000D01*
X52560657Y30324441D01*
X52559198Y30323998D01*
X52493328Y30288790D01*
X52435592Y30241408D01*
X52388210Y30183672D01*
X52353002Y30117802D01*
X52331321Y30046329D01*
X52324000Y29972000D01*
X52324000Y25684816D01*
X52197000Y25557816D01*
X52197000Y31126668D01*
X52222500Y31124157D01*
X52517500Y31124157D01*
X52620965Y31134347D01*
X52720453Y31164527D01*
X52812143Y31213536D01*
X52855000Y31248708D01*
X52897857Y31213536D01*
X52989547Y31164527D01*
X53089035Y31134347D01*
X53192500Y31124157D01*
X53487500Y31124157D01*
X53590965Y31134347D01*
X53690453Y31164527D01*
X53782143Y31213536D01*
X53862509Y31279491D01*
X53896575Y31321000D01*
X53898577Y31321000D01*
X53918490Y31283745D01*
X53992529Y31193529D01*
X54082745Y31119490D01*
X54185672Y31064475D01*
X54297354Y31030596D01*
X54413500Y31019157D01*
X55213500Y31019157D01*
X55329646Y31030596D01*
X55441328Y31064475D01*
X55544255Y31119490D01*
X55634471Y31193529D01*
X55708510Y31283745D01*
X55763525Y31386672D01*
X55797404Y31498354D01*
X55808843Y31614500D01*
X55808843Y32039500D01*
X55797404Y32155646D01*
X55763525Y32267328D01*
X55708510Y32370255D01*
X55634471Y32460471D01*
X55544255Y32534510D01*
X55441328Y32589525D01*
X55329646Y32623404D01*
X55213500Y32634843D01*
X54413500Y32634843D01*
X54297354Y32623404D01*
X54185672Y32589525D01*
X54082745Y32534510D01*
X53992529Y32460471D01*
X53918490Y32370255D01*
X53898577Y32333000D01*
X53896575Y32333000D01*
X53862509Y32374509D01*
X53782143Y32440464D01*
X53690453Y32489473D01*
X53590965Y32519653D01*
X53487500Y32529843D01*
X53192500Y32529843D01*
X53089035Y32519653D01*
X52989547Y32489473D01*
X52897857Y32440464D01*
X52855000Y32405292D01*
X52812143Y32440464D01*
X52720453Y32489473D01*
X52620965Y32519653D01*
X52517500Y32529843D01*
X52222500Y32529843D01*
X52197000Y32527332D01*
X52197000Y33370184D01*
X56545816Y37719000D01*
X59594001Y37719000D01*
X59594000Y3019854D01*
G36*
X57503463Y59542688D02*
G01*
X57987756Y59396471D01*
X58434422Y59158975D01*
X58826450Y58839245D01*
X59148907Y58449461D01*
X59389518Y58004460D01*
X59539111Y57521204D01*
X59594001Y56998965D01*
X59594001Y44069000D01*
X51816000Y44069000D01*
X51744980Y44062322D01*
X51673318Y44041275D01*
X51607139Y44006651D01*
X51548987Y43959781D01*
X44309987Y36847781D01*
X44257928Y36784217D01*
X44223438Y36717968D01*
X44202535Y36646264D01*
X44196023Y36571859D01*
X44253978Y31240000D01*
X39521854Y31240000D01*
X39497000Y31242448D01*
X39472146Y31240000D01*
X39397807Y31232678D01*
X39302425Y31203745D01*
X39214521Y31156759D01*
X39137473Y31093527D01*
X39121628Y31074220D01*
X35893909Y27846500D01*
X35230566Y27846500D01*
X35205456Y27893477D01*
X35130640Y27984640D01*
X35039477Y28059456D01*
X34935470Y28115049D01*
X34892777Y28128000D01*
X34935470Y28140951D01*
X35039477Y28196544D01*
X35130640Y28271360D01*
X35205456Y28362523D01*
X35261049Y28466530D01*
X35295284Y28579385D01*
X35306843Y28696750D01*
X35306843Y29134250D01*
X35295284Y29251615D01*
X35261049Y29364470D01*
X35205456Y29468477D01*
X35130640Y29559640D01*
X35039477Y29634456D01*
X34935470Y29690049D01*
X34822615Y29724284D01*
X34705250Y29735843D01*
X34192750Y29735843D01*
X34113116Y29728000D01*
X33425828Y29728000D01*
X33408777Y29748777D01*
X33328032Y29815043D01*
X33235910Y29864283D01*
X33135953Y29894605D01*
X33032000Y29904843D01*
X32239749Y29904843D01*
X31906000Y30238591D01*
X31906000Y30325672D01*
X31924689Y30327513D01*
X31996508Y30349299D01*
X32062696Y30384678D01*
X32120711Y30432289D01*
X32168322Y30490304D01*
X32203701Y30556492D01*
X32225487Y30628311D01*
X32232843Y30703000D01*
X32232843Y31903000D01*
X32225487Y31977689D01*
X32203701Y32049508D01*
X32168322Y32115696D01*
X32120711Y32173711D01*
X32062696Y32221322D01*
X31996508Y32256701D01*
X31924689Y32278487D01*
X31850000Y32285843D01*
X30950000Y32285843D01*
X30875311Y32278487D01*
X30803492Y32256701D01*
X30737304Y32221322D01*
X30679289Y32173711D01*
X30631678Y32115696D01*
X30596299Y32049508D01*
X30574513Y31977689D01*
X30567157Y31903000D01*
X30567157Y30703000D01*
X30574513Y30628311D01*
X30596299Y30556492D01*
X30631678Y30490304D01*
X30679289Y30432289D01*
X30737304Y30384678D01*
X30803492Y30349299D01*
X30875311Y30327513D01*
X30894001Y30325672D01*
X30894001Y30053856D01*
X30891553Y30029000D01*
X30901322Y29929808D01*
X30930255Y29834426D01*
X30948679Y29799958D01*
X30977242Y29746521D01*
X30990307Y29730602D01*
X30938957Y29668032D01*
X30889717Y29575910D01*
X30859395Y29475953D01*
X30849157Y29372000D01*
X30849157Y29072000D01*
X30859395Y28968047D01*
X30889717Y28868090D01*
X30938957Y28775968D01*
X31005223Y28695223D01*
X31085968Y28628957D01*
X31164464Y28587000D01*
X31085968Y28545043D01*
X31005223Y28478777D01*
X30988172Y28458000D01*
X30770854Y28458000D01*
X30746000Y28460448D01*
X30721146Y28458000D01*
X30646807Y28450678D01*
X30551425Y28421745D01*
X30463521Y28374759D01*
X30386473Y28311527D01*
X30370628Y28292220D01*
X30012780Y27934371D01*
X29993474Y27918527D01*
X29930242Y27841479D01*
X29914594Y27812204D01*
X29883255Y27753574D01*
X29854322Y27658192D01*
X29844553Y27559000D01*
X29847001Y27534144D01*
X29847000Y25043846D01*
X29844553Y25019000D01*
X29847000Y24994154D01*
X29847000Y24994147D01*
X29854322Y24919808D01*
X29883255Y24824426D01*
X29930241Y24736521D01*
X29993473Y24659473D01*
X30012785Y24643624D01*
X30485628Y24170780D01*
X30501473Y24151473D01*
X30578521Y24088241D01*
X30666425Y24041255D01*
X30739607Y24019056D01*
X30761806Y24012322D01*
X30771694Y24011348D01*
X30836146Y24005000D01*
X30836153Y24005000D01*
X30860999Y24002553D01*
X30885845Y24005000D01*
X33630154Y24005000D01*
X33655000Y24002553D01*
X33679846Y24005000D01*
X33679854Y24005000D01*
X33754193Y24012322D01*
X33849575Y24041255D01*
X33929210Y24083821D01*
X33967035Y24072347D01*
X34070500Y24062157D01*
X34365500Y24062157D01*
X34468965Y24072347D01*
X34568453Y24102527D01*
X34660143Y24151536D01*
X34703000Y24186708D01*
X34745857Y24151536D01*
X34837547Y24102527D01*
X34937035Y24072347D01*
X35040500Y24062157D01*
X35175251Y24062157D01*
X35447628Y23789780D01*
X35463473Y23770473D01*
X35540521Y23707241D01*
X35628425Y23660255D01*
X35723807Y23631322D01*
X35823000Y23621552D01*
X35847854Y23624000D01*
X49287154Y23624000D01*
X49312000Y23621553D01*
X49336846Y23624000D01*
X49336854Y23624000D01*
X49411193Y23631322D01*
X49506575Y23660255D01*
X49594479Y23707241D01*
X49671527Y23770473D01*
X49687376Y23789785D01*
X50408591Y24511000D01*
X51150184Y24511000D01*
X50403592Y23764408D01*
X50356210Y23706672D01*
X50321002Y23640802D01*
X50299321Y23569329D01*
X50292000Y23495000D01*
X50292000Y18826816D01*
X37815184Y6350000D01*
X35631000Y6350000D01*
X35631000Y19452002D01*
X35634053Y19483000D01*
X35621870Y19606698D01*
X35585789Y19725642D01*
X35527196Y19835261D01*
X35468103Y19907266D01*
X35468101Y19907268D01*
X35448343Y19931343D01*
X35424269Y19951100D01*
X33742105Y21633263D01*
X33722343Y21657343D01*
X33626261Y21736196D01*
X33516642Y21794789D01*
X33397698Y21830870D01*
X33304998Y21840000D01*
X33304990Y21840000D01*
X33274000Y21843052D01*
X33243010Y21840000D01*
X28605990Y21840000D01*
X28575000Y21843052D01*
X28544009Y21840000D01*
X28544002Y21840000D01*
X28451302Y21830870D01*
X28332358Y21794789D01*
X28222739Y21736196D01*
X28165013Y21688821D01*
X28126657Y21657343D01*
X28106899Y21633268D01*
X27036733Y20563101D01*
X27012658Y20543343D01*
X26992900Y20519268D01*
X26992897Y20519265D01*
X26933804Y20447260D01*
X26875211Y20337641D01*
X26839130Y20218697D01*
X26826948Y20095000D01*
X26830001Y20064000D01*
X26830001Y19821284D01*
X26734411Y19770190D01*
X26638512Y19691488D01*
X26559810Y19595589D01*
X26501329Y19486179D01*
X26465317Y19367462D01*
X26453157Y19244000D01*
X26453157Y17994000D01*
X26465317Y17870538D01*
X26501329Y17751821D01*
X26559810Y17642411D01*
X26638512Y17546512D01*
X26734411Y17467810D01*
X26753000Y17457874D01*
X26753000Y17206843D01*
X26559000Y17206843D01*
X26455047Y17196605D01*
X26355090Y17166283D01*
X26289000Y17130957D01*
X26289000Y21209000D01*
X26281679Y21283329D01*
X26259998Y21354802D01*
X26224790Y21420672D01*
X26177408Y21478408D01*
X26119672Y21525790D01*
X26053802Y21560998D01*
X25982329Y21582679D01*
X25908000Y21590000D01*
X22606000Y21590000D01*
X22531671Y21582679D01*
X22460198Y21560998D01*
X22394328Y21525790D01*
X22336592Y21478408D01*
X22289210Y21420672D01*
X22254002Y21354802D01*
X22232321Y21283329D01*
X22225000Y21209000D01*
X22225000Y11841816D01*
X21844000Y12222816D01*
X21844000Y17907000D01*
X21836679Y17981329D01*
X21814998Y18052802D01*
X21779790Y18118672D01*
X21732408Y18176408D01*
X21674672Y18223790D01*
X21608802Y18258998D01*
X21537329Y18280679D01*
X21463000Y18288000D01*
X17399000Y18288000D01*
X17324671Y18280679D01*
X17253198Y18258998D01*
X17187328Y18223790D01*
X17129592Y18176408D01*
X17082210Y18118672D01*
X17047002Y18052802D01*
X17025321Y17981329D01*
X17018000Y17907000D01*
X17018000Y15432148D01*
X16380600Y16069546D01*
X16380600Y22075000D01*
X27913926Y22075000D01*
X27940000Y22072432D01*
X27966074Y22075000D01*
X27966084Y22075000D01*
X28044094Y22082683D01*
X28144188Y22113047D01*
X28236435Y22162354D01*
X28317290Y22228710D01*
X28333921Y22248975D01*
X29440030Y23355083D01*
X29460290Y23371710D01*
X29502530Y23423179D01*
X29526646Y23452564D01*
X29575953Y23544812D01*
X29599232Y23621552D01*
X29606317Y23644906D01*
X29614000Y23722916D01*
X29614000Y23722925D01*
X29616568Y23748999D01*
X29614000Y23775073D01*
X29614000Y28675927D01*
X29616568Y28702001D01*
X29614000Y28728075D01*
X29614000Y28728084D01*
X29606317Y28806094D01*
X29575953Y28906188D01*
X29565558Y28925635D01*
X29526646Y28998436D01*
X29476917Y29059030D01*
X29460290Y29079290D01*
X29440030Y29095917D01*
X28956921Y29579025D01*
X28940290Y29599290D01*
X28859435Y29665646D01*
X28767188Y29714953D01*
X28667094Y29745317D01*
X28589084Y29753000D01*
X28589074Y29753000D01*
X28563000Y29755568D01*
X28536926Y29753000D01*
X28498532Y29753000D01*
X28522759Y29782521D01*
X28569745Y29870425D01*
X28598678Y29965807D01*
X28606000Y30040146D01*
X28606000Y30040153D01*
X28608447Y30064999D01*
X28606000Y30089845D01*
X28606000Y30325672D01*
X28624689Y30327513D01*
X28696508Y30349299D01*
X28762696Y30384678D01*
X28820711Y30432289D01*
X28868322Y30490304D01*
X28903701Y30556492D01*
X28925487Y30628311D01*
X28932843Y30703000D01*
X28932843Y31903000D01*
X28925487Y31977689D01*
X28903701Y32049508D01*
X28868322Y32115696D01*
X28820711Y32173711D01*
X28762696Y32221322D01*
X28696508Y32256701D01*
X28624689Y32278487D01*
X28550000Y32285843D01*
X27650000Y32285843D01*
X27575311Y32278487D01*
X27503492Y32256701D01*
X27437304Y32221322D01*
X27379289Y32173711D01*
X27331678Y32115696D01*
X27296299Y32049508D01*
X27274513Y31977689D01*
X27267157Y31903000D01*
X27267157Y30703000D01*
X27274513Y30628311D01*
X27296299Y30556492D01*
X27331678Y30490304D01*
X27379289Y30432289D01*
X27437304Y30384678D01*
X27503492Y30349299D01*
X27575311Y30327513D01*
X27594001Y30325672D01*
X27594001Y30274593D01*
X27224252Y29904843D01*
X27210122Y29904843D01*
X27208000Y29905052D01*
X27205878Y29904843D01*
X26432000Y29904843D01*
X26403133Y29902000D01*
X25310335Y29902000D01*
X25251453Y29933473D01*
X25151965Y29963653D01*
X25048500Y29973843D01*
X24753500Y29973843D01*
X24650035Y29963653D01*
X24550547Y29933473D01*
X24458857Y29884464D01*
X24378491Y29818509D01*
X24312536Y29738143D01*
X24263527Y29646453D01*
X24233347Y29546965D01*
X24223157Y29443500D01*
X24223157Y29098500D01*
X24233347Y28995035D01*
X24263527Y28895547D01*
X24312536Y28803857D01*
X24378491Y28723491D01*
X24458857Y28657536D01*
X24550547Y28608527D01*
X24650035Y28578347D01*
X24655502Y28577809D01*
X24569347Y28551673D01*
X24477657Y28502664D01*
X24434800Y28467492D01*
X24391943Y28502664D01*
X24300253Y28551673D01*
X24200765Y28581853D01*
X24097300Y28592043D01*
X23802300Y28592043D01*
X23698835Y28581853D01*
X23599347Y28551673D01*
X23507657Y28502664D01*
X23427291Y28436709D01*
X23393225Y28395200D01*
X13182045Y28395200D01*
X13157199Y28397647D01*
X13132353Y28395200D01*
X13132346Y28395200D01*
X13067894Y28388852D01*
X13058006Y28387878D01*
X13048809Y28385088D01*
X12962625Y28358945D01*
X12874721Y28311959D01*
X12797673Y28248727D01*
X12781829Y28229421D01*
X9138409Y24586000D01*
X6756963Y24586000D01*
X6643261Y24589979D01*
X6541859Y24600989D01*
X6445930Y24618963D01*
X6354912Y24643715D01*
X6268206Y24675184D01*
X6185177Y24713474D01*
X6105209Y24758853D01*
X6027771Y24811737D01*
X5952496Y24872616D01*
X5873855Y24947042D01*
X5784717Y25036180D01*
X5583097Y25170898D01*
X5359069Y25263693D01*
X5121243Y25311000D01*
X4878757Y25311000D01*
X4640931Y25263693D01*
X4416903Y25170898D01*
X4215283Y25036180D01*
X4043820Y24864717D01*
X3909102Y24663097D01*
X3816307Y24439069D01*
X3769000Y24201243D01*
X3769000Y23958757D01*
X3816307Y23720931D01*
X3909102Y23496903D01*
X4043820Y23295283D01*
X4215283Y23123820D01*
X4416903Y22989102D01*
X4640931Y22896307D01*
X4878757Y22849000D01*
X5121243Y22849000D01*
X5359069Y22896307D01*
X5583097Y22989102D01*
X5784717Y23123820D01*
X5873855Y23212958D01*
X5952496Y23287384D01*
X6027771Y23348263D01*
X6105205Y23401144D01*
X6185177Y23446526D01*
X6268211Y23484818D01*
X6354912Y23516285D01*
X6445930Y23541037D01*
X6541859Y23559011D01*
X6643261Y23570021D01*
X6756963Y23574000D01*
X9323154Y23574000D01*
X9348000Y23571553D01*
X9372846Y23574000D01*
X9372854Y23574000D01*
X9447193Y23581322D01*
X9542575Y23610255D01*
X9630479Y23657241D01*
X9707527Y23720473D01*
X9723376Y23739785D01*
X13366792Y27383200D01*
X23393225Y27383200D01*
X23427291Y27341691D01*
X23507657Y27275736D01*
X23599347Y27226727D01*
X23698835Y27196547D01*
X23802300Y27186357D01*
X24097300Y27186357D01*
X24200765Y27196547D01*
X24300253Y27226727D01*
X24391943Y27275736D01*
X24434800Y27310908D01*
X24477657Y27275736D01*
X24569347Y27226727D01*
X24668835Y27196547D01*
X24772300Y27186357D01*
X25064465Y27186357D01*
X25006807Y27180678D01*
X25004054Y27179843D01*
X24753500Y27179843D01*
X24650035Y27169653D01*
X24550547Y27139473D01*
X24458857Y27090464D01*
X24378491Y27024509D01*
X24312536Y26944143D01*
X24263527Y26852453D01*
X24233347Y26752965D01*
X24223157Y26649500D01*
X24223157Y26304500D01*
X24233347Y26201035D01*
X24263527Y26101547D01*
X24312536Y26009857D01*
X24378491Y25929491D01*
X24458857Y25863536D01*
X24550547Y25814527D01*
X24650035Y25784347D01*
X24753500Y25774157D01*
X25048500Y25774157D01*
X25151965Y25784347D01*
X25251453Y25814527D01*
X25343143Y25863536D01*
X25423509Y25929491D01*
X25489464Y26009857D01*
X25538473Y26101547D01*
X25544366Y26120975D01*
X25555284Y26128361D01*
X25604802Y26161069D01*
X25627871Y26176000D01*
X26038172Y26176000D01*
X26055223Y26155223D01*
X26135968Y26088957D01*
X26228090Y26039717D01*
X26328047Y26009395D01*
X26432000Y25999157D01*
X28082000Y25999157D01*
X28185953Y26009395D01*
X28285910Y26039717D01*
X28378032Y26088957D01*
X28458777Y26155223D01*
X28525043Y26235968D01*
X28552000Y26286402D01*
X28552001Y23968948D01*
X27720054Y23137000D01*
X15875684Y23137000D01*
X15849600Y23139569D01*
X15823516Y23137000D01*
X9143074Y23137000D01*
X9117000Y23139568D01*
X9090926Y23137000D01*
X9090916Y23137000D01*
X9012906Y23129317D01*
X8912812Y23098953D01*
X8820564Y23049646D01*
X8759970Y22999918D01*
X8759964Y22999912D01*
X8739710Y22983290D01*
X8723088Y22963035D01*
X7831054Y22071000D01*
X6696595Y22071000D01*
X6589952Y22074730D01*
X6495363Y22084994D01*
X6406014Y22101725D01*
X6321373Y22124730D01*
X6240811Y22153956D01*
X6163715Y22189496D01*
X6089448Y22231627D01*
X6017483Y22280762D01*
X5947468Y22337378D01*
X5873845Y22407052D01*
X5784717Y22496180D01*
X5583097Y22630898D01*
X5359069Y22723693D01*
X5121243Y22771000D01*
X4878757Y22771000D01*
X4640931Y22723693D01*
X4416903Y22630898D01*
X4215283Y22496180D01*
X4043820Y22324717D01*
X3909102Y22123097D01*
X3816307Y21899069D01*
X3769000Y21661243D01*
X3769000Y21418757D01*
X3816307Y21180931D01*
X3909102Y20956903D01*
X4043820Y20755283D01*
X4215283Y20583820D01*
X4416903Y20449102D01*
X4640931Y20356307D01*
X4878757Y20309000D01*
X5121243Y20309000D01*
X5359069Y20356307D01*
X5583097Y20449102D01*
X5784717Y20583820D01*
X5873849Y20672952D01*
X5947468Y20742623D01*
X6017483Y20799239D01*
X6089448Y20848374D01*
X6163715Y20890505D01*
X6240811Y20926045D01*
X6321373Y20955271D01*
X6406014Y20978276D01*
X6495363Y20995007D01*
X6589952Y21005271D01*
X6696591Y21009000D01*
X8024926Y21009000D01*
X8051000Y21006432D01*
X8077074Y21009000D01*
X8077084Y21009000D01*
X8155094Y21016683D01*
X8255188Y21047047D01*
X8347435Y21096354D01*
X8428290Y21162710D01*
X8444921Y21182975D01*
X9336948Y22075000D01*
X15318601Y22075000D01*
X15318600Y15875674D01*
X15316032Y15849600D01*
X15318600Y15823526D01*
X15318600Y15823517D01*
X15326283Y15745507D01*
X15356647Y15645413D01*
X15405954Y15553165D01*
X15472310Y15472310D01*
X15492575Y15455679D01*
X16496288Y14451965D01*
X16512910Y14431710D01*
X16533164Y14415088D01*
X16533170Y14415082D01*
X16593764Y14365354D01*
X16686012Y14316047D01*
X16786106Y14285683D01*
X16864116Y14278000D01*
X16864126Y14278000D01*
X16890200Y14275432D01*
X16916274Y14278000D01*
X17018000Y14278000D01*
X17018000Y11811000D01*
X17025399Y11736280D01*
X17047155Y11664829D01*
X17082432Y11598996D01*
X17129874Y11541311D01*
X17187659Y11493989D01*
X18161000Y10845095D01*
X18161000Y9271000D01*
X18168321Y9196671D01*
X18190002Y9125198D01*
X18225210Y9059328D01*
X18272592Y9001592D01*
X18330328Y8954210D01*
X18396198Y8919002D01*
X18467671Y8897321D01*
X18542000Y8890000D01*
X22758408Y8890000D01*
X23479628Y8168780D01*
X23495473Y8149473D01*
X23572521Y8086241D01*
X23660425Y8039255D01*
X23755807Y8010322D01*
X23830146Y8003000D01*
X23830153Y8003000D01*
X23854999Y8000553D01*
X23879845Y8003000D01*
X25756154Y8003000D01*
X25781000Y8000553D01*
X25805846Y8003000D01*
X25805854Y8003000D01*
X25880193Y8010322D01*
X25975575Y8039255D01*
X26063479Y8086241D01*
X26140527Y8149473D01*
X26156376Y8168785D01*
X27033220Y9045628D01*
X27052527Y9061473D01*
X27115759Y9138521D01*
X27162745Y9226425D01*
X27191678Y9321807D01*
X27197007Y9375907D01*
X27201448Y9421000D01*
X27199000Y9445854D01*
X27199000Y9564474D01*
X27220857Y9546536D01*
X27312547Y9497527D01*
X27412035Y9467347D01*
X27515500Y9457157D01*
X27810500Y9457157D01*
X27913965Y9467347D01*
X28013453Y9497527D01*
X28105143Y9546536D01*
X28185509Y9612491D01*
X28219575Y9654000D01*
X28295425Y9654000D01*
X28329491Y9612491D01*
X28409857Y9546536D01*
X28501547Y9497527D01*
X28601035Y9467347D01*
X28704500Y9457157D01*
X28999500Y9457157D01*
X29102965Y9467347D01*
X29202453Y9497527D01*
X29294143Y9546536D01*
X29374509Y9612491D01*
X29440464Y9692857D01*
X29489473Y9784547D01*
X29519653Y9884035D01*
X29529843Y9987500D01*
X29529843Y10332500D01*
X29519653Y10435965D01*
X29489473Y10535453D01*
X29440464Y10627143D01*
X29374509Y10707509D01*
X29358000Y10721058D01*
X29358000Y13668155D01*
X29360447Y13693001D01*
X29358000Y13717847D01*
X29358000Y13717854D01*
X29350678Y13792193D01*
X29337997Y13834000D01*
X29321745Y13887575D01*
X29283647Y13958850D01*
X29274759Y13975479D01*
X29211527Y14052527D01*
X29192215Y14068376D01*
X28936376Y14324215D01*
X28920527Y14343527D01*
X28843479Y14406759D01*
X28755575Y14453745D01*
X28660193Y14482678D01*
X28604321Y14488181D01*
X28585777Y14510777D01*
X28566455Y14526635D01*
X28567679Y14530671D01*
X28575000Y14605000D01*
X28575000Y14718379D01*
X28585777Y14727223D01*
X28652043Y14807968D01*
X28701283Y14900090D01*
X28731605Y15000047D01*
X28741843Y15104000D01*
X28741843Y15404000D01*
X28731605Y15507953D01*
X28701283Y15607910D01*
X28652043Y15700032D01*
X28585777Y15780777D01*
X28575000Y15789621D01*
X28575000Y15875000D01*
X28567679Y15949329D01*
X28559654Y15975784D01*
X28585777Y15997223D01*
X28652043Y16077968D01*
X28701283Y16170090D01*
X28731605Y16270047D01*
X28741843Y16374000D01*
X28741843Y16674000D01*
X28731605Y16777953D01*
X28701283Y16877910D01*
X28652043Y16970032D01*
X28585777Y17050777D01*
X28505032Y17117043D01*
X28412910Y17166283D01*
X28312953Y17196605D01*
X28209000Y17206843D01*
X28015000Y17206843D01*
X28015000Y17390164D01*
X28078179Y17409329D01*
X28187589Y17467810D01*
X28283488Y17546512D01*
X28362190Y17642411D01*
X28420671Y17751821D01*
X28456683Y17870538D01*
X28468843Y17994000D01*
X28468843Y19244000D01*
X28456683Y19367462D01*
X28420671Y19486179D01*
X28362190Y19595589D01*
X28283488Y19691488D01*
X28187589Y19770190D01*
X28092000Y19821284D01*
X28092000Y19833632D01*
X28836369Y20578000D01*
X33012632Y20578000D01*
X34369000Y19221631D01*
X34369001Y6350000D01*
X31496000Y6350000D01*
X31421671Y6342679D01*
X31350198Y6320998D01*
X31284328Y6285790D01*
X31226592Y6238408D01*
X31179210Y6180672D01*
X31144002Y6114802D01*
X31122321Y6043329D01*
X31115000Y5969000D01*
X31115000Y406000D01*
X3019854Y406000D01*
X2496536Y457312D01*
X2012244Y603528D01*
X1565578Y841025D01*
X1173550Y1160755D01*
X851090Y1550542D01*
X610482Y1995540D01*
X460889Y2478795D01*
X406000Y3001029D01*
X406000Y56980146D01*
X407946Y57000000D01*
X10092036Y57000000D01*
X10094001Y56980049D01*
X10094000Y43019941D01*
X10092036Y43000000D01*
X10099875Y42920410D01*
X10123090Y42843879D01*
X10160790Y42773347D01*
X10211526Y42711526D01*
X10273347Y42660790D01*
X10343879Y42623090D01*
X10420410Y42599875D01*
X10500000Y42592036D01*
X10519940Y42594000D01*
X13480060Y42594000D01*
X13500000Y42592036D01*
X13579590Y42599875D01*
X13656121Y42623090D01*
X13726653Y42660790D01*
X13788474Y42711526D01*
X13839210Y42773347D01*
X13876910Y42843879D01*
X13900125Y42920410D01*
X13906000Y42980059D01*
X13906000Y42980060D01*
X13907964Y43000000D01*
X13906000Y43019941D01*
X13906000Y56980059D01*
X13907964Y57000000D01*
X16092036Y57000000D01*
X16094001Y56980049D01*
X16094000Y34019941D01*
X16092036Y34000000D01*
X16099875Y33920410D01*
X16123090Y33843879D01*
X16160790Y33773347D01*
X16211526Y33711526D01*
X16273347Y33660790D01*
X16343879Y33623090D01*
X16420410Y33599875D01*
X16500000Y33592036D01*
X16519940Y33594000D01*
X19480060Y33594000D01*
X19500000Y33592036D01*
X19579590Y33599875D01*
X19656121Y33623090D01*
X19726653Y33660790D01*
X19788474Y33711526D01*
X19839210Y33773347D01*
X19876910Y33843879D01*
X19900125Y33920410D01*
X19906000Y33980059D01*
X19906000Y33980060D01*
X19907964Y34000000D01*
X19906000Y34019941D01*
X19906000Y56980059D01*
X19907964Y57000000D01*
X22092036Y57000000D01*
X22094001Y56980049D01*
X22094000Y34019941D01*
X22092036Y34000000D01*
X22099875Y33920410D01*
X22123090Y33843879D01*
X22160790Y33773347D01*
X22211526Y33711526D01*
X22273347Y33660790D01*
X22343879Y33623090D01*
X22420410Y33599875D01*
X22500000Y33592036D01*
X22519940Y33594000D01*
X25480060Y33594000D01*
X25500000Y33592036D01*
X25579590Y33599875D01*
X25656121Y33623090D01*
X25726653Y33660790D01*
X25788474Y33711526D01*
X25839210Y33773347D01*
X25876910Y33843879D01*
X25900125Y33920410D01*
X25906000Y33980059D01*
X25906000Y33980060D01*
X25907964Y34000000D01*
X25906000Y34019941D01*
X25906000Y56980059D01*
X25907964Y57000000D01*
X28092036Y57000000D01*
X28094001Y56980049D01*
X28094000Y34019941D01*
X28092036Y34000000D01*
X28099875Y33920410D01*
X28123090Y33843879D01*
X28160790Y33773347D01*
X28211526Y33711526D01*
X28273347Y33660790D01*
X28343879Y33623090D01*
X28420410Y33599875D01*
X28500000Y33592036D01*
X28519940Y33594000D01*
X31480060Y33594000D01*
X31500000Y33592036D01*
X31579590Y33599875D01*
X31656121Y33623090D01*
X31726653Y33660790D01*
X31788474Y33711526D01*
X31839210Y33773347D01*
X31876910Y33843879D01*
X31900125Y33920410D01*
X31906000Y33980059D01*
X31906000Y33980060D01*
X31907964Y34000000D01*
X31906000Y34019941D01*
X31906000Y56980059D01*
X31907964Y57000000D01*
X34092036Y57000000D01*
X34094001Y56980049D01*
X34094000Y34019941D01*
X34092036Y34000000D01*
X34099875Y33920410D01*
X34123090Y33843879D01*
X34160790Y33773347D01*
X34211526Y33711526D01*
X34273347Y33660790D01*
X34343879Y33623090D01*
X34420410Y33599875D01*
X34500000Y33592036D01*
X34519940Y33594000D01*
X37480060Y33594000D01*
X37500000Y33592036D01*
X37579590Y33599875D01*
X37656121Y33623090D01*
X37726653Y33660790D01*
X37788474Y33711526D01*
X37839210Y33773347D01*
X37876910Y33843879D01*
X37900125Y33920410D01*
X37906000Y33980059D01*
X37906000Y33980060D01*
X37907964Y34000000D01*
X37906000Y34019941D01*
X37906000Y56980059D01*
X37907964Y57000000D01*
X40092036Y57000000D01*
X40094001Y56980049D01*
X40094000Y34019941D01*
X40092036Y34000000D01*
X40099875Y33920410D01*
X40123090Y33843879D01*
X40160790Y33773347D01*
X40211526Y33711526D01*
X40273347Y33660790D01*
X40343879Y33623090D01*
X40420410Y33599875D01*
X40500000Y33592036D01*
X40519940Y33594000D01*
X43480060Y33594000D01*
X43500000Y33592036D01*
X43579590Y33599875D01*
X43656121Y33623090D01*
X43726653Y33660790D01*
X43788474Y33711526D01*
X43839210Y33773347D01*
X43876910Y33843879D01*
X43900125Y33920410D01*
X43906000Y33980059D01*
X43906000Y33980060D01*
X43907964Y34000000D01*
X43906000Y34019941D01*
X43906000Y56980059D01*
X43907964Y57000000D01*
X46092036Y57000000D01*
X46094001Y56980049D01*
X46094000Y43019941D01*
X46092036Y43000000D01*
X46099875Y42920410D01*
X46123090Y42843879D01*
X46160790Y42773347D01*
X46211526Y42711526D01*
X46273347Y42660790D01*
X46343879Y42623090D01*
X46420410Y42599875D01*
X46500000Y42592036D01*
X46519940Y42594000D01*
X49480060Y42594000D01*
X49500000Y42592036D01*
X49579590Y42599875D01*
X49656121Y42623090D01*
X49726653Y42660790D01*
X49788474Y42711526D01*
X49839210Y42773347D01*
X49876910Y42843879D01*
X49900125Y42920410D01*
X49906000Y42980059D01*
X49906000Y42980060D01*
X49907964Y43000000D01*
X49906000Y43019941D01*
X49906000Y56980059D01*
X49907964Y57000000D01*
X49900125Y57079590D01*
X49876910Y57156121D01*
X49839210Y57226653D01*
X49788474Y57288474D01*
X49726653Y57339210D01*
X49656121Y57376910D01*
X49579590Y57400125D01*
X49519941Y57406000D01*
X49519940Y57406000D01*
X49500000Y57407964D01*
X49480059Y57406000D01*
X46519941Y57406000D01*
X46500000Y57407964D01*
X46480060Y57406000D01*
X46480059Y57406000D01*
X46420410Y57400125D01*
X46343879Y57376910D01*
X46273347Y57339210D01*
X46211526Y57288474D01*
X46160790Y57226653D01*
X46123090Y57156121D01*
X46099875Y57079590D01*
X46092036Y57000000D01*
X43907964Y57000000D01*
X43900125Y57079590D01*
X43876910Y57156121D01*
X43839210Y57226653D01*
X43788474Y57288474D01*
X43726653Y57339210D01*
X43656121Y57376910D01*
X43579590Y57400125D01*
X43519941Y57406000D01*
X43519940Y57406000D01*
X43500000Y57407964D01*
X43480059Y57406000D01*
X40519941Y57406000D01*
X40500000Y57407964D01*
X40480060Y57406000D01*
X40480059Y57406000D01*
X40420410Y57400125D01*
X40343879Y57376910D01*
X40273347Y57339210D01*
X40211526Y57288474D01*
X40160790Y57226653D01*
X40123090Y57156121D01*
X40099875Y57079590D01*
X40092036Y57000000D01*
X37907964Y57000000D01*
X37900125Y57079590D01*
X37876910Y57156121D01*
X37839210Y57226653D01*
X37788474Y57288474D01*
X37726653Y57339210D01*
X37656121Y57376910D01*
X37579590Y57400125D01*
X37519941Y57406000D01*
X37519940Y57406000D01*
X37500000Y57407964D01*
X37480059Y57406000D01*
X34519941Y57406000D01*
X34500000Y57407964D01*
X34480060Y57406000D01*
X34480059Y57406000D01*
X34420410Y57400125D01*
X34343879Y57376910D01*
X34273347Y57339210D01*
X34211526Y57288474D01*
X34160790Y57226653D01*
X34123090Y57156121D01*
X34099875Y57079590D01*
X34092036Y57000000D01*
X31907964Y57000000D01*
X31900125Y57079590D01*
X31876910Y57156121D01*
X31839210Y57226653D01*
X31788474Y57288474D01*
X31726653Y57339210D01*
X31656121Y57376910D01*
X31579590Y57400125D01*
X31519941Y57406000D01*
X31519940Y57406000D01*
X31500000Y57407964D01*
X31480059Y57406000D01*
X28519941Y57406000D01*
X28500000Y57407964D01*
X28480060Y57406000D01*
X28480059Y57406000D01*
X28420410Y57400125D01*
X28343879Y57376910D01*
X28273347Y57339210D01*
X28211526Y57288474D01*
X28160790Y57226653D01*
X28123090Y57156121D01*
X28099875Y57079590D01*
X28092036Y57000000D01*
X25907964Y57000000D01*
X25900125Y57079590D01*
X25876910Y57156121D01*
X25839210Y57226653D01*
X25788474Y57288474D01*
X25726653Y57339210D01*
X25656121Y57376910D01*
X25579590Y57400125D01*
X25519941Y57406000D01*
X25519940Y57406000D01*
X25500000Y57407964D01*
X25480059Y57406000D01*
X22519941Y57406000D01*
X22500000Y57407964D01*
X22480060Y57406000D01*
X22480059Y57406000D01*
X22420410Y57400125D01*
X22343879Y57376910D01*
X22273347Y57339210D01*
X22211526Y57288474D01*
X22160790Y57226653D01*
X22123090Y57156121D01*
X22099875Y57079590D01*
X22092036Y57000000D01*
X19907964Y57000000D01*
X19900125Y57079590D01*
X19876910Y57156121D01*
X19839210Y57226653D01*
X19788474Y57288474D01*
X19726653Y57339210D01*
X19656121Y57376910D01*
X19579590Y57400125D01*
X19519941Y57406000D01*
X19519940Y57406000D01*
X19500000Y57407964D01*
X19480059Y57406000D01*
X16519941Y57406000D01*
X16500000Y57407964D01*
X16480060Y57406000D01*
X16480059Y57406000D01*
X16420410Y57400125D01*
X16343879Y57376910D01*
X16273347Y57339210D01*
X16211526Y57288474D01*
X16160790Y57226653D01*
X16123090Y57156121D01*
X16099875Y57079590D01*
X16092036Y57000000D01*
X13907964Y57000000D01*
X13900125Y57079590D01*
X13876910Y57156121D01*
X13839210Y57226653D01*
X13788474Y57288474D01*
X13726653Y57339210D01*
X13656121Y57376910D01*
X13579590Y57400125D01*
X13519941Y57406000D01*
X13519940Y57406000D01*
X13500000Y57407964D01*
X13480059Y57406000D01*
X10519941Y57406000D01*
X10500000Y57407964D01*
X10480060Y57406000D01*
X10480059Y57406000D01*
X10420410Y57400125D01*
X10343879Y57376910D01*
X10273347Y57339210D01*
X10211526Y57288474D01*
X10160790Y57226653D01*
X10123090Y57156121D01*
X10099875Y57079590D01*
X10092036Y57000000D01*
X407946Y57000000D01*
X457312Y57503463D01*
X603529Y57987756D01*
X841025Y58434422D01*
X1160755Y58826450D01*
X1550539Y59148907D01*
X1995540Y59389518D01*
X2478796Y59539111D01*
X3001029Y59594000D01*
X56980146Y59594000D01*
X57503463Y59542688D01*
G37*
X57503463Y59542688D02*
X57987756Y59396471D01*
X58434422Y59158975D01*
X58826450Y58839245D01*
X59148907Y58449461D01*
X59389518Y58004460D01*
X59539111Y57521204D01*
X59594001Y56998965D01*
X59594001Y44069000D01*
X51816000Y44069000D01*
X51744980Y44062322D01*
X51673318Y44041275D01*
X51607139Y44006651D01*
X51548987Y43959781D01*
X44309987Y36847781D01*
X44257928Y36784217D01*
X44223438Y36717968D01*
X44202535Y36646264D01*
X44196023Y36571859D01*
X44253978Y31240000D01*
X39521854Y31240000D01*
X39497000Y31242448D01*
X39472146Y31240000D01*
X39397807Y31232678D01*
X39302425Y31203745D01*
X39214521Y31156759D01*
X39137473Y31093527D01*
X39121628Y31074220D01*
X35893909Y27846500D01*
X35230566Y27846500D01*
X35205456Y27893477D01*
X35130640Y27984640D01*
X35039477Y28059456D01*
X34935470Y28115049D01*
X34892777Y28128000D01*
X34935470Y28140951D01*
X35039477Y28196544D01*
X35130640Y28271360D01*
X35205456Y28362523D01*
X35261049Y28466530D01*
X35295284Y28579385D01*
X35306843Y28696750D01*
X35306843Y29134250D01*
X35295284Y29251615D01*
X35261049Y29364470D01*
X35205456Y29468477D01*
X35130640Y29559640D01*
X35039477Y29634456D01*
X34935470Y29690049D01*
X34822615Y29724284D01*
X34705250Y29735843D01*
X34192750Y29735843D01*
X34113116Y29728000D01*
X33425828Y29728000D01*
X33408777Y29748777D01*
X33328032Y29815043D01*
X33235910Y29864283D01*
X33135953Y29894605D01*
X33032000Y29904843D01*
X32239749Y29904843D01*
X31906000Y30238591D01*
X31906000Y30325672D01*
X31924689Y30327513D01*
X31996508Y30349299D01*
X32062696Y30384678D01*
X32120711Y30432289D01*
X32168322Y30490304D01*
X32203701Y30556492D01*
X32225487Y30628311D01*
X32232843Y30703000D01*
X32232843Y31903000D01*
X32225487Y31977689D01*
X32203701Y32049508D01*
X32168322Y32115696D01*
X32120711Y32173711D01*
X32062696Y32221322D01*
X31996508Y32256701D01*
X31924689Y32278487D01*
X31850000Y32285843D01*
X30950000Y32285843D01*
X30875311Y32278487D01*
X30803492Y32256701D01*
X30737304Y32221322D01*
X30679289Y32173711D01*
X30631678Y32115696D01*
X30596299Y32049508D01*
X30574513Y31977689D01*
X30567157Y31903000D01*
X30567157Y30703000D01*
X30574513Y30628311D01*
X30596299Y30556492D01*
X30631678Y30490304D01*
X30679289Y30432289D01*
X30737304Y30384678D01*
X30803492Y30349299D01*
X30875311Y30327513D01*
X30894001Y30325672D01*
X30894001Y30053856D01*
X30891553Y30029000D01*
X30901322Y29929808D01*
X30930255Y29834426D01*
X30948679Y29799958D01*
X30977242Y29746521D01*
X30990307Y29730602D01*
X30938957Y29668032D01*
X30889717Y29575910D01*
X30859395Y29475953D01*
X30849157Y29372000D01*
X30849157Y29072000D01*
X30859395Y28968047D01*
X30889717Y28868090D01*
X30938957Y28775968D01*
X31005223Y28695223D01*
X31085968Y28628957D01*
X31164464Y28587000D01*
X31085968Y28545043D01*
X31005223Y28478777D01*
X30988172Y28458000D01*
X30770854Y28458000D01*
X30746000Y28460448D01*
X30721146Y28458000D01*
X30646807Y28450678D01*
X30551425Y28421745D01*
X30463521Y28374759D01*
X30386473Y28311527D01*
X30370628Y28292220D01*
X30012780Y27934371D01*
X29993474Y27918527D01*
X29930242Y27841479D01*
X29914594Y27812204D01*
X29883255Y27753574D01*
X29854322Y27658192D01*
X29844553Y27559000D01*
X29847001Y27534144D01*
X29847000Y25043846D01*
X29844553Y25019000D01*
X29847000Y24994154D01*
X29847000Y24994147D01*
X29854322Y24919808D01*
X29883255Y24824426D01*
X29930241Y24736521D01*
X29993473Y24659473D01*
X30012785Y24643624D01*
X30485628Y24170780D01*
X30501473Y24151473D01*
X30578521Y24088241D01*
X30666425Y24041255D01*
X30739607Y24019056D01*
X30761806Y24012322D01*
X30771694Y24011348D01*
X30836146Y24005000D01*
X30836153Y24005000D01*
X30860999Y24002553D01*
X30885845Y24005000D01*
X33630154Y24005000D01*
X33655000Y24002553D01*
X33679846Y24005000D01*
X33679854Y24005000D01*
X33754193Y24012322D01*
X33849575Y24041255D01*
X33929210Y24083821D01*
X33967035Y24072347D01*
X34070500Y24062157D01*
X34365500Y24062157D01*
X34468965Y24072347D01*
X34568453Y24102527D01*
X34660143Y24151536D01*
X34703000Y24186708D01*
X34745857Y24151536D01*
X34837547Y24102527D01*
X34937035Y24072347D01*
X35040500Y24062157D01*
X35175251Y24062157D01*
X35447628Y23789780D01*
X35463473Y23770473D01*
X35540521Y23707241D01*
X35628425Y23660255D01*
X35723807Y23631322D01*
X35823000Y23621552D01*
X35847854Y23624000D01*
X49287154Y23624000D01*
X49312000Y23621553D01*
X49336846Y23624000D01*
X49336854Y23624000D01*
X49411193Y23631322D01*
X49506575Y23660255D01*
X49594479Y23707241D01*
X49671527Y23770473D01*
X49687376Y23789785D01*
X50408591Y24511000D01*
X51150184Y24511000D01*
X50403592Y23764408D01*
X50356210Y23706672D01*
X50321002Y23640802D01*
X50299321Y23569329D01*
X50292000Y23495000D01*
X50292000Y18826816D01*
X37815184Y6350000D01*
X35631000Y6350000D01*
X35631000Y19452002D01*
X35634053Y19483000D01*
X35621870Y19606698D01*
X35585789Y19725642D01*
X35527196Y19835261D01*
X35468103Y19907266D01*
X35468101Y19907268D01*
X35448343Y19931343D01*
X35424269Y19951100D01*
X33742105Y21633263D01*
X33722343Y21657343D01*
X33626261Y21736196D01*
X33516642Y21794789D01*
X33397698Y21830870D01*
X33304998Y21840000D01*
X33304990Y21840000D01*
X33274000Y21843052D01*
X33243010Y21840000D01*
X28605990Y21840000D01*
X28575000Y21843052D01*
X28544009Y21840000D01*
X28544002Y21840000D01*
X28451302Y21830870D01*
X28332358Y21794789D01*
X28222739Y21736196D01*
X28165013Y21688821D01*
X28126657Y21657343D01*
X28106899Y21633268D01*
X27036733Y20563101D01*
X27012658Y20543343D01*
X26992900Y20519268D01*
X26992897Y20519265D01*
X26933804Y20447260D01*
X26875211Y20337641D01*
X26839130Y20218697D01*
X26826948Y20095000D01*
X26830001Y20064000D01*
X26830001Y19821284D01*
X26734411Y19770190D01*
X26638512Y19691488D01*
X26559810Y19595589D01*
X26501329Y19486179D01*
X26465317Y19367462D01*
X26453157Y19244000D01*
X26453157Y17994000D01*
X26465317Y17870538D01*
X26501329Y17751821D01*
X26559810Y17642411D01*
X26638512Y17546512D01*
X26734411Y17467810D01*
X26753000Y17457874D01*
X26753000Y17206843D01*
X26559000Y17206843D01*
X26455047Y17196605D01*
X26355090Y17166283D01*
X26289000Y17130957D01*
X26289000Y21209000D01*
X26281679Y21283329D01*
X26259998Y21354802D01*
X26224790Y21420672D01*
X26177408Y21478408D01*
X26119672Y21525790D01*
X26053802Y21560998D01*
X25982329Y21582679D01*
X25908000Y21590000D01*
X22606000Y21590000D01*
X22531671Y21582679D01*
X22460198Y21560998D01*
X22394328Y21525790D01*
X22336592Y21478408D01*
X22289210Y21420672D01*
X22254002Y21354802D01*
X22232321Y21283329D01*
X22225000Y21209000D01*
X22225000Y11841816D01*
X21844000Y12222816D01*
X21844000Y17907000D01*
X21836679Y17981329D01*
X21814998Y18052802D01*
X21779790Y18118672D01*
X21732408Y18176408D01*
X21674672Y18223790D01*
X21608802Y18258998D01*
X21537329Y18280679D01*
X21463000Y18288000D01*
X17399000Y18288000D01*
X17324671Y18280679D01*
X17253198Y18258998D01*
X17187328Y18223790D01*
X17129592Y18176408D01*
X17082210Y18118672D01*
X17047002Y18052802D01*
X17025321Y17981329D01*
X17018000Y17907000D01*
X17018000Y15432148D01*
X16380600Y16069546D01*
X16380600Y22075000D01*
X27913926Y22075000D01*
X27940000Y22072432D01*
X27966074Y22075000D01*
X27966084Y22075000D01*
X28044094Y22082683D01*
X28144188Y22113047D01*
X28236435Y22162354D01*
X28317290Y22228710D01*
X28333921Y22248975D01*
X29440030Y23355083D01*
X29460290Y23371710D01*
X29502530Y23423179D01*
X29526646Y23452564D01*
X29575953Y23544812D01*
X29599232Y23621552D01*
X29606317Y23644906D01*
X29614000Y23722916D01*
X29614000Y23722925D01*
X29616568Y23748999D01*
X29614000Y23775073D01*
X29614000Y28675927D01*
X29616568Y28702001D01*
X29614000Y28728075D01*
X29614000Y28728084D01*
X29606317Y28806094D01*
X29575953Y28906188D01*
X29565558Y28925635D01*
X29526646Y28998436D01*
X29476917Y29059030D01*
X29460290Y29079290D01*
X29440030Y29095917D01*
X28956921Y29579025D01*
X28940290Y29599290D01*
X28859435Y29665646D01*
X28767188Y29714953D01*
X28667094Y29745317D01*
X28589084Y29753000D01*
X28589074Y29753000D01*
X28563000Y29755568D01*
X28536926Y29753000D01*
X28498532Y29753000D01*
X28522759Y29782521D01*
X28569745Y29870425D01*
X28598678Y29965807D01*
X28606000Y30040146D01*
X28606000Y30040153D01*
X28608447Y30064999D01*
X28606000Y30089845D01*
X28606000Y30325672D01*
X28624689Y30327513D01*
X28696508Y30349299D01*
X28762696Y30384678D01*
X28820711Y30432289D01*
X28868322Y30490304D01*
X28903701Y30556492D01*
X28925487Y30628311D01*
X28932843Y30703000D01*
X28932843Y31903000D01*
X28925487Y31977689D01*
X28903701Y32049508D01*
X28868322Y32115696D01*
X28820711Y32173711D01*
X28762696Y32221322D01*
X28696508Y32256701D01*
X28624689Y32278487D01*
X28550000Y32285843D01*
X27650000Y32285843D01*
X27575311Y32278487D01*
X27503492Y32256701D01*
X27437304Y32221322D01*
X27379289Y32173711D01*
X27331678Y32115696D01*
X27296299Y32049508D01*
X27274513Y31977689D01*
X27267157Y31903000D01*
X27267157Y30703000D01*
X27274513Y30628311D01*
X27296299Y30556492D01*
X27331678Y30490304D01*
X27379289Y30432289D01*
X27437304Y30384678D01*
X27503492Y30349299D01*
X27575311Y30327513D01*
X27594001Y30325672D01*
X27594001Y30274593D01*
X27224252Y29904843D01*
X27210122Y29904843D01*
X27208000Y29905052D01*
X27205878Y29904843D01*
X26432000Y29904843D01*
X26403133Y29902000D01*
X25310335Y29902000D01*
X25251453Y29933473D01*
X25151965Y29963653D01*
X25048500Y29973843D01*
X24753500Y29973843D01*
X24650035Y29963653D01*
X24550547Y29933473D01*
X24458857Y29884464D01*
X24378491Y29818509D01*
X24312536Y29738143D01*
X24263527Y29646453D01*
X24233347Y29546965D01*
X24223157Y29443500D01*
X24223157Y29098500D01*
X24233347Y28995035D01*
X24263527Y28895547D01*
X24312536Y28803857D01*
X24378491Y28723491D01*
X24458857Y28657536D01*
X24550547Y28608527D01*
X24650035Y28578347D01*
X24655502Y28577809D01*
X24569347Y28551673D01*
X24477657Y28502664D01*
X24434800Y28467492D01*
X24391943Y28502664D01*
X24300253Y28551673D01*
X24200765Y28581853D01*
X24097300Y28592043D01*
X23802300Y28592043D01*
X23698835Y28581853D01*
X23599347Y28551673D01*
X23507657Y28502664D01*
X23427291Y28436709D01*
X23393225Y28395200D01*
X13182045Y28395200D01*
X13157199Y28397647D01*
X13132353Y28395200D01*
X13132346Y28395200D01*
X13067894Y28388852D01*
X13058006Y28387878D01*
X13048809Y28385088D01*
X12962625Y28358945D01*
X12874721Y28311959D01*
X12797673Y28248727D01*
X12781829Y28229421D01*
X9138409Y24586000D01*
X6756963Y24586000D01*
X6643261Y24589979D01*
X6541859Y24600989D01*
X6445930Y24618963D01*
X6354912Y24643715D01*
X6268206Y24675184D01*
X6185177Y24713474D01*
X6105209Y24758853D01*
X6027771Y24811737D01*
X5952496Y24872616D01*
X5873855Y24947042D01*
X5784717Y25036180D01*
X5583097Y25170898D01*
X5359069Y25263693D01*
X5121243Y25311000D01*
X4878757Y25311000D01*
X4640931Y25263693D01*
X4416903Y25170898D01*
X4215283Y25036180D01*
X4043820Y24864717D01*
X3909102Y24663097D01*
X3816307Y24439069D01*
X3769000Y24201243D01*
X3769000Y23958757D01*
X3816307Y23720931D01*
X3909102Y23496903D01*
X4043820Y23295283D01*
X4215283Y23123820D01*
X4416903Y22989102D01*
X4640931Y22896307D01*
X4878757Y22849000D01*
X5121243Y22849000D01*
X5359069Y22896307D01*
X5583097Y22989102D01*
X5784717Y23123820D01*
X5873855Y23212958D01*
X5952496Y23287384D01*
X6027771Y23348263D01*
X6105205Y23401144D01*
X6185177Y23446526D01*
X6268211Y23484818D01*
X6354912Y23516285D01*
X6445930Y23541037D01*
X6541859Y23559011D01*
X6643261Y23570021D01*
X6756963Y23574000D01*
X9323154Y23574000D01*
X9348000Y23571553D01*
X9372846Y23574000D01*
X9372854Y23574000D01*
X9447193Y23581322D01*
X9542575Y23610255D01*
X9630479Y23657241D01*
X9707527Y23720473D01*
X9723376Y23739785D01*
X13366792Y27383200D01*
X23393225Y27383200D01*
X23427291Y27341691D01*
X23507657Y27275736D01*
X23599347Y27226727D01*
X23698835Y27196547D01*
X23802300Y27186357D01*
X24097300Y27186357D01*
X24200765Y27196547D01*
X24300253Y27226727D01*
X24391943Y27275736D01*
X24434800Y27310908D01*
X24477657Y27275736D01*
X24569347Y27226727D01*
X24668835Y27196547D01*
X24772300Y27186357D01*
X25064465Y27186357D01*
X25006807Y27180678D01*
X25004054Y27179843D01*
X24753500Y27179843D01*
X24650035Y27169653D01*
X24550547Y27139473D01*
X24458857Y27090464D01*
X24378491Y27024509D01*
X24312536Y26944143D01*
X24263527Y26852453D01*
X24233347Y26752965D01*
X24223157Y26649500D01*
X24223157Y26304500D01*
X24233347Y26201035D01*
X24263527Y26101547D01*
X24312536Y26009857D01*
X24378491Y25929491D01*
X24458857Y25863536D01*
X24550547Y25814527D01*
X24650035Y25784347D01*
X24753500Y25774157D01*
X25048500Y25774157D01*
X25151965Y25784347D01*
X25251453Y25814527D01*
X25343143Y25863536D01*
X25423509Y25929491D01*
X25489464Y26009857D01*
X25538473Y26101547D01*
X25544366Y26120975D01*
X25555284Y26128361D01*
X25604802Y26161069D01*
X25627871Y26176000D01*
X26038172Y26176000D01*
X26055223Y26155223D01*
X26135968Y26088957D01*
X26228090Y26039717D01*
X26328047Y26009395D01*
X26432000Y25999157D01*
X28082000Y25999157D01*
X28185953Y26009395D01*
X28285910Y26039717D01*
X28378032Y26088957D01*
X28458777Y26155223D01*
X28525043Y26235968D01*
X28552000Y26286402D01*
X28552001Y23968948D01*
X27720054Y23137000D01*
X15875684Y23137000D01*
X15849600Y23139569D01*
X15823516Y23137000D01*
X9143074Y23137000D01*
X9117000Y23139568D01*
X9090926Y23137000D01*
X9090916Y23137000D01*
X9012906Y23129317D01*
X8912812Y23098953D01*
X8820564Y23049646D01*
X8759970Y22999918D01*
X8759964Y22999912D01*
X8739710Y22983290D01*
X8723088Y22963035D01*
X7831054Y22071000D01*
X6696595Y22071000D01*
X6589952Y22074730D01*
X6495363Y22084994D01*
X6406014Y22101725D01*
X6321373Y22124730D01*
X6240811Y22153956D01*
X6163715Y22189496D01*
X6089448Y22231627D01*
X6017483Y22280762D01*
X5947468Y22337378D01*
X5873845Y22407052D01*
X5784717Y22496180D01*
X5583097Y22630898D01*
X5359069Y22723693D01*
X5121243Y22771000D01*
X4878757Y22771000D01*
X4640931Y22723693D01*
X4416903Y22630898D01*
X4215283Y22496180D01*
X4043820Y22324717D01*
X3909102Y22123097D01*
X3816307Y21899069D01*
X3769000Y21661243D01*
X3769000Y21418757D01*
X3816307Y21180931D01*
X3909102Y20956903D01*
X4043820Y20755283D01*
X4215283Y20583820D01*
X4416903Y20449102D01*
X4640931Y20356307D01*
X4878757Y20309000D01*
X5121243Y20309000D01*
X5359069Y20356307D01*
X5583097Y20449102D01*
X5784717Y20583820D01*
X5873849Y20672952D01*
X5947468Y20742623D01*
X6017483Y20799239D01*
X6089448Y20848374D01*
X6163715Y20890505D01*
X6240811Y20926045D01*
X6321373Y20955271D01*
X6406014Y20978276D01*
X6495363Y20995007D01*
X6589952Y21005271D01*
X6696591Y21009000D01*
X8024926Y21009000D01*
X8051000Y21006432D01*
X8077074Y21009000D01*
X8077084Y21009000D01*
X8155094Y21016683D01*
X8255188Y21047047D01*
X8347435Y21096354D01*
X8428290Y21162710D01*
X8444921Y21182975D01*
X9336948Y22075000D01*
X15318601Y22075000D01*
X15318600Y15875674D01*
X15316032Y15849600D01*
X15318600Y15823526D01*
X15318600Y15823517D01*
X15326283Y15745507D01*
X15356647Y15645413D01*
X15405954Y15553165D01*
X15472310Y15472310D01*
X15492575Y15455679D01*
X16496288Y14451965D01*
X16512910Y14431710D01*
X16533164Y14415088D01*
X16533170Y14415082D01*
X16593764Y14365354D01*
X16686012Y14316047D01*
X16786106Y14285683D01*
X16864116Y14278000D01*
X16864126Y14278000D01*
X16890200Y14275432D01*
X16916274Y14278000D01*
X17018000Y14278000D01*
X17018000Y11811000D01*
X17025399Y11736280D01*
X17047155Y11664829D01*
X17082432Y11598996D01*
X17129874Y11541311D01*
X17187659Y11493989D01*
X18161000Y10845095D01*
X18161000Y9271000D01*
X18168321Y9196671D01*
X18190002Y9125198D01*
X18225210Y9059328D01*
X18272592Y9001592D01*
X18330328Y8954210D01*
X18396198Y8919002D01*
X18467671Y8897321D01*
X18542000Y8890000D01*
X22758408Y8890000D01*
X23479628Y8168780D01*
X23495473Y8149473D01*
X23572521Y8086241D01*
X23660425Y8039255D01*
X23755807Y8010322D01*
X23830146Y8003000D01*
X23830153Y8003000D01*
X23854999Y8000553D01*
X23879845Y8003000D01*
X25756154Y8003000D01*
X25781000Y8000553D01*
X25805846Y8003000D01*
X25805854Y8003000D01*
X25880193Y8010322D01*
X25975575Y8039255D01*
X26063479Y8086241D01*
X26140527Y8149473D01*
X26156376Y8168785D01*
X27033220Y9045628D01*
X27052527Y9061473D01*
X27115759Y9138521D01*
X27162745Y9226425D01*
X27191678Y9321807D01*
X27197007Y9375907D01*
X27201448Y9421000D01*
X27199000Y9445854D01*
X27199000Y9564474D01*
X27220857Y9546536D01*
X27312547Y9497527D01*
X27412035Y9467347D01*
X27515500Y9457157D01*
X27810500Y9457157D01*
X27913965Y9467347D01*
X28013453Y9497527D01*
X28105143Y9546536D01*
X28185509Y9612491D01*
X28219575Y9654000D01*
X28295425Y9654000D01*
X28329491Y9612491D01*
X28409857Y9546536D01*
X28501547Y9497527D01*
X28601035Y9467347D01*
X28704500Y9457157D01*
X28999500Y9457157D01*
X29102965Y9467347D01*
X29202453Y9497527D01*
X29294143Y9546536D01*
X29374509Y9612491D01*
X29440464Y9692857D01*
X29489473Y9784547D01*
X29519653Y9884035D01*
X29529843Y9987500D01*
X29529843Y10332500D01*
X29519653Y10435965D01*
X29489473Y10535453D01*
X29440464Y10627143D01*
X29374509Y10707509D01*
X29358000Y10721058D01*
X29358000Y13668155D01*
X29360447Y13693001D01*
X29358000Y13717847D01*
X29358000Y13717854D01*
X29350678Y13792193D01*
X29337997Y13834000D01*
X29321745Y13887575D01*
X29283647Y13958850D01*
X29274759Y13975479D01*
X29211527Y14052527D01*
X29192215Y14068376D01*
X28936376Y14324215D01*
X28920527Y14343527D01*
X28843479Y14406759D01*
X28755575Y14453745D01*
X28660193Y14482678D01*
X28604321Y14488181D01*
X28585777Y14510777D01*
X28566455Y14526635D01*
X28567679Y14530671D01*
X28575000Y14605000D01*
X28575000Y14718379D01*
X28585777Y14727223D01*
X28652043Y14807968D01*
X28701283Y14900090D01*
X28731605Y15000047D01*
X28741843Y15104000D01*
X28741843Y15404000D01*
X28731605Y15507953D01*
X28701283Y15607910D01*
X28652043Y15700032D01*
X28585777Y15780777D01*
X28575000Y15789621D01*
X28575000Y15875000D01*
X28567679Y15949329D01*
X28559654Y15975784D01*
X28585777Y15997223D01*
X28652043Y16077968D01*
X28701283Y16170090D01*
X28731605Y16270047D01*
X28741843Y16374000D01*
X28741843Y16674000D01*
X28731605Y16777953D01*
X28701283Y16877910D01*
X28652043Y16970032D01*
X28585777Y17050777D01*
X28505032Y17117043D01*
X28412910Y17166283D01*
X28312953Y17196605D01*
X28209000Y17206843D01*
X28015000Y17206843D01*
X28015000Y17390164D01*
X28078179Y17409329D01*
X28187589Y17467810D01*
X28283488Y17546512D01*
X28362190Y17642411D01*
X28420671Y17751821D01*
X28456683Y17870538D01*
X28468843Y17994000D01*
X28468843Y19244000D01*
X28456683Y19367462D01*
X28420671Y19486179D01*
X28362190Y19595589D01*
X28283488Y19691488D01*
X28187589Y19770190D01*
X28092000Y19821284D01*
X28092000Y19833632D01*
X28836369Y20578000D01*
X33012632Y20578000D01*
X34369000Y19221631D01*
X34369001Y6350000D01*
X31496000Y6350000D01*
X31421671Y6342679D01*
X31350198Y6320998D01*
X31284328Y6285790D01*
X31226592Y6238408D01*
X31179210Y6180672D01*
X31144002Y6114802D01*
X31122321Y6043329D01*
X31115000Y5969000D01*
X31115000Y406000D01*
X3019854Y406000D01*
X2496536Y457312D01*
X2012244Y603528D01*
X1565578Y841025D01*
X1173550Y1160755D01*
X851090Y1550542D01*
X610482Y1995540D01*
X460889Y2478795D01*
X406000Y3001029D01*
X406000Y56980146D01*
X407946Y57000000D01*
X10092036Y57000000D01*
X10094001Y56980049D01*
X10094000Y43019941D01*
X10092036Y43000000D01*
X10099875Y42920410D01*
X10123090Y42843879D01*
X10160790Y42773347D01*
X10211526Y42711526D01*
X10273347Y42660790D01*
X10343879Y42623090D01*
X10420410Y42599875D01*
X10500000Y42592036D01*
X10519940Y42594000D01*
X13480060Y42594000D01*
X13500000Y42592036D01*
X13579590Y42599875D01*
X13656121Y42623090D01*
X13726653Y42660790D01*
X13788474Y42711526D01*
X13839210Y42773347D01*
X13876910Y42843879D01*
X13900125Y42920410D01*
X13906000Y42980059D01*
X13906000Y42980060D01*
X13907964Y43000000D01*
X13906000Y43019941D01*
X13906000Y56980059D01*
X13907964Y57000000D01*
X16092036Y57000000D01*
X16094001Y56980049D01*
X16094000Y34019941D01*
X16092036Y34000000D01*
X16099875Y33920410D01*
X16123090Y33843879D01*
X16160790Y33773347D01*
X16211526Y33711526D01*
X16273347Y33660790D01*
X16343879Y33623090D01*
X16420410Y33599875D01*
X16500000Y33592036D01*
X16519940Y33594000D01*
X19480060Y33594000D01*
X19500000Y33592036D01*
X19579590Y33599875D01*
X19656121Y33623090D01*
X19726653Y33660790D01*
X19788474Y33711526D01*
X19839210Y33773347D01*
X19876910Y33843879D01*
X19900125Y33920410D01*
X19906000Y33980059D01*
X19906000Y33980060D01*
X19907964Y34000000D01*
X19906000Y34019941D01*
X19906000Y56980059D01*
X19907964Y57000000D01*
X22092036Y57000000D01*
X22094001Y56980049D01*
X22094000Y34019941D01*
X22092036Y34000000D01*
X22099875Y33920410D01*
X22123090Y33843879D01*
X22160790Y33773347D01*
X22211526Y33711526D01*
X22273347Y33660790D01*
X22343879Y33623090D01*
X22420410Y33599875D01*
X22500000Y33592036D01*
X22519940Y33594000D01*
X25480060Y33594000D01*
X25500000Y33592036D01*
X25579590Y33599875D01*
X25656121Y33623090D01*
X25726653Y33660790D01*
X25788474Y33711526D01*
X25839210Y33773347D01*
X25876910Y33843879D01*
X25900125Y33920410D01*
X25906000Y33980059D01*
X25906000Y33980060D01*
X25907964Y34000000D01*
X25906000Y34019941D01*
X25906000Y56980059D01*
X25907964Y57000000D01*
X28092036Y57000000D01*
X28094001Y56980049D01*
X28094000Y34019941D01*
X28092036Y34000000D01*
X28099875Y33920410D01*
X28123090Y33843879D01*
X28160790Y33773347D01*
X28211526Y33711526D01*
X28273347Y33660790D01*
X28343879Y33623090D01*
X28420410Y33599875D01*
X28500000Y33592036D01*
X28519940Y33594000D01*
X31480060Y33594000D01*
X31500000Y33592036D01*
X31579590Y33599875D01*
X31656121Y33623090D01*
X31726653Y33660790D01*
X31788474Y33711526D01*
X31839210Y33773347D01*
X31876910Y33843879D01*
X31900125Y33920410D01*
X31906000Y33980059D01*
X31906000Y33980060D01*
X31907964Y34000000D01*
X31906000Y34019941D01*
X31906000Y56980059D01*
X31907964Y57000000D01*
X34092036Y57000000D01*
X34094001Y56980049D01*
X34094000Y34019941D01*
X34092036Y34000000D01*
X34099875Y33920410D01*
X34123090Y33843879D01*
X34160790Y33773347D01*
X34211526Y33711526D01*
X34273347Y33660790D01*
X34343879Y33623090D01*
X34420410Y33599875D01*
X34500000Y33592036D01*
X34519940Y33594000D01*
X37480060Y33594000D01*
X37500000Y33592036D01*
X37579590Y33599875D01*
X37656121Y33623090D01*
X37726653Y33660790D01*
X37788474Y33711526D01*
X37839210Y33773347D01*
X37876910Y33843879D01*
X37900125Y33920410D01*
X37906000Y33980059D01*
X37906000Y33980060D01*
X37907964Y34000000D01*
X37906000Y34019941D01*
X37906000Y56980059D01*
X37907964Y57000000D01*
X40092036Y57000000D01*
X40094001Y56980049D01*
X40094000Y34019941D01*
X40092036Y34000000D01*
X40099875Y33920410D01*
X40123090Y33843879D01*
X40160790Y33773347D01*
X40211526Y33711526D01*
X40273347Y33660790D01*
X40343879Y33623090D01*
X40420410Y33599875D01*
X40500000Y33592036D01*
X40519940Y33594000D01*
X43480060Y33594000D01*
X43500000Y33592036D01*
X43579590Y33599875D01*
X43656121Y33623090D01*
X43726653Y33660790D01*
X43788474Y33711526D01*
X43839210Y33773347D01*
X43876910Y33843879D01*
X43900125Y33920410D01*
X43906000Y33980059D01*
X43906000Y33980060D01*
X43907964Y34000000D01*
X43906000Y34019941D01*
X43906000Y56980059D01*
X43907964Y57000000D01*
X46092036Y57000000D01*
X46094001Y56980049D01*
X46094000Y43019941D01*
X46092036Y43000000D01*
X46099875Y42920410D01*
X46123090Y42843879D01*
X46160790Y42773347D01*
X46211526Y42711526D01*
X46273347Y42660790D01*
X46343879Y42623090D01*
X46420410Y42599875D01*
X46500000Y42592036D01*
X46519940Y42594000D01*
X49480060Y42594000D01*
X49500000Y42592036D01*
X49579590Y42599875D01*
X49656121Y42623090D01*
X49726653Y42660790D01*
X49788474Y42711526D01*
X49839210Y42773347D01*
X49876910Y42843879D01*
X49900125Y42920410D01*
X49906000Y42980059D01*
X49906000Y42980060D01*
X49907964Y43000000D01*
X49906000Y43019941D01*
X49906000Y56980059D01*
X49907964Y57000000D01*
X49900125Y57079590D01*
X49876910Y57156121D01*
X49839210Y57226653D01*
X49788474Y57288474D01*
X49726653Y57339210D01*
X49656121Y57376910D01*
X49579590Y57400125D01*
X49519941Y57406000D01*
X49519940Y57406000D01*
X49500000Y57407964D01*
X49480059Y57406000D01*
X46519941Y57406000D01*
X46500000Y57407964D01*
X46480060Y57406000D01*
X46480059Y57406000D01*
X46420410Y57400125D01*
X46343879Y57376910D01*
X46273347Y57339210D01*
X46211526Y57288474D01*
X46160790Y57226653D01*
X46123090Y57156121D01*
X46099875Y57079590D01*
X46092036Y57000000D01*
X43907964Y57000000D01*
X43900125Y57079590D01*
X43876910Y57156121D01*
X43839210Y57226653D01*
X43788474Y57288474D01*
X43726653Y57339210D01*
X43656121Y57376910D01*
X43579590Y57400125D01*
X43519941Y57406000D01*
X43519940Y57406000D01*
X43500000Y57407964D01*
X43480059Y57406000D01*
X40519941Y57406000D01*
X40500000Y57407964D01*
X40480060Y57406000D01*
X40480059Y57406000D01*
X40420410Y57400125D01*
X40343879Y57376910D01*
X40273347Y57339210D01*
X40211526Y57288474D01*
X40160790Y57226653D01*
X40123090Y57156121D01*
X40099875Y57079590D01*
X40092036Y57000000D01*
X37907964Y57000000D01*
X37900125Y57079590D01*
X37876910Y57156121D01*
X37839210Y57226653D01*
X37788474Y57288474D01*
X37726653Y57339210D01*
X37656121Y57376910D01*
X37579590Y57400125D01*
X37519941Y57406000D01*
X37519940Y57406000D01*
X37500000Y57407964D01*
X37480059Y57406000D01*
X34519941Y57406000D01*
X34500000Y57407964D01*
X34480060Y57406000D01*
X34480059Y57406000D01*
X34420410Y57400125D01*
X34343879Y57376910D01*
X34273347Y57339210D01*
X34211526Y57288474D01*
X34160790Y57226653D01*
X34123090Y57156121D01*
X34099875Y57079590D01*
X34092036Y57000000D01*
X31907964Y57000000D01*
X31900125Y57079590D01*
X31876910Y57156121D01*
X31839210Y57226653D01*
X31788474Y57288474D01*
X31726653Y57339210D01*
X31656121Y57376910D01*
X31579590Y57400125D01*
X31519941Y57406000D01*
X31519940Y57406000D01*
X31500000Y57407964D01*
X31480059Y57406000D01*
X28519941Y57406000D01*
X28500000Y57407964D01*
X28480060Y57406000D01*
X28480059Y57406000D01*
X28420410Y57400125D01*
X28343879Y57376910D01*
X28273347Y57339210D01*
X28211526Y57288474D01*
X28160790Y57226653D01*
X28123090Y57156121D01*
X28099875Y57079590D01*
X28092036Y57000000D01*
X25907964Y57000000D01*
X25900125Y57079590D01*
X25876910Y57156121D01*
X25839210Y57226653D01*
X25788474Y57288474D01*
X25726653Y57339210D01*
X25656121Y57376910D01*
X25579590Y57400125D01*
X25519941Y57406000D01*
X25519940Y57406000D01*
X25500000Y57407964D01*
X25480059Y57406000D01*
X22519941Y57406000D01*
X22500000Y57407964D01*
X22480060Y57406000D01*
X22480059Y57406000D01*
X22420410Y57400125D01*
X22343879Y57376910D01*
X22273347Y57339210D01*
X22211526Y57288474D01*
X22160790Y57226653D01*
X22123090Y57156121D01*
X22099875Y57079590D01*
X22092036Y57000000D01*
X19907964Y57000000D01*
X19900125Y57079590D01*
X19876910Y57156121D01*
X19839210Y57226653D01*
X19788474Y57288474D01*
X19726653Y57339210D01*
X19656121Y57376910D01*
X19579590Y57400125D01*
X19519941Y57406000D01*
X19519940Y57406000D01*
X19500000Y57407964D01*
X19480059Y57406000D01*
X16519941Y57406000D01*
X16500000Y57407964D01*
X16480060Y57406000D01*
X16480059Y57406000D01*
X16420410Y57400125D01*
X16343879Y57376910D01*
X16273347Y57339210D01*
X16211526Y57288474D01*
X16160790Y57226653D01*
X16123090Y57156121D01*
X16099875Y57079590D01*
X16092036Y57000000D01*
X13907964Y57000000D01*
X13900125Y57079590D01*
X13876910Y57156121D01*
X13839210Y57226653D01*
X13788474Y57288474D01*
X13726653Y57339210D01*
X13656121Y57376910D01*
X13579590Y57400125D01*
X13519941Y57406000D01*
X13519940Y57406000D01*
X13500000Y57407964D01*
X13480059Y57406000D01*
X10519941Y57406000D01*
X10500000Y57407964D01*
X10480060Y57406000D01*
X10480059Y57406000D01*
X10420410Y57400125D01*
X10343879Y57376910D01*
X10273347Y57339210D01*
X10211526Y57288474D01*
X10160790Y57226653D01*
X10123090Y57156121D01*
X10099875Y57079590D01*
X10092036Y57000000D01*
X407946Y57000000D01*
X457312Y57503463D01*
X603529Y57987756D01*
X841025Y58434422D01*
X1160755Y58826450D01*
X1550539Y59148907D01*
X1995540Y59389518D01*
X2478796Y59539111D01*
X3001029Y59594000D01*
X56980146Y59594000D01*
X57503463Y59542688D01*
G36*
X26355090Y13341717D02*
G01*
X26455047Y13311395D01*
X26559000Y13301157D01*
X28209000Y13301157D01*
X28312953Y13311395D01*
X28346000Y13321420D01*
X28346001Y10721058D01*
X28329491Y10707509D01*
X28295425Y10666000D01*
X28219575Y10666000D01*
X28185509Y10707509D01*
X28105143Y10773464D01*
X28013453Y10822473D01*
X27913965Y10852653D01*
X27810500Y10862843D01*
X27515500Y10862843D01*
X27412035Y10852653D01*
X27312547Y10822473D01*
X27220857Y10773464D01*
X27178000Y10738292D01*
X27135143Y10773464D01*
X27043453Y10822473D01*
X26943965Y10852653D01*
X26840500Y10862843D01*
X26545500Y10862843D01*
X26442035Y10852653D01*
X26342547Y10822473D01*
X26250857Y10773464D01*
X26170491Y10707509D01*
X26104536Y10627143D01*
X26055527Y10535453D01*
X26025347Y10435965D01*
X26015157Y10332500D01*
X26015157Y9987500D01*
X26025347Y9884035D01*
X26055527Y9784547D01*
X26104536Y9692857D01*
X26169773Y9613365D01*
X25571409Y9015000D01*
X24064592Y9015000D01*
X23241000Y9838591D01*
X23241000Y10668000D01*
X23233679Y10742329D01*
X23211998Y10813802D01*
X23176790Y10879672D01*
X23129408Y10937408D01*
X23127198Y10939618D01*
X23122683Y10985462D01*
X23086671Y11104179D01*
X23028190Y11213589D01*
X22949488Y11309488D01*
X22853589Y11388190D01*
X22775368Y11430000D01*
X25908000Y11430000D01*
X25982329Y11437321D01*
X26053802Y11459002D01*
X26119672Y11494210D01*
X26177408Y11541592D01*
X26224790Y11599328D01*
X26259998Y11665198D01*
X26281679Y11736671D01*
X26289000Y11811000D01*
X26289000Y13377043D01*
X26355090Y13341717D01*
G37*
X26355090Y13341717D02*
X26455047Y13311395D01*
X26559000Y13301157D01*
X28209000Y13301157D01*
X28312953Y13311395D01*
X28346000Y13321420D01*
X28346001Y10721058D01*
X28329491Y10707509D01*
X28295425Y10666000D01*
X28219575Y10666000D01*
X28185509Y10707509D01*
X28105143Y10773464D01*
X28013453Y10822473D01*
X27913965Y10852653D01*
X27810500Y10862843D01*
X27515500Y10862843D01*
X27412035Y10852653D01*
X27312547Y10822473D01*
X27220857Y10773464D01*
X27178000Y10738292D01*
X27135143Y10773464D01*
X27043453Y10822473D01*
X26943965Y10852653D01*
X26840500Y10862843D01*
X26545500Y10862843D01*
X26442035Y10852653D01*
X26342547Y10822473D01*
X26250857Y10773464D01*
X26170491Y10707509D01*
X26104536Y10627143D01*
X26055527Y10535453D01*
X26025347Y10435965D01*
X26015157Y10332500D01*
X26015157Y9987500D01*
X26025347Y9884035D01*
X26055527Y9784547D01*
X26104536Y9692857D01*
X26169773Y9613365D01*
X25571409Y9015000D01*
X24064592Y9015000D01*
X23241000Y9838591D01*
X23241000Y10668000D01*
X23233679Y10742329D01*
X23211998Y10813802D01*
X23176790Y10879672D01*
X23129408Y10937408D01*
X23127198Y10939618D01*
X23122683Y10985462D01*
X23086671Y11104179D01*
X23028190Y11213589D01*
X22949488Y11309488D01*
X22853589Y11388190D01*
X22775368Y11430000D01*
X25908000Y11430000D01*
X25982329Y11437321D01*
X26053802Y11459002D01*
X26119672Y11494210D01*
X26177408Y11541592D01*
X26224790Y11599328D01*
X26259998Y11665198D01*
X26281679Y11736671D01*
X26289000Y11811000D01*
X26289000Y13377043D01*
X26355090Y13341717D01*
G36*
X44323023Y24887859D02*
G01*
X44330321Y24817671D01*
X44352002Y24746198D01*
X44387210Y24680328D01*
X44423589Y24636000D01*
X36032592Y24636000D01*
X35865843Y24802749D01*
X35865843Y24937500D01*
X35855653Y25040965D01*
X35825473Y25140453D01*
X35789369Y25208000D01*
X41987595Y25208000D01*
X41992299Y25192492D01*
X42027678Y25126304D01*
X42075289Y25068289D01*
X42133304Y25020678D01*
X42199492Y24985299D01*
X42271311Y24963513D01*
X42346000Y24956157D01*
X43446000Y24956157D01*
X43520689Y24963513D01*
X43592508Y24985299D01*
X43658696Y25020678D01*
X43716711Y25068289D01*
X43764322Y25126304D01*
X43799701Y25192492D01*
X43821487Y25264311D01*
X43828843Y25339000D01*
X43828843Y26089000D01*
X43821487Y26163689D01*
X43799701Y26235508D01*
X43764322Y26301696D01*
X43716711Y26359711D01*
X43658696Y26407322D01*
X43592508Y26442701D01*
X43520689Y26464487D01*
X43446000Y26471843D01*
X42346000Y26471843D01*
X42271311Y26464487D01*
X42199492Y26442701D01*
X42133304Y26407322D01*
X42075289Y26359711D01*
X42027678Y26301696D01*
X41992299Y26235508D01*
X41987595Y26220000D01*
X35791507Y26220000D01*
X35776464Y26248143D01*
X35710509Y26328509D01*
X35630143Y26394464D01*
X35538453Y26443473D01*
X35438965Y26473653D01*
X35335500Y26483843D01*
X35040500Y26483843D01*
X34937035Y26473653D01*
X34837547Y26443473D01*
X34745857Y26394464D01*
X34703000Y26359292D01*
X34660143Y26394464D01*
X34568453Y26443473D01*
X34468965Y26473653D01*
X34365500Y26483843D01*
X34314677Y26483843D01*
X34324878Y26490834D01*
X34340021Y26499517D01*
X34354704Y26506396D01*
X34369399Y26511830D01*
X34384724Y26516072D01*
X34401378Y26519221D01*
X34410195Y26520157D01*
X34705250Y26520157D01*
X34822615Y26531716D01*
X34935470Y26565951D01*
X35039477Y26621544D01*
X35130640Y26696360D01*
X35205456Y26787523D01*
X35230566Y26834500D01*
X36078654Y26834500D01*
X36103500Y26832053D01*
X36128346Y26834500D01*
X36128354Y26834500D01*
X36202693Y26841822D01*
X36298075Y26870755D01*
X36385979Y26917741D01*
X36463027Y26980973D01*
X36478876Y27000285D01*
X39706592Y30228000D01*
X44264978Y30228000D01*
X44323023Y24887859D01*
G37*
X44323023Y24887859D02*
X44330321Y24817671D01*
X44352002Y24746198D01*
X44387210Y24680328D01*
X44423589Y24636000D01*
X36032592Y24636000D01*
X35865843Y24802749D01*
X35865843Y24937500D01*
X35855653Y25040965D01*
X35825473Y25140453D01*
X35789369Y25208000D01*
X41987595Y25208000D01*
X41992299Y25192492D01*
X42027678Y25126304D01*
X42075289Y25068289D01*
X42133304Y25020678D01*
X42199492Y24985299D01*
X42271311Y24963513D01*
X42346000Y24956157D01*
X43446000Y24956157D01*
X43520689Y24963513D01*
X43592508Y24985299D01*
X43658696Y25020678D01*
X43716711Y25068289D01*
X43764322Y25126304D01*
X43799701Y25192492D01*
X43821487Y25264311D01*
X43828843Y25339000D01*
X43828843Y26089000D01*
X43821487Y26163689D01*
X43799701Y26235508D01*
X43764322Y26301696D01*
X43716711Y26359711D01*
X43658696Y26407322D01*
X43592508Y26442701D01*
X43520689Y26464487D01*
X43446000Y26471843D01*
X42346000Y26471843D01*
X42271311Y26464487D01*
X42199492Y26442701D01*
X42133304Y26407322D01*
X42075289Y26359711D01*
X42027678Y26301696D01*
X41992299Y26235508D01*
X41987595Y26220000D01*
X35791507Y26220000D01*
X35776464Y26248143D01*
X35710509Y26328509D01*
X35630143Y26394464D01*
X35538453Y26443473D01*
X35438965Y26473653D01*
X35335500Y26483843D01*
X35040500Y26483843D01*
X34937035Y26473653D01*
X34837547Y26443473D01*
X34745857Y26394464D01*
X34703000Y26359292D01*
X34660143Y26394464D01*
X34568453Y26443473D01*
X34468965Y26473653D01*
X34365500Y26483843D01*
X34314677Y26483843D01*
X34324878Y26490834D01*
X34340021Y26499517D01*
X34354704Y26506396D01*
X34369399Y26511830D01*
X34384724Y26516072D01*
X34401378Y26519221D01*
X34410195Y26520157D01*
X34705250Y26520157D01*
X34822615Y26531716D01*
X34935470Y26565951D01*
X35039477Y26621544D01*
X35130640Y26696360D01*
X35205456Y26787523D01*
X35230566Y26834500D01*
X36078654Y26834500D01*
X36103500Y26832053D01*
X36128346Y26834500D01*
X36128354Y26834500D01*
X36202693Y26841822D01*
X36298075Y26870755D01*
X36385979Y26917741D01*
X36463027Y26980973D01*
X36478876Y27000285D01*
X39706592Y30228000D01*
X44264978Y30228000D01*
X44323023Y24887859D01*
%TO.N,Net-(D1-Pad1)*%
G36*
X25781000Y15875000D02*
G01*
X25783440Y15850224D01*
X25790667Y15826399D01*
X25802403Y15804443D01*
X25818197Y15785197D01*
X25837443Y15769403D01*
X25859399Y15757667D01*
X25883224Y15750440D01*
X25908000Y15748000D01*
X28067000Y15748000D01*
X28067000Y14732000D01*
X25908000Y14732000D01*
X25883224Y14729560D01*
X25859399Y14722333D01*
X25837443Y14710597D01*
X25818197Y14694803D01*
X25802403Y14675557D01*
X25790667Y14653601D01*
X25783440Y14629776D01*
X25781000Y14605000D01*
X25781000Y11938000D01*
X22733000Y11938000D01*
X22733000Y21082000D01*
X25781000Y21082000D01*
X25781000Y15875000D01*
G37*
X25781000Y15875000D02*
X25783440Y15850224D01*
X25790667Y15826399D01*
X25802403Y15804443D01*
X25818197Y15785197D01*
X25837443Y15769403D01*
X25859399Y15757667D01*
X25883224Y15750440D01*
X25908000Y15748000D01*
X28067000Y15748000D01*
X28067000Y14732000D01*
X25908000Y14732000D01*
X25883224Y14729560D01*
X25859399Y14722333D01*
X25837443Y14710597D01*
X25818197Y14694803D01*
X25802403Y14675557D01*
X25790667Y14653601D01*
X25783440Y14629776D01*
X25781000Y14605000D01*
X25781000Y11938000D01*
X22733000Y11938000D01*
X22733000Y21082000D01*
X25781000Y21082000D01*
X25781000Y15875000D01*
%TO.N,+9V*%
G36*
X21336000Y12065000D02*
G01*
X21338440Y12040224D01*
X21345667Y12016399D01*
X21357403Y11994443D01*
X21373197Y11975197D01*
X22733000Y10615394D01*
X22733000Y9398000D01*
X18669000Y9398000D01*
X18669000Y11049000D01*
X18666560Y11073776D01*
X18659333Y11097601D01*
X18647597Y11119557D01*
X18631803Y11138803D01*
X18612447Y11154670D01*
X17526000Y11878968D01*
X17526000Y17780000D01*
X21336000Y17780000D01*
X21336000Y12065000D01*
G37*
X21336000Y12065000D02*
X21338440Y12040224D01*
X21345667Y12016399D01*
X21357403Y11994443D01*
X21373197Y11975197D01*
X22733000Y10615394D01*
X22733000Y9398000D01*
X18669000Y9398000D01*
X18669000Y11049000D01*
X18666560Y11073776D01*
X18659333Y11097601D01*
X18647597Y11119557D01*
X18631803Y11138803D01*
X18612447Y11154670D01*
X17526000Y11878968D01*
X17526000Y17780000D01*
X21336000Y17780000D01*
X21336000Y12065000D01*
D28*
%TO.N,VBUS*%
G36*
X27882770Y18174518D02*
G01*
X27852883Y18142951D01*
X27852273Y18142259D01*
X27818088Y18100449D01*
X27817554Y18099747D01*
X27785579Y18054569D01*
X27785118Y18053870D01*
X27755353Y18005324D01*
X27754962Y18004640D01*
X27727407Y17952725D01*
X27727080Y17952064D01*
X27701735Y17896782D01*
X27701466Y17896149D01*
X27678331Y17837498D01*
X27678111Y17836898D01*
X27657186Y17774879D01*
X27657010Y17774314D01*
X27638295Y17708926D01*
X27638156Y17708395D01*
X27623988Y17649375D01*
X27149273Y17649375D01*
X27159242Y17703115D01*
X27159373Y17703990D01*
X27166838Y17769378D01*
X27166912Y17770374D01*
X27169087Y17832393D01*
X27169077Y17833512D01*
X27165962Y17892163D01*
X27165836Y17893398D01*
X27157431Y17948680D01*
X27157155Y17950010D01*
X27143460Y18001925D01*
X27143008Y18003311D01*
X27124023Y18051857D01*
X27123382Y18053243D01*
X27099107Y18098421D01*
X27098289Y18099742D01*
X27068724Y18141552D01*
X27067763Y18142751D01*
X27039125Y18174336D01*
X27461000Y18906074D01*
X27882770Y18174518D01*
G37*
X27882770Y18174518D02*
X27852883Y18142951D01*
X27852273Y18142259D01*
X27818088Y18100449D01*
X27817554Y18099747D01*
X27785579Y18054569D01*
X27785118Y18053870D01*
X27755353Y18005324D01*
X27754962Y18004640D01*
X27727407Y17952725D01*
X27727080Y17952064D01*
X27701735Y17896782D01*
X27701466Y17896149D01*
X27678331Y17837498D01*
X27678111Y17836898D01*
X27657186Y17774879D01*
X27657010Y17774314D01*
X27638295Y17708926D01*
X27638156Y17708395D01*
X27623988Y17649375D01*
X27149273Y17649375D01*
X27159242Y17703115D01*
X27159373Y17703990D01*
X27166838Y17769378D01*
X27166912Y17770374D01*
X27169087Y17832393D01*
X27169077Y17833512D01*
X27165962Y17892163D01*
X27165836Y17893398D01*
X27157431Y17948680D01*
X27157155Y17950010D01*
X27143460Y18001925D01*
X27143008Y18003311D01*
X27124023Y18051857D01*
X27123382Y18053243D01*
X27099107Y18098421D01*
X27098289Y18099742D01*
X27068724Y18141552D01*
X27067763Y18142751D01*
X27039125Y18174336D01*
X27461000Y18906074D01*
X27882770Y18174518D01*
G36*
X27700183Y19469760D02*
G01*
X27700248Y19468842D01*
X27705873Y19416544D01*
X27706014Y19415583D01*
X27715389Y19365114D01*
X27715614Y19364124D01*
X27728739Y19315483D01*
X27729053Y19314485D01*
X27745928Y19267672D01*
X27746331Y19266686D01*
X27766956Y19221702D01*
X27767442Y19220749D01*
X27791817Y19177593D01*
X27792376Y19176694D01*
X27820501Y19135366D01*
X27821117Y19134535D01*
X27852992Y19095035D01*
X27853648Y19094285D01*
X27882773Y19063487D01*
X27461000Y18331926D01*
X27039227Y19063487D01*
X27068352Y19094285D01*
X27069008Y19095035D01*
X27100883Y19134535D01*
X27101499Y19135366D01*
X27129624Y19176694D01*
X27130183Y19177593D01*
X27154558Y19220749D01*
X27155044Y19221702D01*
X27175669Y19266686D01*
X27176072Y19267672D01*
X27192947Y19314485D01*
X27193261Y19315483D01*
X27206386Y19364124D01*
X27206611Y19365114D01*
X27215986Y19415583D01*
X27216127Y19416544D01*
X27221752Y19468842D01*
X27221817Y19469760D01*
X27223267Y19511625D01*
X27698733Y19511625D01*
X27700183Y19469760D01*
G37*
X27700183Y19469760D02*
X27700248Y19468842D01*
X27705873Y19416544D01*
X27706014Y19415583D01*
X27715389Y19365114D01*
X27715614Y19364124D01*
X27728739Y19315483D01*
X27729053Y19314485D01*
X27745928Y19267672D01*
X27746331Y19266686D01*
X27766956Y19221702D01*
X27767442Y19220749D01*
X27791817Y19177593D01*
X27792376Y19176694D01*
X27820501Y19135366D01*
X27821117Y19134535D01*
X27852992Y19095035D01*
X27853648Y19094285D01*
X27882773Y19063487D01*
X27461000Y18331926D01*
X27039227Y19063487D01*
X27068352Y19094285D01*
X27069008Y19095035D01*
X27100883Y19134535D01*
X27101499Y19135366D01*
X27129624Y19176694D01*
X27130183Y19177593D01*
X27154558Y19220749D01*
X27155044Y19221702D01*
X27175669Y19266686D01*
X27176072Y19267672D01*
X27192947Y19314485D01*
X27193261Y19315483D01*
X27206386Y19364124D01*
X27206611Y19365114D01*
X27215986Y19415583D01*
X27216127Y19416544D01*
X27221752Y19468842D01*
X27221817Y19469760D01*
X27223267Y19511625D01*
X27698733Y19511625D01*
X27700183Y19469760D01*
%TO.N,+9V*%
G36*
X26883773Y9951181D02*
G01*
X26874787Y9941678D01*
X26874130Y9940925D01*
X26860275Y9923748D01*
X26859659Y9922917D01*
X26847434Y9904942D01*
X26846874Y9904041D01*
X26836279Y9885265D01*
X26835793Y9884312D01*
X26826828Y9864738D01*
X26826426Y9863752D01*
X26819091Y9843378D01*
X26818777Y9842380D01*
X26813072Y9821207D01*
X26812848Y9820219D01*
X26808773Y9798246D01*
X26808633Y9797286D01*
X26806188Y9774514D01*
X26806123Y9773597D01*
X26805732Y9762286D01*
X26580268Y9762286D01*
X26579877Y9773597D01*
X26579812Y9774514D01*
X26577367Y9797286D01*
X26577227Y9798246D01*
X26573152Y9820219D01*
X26572928Y9821207D01*
X26567223Y9842380D01*
X26566909Y9843378D01*
X26559574Y9863752D01*
X26559172Y9864738D01*
X26550207Y9884312D01*
X26549721Y9885265D01*
X26539126Y9904041D01*
X26538566Y9904942D01*
X26526341Y9922917D01*
X26525725Y9923748D01*
X26511870Y9940925D01*
X26511213Y9941678D01*
X26502227Y9951181D01*
X26693000Y10282074D01*
X26883773Y9951181D01*
G37*
X26883773Y9951181D02*
X26874787Y9941678D01*
X26874130Y9940925D01*
X26860275Y9923748D01*
X26859659Y9922917D01*
X26847434Y9904942D01*
X26846874Y9904041D01*
X26836279Y9885265D01*
X26835793Y9884312D01*
X26826828Y9864738D01*
X26826426Y9863752D01*
X26819091Y9843378D01*
X26818777Y9842380D01*
X26813072Y9821207D01*
X26812848Y9820219D01*
X26808773Y9798246D01*
X26808633Y9797286D01*
X26806188Y9774514D01*
X26806123Y9773597D01*
X26805732Y9762286D01*
X26580268Y9762286D01*
X26579877Y9773597D01*
X26579812Y9774514D01*
X26577367Y9797286D01*
X26577227Y9798246D01*
X26573152Y9820219D01*
X26572928Y9821207D01*
X26567223Y9842380D01*
X26566909Y9843378D01*
X26559574Y9863752D01*
X26559172Y9864738D01*
X26550207Y9884312D01*
X26549721Y9885265D01*
X26539126Y9904041D01*
X26538566Y9904942D01*
X26526341Y9922917D01*
X26525725Y9923748D01*
X26511870Y9940925D01*
X26511213Y9941678D01*
X26502227Y9951181D01*
X26693000Y10282074D01*
X26883773Y9951181D01*
G36*
X27626475Y29432048D02*
G01*
X27618073Y29423045D01*
X27617470Y29422350D01*
X27602488Y29403762D01*
X27601908Y29402983D01*
X27588717Y29383782D01*
X27588177Y29382924D01*
X27576777Y29363109D01*
X27576293Y29362182D01*
X27566683Y29341754D01*
X27566270Y29340772D01*
X27558451Y29319730D01*
X27558121Y29318712D01*
X27552092Y29297056D01*
X27551851Y29296024D01*
X27547613Y29273754D01*
X27547461Y29272731D01*
X27545013Y29249848D01*
X27544946Y29248852D01*
X27544553Y29234811D01*
X27168913Y29133913D01*
X27269811Y29509554D01*
X27283852Y29509947D01*
X27284847Y29510014D01*
X27307730Y29512462D01*
X27308753Y29512614D01*
X27331023Y29516852D01*
X27332055Y29517093D01*
X27353711Y29523122D01*
X27354729Y29523452D01*
X27375771Y29531271D01*
X27376753Y29531684D01*
X27397181Y29541294D01*
X27398108Y29541778D01*
X27417923Y29553178D01*
X27418781Y29553718D01*
X27437982Y29566909D01*
X27438761Y29567489D01*
X27457349Y29582471D01*
X27458043Y29583073D01*
X27467048Y29591475D01*
X27626475Y29432048D01*
G37*
X27626475Y29432048D02*
X27618073Y29423045D01*
X27617470Y29422350D01*
X27602488Y29403762D01*
X27601908Y29402983D01*
X27588717Y29383782D01*
X27588177Y29382924D01*
X27576777Y29363109D01*
X27576293Y29362182D01*
X27566683Y29341754D01*
X27566270Y29340772D01*
X27558451Y29319730D01*
X27558121Y29318712D01*
X27552092Y29297056D01*
X27551851Y29296024D01*
X27547613Y29273754D01*
X27547461Y29272731D01*
X27545013Y29249848D01*
X27544946Y29248852D01*
X27544553Y29234811D01*
X27168913Y29133913D01*
X27269811Y29509554D01*
X27283852Y29509947D01*
X27284847Y29510014D01*
X27307730Y29512462D01*
X27308753Y29512614D01*
X27331023Y29516852D01*
X27332055Y29517093D01*
X27353711Y29523122D01*
X27354729Y29523452D01*
X27375771Y29531271D01*
X27376753Y29531684D01*
X27397181Y29541294D01*
X27398108Y29541778D01*
X27417923Y29553178D01*
X27418781Y29553718D01*
X27437982Y29566909D01*
X27438761Y29567489D01*
X27457349Y29582471D01*
X27458043Y29583073D01*
X27467048Y29591475D01*
X27626475Y29432048D01*
G36*
X28399272Y30983491D02*
G01*
X28369675Y30952209D01*
X28369022Y30951463D01*
X28336722Y30911493D01*
X28336108Y30910667D01*
X28307608Y30868880D01*
X28307050Y30867984D01*
X28282350Y30824383D01*
X28281863Y30823432D01*
X28260963Y30778014D01*
X28260558Y30777028D01*
X28243458Y30729795D01*
X28243143Y30728796D01*
X28229843Y30679748D01*
X28229616Y30678756D01*
X28220116Y30627892D01*
X28219974Y30626926D01*
X28214274Y30574247D01*
X28214208Y30573324D01*
X28212735Y30531085D01*
X27987265Y30531085D01*
X27985792Y30573324D01*
X27985726Y30574247D01*
X27980026Y30626926D01*
X27979884Y30627892D01*
X27970384Y30678756D01*
X27970157Y30679748D01*
X27956857Y30728796D01*
X27956542Y30729795D01*
X27939442Y30777028D01*
X27939037Y30778014D01*
X27918137Y30823432D01*
X27917650Y30824383D01*
X27892950Y30867984D01*
X27892392Y30868880D01*
X27863892Y30910667D01*
X27863278Y30911493D01*
X27830978Y30951463D01*
X27830325Y30952209D01*
X27800728Y30983491D01*
X28100000Y31502574D01*
X28399272Y30983491D01*
G37*
X28399272Y30983491D02*
X28369675Y30952209D01*
X28369022Y30951463D01*
X28336722Y30911493D01*
X28336108Y30910667D01*
X28307608Y30868880D01*
X28307050Y30867984D01*
X28282350Y30824383D01*
X28281863Y30823432D01*
X28260963Y30778014D01*
X28260558Y30777028D01*
X28243458Y30729795D01*
X28243143Y30728796D01*
X28229843Y30679748D01*
X28229616Y30678756D01*
X28220116Y30627892D01*
X28219974Y30626926D01*
X28214274Y30574247D01*
X28214208Y30573324D01*
X28212735Y30531085D01*
X27987265Y30531085D01*
X27985792Y30573324D01*
X27985726Y30574247D01*
X27980026Y30626926D01*
X27979884Y30627892D01*
X27970384Y30678756D01*
X27970157Y30679748D01*
X27956857Y30728796D01*
X27956542Y30729795D01*
X27939442Y30777028D01*
X27939037Y30778014D01*
X27918137Y30823432D01*
X27917650Y30824383D01*
X27892950Y30867984D01*
X27892392Y30868880D01*
X27863892Y30910667D01*
X27863278Y30911493D01*
X27830978Y30951463D01*
X27830325Y30952209D01*
X27800728Y30983491D01*
X28100000Y31502574D01*
X28399272Y30983491D01*
G36*
X5687634Y22041226D02*
G01*
X5688378Y22040575D01*
X5781932Y21964925D01*
X5782756Y21964312D01*
X5880521Y21897562D01*
X5881415Y21897004D01*
X5983390Y21839154D01*
X5984340Y21838666D01*
X6090527Y21789716D01*
X6091513Y21789311D01*
X6201910Y21749261D01*
X6202910Y21748945D01*
X6317518Y21717795D01*
X6318511Y21717567D01*
X6437331Y21695317D01*
X6438299Y21695174D01*
X6561329Y21681824D01*
X6562255Y21681758D01*
X6677240Y21677737D01*
X6677240Y21402263D01*
X6562255Y21398243D01*
X6561329Y21398177D01*
X6438299Y21384827D01*
X6437331Y21384684D01*
X6318511Y21362434D01*
X6317518Y21362206D01*
X6202910Y21331056D01*
X6201910Y21330740D01*
X6091513Y21290690D01*
X6090527Y21290285D01*
X5984340Y21241335D01*
X5983390Y21240847D01*
X5881415Y21182997D01*
X5880521Y21182439D01*
X5782756Y21115689D01*
X5781932Y21115076D01*
X5688378Y21039426D01*
X5687633Y21038775D01*
X5605165Y20960729D01*
X4600426Y21540000D01*
X5605165Y22119271D01*
X5687634Y22041226D01*
G37*
X5687634Y22041226D02*
X5688378Y22040575D01*
X5781932Y21964925D01*
X5782756Y21964312D01*
X5880521Y21897562D01*
X5881415Y21897004D01*
X5983390Y21839154D01*
X5984340Y21838666D01*
X6090527Y21789716D01*
X6091513Y21789311D01*
X6201910Y21749261D01*
X6202910Y21748945D01*
X6317518Y21717795D01*
X6318511Y21717567D01*
X6437331Y21695317D01*
X6438299Y21695174D01*
X6561329Y21681824D01*
X6562255Y21681758D01*
X6677240Y21677737D01*
X6677240Y21402263D01*
X6562255Y21398243D01*
X6561329Y21398177D01*
X6438299Y21384827D01*
X6437331Y21384684D01*
X6318511Y21362434D01*
X6317518Y21362206D01*
X6202910Y21331056D01*
X6201910Y21330740D01*
X6091513Y21290690D01*
X6090527Y21290285D01*
X5984340Y21241335D01*
X5983390Y21240847D01*
X5881415Y21182997D01*
X5880521Y21182439D01*
X5782756Y21115689D01*
X5781932Y21115076D01*
X5688378Y21039426D01*
X5687633Y21038775D01*
X5605165Y20960729D01*
X4600426Y21540000D01*
X5605165Y22119271D01*
X5687634Y22041226D01*
G36*
X27474968Y29411270D02*
G01*
X27475932Y29410465D01*
X27489439Y29400265D01*
X27490450Y29399575D01*
X27505119Y29390575D01*
X27506148Y29390008D01*
X27521980Y29382208D01*
X27522995Y29381761D01*
X27539989Y29375161D01*
X27540967Y29374827D01*
X27559124Y29369427D01*
X27560046Y29369190D01*
X27579366Y29364990D01*
X27580223Y29364834D01*
X27600705Y29361834D01*
X27601494Y29361744D01*
X27623140Y29359944D01*
X27623858Y29359904D01*
X27634300Y29359629D01*
X27634300Y29084371D01*
X27623858Y29084096D01*
X27623140Y29084056D01*
X27601494Y29082256D01*
X27600705Y29082166D01*
X27580223Y29079166D01*
X27579366Y29079010D01*
X27560046Y29074810D01*
X27559124Y29074573D01*
X27540967Y29069173D01*
X27539989Y29068839D01*
X27522995Y29062239D01*
X27521980Y29061792D01*
X27506148Y29053992D01*
X27505119Y29053425D01*
X27490450Y29044425D01*
X27489439Y29043735D01*
X27475932Y29033535D01*
X27474968Y29032730D01*
X27469489Y29027670D01*
X27132426Y29222000D01*
X27469489Y29416330D01*
X27474968Y29411270D01*
G37*
X27474968Y29411270D02*
X27475932Y29410465D01*
X27489439Y29400265D01*
X27490450Y29399575D01*
X27505119Y29390575D01*
X27506148Y29390008D01*
X27521980Y29382208D01*
X27522995Y29381761D01*
X27539989Y29375161D01*
X27540967Y29374827D01*
X27559124Y29369427D01*
X27560046Y29369190D01*
X27579366Y29364990D01*
X27580223Y29364834D01*
X27600705Y29361834D01*
X27601494Y29361744D01*
X27623140Y29359944D01*
X27623858Y29359904D01*
X27634300Y29359629D01*
X27634300Y29084371D01*
X27623858Y29084096D01*
X27623140Y29084056D01*
X27601494Y29082256D01*
X27600705Y29082166D01*
X27580223Y29079166D01*
X27579366Y29079010D01*
X27560046Y29074810D01*
X27559124Y29074573D01*
X27540967Y29069173D01*
X27539989Y29068839D01*
X27522995Y29062239D01*
X27521980Y29061792D01*
X27506148Y29053992D01*
X27505119Y29053425D01*
X27490450Y29044425D01*
X27489439Y29043735D01*
X27475932Y29033535D01*
X27474968Y29032730D01*
X27469489Y29027670D01*
X27132426Y29222000D01*
X27469489Y29416330D01*
X27474968Y29411270D01*
%TO.N,Net-(C7-Pad2)*%
G36*
X34434815Y26915455D02*
G01*
X34394185Y26914331D01*
X34393195Y26914265D01*
X34344443Y26909089D01*
X34343425Y26908939D01*
X34296011Y26899974D01*
X34294982Y26899735D01*
X34248906Y26886981D01*
X34247889Y26886653D01*
X34203150Y26870109D01*
X34202167Y26869698D01*
X34158765Y26849366D01*
X34157835Y26848882D01*
X34115771Y26824761D01*
X34114910Y26824220D01*
X34074183Y26796309D01*
X34073400Y26795727D01*
X34034010Y26764027D01*
X34033310Y26763420D01*
X34004228Y26736297D01*
X33844797Y26895728D01*
X33871920Y26924811D01*
X33872526Y26925511D01*
X33904226Y26964901D01*
X33904808Y26965684D01*
X33932719Y27006411D01*
X33933260Y27007272D01*
X33957381Y27049336D01*
X33957864Y27050266D01*
X33978197Y27093667D01*
X33978609Y27094651D01*
X33995152Y27139391D01*
X33995480Y27140407D01*
X34008234Y27186483D01*
X34008473Y27187512D01*
X34017438Y27234926D01*
X34017588Y27235944D01*
X34022764Y27284696D01*
X34022830Y27285685D01*
X34023955Y27326315D01*
X34585700Y27477200D01*
X34434815Y26915455D01*
G37*
X34434815Y26915455D02*
X34394185Y26914331D01*
X34393195Y26914265D01*
X34344443Y26909089D01*
X34343425Y26908939D01*
X34296011Y26899974D01*
X34294982Y26899735D01*
X34248906Y26886981D01*
X34247889Y26886653D01*
X34203150Y26870109D01*
X34202167Y26869698D01*
X34158765Y26849366D01*
X34157835Y26848882D01*
X34115771Y26824761D01*
X34114910Y26824220D01*
X34074183Y26796309D01*
X34073400Y26795727D01*
X34034010Y26764027D01*
X34033310Y26763420D01*
X34004228Y26736297D01*
X33844797Y26895728D01*
X33871920Y26924811D01*
X33872526Y26925511D01*
X33904226Y26964901D01*
X33904808Y26965684D01*
X33932719Y27006411D01*
X33933260Y27007272D01*
X33957381Y27049336D01*
X33957864Y27050266D01*
X33978197Y27093667D01*
X33978609Y27094651D01*
X33995152Y27139391D01*
X33995480Y27140407D01*
X34008234Y27186483D01*
X34008473Y27187512D01*
X34017438Y27234926D01*
X34017588Y27235944D01*
X34022764Y27284696D01*
X34022830Y27285685D01*
X34023955Y27326315D01*
X34585700Y27477200D01*
X34434815Y26915455D01*
G36*
X32429595Y26866622D02*
G01*
X32430347Y26865965D01*
X32448259Y26851515D01*
X32449090Y26850899D01*
X32467834Y26838149D01*
X32468734Y26837590D01*
X32488310Y26826540D01*
X32489263Y26826054D01*
X32509671Y26816704D01*
X32510657Y26816301D01*
X32531897Y26808651D01*
X32532896Y26808338D01*
X32554969Y26802388D01*
X32555957Y26802163D01*
X32578861Y26797913D01*
X32579821Y26797773D01*
X32603558Y26795223D01*
X32604476Y26795158D01*
X32616785Y26794732D01*
X32616785Y26569268D01*
X32604476Y26568842D01*
X32603558Y26568777D01*
X32579821Y26566227D01*
X32578861Y26566087D01*
X32555957Y26561837D01*
X32554969Y26561612D01*
X32532896Y26555662D01*
X32531897Y26555349D01*
X32510657Y26547699D01*
X32509671Y26547296D01*
X32489263Y26537946D01*
X32488310Y26537460D01*
X32468734Y26526410D01*
X32467834Y26525851D01*
X32449090Y26513101D01*
X32448259Y26512485D01*
X32430347Y26498035D01*
X32429595Y26497378D01*
X32419389Y26487727D01*
X32082426Y26682000D01*
X32419389Y26876273D01*
X32429595Y26866622D01*
G37*
X32429595Y26866622D02*
X32430347Y26865965D01*
X32448259Y26851515D01*
X32449090Y26850899D01*
X32467834Y26838149D01*
X32468734Y26837590D01*
X32488310Y26826540D01*
X32489263Y26826054D01*
X32509671Y26816704D01*
X32510657Y26816301D01*
X32531897Y26808651D01*
X32532896Y26808338D01*
X32554969Y26802388D01*
X32555957Y26802163D01*
X32578861Y26797913D01*
X32579821Y26797773D01*
X32603558Y26795223D01*
X32604476Y26795158D01*
X32616785Y26794732D01*
X32616785Y26569268D01*
X32604476Y26568842D01*
X32603558Y26568777D01*
X32579821Y26566227D01*
X32578861Y26566087D01*
X32555957Y26561837D01*
X32554969Y26561612D01*
X32532896Y26555662D01*
X32531897Y26555349D01*
X32510657Y26547699D01*
X32509671Y26547296D01*
X32489263Y26537946D01*
X32488310Y26537460D01*
X32468734Y26526410D01*
X32467834Y26525851D01*
X32449090Y26513101D01*
X32448259Y26512485D01*
X32430347Y26498035D01*
X32429595Y26497378D01*
X32419389Y26487727D01*
X32082426Y26682000D01*
X32419389Y26876273D01*
X32429595Y26866622D01*
G36*
X52492074Y31827000D02*
G01*
X52161180Y31636227D01*
X52151676Y31645213D01*
X52150924Y31645870D01*
X52133747Y31659725D01*
X52132916Y31660341D01*
X52114941Y31672566D01*
X52114041Y31673125D01*
X52095266Y31683720D01*
X52094312Y31684207D01*
X52074737Y31693172D01*
X52073751Y31693574D01*
X52053377Y31700909D01*
X52052379Y31701223D01*
X52031206Y31706928D01*
X52030218Y31707152D01*
X52008245Y31711227D01*
X52007285Y31711367D01*
X51984513Y31713812D01*
X51983596Y31713877D01*
X51972286Y31714268D01*
X51972286Y31939732D01*
X51983596Y31940123D01*
X51984513Y31940188D01*
X52007285Y31942633D01*
X52008245Y31942773D01*
X52030218Y31946848D01*
X52031206Y31947072D01*
X52052379Y31952777D01*
X52053377Y31953091D01*
X52073751Y31960426D01*
X52074737Y31960828D01*
X52094312Y31969793D01*
X52095266Y31970280D01*
X52114041Y31980875D01*
X52114941Y31981434D01*
X52132916Y31993659D01*
X52133747Y31994275D01*
X52150924Y32008130D01*
X52151676Y32008787D01*
X52161180Y32017773D01*
X52492074Y31827000D01*
G37*
X52492074Y31827000D02*
X52161180Y31636227D01*
X52151676Y31645213D01*
X52150924Y31645870D01*
X52133747Y31659725D01*
X52132916Y31660341D01*
X52114941Y31672566D01*
X52114041Y31673125D01*
X52095266Y31683720D01*
X52094312Y31684207D01*
X52074737Y31693172D01*
X52073751Y31693574D01*
X52053377Y31700909D01*
X52052379Y31701223D01*
X52031206Y31706928D01*
X52030218Y31707152D01*
X52008245Y31711227D01*
X52007285Y31711367D01*
X51984513Y31713812D01*
X51983596Y31713877D01*
X51972286Y31714268D01*
X51972286Y31939732D01*
X51983596Y31940123D01*
X51984513Y31940188D01*
X52007285Y31942633D01*
X52008245Y31942773D01*
X52030218Y31946848D01*
X52031206Y31947072D01*
X52052379Y31952777D01*
X52053377Y31953091D01*
X52073751Y31960426D01*
X52074737Y31960828D01*
X52094312Y31969793D01*
X52095266Y31970280D01*
X52114041Y31980875D01*
X52114941Y31981434D01*
X52132916Y31993659D01*
X52133747Y31994275D01*
X52150924Y32008130D01*
X52151676Y32008787D01*
X52161180Y32017773D01*
X52492074Y31827000D01*
G36*
X34789107Y27603088D02*
G01*
X34789853Y27602435D01*
X34827986Y27571622D01*
X34828813Y27571008D01*
X34868679Y27543821D01*
X34869575Y27543263D01*
X34911175Y27519700D01*
X34912126Y27519213D01*
X34955459Y27499275D01*
X34956445Y27498870D01*
X35001512Y27482558D01*
X35002511Y27482242D01*
X35049311Y27469555D01*
X35050303Y27469329D01*
X35098837Y27460266D01*
X35099802Y27460124D01*
X35150069Y27454687D01*
X35150992Y27454621D01*
X35190737Y27453235D01*
X35190737Y27227765D01*
X35150993Y27226380D01*
X35150069Y27226314D01*
X35099802Y27220877D01*
X35098837Y27220735D01*
X35050303Y27211672D01*
X35049311Y27211446D01*
X35002511Y27198759D01*
X35001511Y27198443D01*
X34956444Y27182130D01*
X34955459Y27181725D01*
X34912126Y27161788D01*
X34911175Y27161301D01*
X34869575Y27137738D01*
X34868679Y27137180D01*
X34828813Y27109993D01*
X34827986Y27109379D01*
X34789853Y27078566D01*
X34789107Y27077913D01*
X34759582Y27049978D01*
X34255676Y27340500D01*
X34759582Y27631022D01*
X34789107Y27603088D01*
G37*
X34789107Y27603088D02*
X34789853Y27602435D01*
X34827986Y27571622D01*
X34828813Y27571008D01*
X34868679Y27543821D01*
X34869575Y27543263D01*
X34911175Y27519700D01*
X34912126Y27519213D01*
X34955459Y27499275D01*
X34956445Y27498870D01*
X35001512Y27482558D01*
X35002511Y27482242D01*
X35049311Y27469555D01*
X35050303Y27469329D01*
X35098837Y27460266D01*
X35099802Y27460124D01*
X35150069Y27454687D01*
X35150992Y27454621D01*
X35190737Y27453235D01*
X35190737Y27227765D01*
X35150993Y27226380D01*
X35150069Y27226314D01*
X35099802Y27220877D01*
X35098837Y27220735D01*
X35050303Y27211672D01*
X35049311Y27211446D01*
X35002511Y27198759D01*
X35001511Y27198443D01*
X34956444Y27182130D01*
X34955459Y27181725D01*
X34912126Y27161788D01*
X34911175Y27161301D01*
X34869575Y27137738D01*
X34868679Y27137180D01*
X34828813Y27109993D01*
X34827986Y27109379D01*
X34789853Y27078566D01*
X34789107Y27077913D01*
X34759582Y27049978D01*
X34255676Y27340500D01*
X34759582Y27631022D01*
X34789107Y27603088D01*
%TO.N,Net-(C7-Pad1)*%
G36*
X32429595Y29406622D02*
G01*
X32430347Y29405965D01*
X32448259Y29391515D01*
X32449090Y29390899D01*
X32467834Y29378149D01*
X32468734Y29377590D01*
X32488310Y29366540D01*
X32489263Y29366054D01*
X32509671Y29356704D01*
X32510657Y29356301D01*
X32531897Y29348651D01*
X32532896Y29348338D01*
X32554969Y29342388D01*
X32555957Y29342163D01*
X32578861Y29337913D01*
X32579821Y29337773D01*
X32603558Y29335223D01*
X32604476Y29335158D01*
X32616785Y29334732D01*
X32616785Y29109268D01*
X32604476Y29108842D01*
X32603558Y29108777D01*
X32579821Y29106227D01*
X32578861Y29106087D01*
X32555957Y29101837D01*
X32554969Y29101612D01*
X32532896Y29095662D01*
X32531897Y29095349D01*
X32510657Y29087699D01*
X32509671Y29087296D01*
X32489263Y29077946D01*
X32488310Y29077460D01*
X32468734Y29066410D01*
X32467834Y29065851D01*
X32449090Y29053101D01*
X32448259Y29052485D01*
X32430347Y29038035D01*
X32429595Y29037378D01*
X32419389Y29027727D01*
X32082426Y29222000D01*
X32419389Y29416273D01*
X32429595Y29406622D01*
G37*
X32429595Y29406622D02*
X32430347Y29405965D01*
X32448259Y29391515D01*
X32449090Y29390899D01*
X32467834Y29378149D01*
X32468734Y29377590D01*
X32488310Y29366540D01*
X32489263Y29366054D01*
X32509671Y29356704D01*
X32510657Y29356301D01*
X32531897Y29348651D01*
X32532896Y29348338D01*
X32554969Y29342388D01*
X32555957Y29342163D01*
X32578861Y29337913D01*
X32579821Y29337773D01*
X32603558Y29335223D01*
X32604476Y29335158D01*
X32616785Y29334732D01*
X32616785Y29109268D01*
X32604476Y29108842D01*
X32603558Y29108777D01*
X32579821Y29106227D01*
X32578861Y29106087D01*
X32555957Y29101837D01*
X32554969Y29101612D01*
X32532896Y29095662D01*
X32531897Y29095349D01*
X32510657Y29087699D01*
X32509671Y29087296D01*
X32489263Y29077946D01*
X32488310Y29077460D01*
X32468734Y29066410D01*
X32467834Y29065851D01*
X32449090Y29053101D01*
X32448259Y29052485D01*
X32430347Y29038035D01*
X32429595Y29037378D01*
X32419389Y29027727D01*
X32082426Y29222000D01*
X32419389Y29416273D01*
X32429595Y29406622D01*
G36*
X33492513Y29279273D02*
G01*
X33493031Y29279022D01*
X33595403Y29232354D01*
X33596051Y29232080D01*
X33690560Y29195168D01*
X33691382Y29194879D01*
X33778027Y29167721D01*
X33779086Y29167439D01*
X33857868Y29150036D01*
X33859245Y29149810D01*
X33930163Y29142163D01*
X33931949Y29142097D01*
X33995004Y29144205D01*
X33997249Y29144482D01*
X34052440Y29156344D01*
X34055048Y29157208D01*
X34102376Y29178826D01*
X34105002Y29180437D01*
X34137704Y29206433D01*
X34642324Y28915500D01*
X34138437Y28624989D01*
X34105848Y28655959D01*
X34105298Y28656452D01*
X34057970Y28696460D01*
X34057521Y28696822D01*
X34002330Y28739334D01*
X34001959Y28739609D01*
X33938904Y28784627D01*
X33938595Y28784841D01*
X33867677Y28832363D01*
X33867415Y28832534D01*
X33788633Y28882562D01*
X33788409Y28882701D01*
X33701764Y28935233D01*
X33701571Y28935348D01*
X33607062Y28990386D01*
X33606894Y28990482D01*
X33504522Y29048024D01*
X33504374Y29048106D01*
X33400763Y29104544D01*
X33400763Y29326233D01*
X33492513Y29279273D01*
G37*
X33492513Y29279273D02*
X33493031Y29279022D01*
X33595403Y29232354D01*
X33596051Y29232080D01*
X33690560Y29195168D01*
X33691382Y29194879D01*
X33778027Y29167721D01*
X33779086Y29167439D01*
X33857868Y29150036D01*
X33859245Y29149810D01*
X33930163Y29142163D01*
X33931949Y29142097D01*
X33995004Y29144205D01*
X33997249Y29144482D01*
X34052440Y29156344D01*
X34055048Y29157208D01*
X34102376Y29178826D01*
X34105002Y29180437D01*
X34137704Y29206433D01*
X34642324Y28915500D01*
X34138437Y28624989D01*
X34105848Y28655959D01*
X34105298Y28656452D01*
X34057970Y28696460D01*
X34057521Y28696822D01*
X34002330Y28739334D01*
X34001959Y28739609D01*
X33938904Y28784627D01*
X33938595Y28784841D01*
X33867677Y28832363D01*
X33867415Y28832534D01*
X33788633Y28882562D01*
X33788409Y28882701D01*
X33701764Y28935233D01*
X33701571Y28935348D01*
X33607062Y28990386D01*
X33606894Y28990482D01*
X33504522Y29048024D01*
X33504374Y29048106D01*
X33400763Y29104544D01*
X33400763Y29326233D01*
X33492513Y29279273D01*
G36*
X32005956Y29583074D02*
G01*
X32006650Y29582471D01*
X32025238Y29567489D01*
X32026017Y29566909D01*
X32045218Y29553718D01*
X32046076Y29553178D01*
X32065891Y29541778D01*
X32066818Y29541294D01*
X32087246Y29531684D01*
X32088228Y29531271D01*
X32109270Y29523452D01*
X32110288Y29523122D01*
X32131944Y29517093D01*
X32132976Y29516852D01*
X32155246Y29512614D01*
X32156269Y29512462D01*
X32179152Y29510014D01*
X32180147Y29509947D01*
X32194189Y29509554D01*
X32295087Y29133913D01*
X31919446Y29234811D01*
X31919053Y29248853D01*
X31918986Y29249848D01*
X31916538Y29272731D01*
X31916386Y29273754D01*
X31912148Y29296024D01*
X31911907Y29297056D01*
X31905878Y29318712D01*
X31905548Y29319730D01*
X31897729Y29340772D01*
X31897316Y29341754D01*
X31887706Y29362182D01*
X31887222Y29363109D01*
X31875822Y29382924D01*
X31875282Y29383782D01*
X31862091Y29402983D01*
X31861511Y29403762D01*
X31846529Y29422350D01*
X31845926Y29423044D01*
X31837525Y29432048D01*
X31996952Y29591475D01*
X32005956Y29583074D01*
G37*
X32005956Y29583074D02*
X32006650Y29582471D01*
X32025238Y29567489D01*
X32026017Y29566909D01*
X32045218Y29553718D01*
X32046076Y29553178D01*
X32065891Y29541778D01*
X32066818Y29541294D01*
X32087246Y29531684D01*
X32088228Y29531271D01*
X32109270Y29523452D01*
X32110288Y29523122D01*
X32131944Y29517093D01*
X32132976Y29516852D01*
X32155246Y29512614D01*
X32156269Y29512462D01*
X32179152Y29510014D01*
X32180147Y29509947D01*
X32194189Y29509554D01*
X32295087Y29133913D01*
X31919446Y29234811D01*
X31919053Y29248853D01*
X31918986Y29249848D01*
X31916538Y29272731D01*
X31916386Y29273754D01*
X31912148Y29296024D01*
X31911907Y29297056D01*
X31905878Y29318712D01*
X31905548Y29319730D01*
X31897729Y29340772D01*
X31897316Y29341754D01*
X31887706Y29362182D01*
X31887222Y29363109D01*
X31875822Y29382924D01*
X31875282Y29383782D01*
X31862091Y29402983D01*
X31861511Y29403762D01*
X31846529Y29422350D01*
X31845926Y29423044D01*
X31837525Y29432048D01*
X31996952Y29591475D01*
X32005956Y29583074D01*
G36*
X31699272Y30983491D02*
G01*
X31669675Y30952209D01*
X31669022Y30951463D01*
X31636722Y30911493D01*
X31636108Y30910667D01*
X31607608Y30868880D01*
X31607050Y30867984D01*
X31582350Y30824383D01*
X31581863Y30823432D01*
X31560963Y30778014D01*
X31560558Y30777028D01*
X31543458Y30729795D01*
X31543143Y30728796D01*
X31529843Y30679748D01*
X31529616Y30678756D01*
X31520116Y30627892D01*
X31519974Y30626926D01*
X31514274Y30574247D01*
X31514208Y30573324D01*
X31512735Y30531085D01*
X31287265Y30531085D01*
X31285792Y30573324D01*
X31285726Y30574247D01*
X31280026Y30626926D01*
X31279884Y30627892D01*
X31270384Y30678756D01*
X31270157Y30679748D01*
X31256857Y30728796D01*
X31256542Y30729795D01*
X31239442Y30777028D01*
X31239037Y30778014D01*
X31218137Y30823432D01*
X31217650Y30824383D01*
X31192950Y30867984D01*
X31192392Y30868880D01*
X31163892Y30910667D01*
X31163278Y30911493D01*
X31130978Y30951463D01*
X31130325Y30952209D01*
X31100728Y30983491D01*
X31400000Y31502574D01*
X31699272Y30983491D01*
G37*
X31699272Y30983491D02*
X31669675Y30952209D01*
X31669022Y30951463D01*
X31636722Y30911493D01*
X31636108Y30910667D01*
X31607608Y30868880D01*
X31607050Y30867984D01*
X31582350Y30824383D01*
X31581863Y30823432D01*
X31560963Y30778014D01*
X31560558Y30777028D01*
X31543458Y30729795D01*
X31543143Y30728796D01*
X31529843Y30679748D01*
X31529616Y30678756D01*
X31520116Y30627892D01*
X31519974Y30626926D01*
X31514274Y30574247D01*
X31514208Y30573324D01*
X31512735Y30531085D01*
X31287265Y30531085D01*
X31285792Y30573324D01*
X31285726Y30574247D01*
X31280026Y30626926D01*
X31279884Y30627892D01*
X31270384Y30678756D01*
X31270157Y30679748D01*
X31256857Y30728796D01*
X31256542Y30729795D01*
X31239442Y30777028D01*
X31239037Y30778014D01*
X31218137Y30823432D01*
X31217650Y30824383D01*
X31192950Y30867984D01*
X31192392Y30868880D01*
X31163892Y30910667D01*
X31163278Y30911493D01*
X31130978Y30951463D01*
X31130325Y30952209D01*
X31100728Y30983491D01*
X31400000Y31502574D01*
X31699272Y30983491D01*
%TO.N,Net-(D3-Pad2)*%
G36*
X53558322Y32008787D02*
G01*
X53559075Y32008130D01*
X53576252Y31994275D01*
X53577083Y31993659D01*
X53595058Y31981434D01*
X53595959Y31980874D01*
X53614735Y31970279D01*
X53615688Y31969793D01*
X53635262Y31960828D01*
X53636248Y31960426D01*
X53656622Y31953091D01*
X53657620Y31952777D01*
X53678793Y31947072D01*
X53679781Y31946848D01*
X53701754Y31942773D01*
X53702714Y31942633D01*
X53725486Y31940188D01*
X53726403Y31940123D01*
X53737714Y31939732D01*
X53737714Y31714268D01*
X53726403Y31713877D01*
X53725486Y31713812D01*
X53702714Y31711367D01*
X53701754Y31711227D01*
X53679781Y31707152D01*
X53678793Y31706928D01*
X53657620Y31701223D01*
X53656622Y31700909D01*
X53636248Y31693574D01*
X53635262Y31693172D01*
X53615688Y31684207D01*
X53614735Y31683721D01*
X53595959Y31673126D01*
X53595058Y31672566D01*
X53577083Y31660341D01*
X53576252Y31659725D01*
X53559075Y31645870D01*
X53558322Y31645213D01*
X53548819Y31636227D01*
X53217926Y31827000D01*
X53548819Y32017773D01*
X53558322Y32008787D01*
G37*
X53558322Y32008787D02*
X53559075Y32008130D01*
X53576252Y31994275D01*
X53577083Y31993659D01*
X53595058Y31981434D01*
X53595959Y31980874D01*
X53614735Y31970279D01*
X53615688Y31969793D01*
X53635262Y31960828D01*
X53636248Y31960426D01*
X53656622Y31953091D01*
X53657620Y31952777D01*
X53678793Y31947072D01*
X53679781Y31946848D01*
X53701754Y31942773D01*
X53702714Y31942633D01*
X53725486Y31940188D01*
X53726403Y31940123D01*
X53737714Y31939732D01*
X53737714Y31714268D01*
X53726403Y31713877D01*
X53725486Y31713812D01*
X53702714Y31711367D01*
X53701754Y31711227D01*
X53679781Y31707152D01*
X53678793Y31706928D01*
X53657620Y31701223D01*
X53656622Y31700909D01*
X53636248Y31693574D01*
X53635262Y31693172D01*
X53615688Y31684207D01*
X53614735Y31683721D01*
X53595959Y31673126D01*
X53595058Y31672566D01*
X53577083Y31660341D01*
X53576252Y31659725D01*
X53559075Y31645870D01*
X53558322Y31645213D01*
X53548819Y31636227D01*
X53217926Y31827000D01*
X53548819Y32017773D01*
X53558322Y32008787D01*
G36*
X55000574Y31827000D02*
G01*
X54511845Y31545228D01*
X54484075Y31571501D01*
X54483329Y31572153D01*
X54447035Y31601478D01*
X54446208Y31602093D01*
X54408262Y31627968D01*
X54407365Y31628526D01*
X54367767Y31650951D01*
X54366817Y31651438D01*
X54325568Y31670413D01*
X54324582Y31670817D01*
X54281681Y31686342D01*
X54280681Y31686658D01*
X54236129Y31698733D01*
X54235137Y31698959D01*
X54188933Y31707584D01*
X54187968Y31707726D01*
X54140112Y31712901D01*
X54139189Y31712967D01*
X54101940Y31714265D01*
X54101940Y31939735D01*
X54139189Y31941033D01*
X54140112Y31941099D01*
X54187968Y31946274D01*
X54188933Y31946416D01*
X54235137Y31955041D01*
X54236129Y31955267D01*
X54280681Y31967342D01*
X54281681Y31967658D01*
X54324582Y31983183D01*
X54325568Y31983587D01*
X54366817Y32002562D01*
X54367767Y32003049D01*
X54407365Y32025474D01*
X54408262Y32026032D01*
X54446208Y32051907D01*
X54447035Y32052522D01*
X54483329Y32081847D01*
X54484075Y32082499D01*
X54511845Y32108772D01*
X55000574Y31827000D01*
G37*
X55000574Y31827000D02*
X54511845Y31545228D01*
X54484075Y31571501D01*
X54483329Y31572153D01*
X54447035Y31601478D01*
X54446208Y31602093D01*
X54408262Y31627968D01*
X54407365Y31628526D01*
X54367767Y31650951D01*
X54366817Y31651438D01*
X54325568Y31670413D01*
X54324582Y31670817D01*
X54281681Y31686342D01*
X54280681Y31686658D01*
X54236129Y31698733D01*
X54235137Y31698959D01*
X54188933Y31707584D01*
X54187968Y31707726D01*
X54140112Y31712901D01*
X54139189Y31712967D01*
X54101940Y31714265D01*
X54101940Y31939735D01*
X54139189Y31941033D01*
X54140112Y31941099D01*
X54187968Y31946274D01*
X54188933Y31946416D01*
X54235137Y31955041D01*
X54236129Y31955267D01*
X54280681Y31967342D01*
X54281681Y31967658D01*
X54324582Y31983183D01*
X54325568Y31983587D01*
X54366817Y32002562D01*
X54367767Y32003049D01*
X54407365Y32025474D01*
X54408262Y32026032D01*
X54446208Y32051907D01*
X54447035Y32052522D01*
X54483329Y32081847D01*
X54484075Y32082499D01*
X54511845Y32108772D01*
X55000574Y31827000D01*
%TO.N,/BRAKE_H*%
G36*
X25138122Y28070987D02*
G01*
X25138875Y28070330D01*
X25156052Y28056475D01*
X25156883Y28055859D01*
X25174858Y28043634D01*
X25175759Y28043074D01*
X25194535Y28032479D01*
X25195488Y28031993D01*
X25215062Y28023028D01*
X25216048Y28022626D01*
X25236422Y28015291D01*
X25237420Y28014977D01*
X25258593Y28009272D01*
X25259581Y28009048D01*
X25281554Y28004973D01*
X25282514Y28004833D01*
X25305286Y28002388D01*
X25306203Y28002323D01*
X25317514Y28001932D01*
X25317514Y27776468D01*
X25306203Y27776077D01*
X25305286Y27776012D01*
X25282514Y27773567D01*
X25281554Y27773427D01*
X25259581Y27769352D01*
X25258593Y27769128D01*
X25237420Y27763423D01*
X25236422Y27763109D01*
X25216048Y27755774D01*
X25215062Y27755372D01*
X25195488Y27746407D01*
X25194535Y27745921D01*
X25175759Y27735326D01*
X25174858Y27734766D01*
X25156883Y27722541D01*
X25156052Y27721925D01*
X25138875Y27708070D01*
X25138122Y27707413D01*
X25128619Y27698427D01*
X24797726Y27889200D01*
X25128619Y28079973D01*
X25138122Y28070987D01*
G37*
X25138122Y28070987D02*
X25138875Y28070330D01*
X25156052Y28056475D01*
X25156883Y28055859D01*
X25174858Y28043634D01*
X25175759Y28043074D01*
X25194535Y28032479D01*
X25195488Y28031993D01*
X25215062Y28023028D01*
X25216048Y28022626D01*
X25236422Y28015291D01*
X25237420Y28014977D01*
X25258593Y28009272D01*
X25259581Y28009048D01*
X25281554Y28004973D01*
X25282514Y28004833D01*
X25305286Y28002388D01*
X25306203Y28002323D01*
X25317514Y28001932D01*
X25317514Y27776468D01*
X25306203Y27776077D01*
X25305286Y27776012D01*
X25282514Y27773567D01*
X25281554Y27773427D01*
X25259581Y27769352D01*
X25258593Y27769128D01*
X25237420Y27763423D01*
X25236422Y27763109D01*
X25216048Y27755774D01*
X25215062Y27755372D01*
X25195488Y27746407D01*
X25194535Y27745921D01*
X25175759Y27735326D01*
X25174858Y27734766D01*
X25156883Y27722541D01*
X25156052Y27721925D01*
X25138875Y27708070D01*
X25138122Y27707413D01*
X25128619Y27698427D01*
X24797726Y27889200D01*
X25128619Y28079973D01*
X25138122Y28070987D01*
G36*
X27381574Y27952000D02*
G01*
X27044292Y27757543D01*
X27033421Y27767072D01*
X27031856Y27768244D01*
X27012060Y27780810D01*
X27010360Y27781716D01*
X26988476Y27791326D01*
X26986767Y27791935D01*
X26962795Y27798589D01*
X26961182Y27798926D01*
X26935122Y27802624D01*
X26933673Y27802746D01*
X26905525Y27803488D01*
X26904263Y27803458D01*
X26874026Y27801244D01*
X26872947Y27801119D01*
X26840623Y27795949D01*
X26839710Y27795768D01*
X26805297Y27787642D01*
X26804526Y27787434D01*
X26784415Y27781328D01*
X26784415Y28005192D01*
X26812413Y28014996D01*
X26812772Y28015127D01*
X26847185Y28028353D01*
X26847576Y28028511D01*
X26879900Y28042181D01*
X26880325Y28042370D01*
X26910562Y28056484D01*
X26911024Y28056711D01*
X26939172Y28071269D01*
X26939674Y28071543D01*
X26965734Y28086545D01*
X26966277Y28086876D01*
X26990249Y28102322D01*
X26990832Y28102721D01*
X27012716Y28118611D01*
X27013337Y28119092D01*
X27033133Y28135426D01*
X27033785Y28136003D01*
X27044619Y28146268D01*
X27381574Y27952000D01*
G37*
X27381574Y27952000D02*
X27044292Y27757543D01*
X27033421Y27767072D01*
X27031856Y27768244D01*
X27012060Y27780810D01*
X27010360Y27781716D01*
X26988476Y27791326D01*
X26986767Y27791935D01*
X26962795Y27798589D01*
X26961182Y27798926D01*
X26935122Y27802624D01*
X26933673Y27802746D01*
X26905525Y27803488D01*
X26904263Y27803458D01*
X26874026Y27801244D01*
X26872947Y27801119D01*
X26840623Y27795949D01*
X26839710Y27795768D01*
X26805297Y27787642D01*
X26804526Y27787434D01*
X26784415Y27781328D01*
X26784415Y28005192D01*
X26812413Y28014996D01*
X26812772Y28015127D01*
X26847185Y28028353D01*
X26847576Y28028511D01*
X26879900Y28042181D01*
X26880325Y28042370D01*
X26910562Y28056484D01*
X26911024Y28056711D01*
X26939172Y28071269D01*
X26939674Y28071543D01*
X26965734Y28086545D01*
X26966277Y28086876D01*
X26990249Y28102322D01*
X26990832Y28102721D01*
X27012716Y28118611D01*
X27013337Y28119092D01*
X27033133Y28135426D01*
X27033785Y28136003D01*
X27044619Y28146268D01*
X27381574Y27952000D01*
%TO.N,Net-(Q1-Pad1)*%
G36*
X50882440Y25351451D02*
G01*
X50853896Y25350659D01*
X50852905Y25350593D01*
X50815912Y25346658D01*
X50814891Y25346507D01*
X50778906Y25339690D01*
X50777877Y25339450D01*
X50742901Y25329753D01*
X50741884Y25329425D01*
X50707916Y25316847D01*
X50706933Y25316435D01*
X50673974Y25300977D01*
X50673045Y25300494D01*
X50641094Y25282155D01*
X50640233Y25281614D01*
X50609291Y25260394D01*
X50608510Y25259812D01*
X50578576Y25235712D01*
X50577877Y25235107D01*
X50557921Y25216492D01*
X50398491Y25375922D01*
X50417106Y25395878D01*
X50417711Y25396577D01*
X50441811Y25426511D01*
X50442393Y25427292D01*
X50463613Y25458234D01*
X50464154Y25459095D01*
X50482493Y25491046D01*
X50482976Y25491975D01*
X50498434Y25524934D01*
X50498846Y25525917D01*
X50511424Y25559885D01*
X50511752Y25560902D01*
X50521449Y25595878D01*
X50521689Y25596907D01*
X50528506Y25632892D01*
X50528657Y25633913D01*
X50532592Y25670906D01*
X50532658Y25671896D01*
X50533451Y25700440D01*
X51010603Y25828603D01*
X50882440Y25351451D01*
G37*
X50882440Y25351451D02*
X50853896Y25350659D01*
X50852905Y25350593D01*
X50815912Y25346658D01*
X50814891Y25346507D01*
X50778906Y25339690D01*
X50777877Y25339450D01*
X50742901Y25329753D01*
X50741884Y25329425D01*
X50707916Y25316847D01*
X50706933Y25316435D01*
X50673974Y25300977D01*
X50673045Y25300494D01*
X50641094Y25282155D01*
X50640233Y25281614D01*
X50609291Y25260394D01*
X50608510Y25259812D01*
X50578576Y25235712D01*
X50577877Y25235107D01*
X50557921Y25216492D01*
X50398491Y25375922D01*
X50417106Y25395878D01*
X50417711Y25396577D01*
X50441811Y25426511D01*
X50442393Y25427292D01*
X50463613Y25458234D01*
X50464154Y25459095D01*
X50482493Y25491046D01*
X50482976Y25491975D01*
X50498434Y25524934D01*
X50498846Y25525917D01*
X50511424Y25559885D01*
X50511752Y25560902D01*
X50521449Y25595878D01*
X50521689Y25596907D01*
X50528506Y25632892D01*
X50528657Y25633913D01*
X50532592Y25670906D01*
X50532658Y25671896D01*
X50533451Y25700440D01*
X51010603Y25828603D01*
X50882440Y25351451D01*
G36*
X35470554Y24752239D02*
G01*
X35470920Y24739166D01*
X35470987Y24738170D01*
X35473335Y24716227D01*
X35473487Y24715202D01*
X35477554Y24693847D01*
X35477796Y24692816D01*
X35483580Y24672048D01*
X35483910Y24671030D01*
X35491412Y24650850D01*
X35491825Y24649867D01*
X35501045Y24630274D01*
X35501528Y24629348D01*
X35512465Y24610342D01*
X35513006Y24609484D01*
X35525662Y24591066D01*
X35526241Y24590288D01*
X35540614Y24572456D01*
X35541217Y24571761D01*
X35548939Y24563487D01*
X35389513Y24404061D01*
X35381239Y24411783D01*
X35380544Y24412386D01*
X35362712Y24426759D01*
X35361934Y24427338D01*
X35343516Y24439994D01*
X35342658Y24440535D01*
X35323652Y24451472D01*
X35322726Y24451955D01*
X35303133Y24461175D01*
X35302150Y24461588D01*
X35281970Y24469090D01*
X35280952Y24469420D01*
X35260184Y24475204D01*
X35259153Y24475446D01*
X35237798Y24479513D01*
X35236773Y24479665D01*
X35214830Y24482013D01*
X35213834Y24482080D01*
X35200761Y24482446D01*
X35101681Y24851319D01*
X35470554Y24752239D01*
G37*
X35470554Y24752239D02*
X35470920Y24739166D01*
X35470987Y24738170D01*
X35473335Y24716227D01*
X35473487Y24715202D01*
X35477554Y24693847D01*
X35477796Y24692816D01*
X35483580Y24672048D01*
X35483910Y24671030D01*
X35491412Y24650850D01*
X35491825Y24649867D01*
X35501045Y24630274D01*
X35501528Y24629348D01*
X35512465Y24610342D01*
X35513006Y24609484D01*
X35525662Y24591066D01*
X35526241Y24590288D01*
X35540614Y24572456D01*
X35541217Y24571761D01*
X35548939Y24563487D01*
X35389513Y24404061D01*
X35381239Y24411783D01*
X35380544Y24412386D01*
X35362712Y24426759D01*
X35361934Y24427338D01*
X35343516Y24439994D01*
X35342658Y24440535D01*
X35323652Y24451472D01*
X35322726Y24451955D01*
X35303133Y24461175D01*
X35302150Y24461588D01*
X35281970Y24469090D01*
X35280952Y24469420D01*
X35260184Y24475204D01*
X35259153Y24475446D01*
X35237798Y24479513D01*
X35236773Y24479665D01*
X35214830Y24482013D01*
X35213834Y24482080D01*
X35200761Y24482446D01*
X35101681Y24851319D01*
X35470554Y24752239D01*
%TO.N,Net-(Q2-Pad1)*%
G36*
X35406982Y25962127D02*
G01*
X35407625Y25961558D01*
X35426812Y25945693D01*
X35427415Y25945224D01*
X35448740Y25929649D01*
X35449298Y25929263D01*
X35472764Y25913978D01*
X35473278Y25913661D01*
X35498882Y25898666D01*
X35499352Y25898404D01*
X35527096Y25883699D01*
X35527526Y25883481D01*
X35557409Y25869066D01*
X35557802Y25868885D01*
X35589825Y25854760D01*
X35590183Y25854609D01*
X35624345Y25840774D01*
X35624672Y25840646D01*
X35652714Y25830183D01*
X35652714Y25606535D01*
X35633073Y25612982D01*
X35632329Y25613201D01*
X35598167Y25622146D01*
X35597279Y25622345D01*
X35565256Y25628320D01*
X35564198Y25628471D01*
X35534315Y25631476D01*
X35533060Y25631540D01*
X35505316Y25631575D01*
X35503854Y25631492D01*
X35478250Y25628557D01*
X35476597Y25628256D01*
X35453131Y25622351D01*
X35451350Y25621760D01*
X35430025Y25612885D01*
X35428234Y25611967D01*
X35409047Y25600122D01*
X35407387Y25598901D01*
X35397173Y25590023D01*
X35065926Y25781000D01*
X35396810Y25971767D01*
X35406982Y25962127D01*
G37*
X35406982Y25962127D02*
X35407625Y25961558D01*
X35426812Y25945693D01*
X35427415Y25945224D01*
X35448740Y25929649D01*
X35449298Y25929263D01*
X35472764Y25913978D01*
X35473278Y25913661D01*
X35498882Y25898666D01*
X35499352Y25898404D01*
X35527096Y25883699D01*
X35527526Y25883481D01*
X35557409Y25869066D01*
X35557802Y25868885D01*
X35589825Y25854760D01*
X35590183Y25854609D01*
X35624345Y25840774D01*
X35624672Y25840646D01*
X35652714Y25830183D01*
X35652714Y25606535D01*
X35633073Y25612982D01*
X35632329Y25613201D01*
X35598167Y25622146D01*
X35597279Y25622345D01*
X35565256Y25628320D01*
X35564198Y25628471D01*
X35534315Y25631476D01*
X35533060Y25631540D01*
X35505316Y25631575D01*
X35503854Y25631492D01*
X35478250Y25628557D01*
X35476597Y25628256D01*
X35453131Y25622351D01*
X35451350Y25621760D01*
X35430025Y25612885D01*
X35428234Y25611967D01*
X35409047Y25600122D01*
X35407387Y25598901D01*
X35397173Y25590023D01*
X35065926Y25781000D01*
X35396810Y25971767D01*
X35406982Y25962127D01*
G36*
X43058074Y25714000D02*
G01*
X42630051Y25467228D01*
X42609306Y25486851D01*
X42608559Y25487505D01*
X42579618Y25510880D01*
X42578790Y25511495D01*
X42548525Y25532120D01*
X42547628Y25532678D01*
X42516039Y25550553D01*
X42515087Y25551040D01*
X42482174Y25566165D01*
X42481188Y25566569D01*
X42446952Y25578944D01*
X42445953Y25579259D01*
X42410392Y25588884D01*
X42409401Y25589110D01*
X42372517Y25595985D01*
X42371553Y25596127D01*
X42333345Y25600252D01*
X42332423Y25600317D01*
X42305150Y25601266D01*
X42305150Y25826734D01*
X42332423Y25827683D01*
X42333345Y25827748D01*
X42371553Y25831873D01*
X42372517Y25832015D01*
X42409401Y25838890D01*
X42410392Y25839116D01*
X42445953Y25848741D01*
X42446952Y25849056D01*
X42481188Y25861431D01*
X42482174Y25861835D01*
X42515087Y25876960D01*
X42516039Y25877447D01*
X42547628Y25895322D01*
X42548525Y25895880D01*
X42578790Y25916505D01*
X42579618Y25917120D01*
X42608559Y25940495D01*
X42609306Y25941149D01*
X42630051Y25960772D01*
X43058074Y25714000D01*
G37*
X43058074Y25714000D02*
X42630051Y25467228D01*
X42609306Y25486851D01*
X42608559Y25487505D01*
X42579618Y25510880D01*
X42578790Y25511495D01*
X42548525Y25532120D01*
X42547628Y25532678D01*
X42516039Y25550553D01*
X42515087Y25551040D01*
X42482174Y25566165D01*
X42481188Y25566569D01*
X42446952Y25578944D01*
X42445953Y25579259D01*
X42410392Y25588884D01*
X42409401Y25589110D01*
X42372517Y25595985D01*
X42371553Y25596127D01*
X42333345Y25600252D01*
X42332423Y25600317D01*
X42305150Y25601266D01*
X42305150Y25826734D01*
X42332423Y25827683D01*
X42333345Y25827748D01*
X42371553Y25831873D01*
X42372517Y25832015D01*
X42409401Y25838890D01*
X42410392Y25839116D01*
X42445953Y25848741D01*
X42446952Y25849056D01*
X42481188Y25861431D01*
X42482174Y25861835D01*
X42515087Y25876960D01*
X42516039Y25877447D01*
X42547628Y25895322D01*
X42548525Y25895880D01*
X42578790Y25916505D01*
X42579618Y25917120D01*
X42608559Y25940495D01*
X42609306Y25941149D01*
X42630051Y25960772D01*
X43058074Y25714000D01*
%TO.N,Net-(R1-Pad1)*%
G36*
X27606595Y14168622D02*
G01*
X27607347Y14167965D01*
X27625259Y14153515D01*
X27626090Y14152899D01*
X27644834Y14140149D01*
X27645734Y14139590D01*
X27665310Y14128540D01*
X27666263Y14128054D01*
X27686671Y14118704D01*
X27687657Y14118301D01*
X27708897Y14110651D01*
X27709896Y14110338D01*
X27731969Y14104388D01*
X27732957Y14104163D01*
X27755861Y14099913D01*
X27756821Y14099773D01*
X27780558Y14097223D01*
X27781476Y14097158D01*
X27793785Y14096732D01*
X27793785Y13871268D01*
X27781476Y13870842D01*
X27780558Y13870777D01*
X27756821Y13868227D01*
X27755861Y13868087D01*
X27732957Y13863837D01*
X27731969Y13863612D01*
X27709896Y13857662D01*
X27708897Y13857349D01*
X27687657Y13849699D01*
X27686671Y13849296D01*
X27666263Y13839946D01*
X27665310Y13839460D01*
X27645734Y13828410D01*
X27644834Y13827851D01*
X27626090Y13815101D01*
X27625259Y13814485D01*
X27607347Y13800035D01*
X27606595Y13799378D01*
X27596389Y13789727D01*
X27259426Y13984000D01*
X27596389Y14178273D01*
X27606595Y14168622D01*
G37*
X27606595Y14168622D02*
X27607347Y14167965D01*
X27625259Y14153515D01*
X27626090Y14152899D01*
X27644834Y14140149D01*
X27645734Y14139590D01*
X27665310Y14128540D01*
X27666263Y14128054D01*
X27686671Y14118704D01*
X27687657Y14118301D01*
X27708897Y14110651D01*
X27709896Y14110338D01*
X27731969Y14104388D01*
X27732957Y14104163D01*
X27755861Y14099913D01*
X27756821Y14099773D01*
X27780558Y14097223D01*
X27781476Y14097158D01*
X27793785Y14096732D01*
X27793785Y13871268D01*
X27781476Y13870842D01*
X27780558Y13870777D01*
X27756821Y13868227D01*
X27755861Y13868087D01*
X27732957Y13863837D01*
X27731969Y13863612D01*
X27709896Y13857662D01*
X27708897Y13857349D01*
X27687657Y13849699D01*
X27686671Y13849296D01*
X27666263Y13839946D01*
X27665310Y13839460D01*
X27645734Y13828410D01*
X27644834Y13827851D01*
X27626090Y13815101D01*
X27625259Y13814485D01*
X27607347Y13800035D01*
X27606595Y13799378D01*
X27596389Y13789727D01*
X27259426Y13984000D01*
X27596389Y14178273D01*
X27606595Y14168622D01*
G36*
X27881322Y10341787D02*
G01*
X27882075Y10341130D01*
X27899252Y10327275D01*
X27900083Y10326659D01*
X27918058Y10314434D01*
X27918959Y10313874D01*
X27937735Y10303279D01*
X27938688Y10302793D01*
X27958262Y10293828D01*
X27959248Y10293426D01*
X27979622Y10286091D01*
X27980620Y10285777D01*
X28001793Y10280072D01*
X28002781Y10279848D01*
X28024754Y10275773D01*
X28025714Y10275633D01*
X28048486Y10273188D01*
X28049403Y10273123D01*
X28060714Y10272732D01*
X28060714Y10047268D01*
X28049403Y10046877D01*
X28048486Y10046812D01*
X28025714Y10044367D01*
X28024754Y10044227D01*
X28002781Y10040152D01*
X28001793Y10039928D01*
X27980620Y10034223D01*
X27979622Y10033909D01*
X27959248Y10026574D01*
X27958262Y10026172D01*
X27938688Y10017207D01*
X27937735Y10016721D01*
X27918959Y10006126D01*
X27918058Y10005566D01*
X27900083Y9993341D01*
X27899252Y9992725D01*
X27882075Y9978870D01*
X27881322Y9978213D01*
X27871819Y9969227D01*
X27540926Y10160000D01*
X27871819Y10350773D01*
X27881322Y10341787D01*
G37*
X27881322Y10341787D02*
X27882075Y10341130D01*
X27899252Y10327275D01*
X27900083Y10326659D01*
X27918058Y10314434D01*
X27918959Y10313874D01*
X27937735Y10303279D01*
X27938688Y10302793D01*
X27958262Y10293828D01*
X27959248Y10293426D01*
X27979622Y10286091D01*
X27980620Y10285777D01*
X28001793Y10280072D01*
X28002781Y10279848D01*
X28024754Y10275773D01*
X28025714Y10275633D01*
X28048486Y10273188D01*
X28049403Y10273123D01*
X28060714Y10272732D01*
X28060714Y10047268D01*
X28049403Y10046877D01*
X28048486Y10046812D01*
X28025714Y10044367D01*
X28024754Y10044227D01*
X28002781Y10040152D01*
X28001793Y10039928D01*
X27980620Y10034223D01*
X27979622Y10033909D01*
X27959248Y10026574D01*
X27958262Y10026172D01*
X27938688Y10017207D01*
X27937735Y10016721D01*
X27918959Y10006126D01*
X27918058Y10005566D01*
X27900083Y9993341D01*
X27899252Y9992725D01*
X27882075Y9978870D01*
X27881322Y9978213D01*
X27871819Y9969227D01*
X27540926Y10160000D01*
X27871819Y10350773D01*
X27881322Y10341787D01*
G36*
X28974074Y10160000D02*
G01*
X28643180Y9969227D01*
X28633676Y9978213D01*
X28632924Y9978870D01*
X28615747Y9992725D01*
X28614916Y9993341D01*
X28596941Y10005566D01*
X28596041Y10006125D01*
X28577266Y10016720D01*
X28576312Y10017207D01*
X28556737Y10026172D01*
X28555751Y10026574D01*
X28535377Y10033909D01*
X28534379Y10034223D01*
X28513206Y10039928D01*
X28512218Y10040152D01*
X28490245Y10044227D01*
X28489285Y10044367D01*
X28466513Y10046812D01*
X28465596Y10046877D01*
X28454286Y10047268D01*
X28454286Y10272732D01*
X28465596Y10273123D01*
X28466513Y10273188D01*
X28489285Y10275633D01*
X28490245Y10275773D01*
X28512218Y10279848D01*
X28513206Y10280072D01*
X28534379Y10285777D01*
X28535377Y10286091D01*
X28555751Y10293426D01*
X28556737Y10293828D01*
X28576312Y10302793D01*
X28577266Y10303280D01*
X28596041Y10313875D01*
X28596941Y10314434D01*
X28614916Y10326659D01*
X28615747Y10327275D01*
X28632924Y10341130D01*
X28633676Y10341787D01*
X28643180Y10350773D01*
X28974074Y10160000D01*
G37*
X28974074Y10160000D02*
X28643180Y9969227D01*
X28633676Y9978213D01*
X28632924Y9978870D01*
X28615747Y9992725D01*
X28614916Y9993341D01*
X28596941Y10005566D01*
X28596041Y10006125D01*
X28577266Y10016720D01*
X28576312Y10017207D01*
X28556737Y10026172D01*
X28555751Y10026574D01*
X28535377Y10033909D01*
X28534379Y10034223D01*
X28513206Y10039928D01*
X28512218Y10040152D01*
X28490245Y10044227D01*
X28489285Y10044367D01*
X28466513Y10046812D01*
X28465596Y10046877D01*
X28454286Y10047268D01*
X28454286Y10272732D01*
X28465596Y10273123D01*
X28466513Y10273188D01*
X28489285Y10275633D01*
X28490245Y10275773D01*
X28512218Y10279848D01*
X28513206Y10280072D01*
X28534379Y10285777D01*
X28535377Y10286091D01*
X28555751Y10293426D01*
X28556737Y10293828D01*
X28576312Y10302793D01*
X28577266Y10303280D01*
X28596041Y10313875D01*
X28596941Y10314434D01*
X28614916Y10326659D01*
X28615747Y10327275D01*
X28632924Y10341130D01*
X28633676Y10341787D01*
X28643180Y10350773D01*
X28974074Y10160000D01*
G36*
X28965123Y10546404D02*
G01*
X28965188Y10545487D01*
X28967633Y10522715D01*
X28967773Y10521755D01*
X28971848Y10499782D01*
X28972072Y10498794D01*
X28977777Y10477621D01*
X28978091Y10476623D01*
X28985426Y10456249D01*
X28985828Y10455263D01*
X28994793Y10435688D01*
X28995280Y10434734D01*
X29005875Y10415959D01*
X29006434Y10415059D01*
X29018659Y10397084D01*
X29019275Y10396253D01*
X29033130Y10379076D01*
X29033787Y10378324D01*
X29042773Y10368820D01*
X28852000Y10037926D01*
X28661227Y10368820D01*
X28670213Y10378324D01*
X28670870Y10379076D01*
X28684725Y10396253D01*
X28685341Y10397084D01*
X28697566Y10415059D01*
X28698125Y10415959D01*
X28708720Y10434734D01*
X28709207Y10435688D01*
X28718172Y10455263D01*
X28718574Y10456249D01*
X28725909Y10476623D01*
X28726223Y10477621D01*
X28731928Y10498794D01*
X28732152Y10499782D01*
X28736227Y10521755D01*
X28736367Y10522715D01*
X28738812Y10545487D01*
X28738877Y10546404D01*
X28739268Y10557714D01*
X28964732Y10557714D01*
X28965123Y10546404D01*
G37*
X28965123Y10546404D02*
X28965188Y10545487D01*
X28967633Y10522715D01*
X28967773Y10521755D01*
X28971848Y10499782D01*
X28972072Y10498794D01*
X28977777Y10477621D01*
X28978091Y10476623D01*
X28985426Y10456249D01*
X28985828Y10455263D01*
X28994793Y10435688D01*
X28995280Y10434734D01*
X29005875Y10415959D01*
X29006434Y10415059D01*
X29018659Y10397084D01*
X29019275Y10396253D01*
X29033130Y10379076D01*
X29033787Y10378324D01*
X29042773Y10368820D01*
X28852000Y10037926D01*
X28661227Y10368820D01*
X28670213Y10378324D01*
X28670870Y10379076D01*
X28684725Y10396253D01*
X28685341Y10397084D01*
X28697566Y10415059D01*
X28698125Y10415959D01*
X28708720Y10434734D01*
X28709207Y10435688D01*
X28718172Y10455263D01*
X28718574Y10456249D01*
X28725909Y10476623D01*
X28726223Y10477621D01*
X28731928Y10498794D01*
X28732152Y10499782D01*
X28736227Y10521755D01*
X28736367Y10522715D01*
X28738812Y10545487D01*
X28738877Y10546404D01*
X28739268Y10557714D01*
X28964732Y10557714D01*
X28965123Y10546404D01*
%TO.N,Net-(R3-Pad2)*%
G36*
X27381574Y26682000D02*
G01*
X27044611Y26487727D01*
X27034404Y26497378D01*
X27033652Y26498035D01*
X27015740Y26512485D01*
X27014909Y26513101D01*
X26996165Y26525851D01*
X26995265Y26526410D01*
X26975689Y26537460D01*
X26974736Y26537946D01*
X26954328Y26547296D01*
X26953342Y26547699D01*
X26932102Y26555349D01*
X26931103Y26555662D01*
X26909030Y26561612D01*
X26908042Y26561837D01*
X26885138Y26566087D01*
X26884178Y26566227D01*
X26860441Y26568777D01*
X26859523Y26568842D01*
X26847215Y26569268D01*
X26847215Y26794732D01*
X26859523Y26795158D01*
X26860441Y26795223D01*
X26884178Y26797773D01*
X26885138Y26797913D01*
X26908042Y26802163D01*
X26909030Y26802388D01*
X26931103Y26808338D01*
X26932102Y26808651D01*
X26953342Y26816301D01*
X26954328Y26816704D01*
X26974736Y26826054D01*
X26975689Y26826540D01*
X26995265Y26837590D01*
X26996165Y26838149D01*
X27014909Y26850899D01*
X27015740Y26851515D01*
X27033652Y26865965D01*
X27034404Y26866622D01*
X27044611Y26876273D01*
X27381574Y26682000D01*
G37*
X27381574Y26682000D02*
X27044611Y26487727D01*
X27034404Y26497378D01*
X27033652Y26498035D01*
X27015740Y26512485D01*
X27014909Y26513101D01*
X26996165Y26525851D01*
X26995265Y26526410D01*
X26975689Y26537460D01*
X26974736Y26537946D01*
X26954328Y26547296D01*
X26953342Y26547699D01*
X26932102Y26555349D01*
X26931103Y26555662D01*
X26909030Y26561612D01*
X26908042Y26561837D01*
X26885138Y26566087D01*
X26884178Y26566227D01*
X26860441Y26568777D01*
X26859523Y26568842D01*
X26847215Y26569268D01*
X26847215Y26794732D01*
X26859523Y26795158D01*
X26860441Y26795223D01*
X26884178Y26797773D01*
X26885138Y26797913D01*
X26908042Y26802163D01*
X26909030Y26802388D01*
X26931103Y26808338D01*
X26932102Y26808651D01*
X26953342Y26816301D01*
X26954328Y26816704D01*
X26974736Y26826054D01*
X26975689Y26826540D01*
X26995265Y26837590D01*
X26996165Y26838149D01*
X27014909Y26850899D01*
X27015740Y26851515D01*
X27033652Y26865965D01*
X27034404Y26866622D01*
X27044611Y26876273D01*
X27381574Y26682000D01*
G36*
X25503714Y26563974D02*
G01*
X25447076Y26527951D01*
X25446991Y26527897D01*
X25389369Y26490602D01*
X25389270Y26490537D01*
X25336547Y26455712D01*
X25336430Y26455634D01*
X25288607Y26423279D01*
X25288467Y26423183D01*
X25245543Y26393298D01*
X25245373Y26393177D01*
X25207349Y26365762D01*
X25207136Y26365605D01*
X25174010Y26340660D01*
X25173739Y26340450D01*
X25145514Y26317975D01*
X25145157Y26317680D01*
X25121830Y26297675D01*
X25121343Y26297235D01*
X25109792Y26286243D01*
X24778926Y26477000D01*
X25110861Y26668374D01*
X25122616Y26659803D01*
X25124762Y26658541D01*
X25126115Y26658006D01*
X25149442Y26650301D01*
X25152539Y26649691D01*
X25180764Y26647716D01*
X25183080Y26647766D01*
X25216206Y26651521D01*
X25217850Y26651818D01*
X25255874Y26661303D01*
X25257043Y26661655D01*
X25299967Y26676870D01*
X25300819Y26677207D01*
X25348642Y26698152D01*
X25349280Y26698453D01*
X25402003Y26725128D01*
X25402495Y26725390D01*
X25460117Y26757795D01*
X25460505Y26758023D01*
X25503714Y26784378D01*
X25503714Y26563974D01*
G37*
X25503714Y26563974D02*
X25447076Y26527951D01*
X25446991Y26527897D01*
X25389369Y26490602D01*
X25389270Y26490537D01*
X25336547Y26455712D01*
X25336430Y26455634D01*
X25288607Y26423279D01*
X25288467Y26423183D01*
X25245543Y26393298D01*
X25245373Y26393177D01*
X25207349Y26365762D01*
X25207136Y26365605D01*
X25174010Y26340660D01*
X25173739Y26340450D01*
X25145514Y26317975D01*
X25145157Y26317680D01*
X25121830Y26297675D01*
X25121343Y26297235D01*
X25109792Y26286243D01*
X24778926Y26477000D01*
X25110861Y26668374D01*
X25122616Y26659803D01*
X25124762Y26658541D01*
X25126115Y26658006D01*
X25149442Y26650301D01*
X25152539Y26649691D01*
X25180764Y26647716D01*
X25183080Y26647766D01*
X25216206Y26651521D01*
X25217850Y26651818D01*
X25255874Y26661303D01*
X25257043Y26661655D01*
X25299967Y26676870D01*
X25300819Y26677207D01*
X25348642Y26698152D01*
X25349280Y26698453D01*
X25402003Y26725128D01*
X25402495Y26725390D01*
X25460117Y26757795D01*
X25460505Y26758023D01*
X25503714Y26784378D01*
X25503714Y26563974D01*
%TO.N,Net-(R4-Pad2)*%
G36*
X32331574Y27952000D02*
G01*
X31994611Y27757727D01*
X31984404Y27767378D01*
X31983652Y27768035D01*
X31965740Y27782485D01*
X31964909Y27783101D01*
X31946165Y27795851D01*
X31945265Y27796410D01*
X31925689Y27807460D01*
X31924736Y27807946D01*
X31904328Y27817296D01*
X31903342Y27817699D01*
X31882102Y27825349D01*
X31881103Y27825662D01*
X31859030Y27831612D01*
X31858042Y27831837D01*
X31835138Y27836087D01*
X31834178Y27836227D01*
X31810441Y27838777D01*
X31809523Y27838842D01*
X31797215Y27839268D01*
X31797215Y28064732D01*
X31809523Y28065158D01*
X31810441Y28065223D01*
X31834178Y28067773D01*
X31835138Y28067913D01*
X31858042Y28072163D01*
X31859030Y28072388D01*
X31881103Y28078338D01*
X31882102Y28078651D01*
X31903342Y28086301D01*
X31904328Y28086704D01*
X31924736Y28096054D01*
X31925689Y28096540D01*
X31945265Y28107590D01*
X31946165Y28108149D01*
X31964909Y28120899D01*
X31965740Y28121515D01*
X31983652Y28135965D01*
X31984404Y28136622D01*
X31994611Y28146273D01*
X32331574Y27952000D01*
G37*
X32331574Y27952000D02*
X31994611Y27757727D01*
X31984404Y27767378D01*
X31983652Y27768035D01*
X31965740Y27782485D01*
X31964909Y27783101D01*
X31946165Y27795851D01*
X31945265Y27796410D01*
X31925689Y27807460D01*
X31924736Y27807946D01*
X31904328Y27817296D01*
X31903342Y27817699D01*
X31882102Y27825349D01*
X31881103Y27825662D01*
X31859030Y27831612D01*
X31858042Y27831837D01*
X31835138Y27836087D01*
X31834178Y27836227D01*
X31810441Y27838777D01*
X31809523Y27838842D01*
X31797215Y27839268D01*
X31797215Y28064732D01*
X31809523Y28065158D01*
X31810441Y28065223D01*
X31834178Y28067773D01*
X31835138Y28067913D01*
X31858042Y28072163D01*
X31859030Y28072388D01*
X31881103Y28078338D01*
X31882102Y28078651D01*
X31903342Y28086301D01*
X31904328Y28086704D01*
X31924736Y28096054D01*
X31925689Y28096540D01*
X31945265Y28107590D01*
X31946165Y28108149D01*
X31964909Y28120899D01*
X31965740Y28121515D01*
X31983652Y28135965D01*
X31984404Y28136622D01*
X31994611Y28146273D01*
X32331574Y27952000D01*
%TO.N,Net-(R5-Pad2)*%
G36*
X34205239Y25498446D02*
G01*
X34192165Y25498080D01*
X34191169Y25498013D01*
X34169226Y25495665D01*
X34168201Y25495513D01*
X34146846Y25491446D01*
X34145815Y25491204D01*
X34125047Y25485420D01*
X34124029Y25485090D01*
X34103849Y25477588D01*
X34102866Y25477175D01*
X34083273Y25467955D01*
X34082347Y25467472D01*
X34063341Y25456535D01*
X34062483Y25455994D01*
X34044065Y25443338D01*
X34043287Y25442759D01*
X34025455Y25428386D01*
X34024760Y25427783D01*
X34016486Y25420062D01*
X33857061Y25579487D01*
X33864782Y25587762D01*
X33865385Y25588456D01*
X33879758Y25606288D01*
X33880337Y25607066D01*
X33892993Y25625484D01*
X33893534Y25626342D01*
X33904471Y25645348D01*
X33904954Y25646274D01*
X33914174Y25665867D01*
X33914587Y25666850D01*
X33922089Y25687030D01*
X33922419Y25688048D01*
X33928203Y25708816D01*
X33928445Y25709847D01*
X33932512Y25731202D01*
X33932664Y25732227D01*
X33935012Y25754170D01*
X33935079Y25755165D01*
X33935445Y25768239D01*
X34304319Y25867319D01*
X34205239Y25498446D01*
G37*
X34205239Y25498446D02*
X34192165Y25498080D01*
X34191169Y25498013D01*
X34169226Y25495665D01*
X34168201Y25495513D01*
X34146846Y25491446D01*
X34145815Y25491204D01*
X34125047Y25485420D01*
X34124029Y25485090D01*
X34103849Y25477588D01*
X34102866Y25477175D01*
X34083273Y25467955D01*
X34082347Y25467472D01*
X34063341Y25456535D01*
X34062483Y25455994D01*
X34044065Y25443338D01*
X34043287Y25442759D01*
X34025455Y25428386D01*
X34024760Y25427783D01*
X34016486Y25420062D01*
X33857061Y25579487D01*
X33864782Y25587762D01*
X33865385Y25588456D01*
X33879758Y25606288D01*
X33880337Y25607066D01*
X33892993Y25625484D01*
X33893534Y25626342D01*
X33904471Y25645348D01*
X33904954Y25646274D01*
X33914174Y25665867D01*
X33914587Y25666850D01*
X33922089Y25687030D01*
X33922419Y25688048D01*
X33928203Y25708816D01*
X33928445Y25709847D01*
X33932512Y25731202D01*
X33932664Y25732227D01*
X33935012Y25754170D01*
X33935079Y25755165D01*
X33935445Y25768239D01*
X34304319Y25867319D01*
X34205239Y25498446D01*
G36*
X32429595Y25596622D02*
G01*
X32430347Y25595965D01*
X32448259Y25581515D01*
X32449090Y25580899D01*
X32467834Y25568149D01*
X32468734Y25567590D01*
X32488310Y25556540D01*
X32489263Y25556054D01*
X32509671Y25546704D01*
X32510657Y25546301D01*
X32531897Y25538651D01*
X32532896Y25538338D01*
X32554969Y25532388D01*
X32555957Y25532163D01*
X32578861Y25527913D01*
X32579821Y25527773D01*
X32603558Y25525223D01*
X32604476Y25525158D01*
X32616785Y25524732D01*
X32616785Y25299268D01*
X32604476Y25298842D01*
X32603558Y25298777D01*
X32579821Y25296227D01*
X32578861Y25296087D01*
X32555957Y25291837D01*
X32554969Y25291612D01*
X32532896Y25285662D01*
X32531897Y25285349D01*
X32510657Y25277699D01*
X32509671Y25277296D01*
X32489263Y25267946D01*
X32488310Y25267460D01*
X32468734Y25256410D01*
X32467834Y25255851D01*
X32449090Y25243101D01*
X32448259Y25242485D01*
X32430347Y25228035D01*
X32429595Y25227378D01*
X32419389Y25217727D01*
X32082426Y25412000D01*
X32419389Y25606273D01*
X32429595Y25596622D01*
G37*
X32429595Y25596622D02*
X32430347Y25595965D01*
X32448259Y25581515D01*
X32449090Y25580899D01*
X32467834Y25568149D01*
X32468734Y25567590D01*
X32488310Y25556540D01*
X32489263Y25556054D01*
X32509671Y25546704D01*
X32510657Y25546301D01*
X32531897Y25538651D01*
X32532896Y25538338D01*
X32554969Y25532388D01*
X32555957Y25532163D01*
X32578861Y25527913D01*
X32579821Y25527773D01*
X32603558Y25525223D01*
X32604476Y25525158D01*
X32616785Y25524732D01*
X32616785Y25299268D01*
X32604476Y25298842D01*
X32603558Y25298777D01*
X32579821Y25296227D01*
X32578861Y25296087D01*
X32555957Y25291837D01*
X32554969Y25291612D01*
X32532896Y25285662D01*
X32531897Y25285349D01*
X32510657Y25277699D01*
X32509671Y25277296D01*
X32489263Y25267946D01*
X32488310Y25267460D01*
X32468734Y25256410D01*
X32467834Y25255851D01*
X32449090Y25243101D01*
X32448259Y25242485D01*
X32430347Y25228035D01*
X32429595Y25227378D01*
X32419389Y25217727D01*
X32082426Y25412000D01*
X32419389Y25606273D01*
X32429595Y25596622D01*
%TO.N,Net-(J1-Pad3)*%
G36*
X24071874Y27889200D02*
G01*
X23740980Y27698427D01*
X23731476Y27707413D01*
X23730724Y27708070D01*
X23713547Y27721925D01*
X23712716Y27722541D01*
X23694741Y27734766D01*
X23693841Y27735325D01*
X23675066Y27745920D01*
X23674112Y27746407D01*
X23654537Y27755372D01*
X23653551Y27755774D01*
X23633177Y27763109D01*
X23632179Y27763423D01*
X23611006Y27769128D01*
X23610018Y27769352D01*
X23588045Y27773427D01*
X23587085Y27773567D01*
X23564313Y27776012D01*
X23563396Y27776077D01*
X23552086Y27776468D01*
X23552086Y28001932D01*
X23563396Y28002323D01*
X23564313Y28002388D01*
X23587085Y28004833D01*
X23588045Y28004973D01*
X23610018Y28009048D01*
X23611006Y28009272D01*
X23632179Y28014977D01*
X23633177Y28015291D01*
X23653551Y28022626D01*
X23654537Y28023028D01*
X23674112Y28031993D01*
X23675066Y28032480D01*
X23693841Y28043075D01*
X23694741Y28043634D01*
X23712716Y28055859D01*
X23713547Y28056475D01*
X23730724Y28070330D01*
X23731476Y28070987D01*
X23740980Y28079973D01*
X24071874Y27889200D01*
G37*
X24071874Y27889200D02*
X23740980Y27698427D01*
X23731476Y27707413D01*
X23730724Y27708070D01*
X23713547Y27721925D01*
X23712716Y27722541D01*
X23694741Y27734766D01*
X23693841Y27735325D01*
X23675066Y27745920D01*
X23674112Y27746407D01*
X23654537Y27755372D01*
X23653551Y27755774D01*
X23633177Y27763109D01*
X23632179Y27763423D01*
X23611006Y27769128D01*
X23610018Y27769352D01*
X23588045Y27773427D01*
X23587085Y27773567D01*
X23564313Y27776012D01*
X23563396Y27776077D01*
X23552086Y27776468D01*
X23552086Y28001932D01*
X23563396Y28002323D01*
X23564313Y28002388D01*
X23587085Y28004833D01*
X23588045Y28004973D01*
X23610018Y28009048D01*
X23611006Y28009272D01*
X23632179Y28014977D01*
X23633177Y28015291D01*
X23653551Y28022626D01*
X23654537Y28023028D01*
X23674112Y28031993D01*
X23675066Y28032480D01*
X23693841Y28043075D01*
X23694741Y28043634D01*
X23712716Y28055859D01*
X23713547Y28056475D01*
X23730724Y28070330D01*
X23731476Y28070987D01*
X23740980Y28079973D01*
X24071874Y27889200D01*
G36*
X5692648Y24576476D02*
G01*
X5693392Y24575825D01*
X5792187Y24495925D01*
X5793011Y24495312D01*
X5896244Y24424812D01*
X5897138Y24424255D01*
X6004809Y24363155D01*
X6005759Y24362667D01*
X6117867Y24310967D01*
X6118852Y24310562D01*
X6235398Y24268262D01*
X6236398Y24267945D01*
X6357382Y24235045D01*
X6358376Y24234817D01*
X6483798Y24211317D01*
X6484766Y24211174D01*
X6614626Y24197074D01*
X6615553Y24197008D01*
X6737595Y24192737D01*
X6737595Y23967263D01*
X6615553Y23962992D01*
X6614626Y23962926D01*
X6484766Y23948826D01*
X6483798Y23948683D01*
X6358376Y23925183D01*
X6357382Y23924955D01*
X6236398Y23892055D01*
X6235398Y23891738D01*
X6118852Y23849438D01*
X6117867Y23849033D01*
X6005758Y23797333D01*
X6004808Y23796845D01*
X5897138Y23735745D01*
X5896244Y23735188D01*
X5793011Y23664688D01*
X5792187Y23664075D01*
X5693392Y23584175D01*
X5692648Y23583524D01*
X5605165Y23500729D01*
X4600426Y24080000D01*
X5605165Y24659271D01*
X5692648Y24576476D01*
G37*
X5692648Y24576476D02*
X5693392Y24575825D01*
X5792187Y24495925D01*
X5793011Y24495312D01*
X5896244Y24424812D01*
X5897138Y24424255D01*
X6004809Y24363155D01*
X6005759Y24362667D01*
X6117867Y24310967D01*
X6118852Y24310562D01*
X6235398Y24268262D01*
X6236398Y24267945D01*
X6357382Y24235045D01*
X6358376Y24234817D01*
X6483798Y24211317D01*
X6484766Y24211174D01*
X6614626Y24197074D01*
X6615553Y24197008D01*
X6737595Y24192737D01*
X6737595Y23967263D01*
X6615553Y23962992D01*
X6614626Y23962926D01*
X6484766Y23948826D01*
X6483798Y23948683D01*
X6358376Y23925183D01*
X6357382Y23924955D01*
X6236398Y23892055D01*
X6235398Y23891738D01*
X6118852Y23849438D01*
X6117867Y23849033D01*
X6005758Y23797333D01*
X6004808Y23796845D01*
X5897138Y23735745D01*
X5896244Y23735188D01*
X5793011Y23664688D01*
X5792187Y23664075D01*
X5693392Y23584175D01*
X5692648Y23583524D01*
X5605165Y23500729D01*
X4600426Y24080000D01*
X5605165Y24659271D01*
X5692648Y24576476D01*
%TD*%
D29*
X40259000Y29845000D03*
X40259000Y28956000D03*
X40259000Y27051000D03*
X41402000Y28575000D03*
X41402000Y29591000D03*
X40259000Y27940000D03*
X41402000Y27559000D03*
X27686000Y11811000D03*
X26797000Y11811000D03*
X24003000Y10795000D03*
X24003000Y9906000D03*
X15875000Y10668000D03*
X15875000Y9525000D03*
X33528000Y10922000D03*
X33528000Y9652000D03*
X32131000Y10922000D03*
X32131000Y9652000D03*
X46990000Y22860000D03*
X46990000Y21590000D03*
X46990000Y20320000D03*
X46990000Y19050000D03*
X45720000Y19050000D03*
X45720000Y20320000D03*
X45720000Y21590000D03*
X45720000Y22860000D03*
X58420000Y22860000D03*
X58420000Y21590000D03*
X58420000Y20320000D03*
X58420000Y19050000D03*
X32004000Y19304000D03*
X32004000Y18288000D03*
X33528000Y18288000D03*
X33528000Y19304000D03*
X17780000Y21336000D03*
X17780000Y20320000D03*
X17780000Y19304000D03*
X16256000Y13716000D03*
X16256000Y12700000D03*
X58420000Y17780000D03*
X58420000Y16510000D03*
X58420000Y15240000D03*
X26797000Y24130000D03*
X25654000Y24130000D03*
X35000000Y3506000D03*
X25000000Y3506000D03*
X2000000Y41000000D03*
X57880000Y41000000D03*
X5000000Y19000000D03*
X5000000Y21540000D03*
X5000000Y24080000D03*
X5000000Y55000000D03*
X7400000Y55000000D03*
X6697056Y53302944D03*
X5000000Y52600000D03*
X3302944Y53302944D03*
X2600000Y55000000D03*
X3302944Y56697056D03*
X5000000Y57400000D03*
X6697056Y56697056D03*
X55000000Y55000000D03*
X57400000Y55000000D03*
X56697056Y53302944D03*
X55000000Y52600000D03*
X53302944Y53302944D03*
X52600000Y55000000D03*
X53302944Y56697056D03*
X55000000Y57400000D03*
X56697056Y56697056D03*
X5000000Y5000000D03*
X7400000Y5000000D03*
X6697056Y3302944D03*
X5000000Y2600000D03*
X3302944Y3302944D03*
X2600000Y5000000D03*
X3302944Y6697056D03*
X5000000Y7400000D03*
X6697056Y6697056D03*
X55000000Y5000000D03*
X57400000Y5000000D03*
X56697056Y3302944D03*
X55000000Y2600000D03*
X53302944Y3302944D03*
X52600000Y5000000D03*
X53302944Y6697056D03*
X55000000Y7400000D03*
X56697056Y6697056D03*
M02*
