M48
; DRILL file {KiCad (5.1.6)-1} date 02/05/22 23:25:30
; FORMAT={-:-/ absolute / metric / decimal}
; #@! TF.CreationDate,2022-02-05T23:25:30+08:00
; #@! TF.GenerationSoftware,Kicad,Pcbnew,(5.1.6)-1
; #@! TF.FileFunction,Plated,1,2,PTH
FMAT,2
METRIC
T1C0.400
T2C0.500
T3C1.000
T4C1.200
T5C2.000
T6C3.200
%
G90
G05
T1
X15.875Y10.668
X15.875Y9.525
X16.256Y13.716
X16.256Y12.7
X17.78Y21.336
X17.78Y20.32
X17.78Y19.304
X24.003Y10.795
X24.003Y9.906
X25.654Y24.13
X26.797Y24.13
X26.797Y11.811
X27.686Y11.811
X32.004Y19.304
X32.004Y18.288
X32.131Y10.922
X32.131Y9.652
X33.528Y19.304
X33.528Y18.288
X33.528Y10.922
X33.528Y9.652
X40.259Y29.845
X40.259Y28.956
X40.259Y27.94
X40.259Y27.051
X41.402Y29.591
X41.402Y28.575
X41.402Y27.559
X45.72Y22.86
X45.72Y21.59
X45.72Y20.32
X45.72Y19.05
X46.99Y22.86
X46.99Y21.59
X46.99Y20.32
X46.99Y19.05
X58.42Y22.86
X58.42Y21.59
X58.42Y20.32
X58.42Y19.05
X58.42Y17.78
X58.42Y16.51
X58.42Y15.24
T2
X2.6Y55.0
X3.303Y56.697
X3.303Y53.303
X5.0Y57.4
X5.0Y52.6
X6.697Y56.697
X6.697Y53.303
X7.4Y55.0
X52.6Y5.0
X53.303Y6.697
X53.303Y3.303
X55.0Y7.4
X55.0Y2.6
X56.697Y6.697
X56.697Y3.303
X57.4Y5.0
X52.6Y55.0
X53.303Y56.697
X53.303Y53.303
X55.0Y57.4
X55.0Y52.6
X56.697Y56.697
X56.697Y53.303
X57.4Y55.0
X2.6Y5.0
X3.303Y6.697
X3.303Y3.303
X5.0Y7.4
X5.0Y2.6
X6.697Y6.697
X6.697Y3.303
X7.4Y5.0
T3
X5.0Y24.08
X5.0Y21.54
X5.0Y19.0
T4
X2.0Y41.0
X57.88Y41.0
T5
X35.0Y3.506
X25.0Y3.506
T6
X55.0Y5.0
X55.0Y55.0
X5.0Y5.0
X5.0Y55.0
T0
M30
