M48
; DRILL file {KiCad 5.1.12-5.1.12} date 2022年01月03日 星期一 06时20分25秒
; FORMAT={-:-/ absolute / metric / decimal}
; #@! TF.CreationDate,2022-01-03T06:20:25+08:00
; #@! TF.GenerationSoftware,Kicad,Pcbnew,5.1.12-5.1.12
; #@! TF.FileFunction,Plated,1,2,PTH
FMAT,2
METRIC
T1C0.200
T2C0.300
T3C0.500
T4C0.600
T5C1.000
T6C3.200
%
G90
G05
T1
X9.0Y16.0
X9.0Y14.0
X11.0Y16.0
X11.0Y14.0
X11.303Y31.369
X13.0Y48.0
X13.0Y46.0
X13.0Y44.0
X13.335Y31.369
X13.945Y10.77
X14.529Y9.449
X15.0Y48.0
X15.0Y46.0
X15.0Y44.0
X15.113Y31.369
X16.205Y9.474
X16.485Y10.846
X18.821Y24.282
X18.847Y26.441
X18.86Y24.955
X18.872Y23.546
X19.202Y17.17
X21.379Y29.533
X21.387Y14.961
X21.742Y31.42
X21.768Y27.838
X22.606Y24.282
X22.619Y24.955
X22.631Y26.441
X23.343Y23.546
X23.622Y16.967
X23.749Y4.115
X23.876Y31.191
X24.0Y36.0
X24.0Y35.3
X24.0Y26.0
X24.359Y15.062
X24.562Y25.527
X25.485Y18.957
X26.772Y38.43
X27.178Y37.922
X27.661Y31.521
X27.661Y20.218
X27.661Y19.075
X27.711Y37.592
X27.711Y29.769
X28.5Y30.6
X29.21Y31.496
X29.337Y29.87
X29.439Y23.546
X29.642Y35.331
X30.0Y13.0
X30.0Y1.0
X30.378Y40.234
X31.928Y35.357
X32.0Y13.0
X32.0Y1.0
X32.004Y38.989
X32.512Y22.377
X32.603Y34.199
X32.69Y35.382
X33.122Y32.766
X33.147Y39.116
X33.404Y30.022
X33.655Y28.626
X33.762Y29.133
X33.833Y27.661
X33.848Y30.546
X33.861Y29.641
X33.957Y34.315
X34.0Y13.0
X34.0Y1.0
X34.544Y39.624
X34.544Y36.957
X34.747Y27.153
X34.849Y29.312
X34.93Y32.243
X34.938Y33.683
X34.955Y35.601
X35.941Y40.259
X35.941Y37.719
X36.0Y13.0
X36.0Y1.0
X37.338Y40.894
X37.338Y38.354
X37.973Y33.96
X38.0Y13.0
X38.0Y1.0
X38.608Y41.402
X38.735Y38.989
X38.837Y33.477
X39.459Y27.318
X39.599Y26.797
X39.624Y41.91
X40.0Y59.0
X40.0Y25.0
X40.0Y23.0
X40.0Y21.0
X40.0Y19.0
X40.0Y13.0
X40.0Y1.0
X40.132Y39.624
X40.64Y42.418
X41.402Y40.132
X41.656Y42.672
X42.0Y59.0
X42.0Y1.0
X42.799Y40.64
X42.926Y43.18
X44.0Y59.0
X44.0Y1.0
X44.196Y43.434
X44.196Y41.148
X45.466Y43.942
X45.593Y41.529
X46.0Y59.0
X46.0Y1.0
X46.736Y44.196
X46.99Y41.91
X48.0Y59.0
X48.0Y51.0
X48.0Y50.0
X48.0Y49.0
X48.0Y48.0
X48.0Y47.0
X48.0Y46.0
X48.0Y41.0
X48.0Y40.0
X48.0Y39.0
X48.0Y38.0
X48.0Y1.0
X48.006Y44.45
X48.006Y42.164
X49.0Y51.0
X49.0Y38.0
X50.0Y51.0
X50.0Y38.0
X51.0Y51.0
X51.0Y38.0
X52.0Y51.0
X52.0Y38.0
X52.0Y36.0
X53.0Y38.0
X54.0Y38.0
X54.0Y36.0
X56.0Y36.0
X58.0Y36.0
X58.0Y32.0
X58.0Y28.0
X58.0Y24.0
X58.0Y20.0
X58.0Y16.0
X58.0Y12.0
T2
X0.948Y23.385
X19.592Y22.141
X21.992Y22.1
X22.53Y2.21
X22.86Y6.452
X23.901Y28.118
X24.333Y8.128
X28.981Y36.449
X29.007Y37.211
X29.261Y38.786
X36.683Y28.196
X38.063Y32.609
X42.951Y27.889
X47.041Y27.838
T3
X2.6Y5.0
X3.303Y6.697
X3.303Y3.303
X3.6Y54.0
X4.303Y55.697
X4.303Y52.303
X5.0Y7.4
X5.0Y2.6
X6.0Y56.4
X6.0Y51.6
X6.697Y6.697
X6.697Y3.303
X7.4Y5.0
X7.697Y55.697
X7.697Y52.303
X8.4Y54.0
X52.6Y55.0
X52.6Y5.0
X53.303Y56.697
X53.303Y53.303
X53.303Y6.697
X53.303Y3.303
X55.0Y57.4
X55.0Y52.6
X55.0Y7.4
X55.0Y2.6
X56.697Y56.697
X56.697Y53.303
X56.697Y6.697
X56.697Y3.303
X57.4Y55.0
X57.4Y5.0
T5
X3.46Y38.78
X3.46Y36.24
X3.46Y33.7
X3.46Y31.16
X3.46Y28.62
X3.46Y26.08
X3.46Y23.54
X3.46Y21.0
X3.46Y12.0
X6.0Y38.78
X6.0Y36.24
X6.0Y33.7
X6.0Y31.16
X6.0Y28.62
X6.0Y26.08
X6.0Y23.54
X6.0Y21.0
X6.0Y12.0
X17.44Y56.0
X17.44Y53.46
X19.98Y56.0
X19.98Y53.46
X22.52Y56.0
X22.52Y53.46
X25.06Y56.0
X25.06Y53.46
X27.6Y56.0
X27.6Y53.46
X32.293Y56.0
X32.293Y53.46
X34.833Y56.0
X34.833Y53.46
X37.373Y56.0
X37.373Y53.46
X39.913Y56.0
X39.913Y53.46
X42.453Y56.0
X42.453Y53.46
X44.221Y36.855
X44.221Y34.315
X44.221Y31.775
X44.221Y29.235
X44.221Y26.695
X44.221Y24.155
T6
X5.0Y5.0
X6.0Y54.0
X55.0Y55.0
X55.0Y5.0
T4
G00X10.745Y5.749
M15
G01X10.745Y6.849
M16
G05
G00X10.745Y1.729
M15
G01X10.745Y2.529
M16
G05
G00X19.385Y5.749
M15
G01X19.385Y6.849
M16
G05
G00X19.385Y1.729
M15
G01X19.385Y2.529
M16
G05
T0
M30
