%TF.GenerationSoftware,KiCad,Pcbnew,(5.1.6)-1*%
%TF.CreationDate,2022-04-30T17:47:53+08:00*%
%TF.ProjectId,simple_bldc,73696d70-6c65-45f6-926c-64632e6b6963,1*%
%TF.SameCoordinates,PX6979f40PYa1135a0*%
%TF.FileFunction,Legend,Top*%
%TF.FilePolarity,Positive*%
%FSLAX46Y46*%
G04 Gerber Fmt 4.6, Leading zero omitted, Abs format (unit mm)*
G04 Created by KiCad (PCBNEW (5.1.6)-1) date 2022-04-30 17:47:53*
%MOMM*%
%LPD*%
G01*
G04 APERTURE LIST*
%ADD10C,0.250000*%
%ADD11C,0.150000*%
%ADD12C,0.160000*%
%ADD13C,0.130000*%
%ADD14C,0.187500*%
%ADD15C,0.175000*%
%ADD16C,0.120000*%
%ADD17C,0.010000*%
%ADD18C,0.381000*%
%ADD19C,0.500000*%
%ADD20C,0.300000*%
G04 APERTURE END LIST*
D10*
X44942857Y53895239D02*
X45419047Y51895239D01*
X45800000Y53323810D01*
X46180952Y51895239D01*
X46657142Y53895239D01*
X47200000Y53000000D02*
G75*
G03*
X47200000Y53000000I-1400000J0D01*
G01*
X36833333Y53895239D02*
X37500000Y51895239D01*
X38166666Y53895239D01*
X38900000Y53000000D02*
G75*
G03*
X38900000Y53000000I-1400000J0D01*
G01*
X28828571Y53895239D02*
X28828571Y52276191D01*
X28923809Y52085715D01*
X29019047Y51990477D01*
X29209523Y51895239D01*
X29590476Y51895239D01*
X29780952Y51990477D01*
X29876190Y52085715D01*
X29971428Y52276191D01*
X29971428Y53895239D01*
X30800000Y53000000D02*
G75*
G03*
X30800000Y53000000I-1400000J0D01*
G01*
D11*
X29500000Y51007800D02*
X49118800Y51007800D01*
X29500000Y55007800D02*
X49118800Y55007800D01*
X29500000Y51007800D02*
G75*
G02*
X29500000Y55007800I0J2000000D01*
G01*
X49118800Y55007800D02*
G75*
G02*
X49118800Y51007800I0J-2000000D01*
G01*
D10*
X34620470Y57650000D02*
G75*
G03*
X34620470Y57650000I-1170470J0D01*
G01*
X49065470Y57755000D02*
G75*
G03*
X49065470Y57755000I-1170470J0D01*
G01*
D11*
X7794800Y1146400D02*
X7794800Y2822800D01*
X11604800Y1146400D02*
X7794800Y1146400D01*
X11604800Y2822800D02*
X11604800Y1146400D01*
X7794800Y2822800D02*
X11604800Y2822800D01*
D12*
X8099790Y2456020D02*
X8433123Y1456020D01*
X8766457Y2456020D01*
X9623600Y1456020D02*
X9052171Y1456020D01*
X9337885Y1456020D02*
X9337885Y2456020D01*
X9242647Y2313162D01*
X9147409Y2217924D01*
X9052171Y2170305D01*
X10052171Y1551258D02*
X10099790Y1503639D01*
X10052171Y1456020D01*
X10004552Y1503639D01*
X10052171Y1551258D01*
X10052171Y1456020D01*
X10480742Y2360781D02*
X10528361Y2408400D01*
X10623600Y2456020D01*
X10861695Y2456020D01*
X10956933Y2408400D01*
X11004552Y2360781D01*
X11052171Y2265543D01*
X11052171Y2170305D01*
X11004552Y2027448D01*
X10433123Y1456020D01*
X11052171Y1456020D01*
D13*
X13639857Y26054400D02*
X13582714Y26090115D01*
X13497000Y26090115D01*
X13411285Y26054400D01*
X13354142Y25982972D01*
X13325571Y25911543D01*
X13297000Y25768686D01*
X13297000Y25661543D01*
X13325571Y25518686D01*
X13354142Y25447258D01*
X13411285Y25375829D01*
X13497000Y25340115D01*
X13554142Y25340115D01*
X13639857Y25375829D01*
X13668428Y25411543D01*
X13668428Y25661543D01*
X13554142Y25661543D01*
X13925571Y25340115D02*
X13925571Y26090115D01*
X14268428Y25340115D01*
X14268428Y26090115D01*
X14554142Y25340115D02*
X14554142Y26090115D01*
X14697000Y26090115D01*
X14782714Y26054400D01*
X14839857Y25982972D01*
X14868428Y25911543D01*
X14897000Y25768686D01*
X14897000Y25661543D01*
X14868428Y25518686D01*
X14839857Y25447258D01*
X14782714Y25375829D01*
X14697000Y25340115D01*
X14554142Y25340115D01*
X13328742Y24743915D02*
X13700171Y24743915D01*
X13500171Y24458200D01*
X13585885Y24458200D01*
X13643028Y24422486D01*
X13671600Y24386772D01*
X13700171Y24315343D01*
X13700171Y24136772D01*
X13671600Y24065343D01*
X13643028Y24029629D01*
X13585885Y23993915D01*
X13414457Y23993915D01*
X13357314Y24029629D01*
X13328742Y24065343D01*
X13871600Y24743915D02*
X14071600Y23993915D01*
X14271600Y24743915D01*
X14414457Y24743915D02*
X14785885Y24743915D01*
X14585885Y24458200D01*
X14671600Y24458200D01*
X14728742Y24422486D01*
X14757314Y24386772D01*
X14785885Y24315343D01*
X14785885Y24136772D01*
X14757314Y24065343D01*
X14728742Y24029629D01*
X14671600Y23993915D01*
X14500171Y23993915D01*
X14443028Y24029629D01*
X14414457Y24065343D01*
X11214285Y22660715D02*
X11014285Y23017858D01*
X10871428Y22660715D02*
X10871428Y23410715D01*
X11100000Y23410715D01*
X11157142Y23375000D01*
X11185714Y23339286D01*
X11214285Y23267858D01*
X11214285Y23160715D01*
X11185714Y23089286D01*
X11157142Y23053572D01*
X11100000Y23017858D01*
X10871428Y23017858D01*
X11414285Y23410715D02*
X11814285Y22660715D01*
X11814285Y23410715D02*
X11414285Y22660715D01*
X11900000Y22589286D02*
X12357142Y22589286D01*
X12471428Y22696429D02*
X12557142Y22660715D01*
X12700000Y22660715D01*
X12757142Y22696429D01*
X12785714Y22732143D01*
X12814285Y22803572D01*
X12814285Y22875000D01*
X12785714Y22946429D01*
X12757142Y22982143D01*
X12700000Y23017858D01*
X12585714Y23053572D01*
X12528571Y23089286D01*
X12500000Y23125000D01*
X12471428Y23196429D01*
X12471428Y23267858D01*
X12500000Y23339286D01*
X12528571Y23375000D01*
X12585714Y23410715D01*
X12728571Y23410715D01*
X12814285Y23375000D01*
X13071428Y22660715D02*
X13071428Y23410715D01*
X13214285Y23410715D01*
X13300000Y23375000D01*
X13357142Y23303572D01*
X13385714Y23232143D01*
X13414285Y23089286D01*
X13414285Y22982143D01*
X13385714Y22839286D01*
X13357142Y22767858D01*
X13300000Y22696429D01*
X13214285Y22660715D01*
X13071428Y22660715D01*
X13642857Y22875000D02*
X13928571Y22875000D01*
X13585714Y22660715D02*
X13785714Y23410715D01*
X13985714Y22660715D01*
X14042857Y22589286D02*
X14500000Y22589286D01*
X14985714Y22732143D02*
X14957142Y22696429D01*
X14871428Y22660715D01*
X14814285Y22660715D01*
X14728571Y22696429D01*
X14671428Y22767858D01*
X14642857Y22839286D01*
X14614285Y22982143D01*
X14614285Y23089286D01*
X14642857Y23232143D01*
X14671428Y23303572D01*
X14728571Y23375000D01*
X14814285Y23410715D01*
X14871428Y23410715D01*
X14957142Y23375000D01*
X14985714Y23339286D01*
X15214285Y22696429D02*
X15300000Y22660715D01*
X15442857Y22660715D01*
X15500000Y22696429D01*
X15528571Y22732143D01*
X15557142Y22803572D01*
X15557142Y22875000D01*
X15528571Y22946429D01*
X15500000Y22982143D01*
X15442857Y23017858D01*
X15328571Y23053572D01*
X15271428Y23089286D01*
X15242857Y23125000D01*
X15214285Y23196429D01*
X15214285Y23267858D01*
X15242857Y23339286D01*
X15271428Y23375000D01*
X15328571Y23410715D01*
X15471428Y23410715D01*
X15557142Y23375000D01*
X11909657Y21575000D02*
X12195371Y21575000D01*
X11852514Y21360715D02*
X12052514Y22110715D01*
X12252514Y21360715D01*
X12452514Y21360715D02*
X12452514Y22110715D01*
X12595371Y22110715D01*
X12681085Y22075000D01*
X12738228Y22003572D01*
X12766800Y21932143D01*
X12795371Y21789286D01*
X12795371Y21682143D01*
X12766800Y21539286D01*
X12738228Y21467858D01*
X12681085Y21396429D01*
X12595371Y21360715D01*
X12452514Y21360715D01*
X13395371Y21432143D02*
X13366800Y21396429D01*
X13281085Y21360715D01*
X13223942Y21360715D01*
X13138228Y21396429D01*
X13081085Y21467858D01*
X13052514Y21539286D01*
X13023942Y21682143D01*
X13023942Y21789286D01*
X13052514Y21932143D01*
X13081085Y22003572D01*
X13138228Y22075000D01*
X13223942Y22110715D01*
X13281085Y22110715D01*
X13366800Y22075000D01*
X13395371Y22039286D01*
X13509657Y21289286D02*
X13966800Y21289286D01*
X14081085Y21396429D02*
X14166800Y21360715D01*
X14309657Y21360715D01*
X14366800Y21396429D01*
X14395371Y21432143D01*
X14423942Y21503572D01*
X14423942Y21575000D01*
X14395371Y21646429D01*
X14366800Y21682143D01*
X14309657Y21717858D01*
X14195371Y21753572D01*
X14138228Y21789286D01*
X14109657Y21825000D01*
X14081085Y21896429D01*
X14081085Y21967858D01*
X14109657Y22039286D01*
X14138228Y22075000D01*
X14195371Y22110715D01*
X14338228Y22110715D01*
X14423942Y22075000D01*
X15023942Y21432143D02*
X14995371Y21396429D01*
X14909657Y21360715D01*
X14852514Y21360715D01*
X14766800Y21396429D01*
X14709657Y21467858D01*
X14681085Y21539286D01*
X14652514Y21682143D01*
X14652514Y21789286D01*
X14681085Y21932143D01*
X14709657Y22003572D01*
X14766800Y22075000D01*
X14852514Y22110715D01*
X14909657Y22110715D01*
X14995371Y22075000D01*
X15023942Y22039286D01*
X15281085Y21360715D02*
X15281085Y22110715D01*
X15623942Y21360715D02*
X15366800Y21789286D01*
X15623942Y22110715D02*
X15281085Y21682143D01*
X11000000Y19610715D02*
X11342857Y19610715D01*
X11171428Y18860715D02*
X11171428Y19610715D01*
X11485714Y19610715D02*
X11885714Y18860715D01*
X11885714Y19610715D02*
X11485714Y18860715D01*
X11971428Y18789286D02*
X12428571Y18789286D01*
X12542857Y18896429D02*
X12628571Y18860715D01*
X12771428Y18860715D01*
X12828571Y18896429D01*
X12857142Y18932143D01*
X12885714Y19003572D01*
X12885714Y19075000D01*
X12857142Y19146429D01*
X12828571Y19182143D01*
X12771428Y19217858D01*
X12657142Y19253572D01*
X12600000Y19289286D01*
X12571428Y19325000D01*
X12542857Y19396429D01*
X12542857Y19467858D01*
X12571428Y19539286D01*
X12600000Y19575000D01*
X12657142Y19610715D01*
X12800000Y19610715D01*
X12885714Y19575000D01*
X13485714Y18932143D02*
X13457142Y18896429D01*
X13371428Y18860715D01*
X13314285Y18860715D01*
X13228571Y18896429D01*
X13171428Y18967858D01*
X13142857Y19039286D01*
X13114285Y19182143D01*
X13114285Y19289286D01*
X13142857Y19432143D01*
X13171428Y19503572D01*
X13228571Y19575000D01*
X13314285Y19610715D01*
X13371428Y19610715D01*
X13457142Y19575000D01*
X13485714Y19539286D01*
X14028571Y18860715D02*
X13742857Y18860715D01*
X13742857Y19610715D01*
X14085714Y18789286D02*
X14542857Y18789286D01*
X14685714Y18860715D02*
X14685714Y19610715D01*
X14885714Y19075000D01*
X15085714Y19610715D01*
X15085714Y18860715D01*
X15485714Y19610715D02*
X15600000Y19610715D01*
X15657142Y19575000D01*
X15714285Y19503572D01*
X15742857Y19360715D01*
X15742857Y19110715D01*
X15714285Y18967858D01*
X15657142Y18896429D01*
X15600000Y18860715D01*
X15485714Y18860715D01*
X15428571Y18896429D01*
X15371428Y18967858D01*
X15342857Y19110715D01*
X15342857Y19360715D01*
X15371428Y19503572D01*
X15428571Y19575000D01*
X15485714Y19610715D01*
X11857142Y20275000D02*
X12142857Y20275000D01*
X11800000Y20060715D02*
X12000000Y20810715D01*
X12200000Y20060715D01*
X12400000Y20060715D02*
X12400000Y20810715D01*
X12542857Y20810715D01*
X12628571Y20775000D01*
X12685714Y20703572D01*
X12714285Y20632143D01*
X12742857Y20489286D01*
X12742857Y20382143D01*
X12714285Y20239286D01*
X12685714Y20167858D01*
X12628571Y20096429D01*
X12542857Y20060715D01*
X12400000Y20060715D01*
X13342857Y20132143D02*
X13314285Y20096429D01*
X13228571Y20060715D01*
X13171428Y20060715D01*
X13085714Y20096429D01*
X13028571Y20167858D01*
X13000000Y20239286D01*
X12971428Y20382143D01*
X12971428Y20489286D01*
X13000000Y20632143D01*
X13028571Y20703572D01*
X13085714Y20775000D01*
X13171428Y20810715D01*
X13228571Y20810715D01*
X13314285Y20775000D01*
X13342857Y20739286D01*
X13571428Y20739286D02*
X13600000Y20775000D01*
X13657142Y20810715D01*
X13800000Y20810715D01*
X13857142Y20775000D01*
X13885714Y20739286D01*
X13914285Y20667858D01*
X13914285Y20596429D01*
X13885714Y20489286D01*
X13542857Y20060715D01*
X13914285Y20060715D01*
X14028571Y19989286D02*
X14485714Y19989286D01*
X14628571Y20060715D02*
X14628571Y20810715D01*
X14828571Y20275000D01*
X15028571Y20810715D01*
X15028571Y20060715D01*
X15314285Y20060715D02*
X15314285Y20810715D01*
D10*
X32555714Y57668572D02*
X34384285Y57668572D01*
X46980714Y57753572D02*
X48809285Y57753572D01*
X47895000Y56839286D02*
X47895000Y58667858D01*
D13*
X23649758Y6811445D02*
X23568946Y6784507D01*
X23488134Y6703695D01*
X23434259Y6595946D01*
X23434259Y6488196D01*
X23461197Y6407384D01*
X23542009Y6272697D01*
X23622821Y6191885D01*
X23757508Y6111072D01*
X23838320Y6084135D01*
X23946070Y6084135D01*
X24053819Y6138010D01*
X24107694Y6191885D01*
X24161569Y6299634D01*
X24161569Y6353509D01*
X23973007Y6542071D01*
X23865258Y6434321D01*
X24457880Y6542071D02*
X23892195Y7107756D01*
X24781129Y6865320D01*
X24215444Y7431005D01*
X25050503Y7134694D02*
X24484818Y7700379D01*
X24619505Y7835066D01*
X24727254Y7888941D01*
X24835004Y7888941D01*
X24915816Y7862003D01*
X25050503Y7781191D01*
X25131315Y7700379D01*
X25212128Y7565692D01*
X25239065Y7484880D01*
X25239065Y7377130D01*
X25185190Y7269381D01*
X25050503Y7134694D01*
X13295047Y6569008D02*
X13645233Y6919194D01*
X13672171Y6515133D01*
X13752983Y6595946D01*
X13833795Y6622883D01*
X13887670Y6622883D01*
X13968482Y6595946D01*
X14103169Y6461259D01*
X14130106Y6380446D01*
X14130106Y6326572D01*
X14103169Y6245759D01*
X13941545Y6084135D01*
X13860732Y6057198D01*
X13806858Y6057198D01*
X13806858Y7080819D02*
X14561105Y6703695D01*
X14183981Y7457942D01*
X14318668Y7592629D02*
X14668854Y7942816D01*
X14695792Y7538755D01*
X14776604Y7619567D01*
X14857416Y7646504D01*
X14911291Y7646504D01*
X14992103Y7619567D01*
X15126790Y7484880D01*
X15153728Y7404068D01*
X15153728Y7350193D01*
X15126790Y7269381D01*
X14965166Y7107756D01*
X14884354Y7080819D01*
X14830479Y7080819D01*
X15156198Y6347359D02*
X15479447Y6670608D01*
X15883508Y5943298D02*
X15317823Y6508984D01*
X15937383Y6589796D02*
X16125945Y6778358D01*
X16503068Y6562859D02*
X16233694Y6293485D01*
X15668009Y6859170D01*
X15937383Y7128544D01*
X16745505Y6805295D02*
X16179819Y7370981D01*
X16772442Y7155481D01*
X16556943Y7748104D01*
X17122628Y7182419D01*
X17392002Y7451793D02*
X16826317Y8017478D01*
X17041816Y8232977D01*
X17122628Y8259915D01*
X17176503Y8259915D01*
X17257315Y8232977D01*
X17338128Y8152165D01*
X17365065Y8071353D01*
X17365065Y8017478D01*
X17338128Y7936666D01*
X17122628Y7721167D01*
X21417276Y6242096D02*
X21417276Y7042096D01*
X21417276Y6661143D02*
X21874419Y6661143D01*
X21874419Y6242096D02*
X21874419Y7042096D01*
X22179180Y7042096D02*
X22674419Y7042096D01*
X22407752Y6737334D01*
X22522038Y6737334D01*
X22598228Y6699239D01*
X22636323Y6661143D01*
X22674419Y6584953D01*
X22674419Y6394477D01*
X22636323Y6318286D01*
X22598228Y6280191D01*
X22522038Y6242096D01*
X22293466Y6242096D01*
X22217276Y6280191D01*
X22179180Y6318286D01*
X19385276Y6242096D02*
X19385276Y7042096D01*
X19385276Y6661143D02*
X19842419Y6661143D01*
X19842419Y6242096D02*
X19842419Y7042096D01*
X20185276Y6965905D02*
X20223371Y7004000D01*
X20299561Y7042096D01*
X20490038Y7042096D01*
X20566228Y7004000D01*
X20604323Y6965905D01*
X20642419Y6889715D01*
X20642419Y6813524D01*
X20604323Y6699239D01*
X20147180Y6242096D01*
X20642419Y6242096D01*
D14*
X47261904Y8446429D02*
X47223809Y8405953D01*
X47109523Y8365477D01*
X47033333Y8365477D01*
X46919047Y8405953D01*
X46842857Y8486905D01*
X46804761Y8567858D01*
X46766666Y8729762D01*
X46766666Y8851191D01*
X46804761Y9013096D01*
X46842857Y9094048D01*
X46919047Y9175000D01*
X47033333Y9215477D01*
X47109523Y9215477D01*
X47223809Y9175000D01*
X47261904Y9134524D01*
X47566666Y8608334D02*
X47947619Y8608334D01*
X47490476Y8365477D02*
X47757142Y9215477D01*
X48023809Y8365477D01*
X48290476Y8365477D02*
X48290476Y9215477D01*
X48747619Y8365477D01*
X48747619Y9215477D01*
X48938095Y8284524D02*
X49547619Y8284524D01*
X49738095Y8365477D02*
X49738095Y9215477D01*
X49738095Y8810715D02*
X50195238Y8810715D01*
X50195238Y8365477D02*
X50195238Y9215477D01*
X47257142Y7146429D02*
X47219047Y7105953D01*
X47104761Y7065477D01*
X47028571Y7065477D01*
X46914285Y7105953D01*
X46838095Y7186905D01*
X46800000Y7267858D01*
X46761904Y7429762D01*
X46761904Y7551191D01*
X46800000Y7713096D01*
X46838095Y7794048D01*
X46914285Y7875000D01*
X47028571Y7915477D01*
X47104761Y7915477D01*
X47219047Y7875000D01*
X47257142Y7834524D01*
X47561904Y7308334D02*
X47942857Y7308334D01*
X47485714Y7065477D02*
X47752380Y7915477D01*
X48019047Y7065477D01*
X48285714Y7065477D02*
X48285714Y7915477D01*
X48742857Y7065477D01*
X48742857Y7915477D01*
X48933333Y6984524D02*
X49542857Y6984524D01*
X50114285Y7065477D02*
X49733333Y7065477D01*
X49733333Y7915477D01*
X882371Y11637515D02*
X882371Y11030372D01*
X918085Y10958943D01*
X953800Y10923229D01*
X1025228Y10887515D01*
X1168085Y10887515D01*
X1239514Y10923229D01*
X1275228Y10958943D01*
X1310942Y11030372D01*
X1310942Y11637515D01*
X1632371Y10923229D02*
X1739514Y10887515D01*
X1918085Y10887515D01*
X1989514Y10923229D01*
X2025228Y10958943D01*
X2060942Y11030372D01*
X2060942Y11101800D01*
X2025228Y11173229D01*
X1989514Y11208943D01*
X1918085Y11244658D01*
X1775228Y11280372D01*
X1703800Y11316086D01*
X1668085Y11351800D01*
X1632371Y11423229D01*
X1632371Y11494658D01*
X1668085Y11566086D01*
X1703800Y11601800D01*
X1775228Y11637515D01*
X1953800Y11637515D01*
X2060942Y11601800D01*
X2632371Y11280372D02*
X2739514Y11244658D01*
X2775228Y11208943D01*
X2810942Y11137515D01*
X2810942Y11030372D01*
X2775228Y10958943D01*
X2739514Y10923229D01*
X2668085Y10887515D01*
X2382371Y10887515D01*
X2382371Y11637515D01*
X2632371Y11637515D01*
X2703800Y11601800D01*
X2739514Y11566086D01*
X2775228Y11494658D01*
X2775228Y11423229D01*
X2739514Y11351800D01*
X2703800Y11316086D01*
X2632371Y11280372D01*
X2382371Y11280372D01*
X40157142Y4996429D02*
X40264285Y4960715D01*
X40442857Y4960715D01*
X40514285Y4996429D01*
X40550000Y5032143D01*
X40585714Y5103572D01*
X40585714Y5175000D01*
X40550000Y5246429D01*
X40514285Y5282143D01*
X40442857Y5317858D01*
X40300000Y5353572D01*
X40228571Y5389286D01*
X40192857Y5425000D01*
X40157142Y5496429D01*
X40157142Y5567858D01*
X40192857Y5639286D01*
X40228571Y5675000D01*
X40300000Y5710715D01*
X40478571Y5710715D01*
X40585714Y5675000D01*
X40907142Y5353572D02*
X41157142Y5353572D01*
X41264285Y4960715D02*
X40907142Y4960715D01*
X40907142Y5710715D01*
X41264285Y5710715D01*
X42014285Y4960715D02*
X41764285Y5317858D01*
X41585714Y4960715D02*
X41585714Y5710715D01*
X41871428Y5710715D01*
X41942857Y5675000D01*
X41978571Y5639286D01*
X42014285Y5567858D01*
X42014285Y5460715D01*
X41978571Y5389286D01*
X41942857Y5353572D01*
X41871428Y5317858D01*
X41585714Y5317858D01*
X42228571Y5710715D02*
X42478571Y4960715D01*
X42728571Y5710715D01*
X43121428Y5710715D02*
X43264285Y5710715D01*
X43335714Y5675000D01*
X43407142Y5603572D01*
X43442857Y5460715D01*
X43442857Y5210715D01*
X43407142Y5067858D01*
X43335714Y4996429D01*
X43264285Y4960715D01*
X43121428Y4960715D01*
X43050000Y4996429D01*
X42978571Y5067858D01*
X42942857Y5210715D01*
X42942857Y5460715D01*
X42978571Y5603572D01*
X43050000Y5675000D01*
X43121428Y5710715D01*
X32626200Y6515172D02*
X32590485Y6443743D01*
X32590485Y6336600D01*
X32626200Y6229458D01*
X32697628Y6158029D01*
X32769057Y6122315D01*
X32911914Y6086600D01*
X33019057Y6086600D01*
X33161914Y6122315D01*
X33233342Y6158029D01*
X33304771Y6229458D01*
X33340485Y6336600D01*
X33340485Y6408029D01*
X33304771Y6515172D01*
X33269057Y6550886D01*
X33019057Y6550886D01*
X33019057Y6408029D01*
X33340485Y6872315D02*
X32590485Y6872315D01*
X33340485Y7300886D01*
X32590485Y7300886D01*
X33340485Y7658029D02*
X32590485Y7658029D01*
X32590485Y7836600D01*
X32626200Y7943743D01*
X32697628Y8015172D01*
X32769057Y8050886D01*
X32911914Y8086600D01*
X33019057Y8086600D01*
X33161914Y8050886D01*
X33233342Y8015172D01*
X33304771Y7943743D01*
X33340485Y7836600D01*
X33340485Y7658029D01*
D13*
X17607276Y6191296D02*
X17607276Y6991296D01*
X17607276Y6610343D02*
X18064419Y6610343D01*
X18064419Y6191296D02*
X18064419Y6991296D01*
X18864419Y6191296D02*
X18407276Y6191296D01*
X18635847Y6191296D02*
X18635847Y6991296D01*
X18559657Y6877010D01*
X18483466Y6800820D01*
X18407276Y6762724D01*
D14*
X28602685Y6112000D02*
X29352685Y6362000D01*
X28602685Y6612000D01*
X29281257Y7290572D02*
X29316971Y7254858D01*
X29352685Y7147715D01*
X29352685Y7076286D01*
X29316971Y6969143D01*
X29245542Y6897715D01*
X29174114Y6862000D01*
X29031257Y6826286D01*
X28924114Y6826286D01*
X28781257Y6862000D01*
X28709828Y6897715D01*
X28638400Y6969143D01*
X28602685Y7076286D01*
X28602685Y7147715D01*
X28638400Y7254858D01*
X28674114Y7290572D01*
X29281257Y8040572D02*
X29316971Y8004858D01*
X29352685Y7897715D01*
X29352685Y7826286D01*
X29316971Y7719143D01*
X29245542Y7647715D01*
X29174114Y7612000D01*
X29031257Y7576286D01*
X28924114Y7576286D01*
X28781257Y7612000D01*
X28709828Y7647715D01*
X28638400Y7719143D01*
X28602685Y7826286D01*
X28602685Y7897715D01*
X28638400Y8004858D01*
X28674114Y8040572D01*
D11*
X31277933Y6060400D02*
X31311266Y6160400D01*
X31311266Y6327067D01*
X31277933Y6393734D01*
X31244600Y6427067D01*
X31177933Y6460400D01*
X31111266Y6460400D01*
X31044600Y6427067D01*
X31011266Y6393734D01*
X30977933Y6327067D01*
X30944600Y6193734D01*
X30911266Y6127067D01*
X30877933Y6093734D01*
X30811266Y6060400D01*
X30744600Y6060400D01*
X30677933Y6093734D01*
X30644600Y6127067D01*
X30611266Y6193734D01*
X30611266Y6360400D01*
X30644600Y6460400D01*
X30611266Y6693734D02*
X31311266Y6860400D01*
X30811266Y6993734D01*
X31311266Y7127067D01*
X30611266Y7293734D01*
X31244600Y7960400D02*
X31277933Y7927067D01*
X31311266Y7827067D01*
X31311266Y7760400D01*
X31277933Y7660400D01*
X31211266Y7593734D01*
X31144600Y7560400D01*
X31011266Y7527067D01*
X30911266Y7527067D01*
X30777933Y7560400D01*
X30711266Y7593734D01*
X30644600Y7660400D01*
X30611266Y7760400D01*
X30611266Y7827067D01*
X30644600Y7927067D01*
X30677933Y7960400D01*
D15*
X35341933Y6111200D02*
X35375266Y6211200D01*
X35375266Y6377867D01*
X35341933Y6444534D01*
X35308600Y6477867D01*
X35241933Y6511200D01*
X35175266Y6511200D01*
X35108600Y6477867D01*
X35075266Y6444534D01*
X35041933Y6377867D01*
X35008600Y6244534D01*
X34975266Y6177867D01*
X34941933Y6144534D01*
X34875266Y6111200D01*
X34808600Y6111200D01*
X34741933Y6144534D01*
X34708600Y6177867D01*
X34675266Y6244534D01*
X34675266Y6411200D01*
X34708600Y6511200D01*
X34675266Y6744534D02*
X35375266Y6911200D01*
X34875266Y7044534D01*
X35375266Y7177867D01*
X34675266Y7344534D01*
X35375266Y7611200D02*
X34675266Y7611200D01*
X34675266Y7777867D01*
X34708600Y7877867D01*
X34775266Y7944534D01*
X34841933Y7977867D01*
X34975266Y8011200D01*
X35075266Y8011200D01*
X35208600Y7977867D01*
X35275266Y7944534D01*
X35341933Y7877867D01*
X35375266Y7777867D01*
X35375266Y7611200D01*
D16*
%TO.C,P1*%
X26060000Y1190000D02*
X26060000Y5910000D01*
X26060000Y5910000D02*
X11940000Y5910000D01*
X11940000Y5910000D02*
X11940000Y1190000D01*
X11940000Y1190000D02*
X26060000Y1190000D01*
X24300000Y1190000D02*
X24300000Y990000D01*
X24300000Y990000D02*
X24600000Y990000D01*
X24600000Y990000D02*
X24600000Y1190000D01*
X24300000Y1090000D02*
X24600000Y1090000D01*
X23500000Y1190000D02*
X23500000Y1800000D01*
X23500000Y1800000D02*
X25450000Y1800000D01*
X25450000Y1800000D02*
X25450000Y5300000D01*
X25450000Y5300000D02*
X12550000Y5300000D01*
X12550000Y5300000D02*
X12550000Y1800000D01*
X12550000Y1800000D02*
X14500000Y1800000D01*
X14500000Y1800000D02*
X14500000Y1190000D01*
X26060000Y2500000D02*
X25450000Y2500000D01*
X26060000Y3800000D02*
X25450000Y3800000D01*
X11940000Y2500000D02*
X12550000Y2500000D01*
X11940000Y3800000D02*
X12550000Y3800000D01*
X23100000Y5300000D02*
X23100000Y4800000D01*
X23100000Y4800000D02*
X22900000Y4800000D01*
X22900000Y4800000D02*
X22900000Y5300000D01*
X23000000Y5300000D02*
X23000000Y4800000D01*
X21100000Y5300000D02*
X21100000Y4800000D01*
X21100000Y4800000D02*
X20900000Y4800000D01*
X20900000Y4800000D02*
X20900000Y5300000D01*
X21000000Y5300000D02*
X21000000Y4800000D01*
X19100000Y5300000D02*
X19100000Y4800000D01*
X19100000Y4800000D02*
X18900000Y4800000D01*
X18900000Y4800000D02*
X18900000Y5300000D01*
X19000000Y5300000D02*
X19000000Y4800000D01*
X17100000Y5300000D02*
X17100000Y4800000D01*
X17100000Y4800000D02*
X16900000Y4800000D01*
X16900000Y4800000D02*
X16900000Y5300000D01*
X17000000Y5300000D02*
X17000000Y4800000D01*
X15100000Y5300000D02*
X15100000Y4800000D01*
X15100000Y4800000D02*
X14900000Y4800000D01*
X14900000Y4800000D02*
X14900000Y5300000D01*
X15000000Y5300000D02*
X15000000Y4800000D01*
X25110000Y890000D02*
X26360000Y890000D01*
X26360000Y890000D02*
X26360000Y2140000D01*
%TO.C,U12*%
X23153600Y9643600D02*
X21253600Y9643600D01*
X21753600Y7323600D02*
X23153600Y7323600D01*
%TO.C,J4*%
X15831800Y18532800D02*
X16634270Y18532800D01*
X17249330Y18532800D02*
X18051800Y18532800D01*
X15831800Y24817800D02*
X15831800Y18532800D01*
X18051800Y24817800D02*
X18051800Y18532800D01*
X15831800Y24817800D02*
X16378329Y24817800D01*
X17505271Y24817800D02*
X18051800Y24817800D01*
X15831800Y25577800D02*
X15831800Y26337800D01*
X15831800Y26337800D02*
X16941800Y26337800D01*
%TO.C,C7*%
X7147936Y36690000D02*
X8352064Y36690000D01*
X7147936Y38510000D02*
X8352064Y38510000D01*
%TO.C,D12*%
X16992400Y48218800D02*
X16992400Y50503800D01*
X16992400Y50503800D02*
X15522400Y50503800D01*
X15522400Y50503800D02*
X15522400Y48218800D01*
%TO.C,U11*%
X27403400Y32333700D02*
X27403400Y34283700D01*
X27403400Y32333700D02*
X27403400Y30383700D01*
X22283400Y32333700D02*
X22283400Y34283700D01*
X22283400Y32333700D02*
X22283400Y28883700D01*
%TO.C,U3*%
X8100000Y44580000D02*
X8100000Y43080000D01*
X8100000Y43080000D02*
X8570000Y43080000D01*
X8570000Y43080000D02*
X8570000Y40250000D01*
X15000000Y44580000D02*
X15000000Y43080000D01*
X15000000Y43080000D02*
X14530000Y43080000D01*
X14530000Y43080000D02*
X14530000Y41980000D01*
%TO.C,J1*%
X45910000Y1670000D02*
X45910000Y4330000D01*
X40770000Y1670000D02*
X45910000Y1670000D01*
X40770000Y4330000D02*
X45910000Y4330000D01*
X40770000Y1670000D02*
X40770000Y4330000D01*
X39500000Y1670000D02*
X38170000Y1670000D01*
X38170000Y1670000D02*
X38170000Y3000000D01*
%TO.C,D11*%
X21980400Y35917700D02*
X19980400Y35917700D01*
X19980400Y35917700D02*
X19980400Y32017700D01*
X21980400Y35917700D02*
X21980400Y32017700D01*
%TO.C,C64*%
X23840221Y37276500D02*
X24165779Y37276500D01*
X23840221Y36256500D02*
X24165779Y36256500D01*
%TO.C,C60*%
X3702064Y36690000D02*
X2497936Y36690000D01*
X3702064Y38510000D02*
X2497936Y38510000D01*
%TO.C,C21*%
X33228521Y37273400D02*
X33554079Y37273400D01*
X33228521Y36253400D02*
X33554079Y36253400D01*
%TO.C,C17*%
X15224979Y33716800D02*
X14899421Y33716800D01*
X15224979Y32696800D02*
X14899421Y32696800D01*
%TO.C,C14*%
X2860000Y31547936D02*
X2860000Y32752064D01*
X1040000Y31547936D02*
X1040000Y32752064D01*
%TO.C,C12*%
X3702064Y36410000D02*
X2497936Y36410000D01*
X3702064Y34590000D02*
X2497936Y34590000D01*
%TO.C,C10*%
X15224979Y32294400D02*
X14899421Y32294400D01*
X15224979Y31274400D02*
X14899421Y31274400D01*
%TO.C,Q6*%
X52111600Y46990000D02*
X52111600Y49990000D01*
X57311600Y43990000D02*
X57311600Y49990000D01*
%TO.C,Q5*%
X51317200Y46990000D02*
X51317200Y43990000D01*
X46117200Y49990000D02*
X46117200Y43990000D01*
%TO.C,Q4*%
X38497200Y46939200D02*
X38497200Y49939200D01*
X43697200Y43939200D02*
X43697200Y49939200D01*
%TO.C,Q3*%
X37702800Y46939200D02*
X37702800Y43939200D01*
X32502800Y49939200D02*
X32502800Y43939200D01*
%TO.C,Q2*%
X25035200Y46939200D02*
X25035200Y49939200D01*
X30235200Y43939200D02*
X30235200Y49939200D01*
%TO.C,Q1*%
X24240800Y46939200D02*
X24240800Y43939200D01*
X19040800Y49939200D02*
X19040800Y43939200D01*
%TO.C,D10*%
X11992400Y30640400D02*
X11992400Y27340400D01*
X11992400Y27340400D02*
X17392400Y27340400D01*
X11992400Y30640400D02*
X17392400Y30640400D01*
%TO.C,J6*%
X37360000Y890000D02*
X37360000Y2140000D01*
X36110000Y890000D02*
X37360000Y890000D01*
X30000000Y5300000D02*
X30000000Y4800000D01*
X29900000Y4800000D02*
X29900000Y5300000D01*
X30100000Y4800000D02*
X29900000Y4800000D01*
X30100000Y5300000D02*
X30100000Y4800000D01*
X32000000Y5300000D02*
X32000000Y4800000D01*
X31900000Y4800000D02*
X31900000Y5300000D01*
X32100000Y4800000D02*
X31900000Y4800000D01*
X32100000Y5300000D02*
X32100000Y4800000D01*
X34000000Y5300000D02*
X34000000Y4800000D01*
X33900000Y4800000D02*
X33900000Y5300000D01*
X34100000Y4800000D02*
X33900000Y4800000D01*
X34100000Y5300000D02*
X34100000Y4800000D01*
X26940000Y3800000D02*
X27550000Y3800000D01*
X26940000Y2500000D02*
X27550000Y2500000D01*
X37060000Y3800000D02*
X36450000Y3800000D01*
X37060000Y2500000D02*
X36450000Y2500000D01*
X29500000Y1800000D02*
X29500000Y1190000D01*
X27550000Y1800000D02*
X29500000Y1800000D01*
X27550000Y5300000D02*
X27550000Y1800000D01*
X36450000Y5300000D02*
X27550000Y5300000D01*
X36450000Y1800000D02*
X36450000Y5300000D01*
X34500000Y1800000D02*
X36450000Y1800000D01*
X34500000Y1190000D02*
X34500000Y1800000D01*
X35300000Y1090000D02*
X35600000Y1090000D01*
X35600000Y990000D02*
X35600000Y1190000D01*
X35300000Y990000D02*
X35600000Y990000D01*
X35300000Y1190000D02*
X35300000Y990000D01*
X26940000Y1190000D02*
X37060000Y1190000D01*
X26940000Y5910000D02*
X26940000Y1190000D01*
X37060000Y5910000D02*
X26940000Y5910000D01*
X37060000Y1190000D02*
X37060000Y5910000D01*
D17*
%TO.C,H9*%
G36*
X46449517Y14047760D02*
G01*
X46526478Y14038667D01*
X46599416Y14019749D01*
X46671489Y13993562D01*
X46750441Y13959289D01*
X46814839Y13921295D01*
X46877724Y13870522D01*
X46949912Y13800191D01*
X47007161Y13739341D01*
X47052189Y13687028D01*
X47078975Y13650497D01*
X47083784Y13639163D01*
X47092289Y13605820D01*
X47112761Y13559400D01*
X47112971Y13558995D01*
X47133787Y13509258D01*
X47142279Y13469992D01*
X47152622Y13434636D01*
X47161938Y13424877D01*
X47170469Y13401214D01*
X47177102Y13347712D01*
X47180915Y13273600D01*
X47181476Y13229492D01*
X47179516Y13148245D01*
X47174251Y13082759D01*
X47166602Y13042261D01*
X47161938Y13034108D01*
X47144708Y13006188D01*
X47142279Y12988993D01*
X47133453Y12948711D01*
X47112971Y12899990D01*
X47092399Y12853144D01*
X47083784Y12818824D01*
X47083784Y12818716D01*
X47070915Y12794168D01*
X47036501Y12749985D01*
X46986832Y12693959D01*
X46961669Y12667462D01*
X46828540Y12551264D01*
X46683035Y12467627D01*
X46515100Y12410851D01*
X46504581Y12408291D01*
X46401864Y12388375D01*
X46316163Y12384769D01*
X46228946Y12397552D01*
X46180555Y12409682D01*
X46047017Y12456208D01*
X45924416Y12517709D01*
X45824600Y12587862D01*
X45795465Y12615108D01*
X45750219Y12657917D01*
X45713542Y12685903D01*
X45698840Y12692185D01*
X45679562Y12708000D01*
X45677015Y12721881D01*
X45667237Y12756102D01*
X45642745Y12806108D01*
X45631931Y12824457D01*
X45569598Y12955747D01*
X45765311Y12955747D01*
X45770610Y12934182D01*
X45776945Y12921761D01*
X45799712Y12884512D01*
X45813983Y12868031D01*
X45831569Y12845397D01*
X45856096Y12803076D01*
X45859043Y12797396D01*
X45898393Y12747498D01*
X45952775Y12707007D01*
X45958632Y12704066D01*
X46005891Y12678400D01*
X46035969Y12656119D01*
X46038800Y12652585D01*
X46067010Y12634373D01*
X46074338Y12633569D01*
X46089717Y12650560D01*
X46091034Y12690900D01*
X46263169Y12690900D01*
X46275817Y12625668D01*
X46310712Y12586731D01*
X46357291Y12578667D01*
X46392775Y12588399D01*
X46409561Y12614707D01*
X46415771Y12657992D01*
X46419301Y12700651D01*
X46595323Y12700651D01*
X46600444Y12652665D01*
X46619758Y12636251D01*
X46659193Y12649240D01*
X46688818Y12666396D01*
X46780300Y12735284D01*
X46859720Y12817709D01*
X46910047Y12892454D01*
X46947809Y12965723D01*
X46867990Y12965723D01*
X46821623Y12962282D01*
X46783209Y12947655D01*
X46741254Y12915387D01*
X46691746Y12866728D01*
X46637544Y12806980D01*
X46607716Y12761235D01*
X46596179Y12719013D01*
X46595323Y12700651D01*
X46419301Y12700651D01*
X46421835Y12731261D01*
X46342502Y12731261D01*
X46291065Y12728193D01*
X46268087Y12715468D01*
X46263169Y12690900D01*
X46091034Y12690900D01*
X46091414Y12702532D01*
X46090401Y12714560D01*
X46078558Y12771275D01*
X46050078Y12822117D01*
X45997591Y12880637D01*
X45944267Y12929886D01*
X45901893Y12955680D01*
X45856938Y12965021D01*
X45833149Y12965723D01*
X45783574Y12964240D01*
X45765311Y12955747D01*
X45569598Y12955747D01*
X45559558Y12976893D01*
X45522373Y13139136D01*
X45521724Y13198285D01*
X45700829Y13198285D01*
X45724396Y13170197D01*
X45779844Y13161150D01*
X45785630Y13161108D01*
X45830698Y13164209D01*
X45849182Y13181496D01*
X45852854Y13224944D01*
X45852854Y13225472D01*
X46038476Y13225472D01*
X46038476Y13078579D01*
X46131795Y12994092D01*
X46215312Y12930414D01*
X46291563Y12899796D01*
X46368239Y12899195D01*
X46370630Y12899610D01*
X46419615Y12905734D01*
X46440920Y12906841D01*
X46470904Y12919419D01*
X46518001Y12951931D01*
X46565584Y12991702D01*
X46618223Y13042587D01*
X46647908Y13083873D01*
X46662615Y13129843D01*
X46668639Y13176257D01*
X46671278Y13229492D01*
X46859092Y13229492D01*
X46862255Y13183603D01*
X46878989Y13164781D01*
X46920156Y13161108D01*
X46921439Y13161108D01*
X46968599Y13167004D01*
X46996210Y13181242D01*
X46996547Y13181757D01*
X47002013Y13215149D01*
X46997328Y13250141D01*
X46980217Y13284532D01*
X46944050Y13297060D01*
X46922220Y13297877D01*
X46879867Y13294471D01*
X46862495Y13276303D01*
X46859093Y13231444D01*
X46859092Y13229492D01*
X46671278Y13229492D01*
X46672015Y13244356D01*
X46669653Y13303410D01*
X46666428Y13323302D01*
X46635727Y13385076D01*
X46579682Y13449518D01*
X46509600Y13505746D01*
X46439111Y13542074D01*
X46379420Y13559795D01*
X46332738Y13561152D01*
X46276704Y13546389D01*
X46269429Y13543935D01*
X46203839Y13512090D01*
X46136100Y13465061D01*
X46112135Y13443901D01*
X46074573Y13405657D01*
X46052607Y13373472D01*
X46042055Y13334945D01*
X46038736Y13277678D01*
X46038476Y13225472D01*
X45852854Y13225472D01*
X45852861Y13229492D01*
X45849829Y13275328D01*
X45832787Y13294126D01*
X45789818Y13297869D01*
X45784849Y13297877D01*
X45736091Y13292603D01*
X45712226Y13271460D01*
X45704855Y13250141D01*
X45700829Y13198285D01*
X45521724Y13198285D01*
X45520555Y13304613D01*
X45554284Y13466750D01*
X45561170Y13482573D01*
X45755169Y13482573D01*
X45772588Y13477177D01*
X45816389Y13474076D01*
X45838207Y13473779D01*
X45896279Y13478533D01*
X45933118Y13498151D01*
X45959849Y13531454D01*
X45998832Y13578047D01*
X46039802Y13611185D01*
X46041107Y13611900D01*
X46071159Y13639754D01*
X46087415Y13689454D01*
X46091869Y13725187D01*
X46094994Y13771685D01*
X46263790Y13771685D01*
X46268494Y13743234D01*
X46290792Y13730594D01*
X46341323Y13727723D01*
X46391748Y13730464D01*
X46414155Y13743089D01*
X46415054Y13748023D01*
X46595323Y13748023D01*
X46606420Y13687431D01*
X46634446Y13633288D01*
X46671498Y13597969D01*
X46695594Y13590954D01*
X46714409Y13575809D01*
X46741117Y13538711D01*
X46744969Y13532338D01*
X46773348Y13494214D01*
X46808568Y13477373D01*
X46863304Y13473723D01*
X46914280Y13475919D01*
X46943945Y13481445D01*
X46947015Y13484271D01*
X46932769Y13530282D01*
X46894974Y13591385D01*
X46841042Y13658830D01*
X46778386Y13723868D01*
X46714420Y13777751D01*
X46678626Y13801014D01*
X46630763Y13822092D01*
X46605300Y13814358D01*
X46595955Y13773814D01*
X46595323Y13748023D01*
X46415054Y13748023D01*
X46419463Y13772200D01*
X46419476Y13774971D01*
X46410326Y13843296D01*
X46382326Y13878365D01*
X46356040Y13884031D01*
X46308744Y13866548D01*
X46274838Y13821974D01*
X46263790Y13771685D01*
X46094994Y13771685D01*
X46095572Y13780270D01*
X46095684Y13816399D01*
X46094348Y13823088D01*
X46075019Y13820454D01*
X46034271Y13804545D01*
X46022962Y13799327D01*
X45954627Y13757275D01*
X45893480Y13703158D01*
X45851451Y13648295D01*
X45842465Y13628056D01*
X45826284Y13597579D01*
X45815604Y13590954D01*
X45799270Y13575599D01*
X45777674Y13540643D01*
X45760108Y13502751D01*
X45755169Y13482573D01*
X45561170Y13482573D01*
X45610792Y13596590D01*
X45641129Y13652236D01*
X45664876Y13697025D01*
X45710519Y13759648D01*
X45782140Y13829260D01*
X45869641Y13897834D01*
X45962923Y13957340D01*
X46039704Y13994995D01*
X46117558Y14023762D01*
X46186468Y14040580D01*
X46262986Y14048379D01*
X46351092Y14050108D01*
X46449517Y14047760D01*
G37*
X46449517Y14047760D02*
X46526478Y14038667D01*
X46599416Y14019749D01*
X46671489Y13993562D01*
X46750441Y13959289D01*
X46814839Y13921295D01*
X46877724Y13870522D01*
X46949912Y13800191D01*
X47007161Y13739341D01*
X47052189Y13687028D01*
X47078975Y13650497D01*
X47083784Y13639163D01*
X47092289Y13605820D01*
X47112761Y13559400D01*
X47112971Y13558995D01*
X47133787Y13509258D01*
X47142279Y13469992D01*
X47152622Y13434636D01*
X47161938Y13424877D01*
X47170469Y13401214D01*
X47177102Y13347712D01*
X47180915Y13273600D01*
X47181476Y13229492D01*
X47179516Y13148245D01*
X47174251Y13082759D01*
X47166602Y13042261D01*
X47161938Y13034108D01*
X47144708Y13006188D01*
X47142279Y12988993D01*
X47133453Y12948711D01*
X47112971Y12899990D01*
X47092399Y12853144D01*
X47083784Y12818824D01*
X47083784Y12818716D01*
X47070915Y12794168D01*
X47036501Y12749985D01*
X46986832Y12693959D01*
X46961669Y12667462D01*
X46828540Y12551264D01*
X46683035Y12467627D01*
X46515100Y12410851D01*
X46504581Y12408291D01*
X46401864Y12388375D01*
X46316163Y12384769D01*
X46228946Y12397552D01*
X46180555Y12409682D01*
X46047017Y12456208D01*
X45924416Y12517709D01*
X45824600Y12587862D01*
X45795465Y12615108D01*
X45750219Y12657917D01*
X45713542Y12685903D01*
X45698840Y12692185D01*
X45679562Y12708000D01*
X45677015Y12721881D01*
X45667237Y12756102D01*
X45642745Y12806108D01*
X45631931Y12824457D01*
X45569598Y12955747D01*
X45765311Y12955747D01*
X45770610Y12934182D01*
X45776945Y12921761D01*
X45799712Y12884512D01*
X45813983Y12868031D01*
X45831569Y12845397D01*
X45856096Y12803076D01*
X45859043Y12797396D01*
X45898393Y12747498D01*
X45952775Y12707007D01*
X45958632Y12704066D01*
X46005891Y12678400D01*
X46035969Y12656119D01*
X46038800Y12652585D01*
X46067010Y12634373D01*
X46074338Y12633569D01*
X46089717Y12650560D01*
X46091034Y12690900D01*
X46263169Y12690900D01*
X46275817Y12625668D01*
X46310712Y12586731D01*
X46357291Y12578667D01*
X46392775Y12588399D01*
X46409561Y12614707D01*
X46415771Y12657992D01*
X46419301Y12700651D01*
X46595323Y12700651D01*
X46600444Y12652665D01*
X46619758Y12636251D01*
X46659193Y12649240D01*
X46688818Y12666396D01*
X46780300Y12735284D01*
X46859720Y12817709D01*
X46910047Y12892454D01*
X46947809Y12965723D01*
X46867990Y12965723D01*
X46821623Y12962282D01*
X46783209Y12947655D01*
X46741254Y12915387D01*
X46691746Y12866728D01*
X46637544Y12806980D01*
X46607716Y12761235D01*
X46596179Y12719013D01*
X46595323Y12700651D01*
X46419301Y12700651D01*
X46421835Y12731261D01*
X46342502Y12731261D01*
X46291065Y12728193D01*
X46268087Y12715468D01*
X46263169Y12690900D01*
X46091034Y12690900D01*
X46091414Y12702532D01*
X46090401Y12714560D01*
X46078558Y12771275D01*
X46050078Y12822117D01*
X45997591Y12880637D01*
X45944267Y12929886D01*
X45901893Y12955680D01*
X45856938Y12965021D01*
X45833149Y12965723D01*
X45783574Y12964240D01*
X45765311Y12955747D01*
X45569598Y12955747D01*
X45559558Y12976893D01*
X45522373Y13139136D01*
X45521724Y13198285D01*
X45700829Y13198285D01*
X45724396Y13170197D01*
X45779844Y13161150D01*
X45785630Y13161108D01*
X45830698Y13164209D01*
X45849182Y13181496D01*
X45852854Y13224944D01*
X45852854Y13225472D01*
X46038476Y13225472D01*
X46038476Y13078579D01*
X46131795Y12994092D01*
X46215312Y12930414D01*
X46291563Y12899796D01*
X46368239Y12899195D01*
X46370630Y12899610D01*
X46419615Y12905734D01*
X46440920Y12906841D01*
X46470904Y12919419D01*
X46518001Y12951931D01*
X46565584Y12991702D01*
X46618223Y13042587D01*
X46647908Y13083873D01*
X46662615Y13129843D01*
X46668639Y13176257D01*
X46671278Y13229492D01*
X46859092Y13229492D01*
X46862255Y13183603D01*
X46878989Y13164781D01*
X46920156Y13161108D01*
X46921439Y13161108D01*
X46968599Y13167004D01*
X46996210Y13181242D01*
X46996547Y13181757D01*
X47002013Y13215149D01*
X46997328Y13250141D01*
X46980217Y13284532D01*
X46944050Y13297060D01*
X46922220Y13297877D01*
X46879867Y13294471D01*
X46862495Y13276303D01*
X46859093Y13231444D01*
X46859092Y13229492D01*
X46671278Y13229492D01*
X46672015Y13244356D01*
X46669653Y13303410D01*
X46666428Y13323302D01*
X46635727Y13385076D01*
X46579682Y13449518D01*
X46509600Y13505746D01*
X46439111Y13542074D01*
X46379420Y13559795D01*
X46332738Y13561152D01*
X46276704Y13546389D01*
X46269429Y13543935D01*
X46203839Y13512090D01*
X46136100Y13465061D01*
X46112135Y13443901D01*
X46074573Y13405657D01*
X46052607Y13373472D01*
X46042055Y13334945D01*
X46038736Y13277678D01*
X46038476Y13225472D01*
X45852854Y13225472D01*
X45852861Y13229492D01*
X45849829Y13275328D01*
X45832787Y13294126D01*
X45789818Y13297869D01*
X45784849Y13297877D01*
X45736091Y13292603D01*
X45712226Y13271460D01*
X45704855Y13250141D01*
X45700829Y13198285D01*
X45521724Y13198285D01*
X45520555Y13304613D01*
X45554284Y13466750D01*
X45561170Y13482573D01*
X45755169Y13482573D01*
X45772588Y13477177D01*
X45816389Y13474076D01*
X45838207Y13473779D01*
X45896279Y13478533D01*
X45933118Y13498151D01*
X45959849Y13531454D01*
X45998832Y13578047D01*
X46039802Y13611185D01*
X46041107Y13611900D01*
X46071159Y13639754D01*
X46087415Y13689454D01*
X46091869Y13725187D01*
X46094994Y13771685D01*
X46263790Y13771685D01*
X46268494Y13743234D01*
X46290792Y13730594D01*
X46341323Y13727723D01*
X46391748Y13730464D01*
X46414155Y13743089D01*
X46415054Y13748023D01*
X46595323Y13748023D01*
X46606420Y13687431D01*
X46634446Y13633288D01*
X46671498Y13597969D01*
X46695594Y13590954D01*
X46714409Y13575809D01*
X46741117Y13538711D01*
X46744969Y13532338D01*
X46773348Y13494214D01*
X46808568Y13477373D01*
X46863304Y13473723D01*
X46914280Y13475919D01*
X46943945Y13481445D01*
X46947015Y13484271D01*
X46932769Y13530282D01*
X46894974Y13591385D01*
X46841042Y13658830D01*
X46778386Y13723868D01*
X46714420Y13777751D01*
X46678626Y13801014D01*
X46630763Y13822092D01*
X46605300Y13814358D01*
X46595955Y13773814D01*
X46595323Y13748023D01*
X46415054Y13748023D01*
X46419463Y13772200D01*
X46419476Y13774971D01*
X46410326Y13843296D01*
X46382326Y13878365D01*
X46356040Y13884031D01*
X46308744Y13866548D01*
X46274838Y13821974D01*
X46263790Y13771685D01*
X46094994Y13771685D01*
X46095572Y13780270D01*
X46095684Y13816399D01*
X46094348Y13823088D01*
X46075019Y13820454D01*
X46034271Y13804545D01*
X46022962Y13799327D01*
X45954627Y13757275D01*
X45893480Y13703158D01*
X45851451Y13648295D01*
X45842465Y13628056D01*
X45826284Y13597579D01*
X45815604Y13590954D01*
X45799270Y13575599D01*
X45777674Y13540643D01*
X45760108Y13502751D01*
X45755169Y13482573D01*
X45561170Y13482573D01*
X45610792Y13596590D01*
X45641129Y13652236D01*
X45664876Y13697025D01*
X45710519Y13759648D01*
X45782140Y13829260D01*
X45869641Y13897834D01*
X45962923Y13957340D01*
X46039704Y13994995D01*
X46117558Y14023762D01*
X46186468Y14040580D01*
X46262986Y14048379D01*
X46351092Y14050108D01*
X46449517Y14047760D01*
G36*
X54845156Y14544494D02*
G01*
X54996839Y14542835D01*
X55131957Y14540131D01*
X55243995Y14536493D01*
X55326435Y14532036D01*
X55352311Y14529774D01*
X55580414Y14487294D01*
X55794263Y14411146D01*
X55990217Y14303754D01*
X56164633Y14167539D01*
X56313869Y14004924D01*
X56434281Y13818332D01*
X56440793Y13805877D01*
X56490577Y13699974D01*
X56532424Y13592995D01*
X56562823Y13495313D01*
X56578259Y13417306D01*
X56579476Y13396294D01*
X56584297Y13364850D01*
X56596037Y13365616D01*
X56610617Y13393304D01*
X56623958Y13442628D01*
X56626554Y13457299D01*
X56665865Y13607165D01*
X56734522Y13765213D01*
X56827027Y13921942D01*
X56937880Y14067849D01*
X57042882Y14176683D01*
X57213874Y14312015D01*
X57396864Y14413877D01*
X57597385Y14484693D01*
X57820966Y14526886D01*
X57849476Y14530127D01*
X57915357Y14534829D01*
X58013835Y14538771D01*
X58138436Y14541844D01*
X58282684Y14543936D01*
X58440106Y14544939D01*
X58604228Y14544743D01*
X58679861Y14544222D01*
X59324630Y14538569D01*
X59324630Y14225954D01*
X58513784Y14215880D01*
X58310294Y14213329D01*
X58141670Y14210896D01*
X58003706Y14208128D01*
X57892196Y14204571D01*
X57802933Y14199771D01*
X57731711Y14193274D01*
X57674323Y14184626D01*
X57626563Y14173373D01*
X57584225Y14159061D01*
X57543102Y14141236D01*
X57498988Y14119444D01*
X57466576Y14102865D01*
X57326825Y14012135D01*
X57196857Y13891215D01*
X57084265Y13748930D01*
X56996643Y13594108D01*
X56967335Y13522569D01*
X56932020Y13384333D01*
X56915372Y13227084D01*
X56918097Y13066511D01*
X56940279Y12920896D01*
X57004493Y12732504D01*
X57101950Y12561352D01*
X57229405Y12412256D01*
X57350081Y12312591D01*
X57429202Y12260043D01*
X57505826Y12217047D01*
X57584932Y12182683D01*
X57671501Y12156028D01*
X57770512Y12136162D01*
X57886945Y12122162D01*
X58025781Y12113107D01*
X58191999Y12108075D01*
X58390579Y12106144D01*
X58466215Y12106031D01*
X59021784Y12106031D01*
X59021784Y12399108D01*
X58475669Y12399108D01*
X58290702Y12399652D01*
X58139620Y12401677D01*
X58017244Y12405774D01*
X57918391Y12412533D01*
X57837882Y12422545D01*
X57770535Y12436400D01*
X57711168Y12454688D01*
X57654603Y12478001D01*
X57614697Y12497223D01*
X57524856Y12554475D01*
X57433269Y12632985D01*
X57352370Y12720721D01*
X57294593Y12805651D01*
X57293183Y12808346D01*
X57236488Y12954242D01*
X57208377Y13111042D01*
X57210106Y13266799D01*
X57232995Y13379929D01*
X57297092Y13526993D01*
X57393311Y13661293D01*
X57515134Y13775873D01*
X57656038Y13863772D01*
X57707782Y13886601D01*
X57737437Y13897921D01*
X57766331Y13907143D01*
X57798663Y13914489D01*
X57838630Y13920177D01*
X57890430Y13924429D01*
X57958260Y13927465D01*
X58046318Y13929505D01*
X58158801Y13930770D01*
X58299907Y13931479D01*
X58473834Y13931853D01*
X58572400Y13931981D01*
X59324630Y13932877D01*
X59329928Y13546992D01*
X59335226Y13161108D01*
X59021784Y13161108D01*
X59021784Y13612550D01*
X58411207Y13606636D01*
X57800630Y13600723D01*
X57728116Y13550588D01*
X57624101Y13457825D01*
X57554628Y13348022D01*
X57520716Y13223045D01*
X57517323Y13165239D01*
X57534956Y13053412D01*
X57583380Y12943306D01*
X57655884Y12847616D01*
X57709709Y12801294D01*
X57794634Y12741031D01*
X58559632Y12731261D01*
X59324630Y12721492D01*
X59335112Y11791028D01*
X58538564Y11798152D01*
X58329518Y11800148D01*
X58155142Y11802384D01*
X58011031Y11805347D01*
X57892779Y11809523D01*
X57795979Y11815398D01*
X57716225Y11823458D01*
X57649113Y11834190D01*
X57590235Y11848080D01*
X57535187Y11865614D01*
X57479561Y11887278D01*
X57418953Y11913559D01*
X57394741Y11924389D01*
X57206252Y12029859D01*
X57035201Y12167427D01*
X56886055Y12332328D01*
X56763280Y12519798D01*
X56689501Y12676591D01*
X56660774Y12757576D01*
X56637365Y12838813D01*
X56625422Y12896398D01*
X56615773Y12949061D01*
X56605246Y12980925D01*
X56600830Y12985261D01*
X56591005Y12967727D01*
X56577838Y12922079D01*
X56566005Y12867330D01*
X56547374Y12798040D01*
X56515647Y12708354D01*
X56476067Y12612384D01*
X56451673Y12559599D01*
X56404749Y12467552D01*
X56360179Y12394209D01*
X56309033Y12327355D01*
X56242378Y12254774D01*
X56191192Y12203362D01*
X56048684Y12075958D01*
X55905349Y11977728D01*
X55748047Y11900761D01*
X55602553Y11848941D01*
X55456015Y11803185D01*
X51685092Y11803185D01*
X51679385Y11954608D01*
X51673679Y12106031D01*
X53551015Y12106031D01*
X53551015Y12399108D01*
X51675323Y12399108D01*
X51675323Y12353997D01*
X51664026Y12309733D01*
X51634114Y12245263D01*
X51591555Y12170759D01*
X51542316Y12096392D01*
X51492364Y12032331D01*
X51476205Y12014628D01*
X51370744Y11930060D01*
X51238923Y11863994D01*
X51090933Y11821124D01*
X51037078Y11812452D01*
X50986597Y11808544D01*
X50901511Y11804941D01*
X50786293Y11801717D01*
X50645415Y11798945D01*
X50483348Y11796701D01*
X50304565Y11795057D01*
X50113537Y11794088D01*
X49914737Y11793867D01*
X49911976Y11793870D01*
X48939938Y11794784D01*
X48939938Y13943945D01*
X49710153Y13938411D01*
X50480367Y13932877D01*
X50530768Y13885510D01*
X50573303Y13822668D01*
X50579569Y13753976D01*
X50549564Y13688127D01*
X50530779Y13667629D01*
X50480389Y13620261D01*
X49252553Y13608435D01*
X49252553Y12106031D01*
X50087823Y12106508D01*
X50292746Y12107105D01*
X50478956Y12108602D01*
X50643065Y12110923D01*
X50781686Y12113993D01*
X50891433Y12117738D01*
X50968919Y12122081D01*
X51010756Y12126948D01*
X51011015Y12127006D01*
X51132725Y12173512D01*
X51232849Y12249953D01*
X51306743Y12351177D01*
X51349758Y12472028D01*
X51355728Y12509452D01*
X51353840Y12637736D01*
X51315378Y12753831D01*
X51251734Y12847299D01*
X51214842Y12889073D01*
X51180106Y12922674D01*
X51142910Y12948995D01*
X51098639Y12968929D01*
X51042677Y12983367D01*
X50970406Y12993203D01*
X50877212Y12999330D01*
X50758478Y13002640D01*
X50609589Y13004026D01*
X50439515Y13004371D01*
X49858246Y13004800D01*
X49858246Y12731261D01*
X50363330Y12731261D01*
X50537009Y12730365D01*
X50683015Y12727746D01*
X50798586Y12723510D01*
X50880957Y12717762D01*
X50927364Y12710607D01*
X50930358Y12709668D01*
X50991869Y12671817D01*
X51025168Y12617260D01*
X51031488Y12554974D01*
X51012068Y12493940D01*
X50968141Y12443134D01*
X50900944Y12411538D01*
X50888977Y12409018D01*
X50854294Y12406403D01*
X50785759Y12404348D01*
X50688591Y12402893D01*
X50568011Y12402083D01*
X50429239Y12401961D01*
X50277496Y12402571D01*
X50190400Y12403233D01*
X49555400Y12408877D01*
X49550161Y12872915D01*
X49544923Y13336954D01*
X50573128Y13336954D01*
X50679725Y13400454D01*
X50777248Y13479101D01*
X50845283Y13576869D01*
X50883632Y13687015D01*
X50892100Y13802796D01*
X50870490Y13917470D01*
X50818607Y14024292D01*
X50736254Y14116521D01*
X50701336Y14143317D01*
X50610476Y14206415D01*
X49775207Y14211903D01*
X48939938Y14217390D01*
X48939938Y14530335D01*
X50669092Y14519031D01*
X50779376Y14463139D01*
X50919187Y14371533D01*
X51038730Y14251547D01*
X51129705Y14111658D01*
X51135934Y14098954D01*
X51164388Y14035912D01*
X51182268Y13982793D01*
X51191988Y13926750D01*
X51195963Y13854938D01*
X51196630Y13776108D01*
X51195638Y13682880D01*
X51190998Y13615958D01*
X51180217Y13562591D01*
X51160802Y13510025D01*
X51133130Y13451326D01*
X51097499Y13377945D01*
X51077926Y13332681D01*
X51072870Y13308764D01*
X51080792Y13299421D01*
X51098205Y13297877D01*
X51131154Y13291340D01*
X51186703Y13274439D01*
X51235650Y13257143D01*
X51338237Y13203826D01*
X51442427Y13124144D01*
X51536732Y13028557D01*
X51609666Y12927519D01*
X51621611Y12905777D01*
X51674911Y12802335D01*
X51680001Y13670452D01*
X51685092Y14538569D01*
X52139361Y14538569D01*
X52267902Y14537968D01*
X52382335Y14536281D01*
X52477234Y14533684D01*
X52547176Y14530352D01*
X52586735Y14526458D01*
X52593630Y14523915D01*
X52593630Y13006007D01*
X52290784Y13014569D01*
X52280450Y14216185D01*
X51987938Y14216185D01*
X51987938Y12711723D01*
X53863630Y12711723D01*
X53863630Y13942646D01*
X54523053Y13942007D01*
X54686657Y13941337D01*
X54843677Y13939736D01*
X54988307Y13937333D01*
X55114741Y13934261D01*
X55217171Y13930650D01*
X55289792Y13926632D01*
X55316501Y13924097D01*
X55481894Y13884850D01*
X55629059Y13814748D01*
X55755114Y13718159D01*
X55857175Y13599452D01*
X55932361Y13462997D01*
X55977788Y13313161D01*
X55990575Y13154314D01*
X55967837Y12990824D01*
X55957270Y12952994D01*
X55901138Y12821577D01*
X55818846Y12696633D01*
X55719396Y12590256D01*
X55645274Y12533873D01*
X55581889Y12496249D01*
X55520346Y12467004D01*
X55454518Y12445104D01*
X55378281Y12429517D01*
X55285511Y12419210D01*
X55170083Y12413150D01*
X55025873Y12410303D01*
X54908938Y12409677D01*
X54479092Y12408877D01*
X54473851Y12873945D01*
X54468610Y13339014D01*
X54620390Y13333099D01*
X54772169Y13327185D01*
X54777562Y13029223D01*
X54782956Y12731261D01*
X55060870Y12731691D01*
X55197096Y12733905D01*
X55301780Y12741361D01*
X55382317Y12755996D01*
X55446103Y12779747D01*
X55500532Y12814549D01*
X55550637Y12859944D01*
X55625320Y12961003D01*
X55667366Y13075227D01*
X55676800Y13195049D01*
X55653649Y13312905D01*
X55597940Y13421228D01*
X55548448Y13478939D01*
X55510800Y13514474D01*
X55475421Y13542959D01*
X55437603Y13565172D01*
X55392637Y13581892D01*
X55335815Y13593899D01*
X55262427Y13601970D01*
X55167766Y13606886D01*
X55047122Y13609425D01*
X54895787Y13610366D01*
X54753258Y13610492D01*
X54176246Y13610492D01*
X54176246Y12106031D01*
X54731814Y12106031D01*
X54917034Y12106636D01*
X55067892Y12108585D01*
X55189086Y12112075D01*
X55285315Y12117304D01*
X55361277Y12124471D01*
X55421671Y12133774D01*
X55430314Y12135497D01*
X55626775Y12194497D01*
X55802520Y12284360D01*
X55954960Y12401759D01*
X56081504Y12543364D01*
X56179562Y12705848D01*
X56246544Y12885880D01*
X56279858Y13080134D01*
X56281423Y13229130D01*
X56251811Y13432227D01*
X56187456Y13618652D01*
X56089810Y13786460D01*
X55960327Y13933707D01*
X55800459Y14058448D01*
X55611658Y14158740D01*
X55575909Y14173569D01*
X55550826Y14181749D01*
X55517663Y14188624D01*
X55472676Y14194370D01*
X55412120Y14199167D01*
X55332250Y14203191D01*
X55229320Y14206620D01*
X55099586Y14209632D01*
X54939304Y14212405D01*
X54744727Y14215116D01*
X54684246Y14215880D01*
X53873400Y14225954D01*
X53873400Y14538569D01*
X54518169Y14544222D01*
X54683427Y14544994D01*
X54845156Y14544494D01*
G37*
X54845156Y14544494D02*
X54996839Y14542835D01*
X55131957Y14540131D01*
X55243995Y14536493D01*
X55326435Y14532036D01*
X55352311Y14529774D01*
X55580414Y14487294D01*
X55794263Y14411146D01*
X55990217Y14303754D01*
X56164633Y14167539D01*
X56313869Y14004924D01*
X56434281Y13818332D01*
X56440793Y13805877D01*
X56490577Y13699974D01*
X56532424Y13592995D01*
X56562823Y13495313D01*
X56578259Y13417306D01*
X56579476Y13396294D01*
X56584297Y13364850D01*
X56596037Y13365616D01*
X56610617Y13393304D01*
X56623958Y13442628D01*
X56626554Y13457299D01*
X56665865Y13607165D01*
X56734522Y13765213D01*
X56827027Y13921942D01*
X56937880Y14067849D01*
X57042882Y14176683D01*
X57213874Y14312015D01*
X57396864Y14413877D01*
X57597385Y14484693D01*
X57820966Y14526886D01*
X57849476Y14530127D01*
X57915357Y14534829D01*
X58013835Y14538771D01*
X58138436Y14541844D01*
X58282684Y14543936D01*
X58440106Y14544939D01*
X58604228Y14544743D01*
X58679861Y14544222D01*
X59324630Y14538569D01*
X59324630Y14225954D01*
X58513784Y14215880D01*
X58310294Y14213329D01*
X58141670Y14210896D01*
X58003706Y14208128D01*
X57892196Y14204571D01*
X57802933Y14199771D01*
X57731711Y14193274D01*
X57674323Y14184626D01*
X57626563Y14173373D01*
X57584225Y14159061D01*
X57543102Y14141236D01*
X57498988Y14119444D01*
X57466576Y14102865D01*
X57326825Y14012135D01*
X57196857Y13891215D01*
X57084265Y13748930D01*
X56996643Y13594108D01*
X56967335Y13522569D01*
X56932020Y13384333D01*
X56915372Y13227084D01*
X56918097Y13066511D01*
X56940279Y12920896D01*
X57004493Y12732504D01*
X57101950Y12561352D01*
X57229405Y12412256D01*
X57350081Y12312591D01*
X57429202Y12260043D01*
X57505826Y12217047D01*
X57584932Y12182683D01*
X57671501Y12156028D01*
X57770512Y12136162D01*
X57886945Y12122162D01*
X58025781Y12113107D01*
X58191999Y12108075D01*
X58390579Y12106144D01*
X58466215Y12106031D01*
X59021784Y12106031D01*
X59021784Y12399108D01*
X58475669Y12399108D01*
X58290702Y12399652D01*
X58139620Y12401677D01*
X58017244Y12405774D01*
X57918391Y12412533D01*
X57837882Y12422545D01*
X57770535Y12436400D01*
X57711168Y12454688D01*
X57654603Y12478001D01*
X57614697Y12497223D01*
X57524856Y12554475D01*
X57433269Y12632985D01*
X57352370Y12720721D01*
X57294593Y12805651D01*
X57293183Y12808346D01*
X57236488Y12954242D01*
X57208377Y13111042D01*
X57210106Y13266799D01*
X57232995Y13379929D01*
X57297092Y13526993D01*
X57393311Y13661293D01*
X57515134Y13775873D01*
X57656038Y13863772D01*
X57707782Y13886601D01*
X57737437Y13897921D01*
X57766331Y13907143D01*
X57798663Y13914489D01*
X57838630Y13920177D01*
X57890430Y13924429D01*
X57958260Y13927465D01*
X58046318Y13929505D01*
X58158801Y13930770D01*
X58299907Y13931479D01*
X58473834Y13931853D01*
X58572400Y13931981D01*
X59324630Y13932877D01*
X59329928Y13546992D01*
X59335226Y13161108D01*
X59021784Y13161108D01*
X59021784Y13612550D01*
X58411207Y13606636D01*
X57800630Y13600723D01*
X57728116Y13550588D01*
X57624101Y13457825D01*
X57554628Y13348022D01*
X57520716Y13223045D01*
X57517323Y13165239D01*
X57534956Y13053412D01*
X57583380Y12943306D01*
X57655884Y12847616D01*
X57709709Y12801294D01*
X57794634Y12741031D01*
X58559632Y12731261D01*
X59324630Y12721492D01*
X59335112Y11791028D01*
X58538564Y11798152D01*
X58329518Y11800148D01*
X58155142Y11802384D01*
X58011031Y11805347D01*
X57892779Y11809523D01*
X57795979Y11815398D01*
X57716225Y11823458D01*
X57649113Y11834190D01*
X57590235Y11848080D01*
X57535187Y11865614D01*
X57479561Y11887278D01*
X57418953Y11913559D01*
X57394741Y11924389D01*
X57206252Y12029859D01*
X57035201Y12167427D01*
X56886055Y12332328D01*
X56763280Y12519798D01*
X56689501Y12676591D01*
X56660774Y12757576D01*
X56637365Y12838813D01*
X56625422Y12896398D01*
X56615773Y12949061D01*
X56605246Y12980925D01*
X56600830Y12985261D01*
X56591005Y12967727D01*
X56577838Y12922079D01*
X56566005Y12867330D01*
X56547374Y12798040D01*
X56515647Y12708354D01*
X56476067Y12612384D01*
X56451673Y12559599D01*
X56404749Y12467552D01*
X56360179Y12394209D01*
X56309033Y12327355D01*
X56242378Y12254774D01*
X56191192Y12203362D01*
X56048684Y12075958D01*
X55905349Y11977728D01*
X55748047Y11900761D01*
X55602553Y11848941D01*
X55456015Y11803185D01*
X51685092Y11803185D01*
X51679385Y11954608D01*
X51673679Y12106031D01*
X53551015Y12106031D01*
X53551015Y12399108D01*
X51675323Y12399108D01*
X51675323Y12353997D01*
X51664026Y12309733D01*
X51634114Y12245263D01*
X51591555Y12170759D01*
X51542316Y12096392D01*
X51492364Y12032331D01*
X51476205Y12014628D01*
X51370744Y11930060D01*
X51238923Y11863994D01*
X51090933Y11821124D01*
X51037078Y11812452D01*
X50986597Y11808544D01*
X50901511Y11804941D01*
X50786293Y11801717D01*
X50645415Y11798945D01*
X50483348Y11796701D01*
X50304565Y11795057D01*
X50113537Y11794088D01*
X49914737Y11793867D01*
X49911976Y11793870D01*
X48939938Y11794784D01*
X48939938Y13943945D01*
X49710153Y13938411D01*
X50480367Y13932877D01*
X50530768Y13885510D01*
X50573303Y13822668D01*
X50579569Y13753976D01*
X50549564Y13688127D01*
X50530779Y13667629D01*
X50480389Y13620261D01*
X49252553Y13608435D01*
X49252553Y12106031D01*
X50087823Y12106508D01*
X50292746Y12107105D01*
X50478956Y12108602D01*
X50643065Y12110923D01*
X50781686Y12113993D01*
X50891433Y12117738D01*
X50968919Y12122081D01*
X51010756Y12126948D01*
X51011015Y12127006D01*
X51132725Y12173512D01*
X51232849Y12249953D01*
X51306743Y12351177D01*
X51349758Y12472028D01*
X51355728Y12509452D01*
X51353840Y12637736D01*
X51315378Y12753831D01*
X51251734Y12847299D01*
X51214842Y12889073D01*
X51180106Y12922674D01*
X51142910Y12948995D01*
X51098639Y12968929D01*
X51042677Y12983367D01*
X50970406Y12993203D01*
X50877212Y12999330D01*
X50758478Y13002640D01*
X50609589Y13004026D01*
X50439515Y13004371D01*
X49858246Y13004800D01*
X49858246Y12731261D01*
X50363330Y12731261D01*
X50537009Y12730365D01*
X50683015Y12727746D01*
X50798586Y12723510D01*
X50880957Y12717762D01*
X50927364Y12710607D01*
X50930358Y12709668D01*
X50991869Y12671817D01*
X51025168Y12617260D01*
X51031488Y12554974D01*
X51012068Y12493940D01*
X50968141Y12443134D01*
X50900944Y12411538D01*
X50888977Y12409018D01*
X50854294Y12406403D01*
X50785759Y12404348D01*
X50688591Y12402893D01*
X50568011Y12402083D01*
X50429239Y12401961D01*
X50277496Y12402571D01*
X50190400Y12403233D01*
X49555400Y12408877D01*
X49550161Y12872915D01*
X49544923Y13336954D01*
X50573128Y13336954D01*
X50679725Y13400454D01*
X50777248Y13479101D01*
X50845283Y13576869D01*
X50883632Y13687015D01*
X50892100Y13802796D01*
X50870490Y13917470D01*
X50818607Y14024292D01*
X50736254Y14116521D01*
X50701336Y14143317D01*
X50610476Y14206415D01*
X49775207Y14211903D01*
X48939938Y14217390D01*
X48939938Y14530335D01*
X50669092Y14519031D01*
X50779376Y14463139D01*
X50919187Y14371533D01*
X51038730Y14251547D01*
X51129705Y14111658D01*
X51135934Y14098954D01*
X51164388Y14035912D01*
X51182268Y13982793D01*
X51191988Y13926750D01*
X51195963Y13854938D01*
X51196630Y13776108D01*
X51195638Y13682880D01*
X51190998Y13615958D01*
X51180217Y13562591D01*
X51160802Y13510025D01*
X51133130Y13451326D01*
X51097499Y13377945D01*
X51077926Y13332681D01*
X51072870Y13308764D01*
X51080792Y13299421D01*
X51098205Y13297877D01*
X51131154Y13291340D01*
X51186703Y13274439D01*
X51235650Y13257143D01*
X51338237Y13203826D01*
X51442427Y13124144D01*
X51536732Y13028557D01*
X51609666Y12927519D01*
X51621611Y12905777D01*
X51674911Y12802335D01*
X51680001Y13670452D01*
X51685092Y14538569D01*
X52139361Y14538569D01*
X52267902Y14537968D01*
X52382335Y14536281D01*
X52477234Y14533684D01*
X52547176Y14530352D01*
X52586735Y14526458D01*
X52593630Y14523915D01*
X52593630Y13006007D01*
X52290784Y13014569D01*
X52280450Y14216185D01*
X51987938Y14216185D01*
X51987938Y12711723D01*
X53863630Y12711723D01*
X53863630Y13942646D01*
X54523053Y13942007D01*
X54686657Y13941337D01*
X54843677Y13939736D01*
X54988307Y13937333D01*
X55114741Y13934261D01*
X55217171Y13930650D01*
X55289792Y13926632D01*
X55316501Y13924097D01*
X55481894Y13884850D01*
X55629059Y13814748D01*
X55755114Y13718159D01*
X55857175Y13599452D01*
X55932361Y13462997D01*
X55977788Y13313161D01*
X55990575Y13154314D01*
X55967837Y12990824D01*
X55957270Y12952994D01*
X55901138Y12821577D01*
X55818846Y12696633D01*
X55719396Y12590256D01*
X55645274Y12533873D01*
X55581889Y12496249D01*
X55520346Y12467004D01*
X55454518Y12445104D01*
X55378281Y12429517D01*
X55285511Y12419210D01*
X55170083Y12413150D01*
X55025873Y12410303D01*
X54908938Y12409677D01*
X54479092Y12408877D01*
X54473851Y12873945D01*
X54468610Y13339014D01*
X54620390Y13333099D01*
X54772169Y13327185D01*
X54777562Y13029223D01*
X54782956Y12731261D01*
X55060870Y12731691D01*
X55197096Y12733905D01*
X55301780Y12741361D01*
X55382317Y12755996D01*
X55446103Y12779747D01*
X55500532Y12814549D01*
X55550637Y12859944D01*
X55625320Y12961003D01*
X55667366Y13075227D01*
X55676800Y13195049D01*
X55653649Y13312905D01*
X55597940Y13421228D01*
X55548448Y13478939D01*
X55510800Y13514474D01*
X55475421Y13542959D01*
X55437603Y13565172D01*
X55392637Y13581892D01*
X55335815Y13593899D01*
X55262427Y13601970D01*
X55167766Y13606886D01*
X55047122Y13609425D01*
X54895787Y13610366D01*
X54753258Y13610492D01*
X54176246Y13610492D01*
X54176246Y12106031D01*
X54731814Y12106031D01*
X54917034Y12106636D01*
X55067892Y12108585D01*
X55189086Y12112075D01*
X55285315Y12117304D01*
X55361277Y12124471D01*
X55421671Y12133774D01*
X55430314Y12135497D01*
X55626775Y12194497D01*
X55802520Y12284360D01*
X55954960Y12401759D01*
X56081504Y12543364D01*
X56179562Y12705848D01*
X56246544Y12885880D01*
X56279858Y13080134D01*
X56281423Y13229130D01*
X56251811Y13432227D01*
X56187456Y13618652D01*
X56089810Y13786460D01*
X55960327Y13933707D01*
X55800459Y14058448D01*
X55611658Y14158740D01*
X55575909Y14173569D01*
X55550826Y14181749D01*
X55517663Y14188624D01*
X55472676Y14194370D01*
X55412120Y14199167D01*
X55332250Y14203191D01*
X55229320Y14206620D01*
X55099586Y14209632D01*
X54939304Y14212405D01*
X54744727Y14215116D01*
X54684246Y14215880D01*
X53873400Y14225954D01*
X53873400Y14538569D01*
X54518169Y14544222D01*
X54683427Y14544994D01*
X54845156Y14544494D01*
G36*
X55199880Y11460119D02*
G01*
X55253317Y11455951D01*
X55281079Y11447643D01*
X55289845Y11434084D01*
X55289938Y11431954D01*
X55281895Y11416030D01*
X55252973Y11406917D01*
X55195987Y11403073D01*
X55153169Y11402646D01*
X55016400Y11402646D01*
X55016400Y11265877D01*
X55143400Y11265877D01*
X55214636Y11263920D01*
X55254229Y11256929D01*
X55269470Y11243221D01*
X55270400Y11236569D01*
X55261921Y11220130D01*
X55231625Y11210993D01*
X55172222Y11207476D01*
X55143400Y11207261D01*
X55016400Y11207261D01*
X55016400Y11050954D01*
X55162938Y11050954D01*
X55240233Y11049419D01*
X55285604Y11043871D01*
X55306119Y11032897D01*
X55309476Y11021646D01*
X55302833Y11007675D01*
X55278537Y10998834D01*
X55230037Y10994088D01*
X55150782Y10992403D01*
X55123861Y10992338D01*
X54938246Y10992338D01*
X54938246Y11461261D01*
X55114092Y11461261D01*
X55199880Y11460119D01*
G37*
X55199880Y11460119D02*
X55253317Y11455951D01*
X55281079Y11447643D01*
X55289845Y11434084D01*
X55289938Y11431954D01*
X55281895Y11416030D01*
X55252973Y11406917D01*
X55195987Y11403073D01*
X55153169Y11402646D01*
X55016400Y11402646D01*
X55016400Y11265877D01*
X55143400Y11265877D01*
X55214636Y11263920D01*
X55254229Y11256929D01*
X55269470Y11243221D01*
X55270400Y11236569D01*
X55261921Y11220130D01*
X55231625Y11210993D01*
X55172222Y11207476D01*
X55143400Y11207261D01*
X55016400Y11207261D01*
X55016400Y11050954D01*
X55162938Y11050954D01*
X55240233Y11049419D01*
X55285604Y11043871D01*
X55306119Y11032897D01*
X55309476Y11021646D01*
X55302833Y11007675D01*
X55278537Y10998834D01*
X55230037Y10994088D01*
X55150782Y10992403D01*
X55123861Y10992338D01*
X54938246Y10992338D01*
X54938246Y11461261D01*
X55114092Y11461261D01*
X55199880Y11460119D01*
G36*
X54623525Y11458689D02*
G01*
X54634831Y11446366D01*
X54641326Y11417385D01*
X54644327Y11364835D01*
X54645149Y11281808D01*
X54645169Y11256108D01*
X54645169Y11050954D01*
X54762400Y11050954D01*
X54830470Y11048703D01*
X54867017Y11040724D01*
X54879399Y11025177D01*
X54879630Y11021646D01*
X54872268Y11006609D01*
X54845556Y10997584D01*
X54792555Y10993271D01*
X54723323Y10992338D01*
X54567015Y10992338D01*
X54567015Y11226800D01*
X54567398Y11325773D01*
X54569268Y11392146D01*
X54573703Y11432396D01*
X54581783Y11452999D01*
X54594588Y11460428D01*
X54606092Y11461261D01*
X54623525Y11458689D01*
G37*
X54623525Y11458689D02*
X54634831Y11446366D01*
X54641326Y11417385D01*
X54644327Y11364835D01*
X54645149Y11281808D01*
X54645169Y11256108D01*
X54645169Y11050954D01*
X54762400Y11050954D01*
X54830470Y11048703D01*
X54867017Y11040724D01*
X54879399Y11025177D01*
X54879630Y11021646D01*
X54872268Y11006609D01*
X54845556Y10997584D01*
X54792555Y10993271D01*
X54723323Y10992338D01*
X54567015Y10992338D01*
X54567015Y11226800D01*
X54567398Y11325773D01*
X54569268Y11392146D01*
X54573703Y11432396D01*
X54581783Y11452999D01*
X54594588Y11460428D01*
X54606092Y11461261D01*
X54623525Y11458689D01*
G36*
X54278823Y11460962D02*
G01*
X54351429Y11458939D01*
X54409411Y11453895D01*
X54440991Y11446888D01*
X54441975Y11446308D01*
X54479427Y11401588D01*
X54498790Y11340012D01*
X54496871Y11295130D01*
X54463417Y11235069D01*
X54399452Y11199214D01*
X54308667Y11187723D01*
X54215323Y11187723D01*
X54215323Y11090031D01*
X54213265Y11031434D01*
X54204533Y11002210D01*
X54185284Y10992756D01*
X54176246Y10992338D01*
X54159750Y10994639D01*
X54148688Y11005857D01*
X54141980Y11032468D01*
X54138546Y11080949D01*
X54137308Y11157774D01*
X54137169Y11226800D01*
X54137169Y11402646D01*
X54215323Y11402646D01*
X54215323Y11324492D01*
X54217365Y11274457D01*
X54230192Y11252222D01*
X54263848Y11246517D01*
X54284992Y11246338D01*
X54343581Y11251961D01*
X54390558Y11265593D01*
X54392453Y11266564D01*
X54424728Y11302249D01*
X54425891Y11348493D01*
X54406800Y11379200D01*
X54373693Y11393828D01*
X54319299Y11402016D01*
X54299338Y11402646D01*
X54215323Y11402646D01*
X54137169Y11402646D01*
X54137169Y11461261D01*
X54278823Y11460962D01*
G37*
X54278823Y11460962D02*
X54351429Y11458939D01*
X54409411Y11453895D01*
X54440991Y11446888D01*
X54441975Y11446308D01*
X54479427Y11401588D01*
X54498790Y11340012D01*
X54496871Y11295130D01*
X54463417Y11235069D01*
X54399452Y11199214D01*
X54308667Y11187723D01*
X54215323Y11187723D01*
X54215323Y11090031D01*
X54213265Y11031434D01*
X54204533Y11002210D01*
X54185284Y10992756D01*
X54176246Y10992338D01*
X54159750Y10994639D01*
X54148688Y11005857D01*
X54141980Y11032468D01*
X54138546Y11080949D01*
X54137308Y11157774D01*
X54137169Y11226800D01*
X54137169Y11402646D01*
X54215323Y11402646D01*
X54215323Y11324492D01*
X54217365Y11274457D01*
X54230192Y11252222D01*
X54263848Y11246517D01*
X54284992Y11246338D01*
X54343581Y11251961D01*
X54390558Y11265593D01*
X54392453Y11266564D01*
X54424728Y11302249D01*
X54425891Y11348493D01*
X54406800Y11379200D01*
X54373693Y11393828D01*
X54319299Y11402016D01*
X54299338Y11402646D01*
X54215323Y11402646D01*
X54137169Y11402646D01*
X54137169Y11461261D01*
X54278823Y11460962D01*
G36*
X53641746Y11457675D02*
G01*
X53667622Y11450930D01*
X53688503Y11433020D01*
X53708921Y11396696D01*
X53733406Y11334710D01*
X53752509Y11280531D01*
X53779530Y11206031D01*
X53802995Y11147964D01*
X53819472Y11114516D01*
X53824179Y11109569D01*
X53835142Y11126904D01*
X53854269Y11173469D01*
X53878370Y11241102D01*
X53892938Y11285415D01*
X53919849Y11367383D01*
X53939934Y11418941D01*
X53957624Y11447099D01*
X53977349Y11458869D01*
X54003540Y11461261D01*
X54059015Y11461261D01*
X54059015Y11226800D01*
X54058631Y11127827D01*
X54056762Y11061454D01*
X54052327Y11021203D01*
X54044246Y11000601D01*
X54031442Y10993172D01*
X54019938Y10992338D01*
X54001123Y10995432D01*
X53989418Y11009733D01*
X53983031Y11042773D01*
X53980176Y11102081D01*
X53979319Y11163300D01*
X53977776Y11334261D01*
X53918709Y11162202D01*
X53889498Y11080520D01*
X53867485Y11029835D01*
X53848791Y11003673D01*
X53829536Y10995555D01*
X53819228Y10996125D01*
X53795219Y11008088D01*
X53772036Y11040706D01*
X53745908Y11100478D01*
X53725061Y11158415D01*
X53671308Y11314723D01*
X53669777Y11153531D01*
X53668232Y11074169D01*
X53664153Y11026139D01*
X53655588Y11001699D01*
X53640589Y10993111D01*
X53629169Y10992338D01*
X53612711Y10994628D01*
X53601660Y11005804D01*
X53594944Y11032322D01*
X53591494Y11080643D01*
X53590238Y11157223D01*
X53590092Y11228098D01*
X53590092Y11463857D01*
X53641746Y11457675D01*
G37*
X53641746Y11457675D02*
X53667622Y11450930D01*
X53688503Y11433020D01*
X53708921Y11396696D01*
X53733406Y11334710D01*
X53752509Y11280531D01*
X53779530Y11206031D01*
X53802995Y11147964D01*
X53819472Y11114516D01*
X53824179Y11109569D01*
X53835142Y11126904D01*
X53854269Y11173469D01*
X53878370Y11241102D01*
X53892938Y11285415D01*
X53919849Y11367383D01*
X53939934Y11418941D01*
X53957624Y11447099D01*
X53977349Y11458869D01*
X54003540Y11461261D01*
X54059015Y11461261D01*
X54059015Y11226800D01*
X54058631Y11127827D01*
X54056762Y11061454D01*
X54052327Y11021203D01*
X54044246Y11000601D01*
X54031442Y10993172D01*
X54019938Y10992338D01*
X54001123Y10995432D01*
X53989418Y11009733D01*
X53983031Y11042773D01*
X53980176Y11102081D01*
X53979319Y11163300D01*
X53977776Y11334261D01*
X53918709Y11162202D01*
X53889498Y11080520D01*
X53867485Y11029835D01*
X53848791Y11003673D01*
X53829536Y10995555D01*
X53819228Y10996125D01*
X53795219Y11008088D01*
X53772036Y11040706D01*
X53745908Y11100478D01*
X53725061Y11158415D01*
X53671308Y11314723D01*
X53669777Y11153531D01*
X53668232Y11074169D01*
X53664153Y11026139D01*
X53655588Y11001699D01*
X53640589Y10993111D01*
X53629169Y10992338D01*
X53612711Y10994628D01*
X53601660Y11005804D01*
X53594944Y11032322D01*
X53591494Y11080643D01*
X53590238Y11157223D01*
X53590092Y11228098D01*
X53590092Y11463857D01*
X53641746Y11457675D01*
G36*
X53469818Y11458961D02*
G01*
X53480880Y11447743D01*
X53487589Y11421131D01*
X53491022Y11372651D01*
X53492261Y11295826D01*
X53492400Y11226800D01*
X53492016Y11127827D01*
X53490146Y11061454D01*
X53485711Y11021203D01*
X53477631Y11000601D01*
X53464827Y10993172D01*
X53453323Y10992338D01*
X53436827Y10994639D01*
X53425765Y11005857D01*
X53419056Y11032468D01*
X53415623Y11080949D01*
X53414385Y11157774D01*
X53414246Y11226800D01*
X53414629Y11325773D01*
X53416499Y11392146D01*
X53420934Y11432396D01*
X53429014Y11452999D01*
X53441818Y11460428D01*
X53453323Y11461261D01*
X53469818Y11458961D01*
G37*
X53469818Y11458961D02*
X53480880Y11447743D01*
X53487589Y11421131D01*
X53491022Y11372651D01*
X53492261Y11295826D01*
X53492400Y11226800D01*
X53492016Y11127827D01*
X53490146Y11061454D01*
X53485711Y11021203D01*
X53477631Y11000601D01*
X53464827Y10993172D01*
X53453323Y10992338D01*
X53436827Y10994639D01*
X53425765Y11005857D01*
X53419056Y11032468D01*
X53415623Y11080949D01*
X53414385Y11157774D01*
X53414246Y11226800D01*
X53414629Y11325773D01*
X53416499Y11392146D01*
X53420934Y11432396D01*
X53429014Y11452999D01*
X53441818Y11460428D01*
X53453323Y11461261D01*
X53469818Y11458961D01*
G36*
X53192004Y11475776D02*
G01*
X53246277Y11458568D01*
X53281648Y11432103D01*
X53308715Y11394619D01*
X53322738Y11357123D01*
X53318977Y11330620D01*
X53304015Y11324492D01*
X53270265Y11338588D01*
X53239691Y11366826D01*
X53197488Y11396539D01*
X53142717Y11409094D01*
X53091171Y11403199D01*
X53060859Y11381479D01*
X53046579Y11340806D01*
X53064691Y11308882D01*
X53117837Y11282756D01*
X53160280Y11270460D01*
X53226416Y11249909D01*
X53280585Y11226367D01*
X53301900Y11212490D01*
X53330318Y11164267D01*
X53331652Y11106023D01*
X53310385Y11049880D01*
X53271001Y11007956D01*
X53220459Y10992338D01*
X53174658Y10988239D01*
X53156959Y10984264D01*
X53120685Y10983765D01*
X53072345Y10993643D01*
X53007444Y11027808D01*
X52970662Y11079589D01*
X52964861Y11113304D01*
X52977301Y11142135D01*
X53004212Y11146571D01*
X53029977Y11127154D01*
X53037032Y11110798D01*
X53064952Y11071467D01*
X53114793Y11049602D01*
X53173238Y11045788D01*
X53226966Y11060609D01*
X53262658Y11094650D01*
X53265380Y11100780D01*
X53265479Y11144426D01*
X53228418Y11177014D01*
X53154623Y11198170D01*
X53154236Y11198234D01*
X53070854Y11217498D01*
X53018430Y11244610D01*
X52988999Y11283985D01*
X52985981Y11291476D01*
X52978739Y11356913D01*
X53002990Y11412728D01*
X53051463Y11454254D01*
X53116891Y11476826D01*
X53192004Y11475776D01*
G37*
X53192004Y11475776D02*
X53246277Y11458568D01*
X53281648Y11432103D01*
X53308715Y11394619D01*
X53322738Y11357123D01*
X53318977Y11330620D01*
X53304015Y11324492D01*
X53270265Y11338588D01*
X53239691Y11366826D01*
X53197488Y11396539D01*
X53142717Y11409094D01*
X53091171Y11403199D01*
X53060859Y11381479D01*
X53046579Y11340806D01*
X53064691Y11308882D01*
X53117837Y11282756D01*
X53160280Y11270460D01*
X53226416Y11249909D01*
X53280585Y11226367D01*
X53301900Y11212490D01*
X53330318Y11164267D01*
X53331652Y11106023D01*
X53310385Y11049880D01*
X53271001Y11007956D01*
X53220459Y10992338D01*
X53174658Y10988239D01*
X53156959Y10984264D01*
X53120685Y10983765D01*
X53072345Y10993643D01*
X53007444Y11027808D01*
X52970662Y11079589D01*
X52964861Y11113304D01*
X52977301Y11142135D01*
X53004212Y11146571D01*
X53029977Y11127154D01*
X53037032Y11110798D01*
X53064952Y11071467D01*
X53114793Y11049602D01*
X53173238Y11045788D01*
X53226966Y11060609D01*
X53262658Y11094650D01*
X53265380Y11100780D01*
X53265479Y11144426D01*
X53228418Y11177014D01*
X53154623Y11198170D01*
X53154236Y11198234D01*
X53070854Y11217498D01*
X53018430Y11244610D01*
X52988999Y11283985D01*
X52985981Y11291476D01*
X52978739Y11356913D01*
X53002990Y11412728D01*
X53051463Y11454254D01*
X53116891Y11476826D01*
X53192004Y11475776D01*
G36*
X46416687Y15560883D02*
G01*
X46511126Y15553153D01*
X46612529Y15541645D01*
X46711202Y15527693D01*
X46797453Y15512631D01*
X46861589Y15497794D01*
X46889151Y15487725D01*
X46926874Y15474280D01*
X46983807Y15460804D01*
X47001395Y15457592D01*
X47054693Y15445131D01*
X47089507Y15430587D01*
X47094604Y15425869D01*
X47120986Y15411338D01*
X47146893Y15408031D01*
X47189337Y15397993D01*
X47257309Y15370396D01*
X47343601Y15329017D01*
X47441002Y15277631D01*
X47542301Y15220014D01*
X47640290Y15159943D01*
X47713197Y15111443D01*
X47829747Y15020497D01*
X47951197Y14908616D01*
X48069971Y14784221D01*
X48178491Y14655737D01*
X48269182Y14531588D01*
X48333907Y14421338D01*
X48366645Y14362713D01*
X48404820Y14304108D01*
X48434852Y14250492D01*
X48471459Y14166871D01*
X48511847Y14061179D01*
X48553218Y13941346D01*
X48592775Y13815305D01*
X48627724Y13690988D01*
X48644290Y13624866D01*
X48653565Y13562441D01*
X48660234Y13470646D01*
X48664296Y13359072D01*
X48665753Y13237307D01*
X48664605Y13114942D01*
X48660854Y13001566D01*
X48654501Y12906769D01*
X48645547Y12840141D01*
X48644208Y12834119D01*
X48622097Y12746053D01*
X48597481Y12655415D01*
X48573023Y12571210D01*
X48551382Y12502439D01*
X48535222Y12458106D01*
X48530055Y12447954D01*
X48516614Y12419404D01*
X48497099Y12367018D01*
X48483348Y12325776D01*
X48455173Y12256663D01*
X48409491Y12165806D01*
X48351982Y12062913D01*
X48288328Y11957695D01*
X48224210Y11859859D01*
X48165310Y11779115D01*
X48158400Y11770463D01*
X48114354Y11719969D01*
X48051918Y11653275D01*
X47980083Y11579477D01*
X47907845Y11507668D01*
X47844197Y11446944D01*
X47799388Y11407410D01*
X47748376Y11368495D01*
X47687256Y11325145D01*
X47625255Y11283476D01*
X47571602Y11249605D01*
X47535526Y11229649D01*
X47526889Y11226800D01*
X47500018Y11215847D01*
X47457835Y11188724D01*
X47447090Y11180765D01*
X47393589Y11145853D01*
X47342814Y11121430D01*
X47337784Y11119758D01*
X47289558Y11099976D01*
X47262217Y11083340D01*
X47224580Y11064629D01*
X47151067Y11039303D01*
X47044173Y11008145D01*
X46907938Y10972326D01*
X46839312Y10953974D01*
X46775928Y10935434D01*
X46761400Y10930804D01*
X46721595Y10923719D01*
X46651718Y10917027D01*
X46560772Y10911058D01*
X46457763Y10906148D01*
X46351693Y10902627D01*
X46251568Y10900830D01*
X46166392Y10901089D01*
X46105169Y10903737D01*
X46087323Y10905885D01*
X46002209Y10921998D01*
X45911715Y10940947D01*
X45826210Y10960355D01*
X45756067Y10977848D01*
X45711655Y10991050D01*
X45706323Y10993162D01*
X45666732Y11007637D01*
X45604697Y11027295D01*
X45551185Y11042899D01*
X45468595Y11071541D01*
X45384627Y11109126D01*
X45343870Y11131574D01*
X45289489Y11162866D01*
X45247303Y11183249D01*
X45231982Y11187723D01*
X45206780Y11199146D01*
X45204835Y11202377D01*
X45184757Y11219656D01*
X45142407Y11245157D01*
X45125284Y11254176D01*
X45123685Y11255148D01*
X45602423Y11255148D01*
X45606629Y11234925D01*
X45647852Y11210333D01*
X45665257Y11203064D01*
X45915050Y11124766D01*
X46173799Y11081886D01*
X46434632Y11075114D01*
X46673719Y11101946D01*
X46771268Y11122305D01*
X46872377Y11147448D01*
X46957657Y11172487D01*
X46969596Y11176525D01*
X47037630Y11202462D01*
X47074742Y11223746D01*
X47087930Y11245169D01*
X47087740Y11257418D01*
X47075933Y11312629D01*
X47056164Y11337107D01*
X47018050Y11339123D01*
X46990770Y11334649D01*
X46937897Y11321758D01*
X46901659Y11307573D01*
X46898169Y11305207D01*
X46855478Y11287015D01*
X46779658Y11271835D01*
X46676577Y11260163D01*
X46552102Y11252496D01*
X46412099Y11249330D01*
X46262436Y11251161D01*
X46260369Y11251223D01*
X46129008Y11256074D01*
X46028105Y11262356D01*
X45949043Y11271091D01*
X45883204Y11283303D01*
X45821971Y11300016D01*
X45805796Y11305207D01*
X45735914Y11327596D01*
X45693585Y11337930D01*
X45669337Y11336647D01*
X45653698Y11324186D01*
X45645270Y11312632D01*
X45617168Y11273860D01*
X45602423Y11255148D01*
X45123685Y11255148D01*
X45064366Y11291184D01*
X44999071Y11339505D01*
X44978745Y11356737D01*
X44933950Y11394335D01*
X44900851Y11417996D01*
X44891274Y11422169D01*
X44871977Y11436024D01*
X44867537Y11440140D01*
X45149476Y11440140D01*
X45164943Y11423391D01*
X45173900Y11422104D01*
X45202435Y11412536D01*
X45252489Y11387685D01*
X45305784Y11357313D01*
X45362553Y11324290D01*
X45401562Y11309993D01*
X45430975Y11318066D01*
X45458961Y11352154D01*
X45493685Y11415900D01*
X45510303Y11448574D01*
X45545459Y11513587D01*
X45755169Y11513587D01*
X45771789Y11503732D01*
X45808900Y11492873D01*
X45859877Y11480099D01*
X45927627Y11461849D01*
X45960323Y11452672D01*
X46036834Y11438253D01*
X46141808Y11428532D01*
X46264914Y11423492D01*
X46395825Y11423117D01*
X46524210Y11427390D01*
X46639739Y11436296D01*
X46732085Y11449817D01*
X46750382Y11453928D01*
X46839608Y11476701D01*
X46895865Y11495146D01*
X46924155Y11514180D01*
X46929476Y11538718D01*
X46916827Y11573679D01*
X46902001Y11603040D01*
X46874808Y11653822D01*
X46854596Y11688403D01*
X46849323Y11695723D01*
X46821525Y11733767D01*
X46784476Y11798962D01*
X46748369Y11871569D01*
X46721875Y11924408D01*
X46700597Y11960782D01*
X46693653Y11969261D01*
X46675765Y11991318D01*
X46649025Y12032941D01*
X46644073Y12041340D01*
X46616428Y12081414D01*
X46592516Y12091665D01*
X46570340Y12083579D01*
X46537776Y12076930D01*
X46476747Y12072789D01*
X46397779Y12071065D01*
X46311398Y12071667D01*
X46228129Y12074503D01*
X46158498Y12079485D01*
X46113031Y12086519D01*
X46109507Y12087559D01*
X46085751Y12075211D01*
X46050185Y12028267D01*
X46005675Y11951209D01*
X45964765Y11877053D01*
X45925674Y11810837D01*
X45895570Y11764601D01*
X45890682Y11758074D01*
X45863881Y11717446D01*
X45852861Y11687854D01*
X45842594Y11659207D01*
X45816783Y11613396D01*
X45804015Y11593834D01*
X45774509Y11548702D01*
X45757130Y11518815D01*
X45755169Y11513587D01*
X45545459Y11513587D01*
X45546256Y11515060D01*
X45581043Y11572332D01*
X45603111Y11602930D01*
X45629321Y11642186D01*
X45637938Y11669405D01*
X45649517Y11693426D01*
X45657476Y11695723D01*
X45674859Y11711528D01*
X45677015Y11724737D01*
X45686655Y11754194D01*
X45711043Y11804253D01*
X45743385Y11862912D01*
X45776884Y11918172D01*
X45804745Y11958034D01*
X45815493Y11969261D01*
X45830791Y11992009D01*
X45852874Y12037163D01*
X45860749Y12055439D01*
X45879497Y12104907D01*
X45881469Y12133272D01*
X45877164Y12139391D01*
X46817555Y12139391D01*
X46822545Y12120015D01*
X46842095Y12075399D01*
X46871644Y12014381D01*
X46906634Y11945801D01*
X46942504Y11878500D01*
X46974696Y11821316D01*
X46998649Y11783090D01*
X47006082Y11773877D01*
X47033537Y11738309D01*
X47061443Y11689384D01*
X47080477Y11644608D01*
X47083784Y11628026D01*
X47094123Y11601587D01*
X47103323Y11598031D01*
X47121146Y11582430D01*
X47122861Y11571655D01*
X47133673Y11541613D01*
X47161290Y11493947D01*
X47182359Y11463144D01*
X47220920Y11405542D01*
X47251167Y11352697D01*
X47259937Y11333455D01*
X47278017Y11285900D01*
X47390939Y11353992D01*
X47451831Y11388653D01*
X47501452Y11413193D01*
X47528284Y11422134D01*
X47549297Y11431168D01*
X47546516Y11460688D01*
X47519143Y11514524D01*
X47503853Y11539428D01*
X47464968Y11607823D01*
X47429939Y11680162D01*
X47424512Y11693119D01*
X47610516Y11693119D01*
X47651327Y11635806D01*
X47683071Y11597818D01*
X47708039Y11578949D01*
X47710707Y11578492D01*
X47731847Y11591608D01*
X47772608Y11626675D01*
X47825735Y11677274D01*
X47851031Y11702674D01*
X47941166Y11797152D01*
X48018831Y11883526D01*
X48080233Y11957214D01*
X48121579Y12013632D01*
X48139074Y12048200D01*
X48139405Y12051042D01*
X48150824Y12080769D01*
X48179224Y12127286D01*
X48198020Y12153473D01*
X48231952Y12202478D01*
X48252868Y12240697D01*
X48256092Y12252142D01*
X48268645Y12284070D01*
X48279612Y12297581D01*
X48299362Y12330237D01*
X48320485Y12383675D01*
X48326780Y12404066D01*
X48346859Y12469561D01*
X48373502Y12550294D01*
X48392256Y12604261D01*
X48417970Y12682728D01*
X48440010Y12760978D01*
X48450026Y12804531D01*
X48465970Y12887569D01*
X48390711Y12887569D01*
X48340334Y12884007D01*
X48315668Y12867893D01*
X48304165Y12833838D01*
X48266099Y12687633D01*
X48213773Y12536025D01*
X48151886Y12390109D01*
X48085137Y12260979D01*
X48019142Y12160907D01*
X47985652Y12113888D01*
X47965577Y12078015D01*
X47963015Y12068752D01*
X47950870Y12044861D01*
X47919101Y12001873D01*
X47876730Y11951567D01*
X47829847Y11897713D01*
X47792544Y11852927D01*
X47774153Y11828684D01*
X47749300Y11801960D01*
X47705602Y11764551D01*
X47684188Y11748036D01*
X47610516Y11693119D01*
X47424512Y11693119D01*
X47423578Y11695347D01*
X47401595Y11743223D01*
X47383353Y11771035D01*
X47378610Y11773877D01*
X47363899Y11790006D01*
X47337313Y11832676D01*
X47304114Y11893309D01*
X47297693Y11905761D01*
X47263560Y11969844D01*
X47234924Y12018665D01*
X47217200Y12043093D01*
X47215669Y12044159D01*
X47201052Y12066378D01*
X47201015Y12067603D01*
X47190854Y12092157D01*
X47164776Y12136939D01*
X47142400Y12171385D01*
X47109198Y12225796D01*
X47087953Y12270633D01*
X47083784Y12287692D01*
X47072240Y12296030D01*
X47035981Y12281807D01*
X46972563Y12243976D01*
X46954890Y12232491D01*
X46893202Y12191630D01*
X46845227Y12159209D01*
X46819471Y12140994D01*
X46817555Y12139391D01*
X45877164Y12139391D01*
X45866235Y12154925D01*
X45857527Y12162901D01*
X45817083Y12192181D01*
X45762096Y12224722D01*
X45750898Y12230605D01*
X45702572Y12261068D01*
X45671177Y12291368D01*
X45667455Y12298147D01*
X45654983Y12307922D01*
X45633450Y12287733D01*
X45603768Y12241957D01*
X45570976Y12188258D01*
X45544683Y12147633D01*
X45535792Y12135338D01*
X45517930Y12107433D01*
X45490561Y12058307D01*
X45474626Y12027877D01*
X45439767Y11961637D01*
X45397554Y11884140D01*
X45352373Y11803099D01*
X45308611Y11726225D01*
X45270655Y11661231D01*
X45242890Y11615831D01*
X45230144Y11598016D01*
X45211573Y11572913D01*
X45186604Y11528436D01*
X45163433Y11480626D01*
X45150258Y11445527D01*
X45149476Y11440140D01*
X44867537Y11440140D01*
X44829462Y11475433D01*
X44766956Y11537182D01*
X44687689Y11618058D01*
X44594890Y11714847D01*
X44557498Y11754338D01*
X44512886Y11807951D01*
X44475291Y11861800D01*
X44446972Y11907026D01*
X44405781Y11971925D01*
X44360063Y12043356D01*
X44354715Y12051670D01*
X44314907Y12116477D01*
X44285162Y12170524D01*
X44270728Y12204109D01*
X44270125Y12207977D01*
X44261366Y12241518D01*
X44240291Y12288704D01*
X44238737Y12291646D01*
X44190971Y12394413D01*
X44146403Y12513496D01*
X44110929Y12631639D01*
X44091861Y12721492D01*
X44068327Y12887569D01*
X44253164Y12887569D01*
X44263022Y12814300D01*
X44275679Y12734443D01*
X44291502Y12654398D01*
X44307976Y12585249D01*
X44322584Y12538076D01*
X44328463Y12526108D01*
X44341919Y12499993D01*
X44365613Y12447348D01*
X44395217Y12377903D01*
X44406362Y12350970D01*
X44447443Y12262540D01*
X44502252Y12160101D01*
X44561274Y12061056D01*
X44583650Y12026704D01*
X44638815Y11950203D01*
X44703641Y11868950D01*
X44772934Y11788467D01*
X44841500Y11714279D01*
X44904146Y11651910D01*
X44955677Y11606882D01*
X44990899Y11584721D01*
X45000181Y11583722D01*
X45025029Y11605558D01*
X45041763Y11633487D01*
X45062584Y11666468D01*
X45077203Y11676185D01*
X45071077Y11688995D01*
X45042066Y11723712D01*
X44995071Y11774764D01*
X44945570Y11825900D01*
X44885284Y11888283D01*
X44836863Y11940881D01*
X44806002Y11977346D01*
X44797784Y11990581D01*
X44785866Y12016004D01*
X44773335Y12031366D01*
X44747585Y12063239D01*
X44712489Y12112027D01*
X44700066Y12130320D01*
X44667715Y12174361D01*
X44642817Y12200495D01*
X44636592Y12203590D01*
X44625231Y12220327D01*
X44621938Y12248661D01*
X44614903Y12292142D01*
X44604489Y12312161D01*
X44567397Y12365390D01*
X44526935Y12445522D01*
X44487795Y12541229D01*
X44454670Y12641177D01*
X44434373Y12722885D01*
X44406855Y12861447D01*
X44590018Y12861447D01*
X44592465Y12853377D01*
X44603882Y12812068D01*
X44614509Y12753630D01*
X44616233Y12741031D01*
X44638547Y12650838D01*
X44682766Y12539702D01*
X44744359Y12415456D01*
X44818795Y12285932D01*
X44901541Y12158964D01*
X44988066Y12042384D01*
X45073839Y11944025D01*
X45082377Y11935315D01*
X45136401Y11883364D01*
X45169297Y11858897D01*
X45185227Y11859608D01*
X45188553Y11876516D01*
X45199207Y11905048D01*
X45226635Y11952553D01*
X45252053Y11990395D01*
X45294321Y12055966D01*
X45330666Y12122574D01*
X45343623Y12151524D01*
X45365063Y12197038D01*
X45383780Y12221770D01*
X45387585Y12223261D01*
X45401887Y12239041D01*
X45403476Y12251174D01*
X45416340Y12288029D01*
X45429698Y12305308D01*
X45479501Y12372218D01*
X45491510Y12434874D01*
X45480323Y12469935D01*
X45457477Y12504249D01*
X45441848Y12516338D01*
X45420749Y12532818D01*
X45389051Y12576604D01*
X45351855Y12639219D01*
X45314259Y12712185D01*
X45286122Y12775223D01*
X45239978Y12887569D01*
X44909329Y12887569D01*
X44788621Y12887309D01*
X44701812Y12886156D01*
X44643724Y12883553D01*
X44609180Y12878939D01*
X44593004Y12871756D01*
X44590018Y12861447D01*
X44406855Y12861447D01*
X44401667Y12887569D01*
X44253164Y12887569D01*
X44068327Y12887569D01*
X44067517Y12893283D01*
X44051313Y13038211D01*
X44043250Y13167150D01*
X44043257Y13178967D01*
X44211066Y13178967D01*
X44212309Y13139835D01*
X44219764Y13110651D01*
X44237835Y13089964D01*
X44270927Y13076327D01*
X44323444Y13068291D01*
X44399791Y13064408D01*
X44504371Y13063231D01*
X44641590Y13063310D01*
X44716836Y13063370D01*
X45198323Y13063324D01*
X45192002Y13229447D01*
X45192001Y13229492D01*
X45376703Y13229492D01*
X45381230Y13099117D01*
X45396790Y12992422D01*
X45426356Y12894851D01*
X45461282Y12815244D01*
X45485095Y12762766D01*
X45499358Y12724642D01*
X45501169Y12715739D01*
X45514805Y12690880D01*
X45551188Y12647178D01*
X45603535Y12591376D01*
X45665059Y12530220D01*
X45728975Y12470453D01*
X45788498Y12418822D01*
X45836843Y12382070D01*
X45894027Y12348020D01*
X45943255Y12325833D01*
X45964820Y12320954D01*
X46005512Y12312134D01*
X46019915Y12303142D01*
X46057339Y12284461D01*
X46123334Y12267411D01*
X46207399Y12253948D01*
X46299028Y12246026D01*
X46332718Y12244892D01*
X46410032Y12249041D01*
X46505947Y12261921D01*
X46601673Y12280911D01*
X46616026Y12284419D01*
X46698089Y12309504D01*
X46781550Y12342301D01*
X46858180Y12378644D01*
X46919749Y12414370D01*
X46937123Y12428415D01*
X47210784Y12428415D01*
X47259630Y12328798D01*
X47298340Y12255427D01*
X47341143Y12182284D01*
X47360016Y12152952D01*
X47468829Y11967263D01*
X47497985Y11905761D01*
X47517021Y11867924D01*
X47528962Y11852032D01*
X47529004Y11852031D01*
X47544898Y11864920D01*
X47581136Y11899182D01*
X47630783Y11948205D01*
X47646836Y11964377D01*
X47711667Y12035001D01*
X47775336Y12112599D01*
X47824163Y12180491D01*
X47824546Y12181089D01*
X47863387Y12239852D01*
X47896868Y12286992D01*
X47914776Y12309001D01*
X47938698Y12345698D01*
X47952693Y12380480D01*
X47970257Y12429088D01*
X47998725Y12498214D01*
X48031867Y12573256D01*
X48061586Y12635868D01*
X48076470Y12674186D01*
X48094303Y12731077D01*
X48099417Y12749436D01*
X48115631Y12807003D01*
X48129291Y12851114D01*
X48132264Y12859484D01*
X48131052Y12869707D01*
X48115199Y12877174D01*
X48079891Y12882288D01*
X48020314Y12885455D01*
X47931655Y12887080D01*
X47809099Y12887567D01*
X47798415Y12887569D01*
X47665811Y12886827D01*
X47568304Y12884418D01*
X47501939Y12880068D01*
X47462761Y12873502D01*
X47446815Y12864446D01*
X47446264Y12863146D01*
X47436441Y12825780D01*
X47428164Y12789761D01*
X47412951Y12752298D01*
X47381025Y12692826D01*
X47337983Y12621420D01*
X47314186Y12584608D01*
X47210784Y12428415D01*
X46937123Y12428415D01*
X46958025Y12445312D01*
X46966553Y12461793D01*
X46982112Y12479628D01*
X47020080Y12503883D01*
X47025169Y12506569D01*
X47064935Y12532156D01*
X47083587Y12554048D01*
X47083784Y12555694D01*
X47095239Y12583430D01*
X47117976Y12615449D01*
X47156130Y12661003D01*
X47194365Y12706502D01*
X47222864Y12755595D01*
X47253386Y12832806D01*
X47283011Y12927490D01*
X47308816Y13029004D01*
X47315546Y13063495D01*
X47503861Y13063495D01*
X48490553Y13063415D01*
X48490553Y13395569D01*
X47503861Y13395603D01*
X47503861Y13063495D01*
X47315546Y13063495D01*
X47327880Y13126703D01*
X47337281Y13209943D01*
X47337784Y13229003D01*
X47331343Y13307488D01*
X47314278Y13406446D01*
X47289972Y13511459D01*
X47261812Y13608109D01*
X47233183Y13681978D01*
X47229867Y13688646D01*
X47199620Y13736402D01*
X47158538Y13789323D01*
X47152623Y13796108D01*
X47113996Y13845405D01*
X47086207Y13890997D01*
X47083414Y13897286D01*
X47054997Y13933378D01*
X47006997Y13967624D01*
X46996876Y13972782D01*
X46952743Y13997335D01*
X46945715Y14003314D01*
X47215895Y14003314D01*
X47216916Y14002265D01*
X47235540Y13981429D01*
X47268153Y13938345D01*
X47299713Y13893800D01*
X47337334Y13840405D01*
X47366518Y13801078D01*
X47378992Y13786338D01*
X47391384Y13763259D01*
X47409992Y13715174D01*
X47430302Y13654651D01*
X47447392Y13595838D01*
X47460198Y13586449D01*
X47495639Y13579592D01*
X47557694Y13574988D01*
X47650341Y13572359D01*
X47777558Y13571427D01*
X47796325Y13571415D01*
X47907099Y13571679D01*
X48002923Y13572411D01*
X48077557Y13573522D01*
X48124758Y13574923D01*
X48138650Y13576300D01*
X48132623Y13598615D01*
X48117469Y13646764D01*
X48096836Y13709654D01*
X48074373Y13776188D01*
X48053728Y13835272D01*
X48050975Y13842912D01*
X48025621Y13904741D01*
X47999344Y13956825D01*
X47991439Y13969375D01*
X47969337Y14011258D01*
X47963015Y14037643D01*
X47952769Y14064956D01*
X47925184Y14116119D01*
X47884990Y14182731D01*
X47855387Y14228751D01*
X47791168Y14320717D01*
X47725544Y14405082D01*
X47662444Y14477913D01*
X47605797Y14535277D01*
X47559533Y14573240D01*
X47527581Y14587869D01*
X47513871Y14575230D01*
X47513630Y14570866D01*
X47501969Y14545657D01*
X47474553Y14509261D01*
X47446594Y14470206D01*
X47435476Y14441713D01*
X47425607Y14414032D01*
X47400089Y14365789D01*
X47373945Y14322587D01*
X47319650Y14233483D01*
X47273526Y14150534D01*
X47238745Y14080210D01*
X47218477Y14028981D01*
X47215895Y14003314D01*
X46945715Y14003314D01*
X46928864Y14017649D01*
X46927476Y14021433D01*
X46910064Y14045127D01*
X46862861Y14076345D01*
X46793417Y14111095D01*
X46709283Y14145387D01*
X46661921Y14161814D01*
X46491062Y14199213D01*
X46308725Y14206969D01*
X46128651Y14185290D01*
X46009266Y14151985D01*
X45939764Y14125038D01*
X45886273Y14100427D01*
X45858170Y14082579D01*
X45856215Y14079709D01*
X45833741Y14060973D01*
X45825488Y14059877D01*
X45797780Y14046138D01*
X45752116Y14009791D01*
X45695685Y13958138D01*
X45635679Y13898482D01*
X45579286Y13838127D01*
X45533696Y13784375D01*
X45506100Y13744530D01*
X45501169Y13730448D01*
X45492231Y13701168D01*
X45469984Y13654291D01*
X45462033Y13639696D01*
X45418193Y13543774D01*
X45391030Y13437338D01*
X45378329Y13309743D01*
X45376703Y13229492D01*
X45192001Y13229492D01*
X45185682Y13395569D01*
X44710516Y13395569D01*
X44557899Y13395753D01*
X44439916Y13395319D01*
X44352136Y13392793D01*
X44290126Y13386698D01*
X44249452Y13375560D01*
X44225683Y13357902D01*
X44214385Y13332249D01*
X44211127Y13297125D01*
X44211474Y13251055D01*
X44211630Y13229492D01*
X44211066Y13178967D01*
X44043257Y13178967D01*
X44043331Y13290978D01*
X44051556Y13420570D01*
X44067926Y13566802D01*
X44068576Y13571415D01*
X44256443Y13571415D01*
X44331729Y13571415D01*
X44379622Y13573851D01*
X44405519Y13579908D01*
X44407015Y13582008D01*
X44408808Y13593114D01*
X44589784Y13593114D01*
X44597386Y13584088D01*
X44620188Y13577973D01*
X44663371Y13574208D01*
X44732118Y13572236D01*
X44831608Y13571498D01*
X44909332Y13571415D01*
X45239983Y13571415D01*
X45297077Y13702550D01*
X45338460Y13785960D01*
X45388473Y13870574D01*
X45428739Y13928021D01*
X45475229Y13995998D01*
X45491461Y14048566D01*
X45478421Y14093787D01*
X45452835Y14124958D01*
X45432753Y14152937D01*
X45400218Y14206698D01*
X45360554Y14277221D01*
X45336261Y14322477D01*
X45294806Y14398720D01*
X45257268Y14463555D01*
X45229014Y14507915D01*
X45218983Y14520700D01*
X45191843Y14555839D01*
X45183873Y14572148D01*
X45166981Y14573046D01*
X45131191Y14553519D01*
X45085358Y14520649D01*
X45038338Y14481519D01*
X44998986Y14443211D01*
X44976160Y14412809D01*
X44973630Y14404001D01*
X44961144Y14377925D01*
X44928849Y14334770D01*
X44895476Y14296720D01*
X44853334Y14248429D01*
X44824959Y14209981D01*
X44817323Y14193411D01*
X44808107Y14167526D01*
X44784037Y14119062D01*
X44752977Y14063165D01*
X44680583Y13920384D01*
X44632087Y13784745D01*
X44615716Y13708185D01*
X44605035Y13651372D01*
X44592818Y13607208D01*
X44592202Y13605608D01*
X44589784Y13593114D01*
X44408808Y13593114D01*
X44410706Y13604870D01*
X44420490Y13655967D01*
X44434438Y13725292D01*
X44438065Y13742923D01*
X44460233Y13828178D01*
X44491674Y13921300D01*
X44527949Y14011461D01*
X44564620Y14087836D01*
X44597248Y14139598D01*
X44603655Y14146823D01*
X44620834Y14182325D01*
X44621938Y14192807D01*
X44633920Y14224990D01*
X44666383Y14279294D01*
X44714099Y14348414D01*
X44771841Y14425039D01*
X44834382Y14501863D01*
X44880622Y14554480D01*
X44926586Y14606683D01*
X44959792Y14648044D01*
X44973387Y14670000D01*
X44973429Y14670454D01*
X44988655Y14684711D01*
X44993169Y14685108D01*
X45020019Y14697726D01*
X45052561Y14724962D01*
X45092415Y14764816D01*
X45051231Y14822654D01*
X45020834Y14860644D01*
X44998997Y14879743D01*
X44996723Y14880284D01*
X44975448Y14867014D01*
X44934314Y14831862D01*
X44880259Y14781390D01*
X44820218Y14722160D01*
X44761128Y14660732D01*
X44737784Y14635326D01*
X44698182Y14587252D01*
X44649454Y14521926D01*
X44596703Y14447002D01*
X44545031Y14370133D01*
X44499541Y14298971D01*
X44465334Y14241169D01*
X44447514Y14204380D01*
X44446092Y14197832D01*
X44436184Y14165809D01*
X44417936Y14132459D01*
X44387304Y14073323D01*
X44353075Y13988745D01*
X44319501Y13891559D01*
X44290838Y13794604D01*
X44271340Y13710714D01*
X44265988Y13673992D01*
X44256443Y13571415D01*
X44068576Y13571415D01*
X44091987Y13737492D01*
X44109897Y13823163D01*
X44138204Y13921380D01*
X44172446Y14019353D01*
X44208159Y14104294D01*
X44240332Y14162634D01*
X44263224Y14205927D01*
X44270326Y14235186D01*
X44280279Y14266438D01*
X44306141Y14318278D01*
X44338036Y14372492D01*
X44381177Y14442507D01*
X44422067Y14511267D01*
X44444621Y14550885D01*
X44484388Y14609813D01*
X44536319Y14670698D01*
X44552758Y14687069D01*
X44593152Y14728370D01*
X44618074Y14760014D01*
X44621938Y14769212D01*
X44635423Y14788974D01*
X44671004Y14827526D01*
X44721371Y14877923D01*
X44779213Y14933221D01*
X44837219Y14986476D01*
X44869735Y15014776D01*
X45149476Y15014776D01*
X45158499Y14983716D01*
X45179910Y14936909D01*
X45205226Y14890982D01*
X45225963Y14862557D01*
X45227970Y14860954D01*
X45243181Y14840252D01*
X45271215Y14793543D01*
X45306936Y14729527D01*
X45320635Y14704021D01*
X45364297Y14624444D01*
X45408530Y14547993D01*
X45444901Y14489170D01*
X45450021Y14481487D01*
X45480705Y14431523D01*
X45498959Y14392629D01*
X45501169Y14382525D01*
X45513048Y14351928D01*
X45540246Y14313877D01*
X45568046Y14276670D01*
X45579323Y14251584D01*
X45589142Y14224210D01*
X45611367Y14185443D01*
X45643411Y14136537D01*
X45680513Y14176361D01*
X45716098Y14205892D01*
X45742014Y14216185D01*
X45771187Y14227932D01*
X45814732Y14257329D01*
X45830401Y14269915D01*
X45879142Y14310845D01*
X46809565Y14310845D01*
X46810613Y14308802D01*
X46830446Y14295288D01*
X46874444Y14266387D01*
X46933885Y14227818D01*
X46947015Y14219347D01*
X47011908Y14178927D01*
X47051515Y14158861D01*
X47072357Y14156802D01*
X47080957Y14170407D01*
X47081116Y14171138D01*
X47096623Y14212121D01*
X47119742Y14254447D01*
X47146403Y14293094D01*
X47164429Y14313877D01*
X47178587Y14334297D01*
X47206254Y14381562D01*
X47242945Y14447829D01*
X47270627Y14499492D01*
X47311144Y14574303D01*
X47346045Y14635491D01*
X47370725Y14675164D01*
X47379273Y14685792D01*
X47395990Y14709034D01*
X47418930Y14754533D01*
X47423402Y14764816D01*
X47609768Y14764816D01*
X47649622Y14724962D01*
X47684479Y14695962D01*
X47708021Y14685108D01*
X47729839Y14670743D01*
X47763812Y14634370D01*
X47781290Y14612277D01*
X47825036Y14557946D01*
X47867837Y14510701D01*
X47878900Y14499931D01*
X47919778Y14454122D01*
X47957053Y14400476D01*
X47986825Y14352073D01*
X48028546Y14286871D01*
X48065592Y14230453D01*
X48102710Y14171917D01*
X48129069Y14125068D01*
X48138861Y14100426D01*
X48146435Y14072867D01*
X48166001Y14022462D01*
X48185602Y13977373D01*
X48244386Y13839196D01*
X48283487Y13726442D01*
X48303194Y13644685D01*
X48314907Y13596850D01*
X48335516Y13576246D01*
X48378718Y13571473D01*
X48391224Y13571415D01*
X48465970Y13571415D01*
X48450026Y13654454D01*
X48434325Y13719837D01*
X48410746Y13800426D01*
X48392730Y13854723D01*
X48365498Y13932365D01*
X48339038Y14008510D01*
X48324741Y14050108D01*
X48294880Y14126029D01*
X48257677Y14204683D01*
X48220488Y14271346D01*
X48198415Y14302977D01*
X48175441Y14337557D01*
X48147444Y14388240D01*
X48143033Y14397009D01*
X48113909Y14444152D01*
X48066976Y14507225D01*
X48007765Y14580073D01*
X47941809Y14656539D01*
X47874639Y14730469D01*
X47811786Y14795709D01*
X47758781Y14846102D01*
X47721157Y14875493D01*
X47708536Y14880492D01*
X47687440Y14866050D01*
X47656698Y14830510D01*
X47650953Y14822654D01*
X47609768Y14764816D01*
X47423402Y14764816D01*
X47426755Y14772524D01*
X47460434Y14841821D01*
X47500749Y14910643D01*
X47505667Y14918029D01*
X47534580Y14965251D01*
X47550463Y15000327D01*
X47551574Y15007143D01*
X47535039Y15023114D01*
X47493357Y15049814D01*
X47436917Y15081718D01*
X47376106Y15113297D01*
X47321314Y15139025D01*
X47282927Y15153374D01*
X47274284Y15154682D01*
X47260659Y15138456D01*
X47259630Y15129347D01*
X47249328Y15101061D01*
X47222539Y15052339D01*
X47191246Y15003118D01*
X47155367Y14946801D01*
X47130605Y14902121D01*
X47122861Y14881263D01*
X47108458Y14861670D01*
X47103323Y14860954D01*
X47086100Y14845081D01*
X47083784Y14830959D01*
X47073575Y14795679D01*
X47049318Y14746955D01*
X47020571Y14702484D01*
X47005029Y14685108D01*
X46990953Y14663927D01*
X46964975Y14617887D01*
X46933321Y14558108D01*
X46895801Y14486441D01*
X46859645Y14419199D01*
X46837048Y14378638D01*
X46816027Y14336352D01*
X46809565Y14310845D01*
X45879142Y14310845D01*
X45894387Y14323646D01*
X45863068Y14398170D01*
X45831355Y14461250D01*
X45789248Y14530385D01*
X45773921Y14552525D01*
X45740357Y14603788D01*
X45719492Y14645147D01*
X45716092Y14658731D01*
X45704535Y14682793D01*
X45696553Y14685108D01*
X45679331Y14700980D01*
X45677015Y14715103D01*
X45665549Y14754325D01*
X45636908Y14807675D01*
X45599723Y14859942D01*
X45586042Y14875422D01*
X45566013Y14904989D01*
X45545855Y14941447D01*
X45769262Y14941447D01*
X45769291Y14917399D01*
X45790318Y14880172D01*
X45791519Y14878627D01*
X45825857Y14826957D01*
X45858125Y14766491D01*
X45859754Y14762933D01*
X45887996Y14706623D01*
X45926531Y14637145D01*
X45950212Y14597185D01*
X45986992Y14534427D01*
X46017593Y14477754D01*
X46030206Y14451286D01*
X46053267Y14403211D01*
X46078622Y14377030D01*
X46116898Y14368446D01*
X46178726Y14373161D01*
X46212065Y14377755D01*
X46336143Y14386024D01*
X46467716Y14378959D01*
X46478082Y14377684D01*
X46618541Y14359560D01*
X46664292Y14432034D01*
X46701358Y14496431D01*
X46733891Y14561965D01*
X46738417Y14572417D01*
X46767910Y14630678D01*
X46808555Y14696958D01*
X46824895Y14720537D01*
X46885803Y14813941D01*
X46916217Y14884198D01*
X46916452Y14932192D01*
X46905956Y14947567D01*
X46857938Y14974363D01*
X46778998Y14998531D01*
X46677256Y15019070D01*
X46560832Y15034981D01*
X46437846Y15045266D01*
X46316418Y15048924D01*
X46204669Y15044956D01*
X46155707Y15039899D01*
X46068646Y15025921D01*
X45977804Y15007272D01*
X45892759Y14986393D01*
X45823087Y14965723D01*
X45778365Y14947702D01*
X45769262Y14941447D01*
X45545855Y14941447D01*
X45536645Y14958104D01*
X45507635Y15016367D01*
X45475144Y15078006D01*
X45444612Y15124367D01*
X45424082Y15144405D01*
X45389792Y15141687D01*
X45346545Y15119344D01*
X45345928Y15118891D01*
X45292512Y15087455D01*
X45228940Y15060018D01*
X45222746Y15057908D01*
X45176288Y15038268D01*
X45151015Y15019152D01*
X45149476Y15014776D01*
X44869735Y15014776D01*
X44888080Y15030742D01*
X44924484Y15059077D01*
X44931900Y15063652D01*
X44970492Y15090560D01*
X44983400Y15102998D01*
X45020685Y15134052D01*
X45085099Y15176541D01*
X45161181Y15221725D01*
X45599627Y15221725D01*
X45636726Y15160720D01*
X45673826Y15099715D01*
X45817074Y15146945D01*
X45902253Y15170264D01*
X46008607Y15192588D01*
X46118318Y15210369D01*
X46163342Y15215869D01*
X46388631Y15225295D01*
X46615552Y15207501D01*
X46830149Y15163851D01*
X46894674Y15144403D01*
X46977679Y15120036D01*
X47031935Y15113602D01*
X47064230Y15126786D01*
X47081354Y15161274D01*
X47087074Y15192173D01*
X47087398Y15215455D01*
X47076499Y15233528D01*
X47047626Y15250501D01*
X46994032Y15270481D01*
X46919013Y15294449D01*
X46690619Y15348730D01*
X46448968Y15375721D01*
X46210245Y15373824D01*
X46160097Y15369409D01*
X46029402Y15351725D01*
X45900245Y15326880D01*
X45783198Y15297384D01*
X45688834Y15265747D01*
X45650605Y15248435D01*
X45599627Y15221725D01*
X45161181Y15221725D01*
X45168139Y15225857D01*
X45261304Y15277387D01*
X45356090Y15326523D01*
X45443996Y15368654D01*
X45516520Y15399171D01*
X45550015Y15410232D01*
X45602458Y15424948D01*
X45672702Y15445437D01*
X45716092Y15458394D01*
X45844475Y15492305D01*
X45987034Y15522048D01*
X46130084Y15545316D01*
X46259938Y15559799D01*
X46338902Y15563498D01*
X46416687Y15560883D01*
G37*
X46416687Y15560883D02*
X46511126Y15553153D01*
X46612529Y15541645D01*
X46711202Y15527693D01*
X46797453Y15512631D01*
X46861589Y15497794D01*
X46889151Y15487725D01*
X46926874Y15474280D01*
X46983807Y15460804D01*
X47001395Y15457592D01*
X47054693Y15445131D01*
X47089507Y15430587D01*
X47094604Y15425869D01*
X47120986Y15411338D01*
X47146893Y15408031D01*
X47189337Y15397993D01*
X47257309Y15370396D01*
X47343601Y15329017D01*
X47441002Y15277631D01*
X47542301Y15220014D01*
X47640290Y15159943D01*
X47713197Y15111443D01*
X47829747Y15020497D01*
X47951197Y14908616D01*
X48069971Y14784221D01*
X48178491Y14655737D01*
X48269182Y14531588D01*
X48333907Y14421338D01*
X48366645Y14362713D01*
X48404820Y14304108D01*
X48434852Y14250492D01*
X48471459Y14166871D01*
X48511847Y14061179D01*
X48553218Y13941346D01*
X48592775Y13815305D01*
X48627724Y13690988D01*
X48644290Y13624866D01*
X48653565Y13562441D01*
X48660234Y13470646D01*
X48664296Y13359072D01*
X48665753Y13237307D01*
X48664605Y13114942D01*
X48660854Y13001566D01*
X48654501Y12906769D01*
X48645547Y12840141D01*
X48644208Y12834119D01*
X48622097Y12746053D01*
X48597481Y12655415D01*
X48573023Y12571210D01*
X48551382Y12502439D01*
X48535222Y12458106D01*
X48530055Y12447954D01*
X48516614Y12419404D01*
X48497099Y12367018D01*
X48483348Y12325776D01*
X48455173Y12256663D01*
X48409491Y12165806D01*
X48351982Y12062913D01*
X48288328Y11957695D01*
X48224210Y11859859D01*
X48165310Y11779115D01*
X48158400Y11770463D01*
X48114354Y11719969D01*
X48051918Y11653275D01*
X47980083Y11579477D01*
X47907845Y11507668D01*
X47844197Y11446944D01*
X47799388Y11407410D01*
X47748376Y11368495D01*
X47687256Y11325145D01*
X47625255Y11283476D01*
X47571602Y11249605D01*
X47535526Y11229649D01*
X47526889Y11226800D01*
X47500018Y11215847D01*
X47457835Y11188724D01*
X47447090Y11180765D01*
X47393589Y11145853D01*
X47342814Y11121430D01*
X47337784Y11119758D01*
X47289558Y11099976D01*
X47262217Y11083340D01*
X47224580Y11064629D01*
X47151067Y11039303D01*
X47044173Y11008145D01*
X46907938Y10972326D01*
X46839312Y10953974D01*
X46775928Y10935434D01*
X46761400Y10930804D01*
X46721595Y10923719D01*
X46651718Y10917027D01*
X46560772Y10911058D01*
X46457763Y10906148D01*
X46351693Y10902627D01*
X46251568Y10900830D01*
X46166392Y10901089D01*
X46105169Y10903737D01*
X46087323Y10905885D01*
X46002209Y10921998D01*
X45911715Y10940947D01*
X45826210Y10960355D01*
X45756067Y10977848D01*
X45711655Y10991050D01*
X45706323Y10993162D01*
X45666732Y11007637D01*
X45604697Y11027295D01*
X45551185Y11042899D01*
X45468595Y11071541D01*
X45384627Y11109126D01*
X45343870Y11131574D01*
X45289489Y11162866D01*
X45247303Y11183249D01*
X45231982Y11187723D01*
X45206780Y11199146D01*
X45204835Y11202377D01*
X45184757Y11219656D01*
X45142407Y11245157D01*
X45125284Y11254176D01*
X45123685Y11255148D01*
X45602423Y11255148D01*
X45606629Y11234925D01*
X45647852Y11210333D01*
X45665257Y11203064D01*
X45915050Y11124766D01*
X46173799Y11081886D01*
X46434632Y11075114D01*
X46673719Y11101946D01*
X46771268Y11122305D01*
X46872377Y11147448D01*
X46957657Y11172487D01*
X46969596Y11176525D01*
X47037630Y11202462D01*
X47074742Y11223746D01*
X47087930Y11245169D01*
X47087740Y11257418D01*
X47075933Y11312629D01*
X47056164Y11337107D01*
X47018050Y11339123D01*
X46990770Y11334649D01*
X46937897Y11321758D01*
X46901659Y11307573D01*
X46898169Y11305207D01*
X46855478Y11287015D01*
X46779658Y11271835D01*
X46676577Y11260163D01*
X46552102Y11252496D01*
X46412099Y11249330D01*
X46262436Y11251161D01*
X46260369Y11251223D01*
X46129008Y11256074D01*
X46028105Y11262356D01*
X45949043Y11271091D01*
X45883204Y11283303D01*
X45821971Y11300016D01*
X45805796Y11305207D01*
X45735914Y11327596D01*
X45693585Y11337930D01*
X45669337Y11336647D01*
X45653698Y11324186D01*
X45645270Y11312632D01*
X45617168Y11273860D01*
X45602423Y11255148D01*
X45123685Y11255148D01*
X45064366Y11291184D01*
X44999071Y11339505D01*
X44978745Y11356737D01*
X44933950Y11394335D01*
X44900851Y11417996D01*
X44891274Y11422169D01*
X44871977Y11436024D01*
X44867537Y11440140D01*
X45149476Y11440140D01*
X45164943Y11423391D01*
X45173900Y11422104D01*
X45202435Y11412536D01*
X45252489Y11387685D01*
X45305784Y11357313D01*
X45362553Y11324290D01*
X45401562Y11309993D01*
X45430975Y11318066D01*
X45458961Y11352154D01*
X45493685Y11415900D01*
X45510303Y11448574D01*
X45545459Y11513587D01*
X45755169Y11513587D01*
X45771789Y11503732D01*
X45808900Y11492873D01*
X45859877Y11480099D01*
X45927627Y11461849D01*
X45960323Y11452672D01*
X46036834Y11438253D01*
X46141808Y11428532D01*
X46264914Y11423492D01*
X46395825Y11423117D01*
X46524210Y11427390D01*
X46639739Y11436296D01*
X46732085Y11449817D01*
X46750382Y11453928D01*
X46839608Y11476701D01*
X46895865Y11495146D01*
X46924155Y11514180D01*
X46929476Y11538718D01*
X46916827Y11573679D01*
X46902001Y11603040D01*
X46874808Y11653822D01*
X46854596Y11688403D01*
X46849323Y11695723D01*
X46821525Y11733767D01*
X46784476Y11798962D01*
X46748369Y11871569D01*
X46721875Y11924408D01*
X46700597Y11960782D01*
X46693653Y11969261D01*
X46675765Y11991318D01*
X46649025Y12032941D01*
X46644073Y12041340D01*
X46616428Y12081414D01*
X46592516Y12091665D01*
X46570340Y12083579D01*
X46537776Y12076930D01*
X46476747Y12072789D01*
X46397779Y12071065D01*
X46311398Y12071667D01*
X46228129Y12074503D01*
X46158498Y12079485D01*
X46113031Y12086519D01*
X46109507Y12087559D01*
X46085751Y12075211D01*
X46050185Y12028267D01*
X46005675Y11951209D01*
X45964765Y11877053D01*
X45925674Y11810837D01*
X45895570Y11764601D01*
X45890682Y11758074D01*
X45863881Y11717446D01*
X45852861Y11687854D01*
X45842594Y11659207D01*
X45816783Y11613396D01*
X45804015Y11593834D01*
X45774509Y11548702D01*
X45757130Y11518815D01*
X45755169Y11513587D01*
X45545459Y11513587D01*
X45546256Y11515060D01*
X45581043Y11572332D01*
X45603111Y11602930D01*
X45629321Y11642186D01*
X45637938Y11669405D01*
X45649517Y11693426D01*
X45657476Y11695723D01*
X45674859Y11711528D01*
X45677015Y11724737D01*
X45686655Y11754194D01*
X45711043Y11804253D01*
X45743385Y11862912D01*
X45776884Y11918172D01*
X45804745Y11958034D01*
X45815493Y11969261D01*
X45830791Y11992009D01*
X45852874Y12037163D01*
X45860749Y12055439D01*
X45879497Y12104907D01*
X45881469Y12133272D01*
X45877164Y12139391D01*
X46817555Y12139391D01*
X46822545Y12120015D01*
X46842095Y12075399D01*
X46871644Y12014381D01*
X46906634Y11945801D01*
X46942504Y11878500D01*
X46974696Y11821316D01*
X46998649Y11783090D01*
X47006082Y11773877D01*
X47033537Y11738309D01*
X47061443Y11689384D01*
X47080477Y11644608D01*
X47083784Y11628026D01*
X47094123Y11601587D01*
X47103323Y11598031D01*
X47121146Y11582430D01*
X47122861Y11571655D01*
X47133673Y11541613D01*
X47161290Y11493947D01*
X47182359Y11463144D01*
X47220920Y11405542D01*
X47251167Y11352697D01*
X47259937Y11333455D01*
X47278017Y11285900D01*
X47390939Y11353992D01*
X47451831Y11388653D01*
X47501452Y11413193D01*
X47528284Y11422134D01*
X47549297Y11431168D01*
X47546516Y11460688D01*
X47519143Y11514524D01*
X47503853Y11539428D01*
X47464968Y11607823D01*
X47429939Y11680162D01*
X47424512Y11693119D01*
X47610516Y11693119D01*
X47651327Y11635806D01*
X47683071Y11597818D01*
X47708039Y11578949D01*
X47710707Y11578492D01*
X47731847Y11591608D01*
X47772608Y11626675D01*
X47825735Y11677274D01*
X47851031Y11702674D01*
X47941166Y11797152D01*
X48018831Y11883526D01*
X48080233Y11957214D01*
X48121579Y12013632D01*
X48139074Y12048200D01*
X48139405Y12051042D01*
X48150824Y12080769D01*
X48179224Y12127286D01*
X48198020Y12153473D01*
X48231952Y12202478D01*
X48252868Y12240697D01*
X48256092Y12252142D01*
X48268645Y12284070D01*
X48279612Y12297581D01*
X48299362Y12330237D01*
X48320485Y12383675D01*
X48326780Y12404066D01*
X48346859Y12469561D01*
X48373502Y12550294D01*
X48392256Y12604261D01*
X48417970Y12682728D01*
X48440010Y12760978D01*
X48450026Y12804531D01*
X48465970Y12887569D01*
X48390711Y12887569D01*
X48340334Y12884007D01*
X48315668Y12867893D01*
X48304165Y12833838D01*
X48266099Y12687633D01*
X48213773Y12536025D01*
X48151886Y12390109D01*
X48085137Y12260979D01*
X48019142Y12160907D01*
X47985652Y12113888D01*
X47965577Y12078015D01*
X47963015Y12068752D01*
X47950870Y12044861D01*
X47919101Y12001873D01*
X47876730Y11951567D01*
X47829847Y11897713D01*
X47792544Y11852927D01*
X47774153Y11828684D01*
X47749300Y11801960D01*
X47705602Y11764551D01*
X47684188Y11748036D01*
X47610516Y11693119D01*
X47424512Y11693119D01*
X47423578Y11695347D01*
X47401595Y11743223D01*
X47383353Y11771035D01*
X47378610Y11773877D01*
X47363899Y11790006D01*
X47337313Y11832676D01*
X47304114Y11893309D01*
X47297693Y11905761D01*
X47263560Y11969844D01*
X47234924Y12018665D01*
X47217200Y12043093D01*
X47215669Y12044159D01*
X47201052Y12066378D01*
X47201015Y12067603D01*
X47190854Y12092157D01*
X47164776Y12136939D01*
X47142400Y12171385D01*
X47109198Y12225796D01*
X47087953Y12270633D01*
X47083784Y12287692D01*
X47072240Y12296030D01*
X47035981Y12281807D01*
X46972563Y12243976D01*
X46954890Y12232491D01*
X46893202Y12191630D01*
X46845227Y12159209D01*
X46819471Y12140994D01*
X46817555Y12139391D01*
X45877164Y12139391D01*
X45866235Y12154925D01*
X45857527Y12162901D01*
X45817083Y12192181D01*
X45762096Y12224722D01*
X45750898Y12230605D01*
X45702572Y12261068D01*
X45671177Y12291368D01*
X45667455Y12298147D01*
X45654983Y12307922D01*
X45633450Y12287733D01*
X45603768Y12241957D01*
X45570976Y12188258D01*
X45544683Y12147633D01*
X45535792Y12135338D01*
X45517930Y12107433D01*
X45490561Y12058307D01*
X45474626Y12027877D01*
X45439767Y11961637D01*
X45397554Y11884140D01*
X45352373Y11803099D01*
X45308611Y11726225D01*
X45270655Y11661231D01*
X45242890Y11615831D01*
X45230144Y11598016D01*
X45211573Y11572913D01*
X45186604Y11528436D01*
X45163433Y11480626D01*
X45150258Y11445527D01*
X45149476Y11440140D01*
X44867537Y11440140D01*
X44829462Y11475433D01*
X44766956Y11537182D01*
X44687689Y11618058D01*
X44594890Y11714847D01*
X44557498Y11754338D01*
X44512886Y11807951D01*
X44475291Y11861800D01*
X44446972Y11907026D01*
X44405781Y11971925D01*
X44360063Y12043356D01*
X44354715Y12051670D01*
X44314907Y12116477D01*
X44285162Y12170524D01*
X44270728Y12204109D01*
X44270125Y12207977D01*
X44261366Y12241518D01*
X44240291Y12288704D01*
X44238737Y12291646D01*
X44190971Y12394413D01*
X44146403Y12513496D01*
X44110929Y12631639D01*
X44091861Y12721492D01*
X44068327Y12887569D01*
X44253164Y12887569D01*
X44263022Y12814300D01*
X44275679Y12734443D01*
X44291502Y12654398D01*
X44307976Y12585249D01*
X44322584Y12538076D01*
X44328463Y12526108D01*
X44341919Y12499993D01*
X44365613Y12447348D01*
X44395217Y12377903D01*
X44406362Y12350970D01*
X44447443Y12262540D01*
X44502252Y12160101D01*
X44561274Y12061056D01*
X44583650Y12026704D01*
X44638815Y11950203D01*
X44703641Y11868950D01*
X44772934Y11788467D01*
X44841500Y11714279D01*
X44904146Y11651910D01*
X44955677Y11606882D01*
X44990899Y11584721D01*
X45000181Y11583722D01*
X45025029Y11605558D01*
X45041763Y11633487D01*
X45062584Y11666468D01*
X45077203Y11676185D01*
X45071077Y11688995D01*
X45042066Y11723712D01*
X44995071Y11774764D01*
X44945570Y11825900D01*
X44885284Y11888283D01*
X44836863Y11940881D01*
X44806002Y11977346D01*
X44797784Y11990581D01*
X44785866Y12016004D01*
X44773335Y12031366D01*
X44747585Y12063239D01*
X44712489Y12112027D01*
X44700066Y12130320D01*
X44667715Y12174361D01*
X44642817Y12200495D01*
X44636592Y12203590D01*
X44625231Y12220327D01*
X44621938Y12248661D01*
X44614903Y12292142D01*
X44604489Y12312161D01*
X44567397Y12365390D01*
X44526935Y12445522D01*
X44487795Y12541229D01*
X44454670Y12641177D01*
X44434373Y12722885D01*
X44406855Y12861447D01*
X44590018Y12861447D01*
X44592465Y12853377D01*
X44603882Y12812068D01*
X44614509Y12753630D01*
X44616233Y12741031D01*
X44638547Y12650838D01*
X44682766Y12539702D01*
X44744359Y12415456D01*
X44818795Y12285932D01*
X44901541Y12158964D01*
X44988066Y12042384D01*
X45073839Y11944025D01*
X45082377Y11935315D01*
X45136401Y11883364D01*
X45169297Y11858897D01*
X45185227Y11859608D01*
X45188553Y11876516D01*
X45199207Y11905048D01*
X45226635Y11952553D01*
X45252053Y11990395D01*
X45294321Y12055966D01*
X45330666Y12122574D01*
X45343623Y12151524D01*
X45365063Y12197038D01*
X45383780Y12221770D01*
X45387585Y12223261D01*
X45401887Y12239041D01*
X45403476Y12251174D01*
X45416340Y12288029D01*
X45429698Y12305308D01*
X45479501Y12372218D01*
X45491510Y12434874D01*
X45480323Y12469935D01*
X45457477Y12504249D01*
X45441848Y12516338D01*
X45420749Y12532818D01*
X45389051Y12576604D01*
X45351855Y12639219D01*
X45314259Y12712185D01*
X45286122Y12775223D01*
X45239978Y12887569D01*
X44909329Y12887569D01*
X44788621Y12887309D01*
X44701812Y12886156D01*
X44643724Y12883553D01*
X44609180Y12878939D01*
X44593004Y12871756D01*
X44590018Y12861447D01*
X44406855Y12861447D01*
X44401667Y12887569D01*
X44253164Y12887569D01*
X44068327Y12887569D01*
X44067517Y12893283D01*
X44051313Y13038211D01*
X44043250Y13167150D01*
X44043257Y13178967D01*
X44211066Y13178967D01*
X44212309Y13139835D01*
X44219764Y13110651D01*
X44237835Y13089964D01*
X44270927Y13076327D01*
X44323444Y13068291D01*
X44399791Y13064408D01*
X44504371Y13063231D01*
X44641590Y13063310D01*
X44716836Y13063370D01*
X45198323Y13063324D01*
X45192002Y13229447D01*
X45192001Y13229492D01*
X45376703Y13229492D01*
X45381230Y13099117D01*
X45396790Y12992422D01*
X45426356Y12894851D01*
X45461282Y12815244D01*
X45485095Y12762766D01*
X45499358Y12724642D01*
X45501169Y12715739D01*
X45514805Y12690880D01*
X45551188Y12647178D01*
X45603535Y12591376D01*
X45665059Y12530220D01*
X45728975Y12470453D01*
X45788498Y12418822D01*
X45836843Y12382070D01*
X45894027Y12348020D01*
X45943255Y12325833D01*
X45964820Y12320954D01*
X46005512Y12312134D01*
X46019915Y12303142D01*
X46057339Y12284461D01*
X46123334Y12267411D01*
X46207399Y12253948D01*
X46299028Y12246026D01*
X46332718Y12244892D01*
X46410032Y12249041D01*
X46505947Y12261921D01*
X46601673Y12280911D01*
X46616026Y12284419D01*
X46698089Y12309504D01*
X46781550Y12342301D01*
X46858180Y12378644D01*
X46919749Y12414370D01*
X46937123Y12428415D01*
X47210784Y12428415D01*
X47259630Y12328798D01*
X47298340Y12255427D01*
X47341143Y12182284D01*
X47360016Y12152952D01*
X47468829Y11967263D01*
X47497985Y11905761D01*
X47517021Y11867924D01*
X47528962Y11852032D01*
X47529004Y11852031D01*
X47544898Y11864920D01*
X47581136Y11899182D01*
X47630783Y11948205D01*
X47646836Y11964377D01*
X47711667Y12035001D01*
X47775336Y12112599D01*
X47824163Y12180491D01*
X47824546Y12181089D01*
X47863387Y12239852D01*
X47896868Y12286992D01*
X47914776Y12309001D01*
X47938698Y12345698D01*
X47952693Y12380480D01*
X47970257Y12429088D01*
X47998725Y12498214D01*
X48031867Y12573256D01*
X48061586Y12635868D01*
X48076470Y12674186D01*
X48094303Y12731077D01*
X48099417Y12749436D01*
X48115631Y12807003D01*
X48129291Y12851114D01*
X48132264Y12859484D01*
X48131052Y12869707D01*
X48115199Y12877174D01*
X48079891Y12882288D01*
X48020314Y12885455D01*
X47931655Y12887080D01*
X47809099Y12887567D01*
X47798415Y12887569D01*
X47665811Y12886827D01*
X47568304Y12884418D01*
X47501939Y12880068D01*
X47462761Y12873502D01*
X47446815Y12864446D01*
X47446264Y12863146D01*
X47436441Y12825780D01*
X47428164Y12789761D01*
X47412951Y12752298D01*
X47381025Y12692826D01*
X47337983Y12621420D01*
X47314186Y12584608D01*
X47210784Y12428415D01*
X46937123Y12428415D01*
X46958025Y12445312D01*
X46966553Y12461793D01*
X46982112Y12479628D01*
X47020080Y12503883D01*
X47025169Y12506569D01*
X47064935Y12532156D01*
X47083587Y12554048D01*
X47083784Y12555694D01*
X47095239Y12583430D01*
X47117976Y12615449D01*
X47156130Y12661003D01*
X47194365Y12706502D01*
X47222864Y12755595D01*
X47253386Y12832806D01*
X47283011Y12927490D01*
X47308816Y13029004D01*
X47315546Y13063495D01*
X47503861Y13063495D01*
X48490553Y13063415D01*
X48490553Y13395569D01*
X47503861Y13395603D01*
X47503861Y13063495D01*
X47315546Y13063495D01*
X47327880Y13126703D01*
X47337281Y13209943D01*
X47337784Y13229003D01*
X47331343Y13307488D01*
X47314278Y13406446D01*
X47289972Y13511459D01*
X47261812Y13608109D01*
X47233183Y13681978D01*
X47229867Y13688646D01*
X47199620Y13736402D01*
X47158538Y13789323D01*
X47152623Y13796108D01*
X47113996Y13845405D01*
X47086207Y13890997D01*
X47083414Y13897286D01*
X47054997Y13933378D01*
X47006997Y13967624D01*
X46996876Y13972782D01*
X46952743Y13997335D01*
X46945715Y14003314D01*
X47215895Y14003314D01*
X47216916Y14002265D01*
X47235540Y13981429D01*
X47268153Y13938345D01*
X47299713Y13893800D01*
X47337334Y13840405D01*
X47366518Y13801078D01*
X47378992Y13786338D01*
X47391384Y13763259D01*
X47409992Y13715174D01*
X47430302Y13654651D01*
X47447392Y13595838D01*
X47460198Y13586449D01*
X47495639Y13579592D01*
X47557694Y13574988D01*
X47650341Y13572359D01*
X47777558Y13571427D01*
X47796325Y13571415D01*
X47907099Y13571679D01*
X48002923Y13572411D01*
X48077557Y13573522D01*
X48124758Y13574923D01*
X48138650Y13576300D01*
X48132623Y13598615D01*
X48117469Y13646764D01*
X48096836Y13709654D01*
X48074373Y13776188D01*
X48053728Y13835272D01*
X48050975Y13842912D01*
X48025621Y13904741D01*
X47999344Y13956825D01*
X47991439Y13969375D01*
X47969337Y14011258D01*
X47963015Y14037643D01*
X47952769Y14064956D01*
X47925184Y14116119D01*
X47884990Y14182731D01*
X47855387Y14228751D01*
X47791168Y14320717D01*
X47725544Y14405082D01*
X47662444Y14477913D01*
X47605797Y14535277D01*
X47559533Y14573240D01*
X47527581Y14587869D01*
X47513871Y14575230D01*
X47513630Y14570866D01*
X47501969Y14545657D01*
X47474553Y14509261D01*
X47446594Y14470206D01*
X47435476Y14441713D01*
X47425607Y14414032D01*
X47400089Y14365789D01*
X47373945Y14322587D01*
X47319650Y14233483D01*
X47273526Y14150534D01*
X47238745Y14080210D01*
X47218477Y14028981D01*
X47215895Y14003314D01*
X46945715Y14003314D01*
X46928864Y14017649D01*
X46927476Y14021433D01*
X46910064Y14045127D01*
X46862861Y14076345D01*
X46793417Y14111095D01*
X46709283Y14145387D01*
X46661921Y14161814D01*
X46491062Y14199213D01*
X46308725Y14206969D01*
X46128651Y14185290D01*
X46009266Y14151985D01*
X45939764Y14125038D01*
X45886273Y14100427D01*
X45858170Y14082579D01*
X45856215Y14079709D01*
X45833741Y14060973D01*
X45825488Y14059877D01*
X45797780Y14046138D01*
X45752116Y14009791D01*
X45695685Y13958138D01*
X45635679Y13898482D01*
X45579286Y13838127D01*
X45533696Y13784375D01*
X45506100Y13744530D01*
X45501169Y13730448D01*
X45492231Y13701168D01*
X45469984Y13654291D01*
X45462033Y13639696D01*
X45418193Y13543774D01*
X45391030Y13437338D01*
X45378329Y13309743D01*
X45376703Y13229492D01*
X45192001Y13229492D01*
X45185682Y13395569D01*
X44710516Y13395569D01*
X44557899Y13395753D01*
X44439916Y13395319D01*
X44352136Y13392793D01*
X44290126Y13386698D01*
X44249452Y13375560D01*
X44225683Y13357902D01*
X44214385Y13332249D01*
X44211127Y13297125D01*
X44211474Y13251055D01*
X44211630Y13229492D01*
X44211066Y13178967D01*
X44043257Y13178967D01*
X44043331Y13290978D01*
X44051556Y13420570D01*
X44067926Y13566802D01*
X44068576Y13571415D01*
X44256443Y13571415D01*
X44331729Y13571415D01*
X44379622Y13573851D01*
X44405519Y13579908D01*
X44407015Y13582008D01*
X44408808Y13593114D01*
X44589784Y13593114D01*
X44597386Y13584088D01*
X44620188Y13577973D01*
X44663371Y13574208D01*
X44732118Y13572236D01*
X44831608Y13571498D01*
X44909332Y13571415D01*
X45239983Y13571415D01*
X45297077Y13702550D01*
X45338460Y13785960D01*
X45388473Y13870574D01*
X45428739Y13928021D01*
X45475229Y13995998D01*
X45491461Y14048566D01*
X45478421Y14093787D01*
X45452835Y14124958D01*
X45432753Y14152937D01*
X45400218Y14206698D01*
X45360554Y14277221D01*
X45336261Y14322477D01*
X45294806Y14398720D01*
X45257268Y14463555D01*
X45229014Y14507915D01*
X45218983Y14520700D01*
X45191843Y14555839D01*
X45183873Y14572148D01*
X45166981Y14573046D01*
X45131191Y14553519D01*
X45085358Y14520649D01*
X45038338Y14481519D01*
X44998986Y14443211D01*
X44976160Y14412809D01*
X44973630Y14404001D01*
X44961144Y14377925D01*
X44928849Y14334770D01*
X44895476Y14296720D01*
X44853334Y14248429D01*
X44824959Y14209981D01*
X44817323Y14193411D01*
X44808107Y14167526D01*
X44784037Y14119062D01*
X44752977Y14063165D01*
X44680583Y13920384D01*
X44632087Y13784745D01*
X44615716Y13708185D01*
X44605035Y13651372D01*
X44592818Y13607208D01*
X44592202Y13605608D01*
X44589784Y13593114D01*
X44408808Y13593114D01*
X44410706Y13604870D01*
X44420490Y13655967D01*
X44434438Y13725292D01*
X44438065Y13742923D01*
X44460233Y13828178D01*
X44491674Y13921300D01*
X44527949Y14011461D01*
X44564620Y14087836D01*
X44597248Y14139598D01*
X44603655Y14146823D01*
X44620834Y14182325D01*
X44621938Y14192807D01*
X44633920Y14224990D01*
X44666383Y14279294D01*
X44714099Y14348414D01*
X44771841Y14425039D01*
X44834382Y14501863D01*
X44880622Y14554480D01*
X44926586Y14606683D01*
X44959792Y14648044D01*
X44973387Y14670000D01*
X44973429Y14670454D01*
X44988655Y14684711D01*
X44993169Y14685108D01*
X45020019Y14697726D01*
X45052561Y14724962D01*
X45092415Y14764816D01*
X45051231Y14822654D01*
X45020834Y14860644D01*
X44998997Y14879743D01*
X44996723Y14880284D01*
X44975448Y14867014D01*
X44934314Y14831862D01*
X44880259Y14781390D01*
X44820218Y14722160D01*
X44761128Y14660732D01*
X44737784Y14635326D01*
X44698182Y14587252D01*
X44649454Y14521926D01*
X44596703Y14447002D01*
X44545031Y14370133D01*
X44499541Y14298971D01*
X44465334Y14241169D01*
X44447514Y14204380D01*
X44446092Y14197832D01*
X44436184Y14165809D01*
X44417936Y14132459D01*
X44387304Y14073323D01*
X44353075Y13988745D01*
X44319501Y13891559D01*
X44290838Y13794604D01*
X44271340Y13710714D01*
X44265988Y13673992D01*
X44256443Y13571415D01*
X44068576Y13571415D01*
X44091987Y13737492D01*
X44109897Y13823163D01*
X44138204Y13921380D01*
X44172446Y14019353D01*
X44208159Y14104294D01*
X44240332Y14162634D01*
X44263224Y14205927D01*
X44270326Y14235186D01*
X44280279Y14266438D01*
X44306141Y14318278D01*
X44338036Y14372492D01*
X44381177Y14442507D01*
X44422067Y14511267D01*
X44444621Y14550885D01*
X44484388Y14609813D01*
X44536319Y14670698D01*
X44552758Y14687069D01*
X44593152Y14728370D01*
X44618074Y14760014D01*
X44621938Y14769212D01*
X44635423Y14788974D01*
X44671004Y14827526D01*
X44721371Y14877923D01*
X44779213Y14933221D01*
X44837219Y14986476D01*
X44869735Y15014776D01*
X45149476Y15014776D01*
X45158499Y14983716D01*
X45179910Y14936909D01*
X45205226Y14890982D01*
X45225963Y14862557D01*
X45227970Y14860954D01*
X45243181Y14840252D01*
X45271215Y14793543D01*
X45306936Y14729527D01*
X45320635Y14704021D01*
X45364297Y14624444D01*
X45408530Y14547993D01*
X45444901Y14489170D01*
X45450021Y14481487D01*
X45480705Y14431523D01*
X45498959Y14392629D01*
X45501169Y14382525D01*
X45513048Y14351928D01*
X45540246Y14313877D01*
X45568046Y14276670D01*
X45579323Y14251584D01*
X45589142Y14224210D01*
X45611367Y14185443D01*
X45643411Y14136537D01*
X45680513Y14176361D01*
X45716098Y14205892D01*
X45742014Y14216185D01*
X45771187Y14227932D01*
X45814732Y14257329D01*
X45830401Y14269915D01*
X45879142Y14310845D01*
X46809565Y14310845D01*
X46810613Y14308802D01*
X46830446Y14295288D01*
X46874444Y14266387D01*
X46933885Y14227818D01*
X46947015Y14219347D01*
X47011908Y14178927D01*
X47051515Y14158861D01*
X47072357Y14156802D01*
X47080957Y14170407D01*
X47081116Y14171138D01*
X47096623Y14212121D01*
X47119742Y14254447D01*
X47146403Y14293094D01*
X47164429Y14313877D01*
X47178587Y14334297D01*
X47206254Y14381562D01*
X47242945Y14447829D01*
X47270627Y14499492D01*
X47311144Y14574303D01*
X47346045Y14635491D01*
X47370725Y14675164D01*
X47379273Y14685792D01*
X47395990Y14709034D01*
X47418930Y14754533D01*
X47423402Y14764816D01*
X47609768Y14764816D01*
X47649622Y14724962D01*
X47684479Y14695962D01*
X47708021Y14685108D01*
X47729839Y14670743D01*
X47763812Y14634370D01*
X47781290Y14612277D01*
X47825036Y14557946D01*
X47867837Y14510701D01*
X47878900Y14499931D01*
X47919778Y14454122D01*
X47957053Y14400476D01*
X47986825Y14352073D01*
X48028546Y14286871D01*
X48065592Y14230453D01*
X48102710Y14171917D01*
X48129069Y14125068D01*
X48138861Y14100426D01*
X48146435Y14072867D01*
X48166001Y14022462D01*
X48185602Y13977373D01*
X48244386Y13839196D01*
X48283487Y13726442D01*
X48303194Y13644685D01*
X48314907Y13596850D01*
X48335516Y13576246D01*
X48378718Y13571473D01*
X48391224Y13571415D01*
X48465970Y13571415D01*
X48450026Y13654454D01*
X48434325Y13719837D01*
X48410746Y13800426D01*
X48392730Y13854723D01*
X48365498Y13932365D01*
X48339038Y14008510D01*
X48324741Y14050108D01*
X48294880Y14126029D01*
X48257677Y14204683D01*
X48220488Y14271346D01*
X48198415Y14302977D01*
X48175441Y14337557D01*
X48147444Y14388240D01*
X48143033Y14397009D01*
X48113909Y14444152D01*
X48066976Y14507225D01*
X48007765Y14580073D01*
X47941809Y14656539D01*
X47874639Y14730469D01*
X47811786Y14795709D01*
X47758781Y14846102D01*
X47721157Y14875493D01*
X47708536Y14880492D01*
X47687440Y14866050D01*
X47656698Y14830510D01*
X47650953Y14822654D01*
X47609768Y14764816D01*
X47423402Y14764816D01*
X47426755Y14772524D01*
X47460434Y14841821D01*
X47500749Y14910643D01*
X47505667Y14918029D01*
X47534580Y14965251D01*
X47550463Y15000327D01*
X47551574Y15007143D01*
X47535039Y15023114D01*
X47493357Y15049814D01*
X47436917Y15081718D01*
X47376106Y15113297D01*
X47321314Y15139025D01*
X47282927Y15153374D01*
X47274284Y15154682D01*
X47260659Y15138456D01*
X47259630Y15129347D01*
X47249328Y15101061D01*
X47222539Y15052339D01*
X47191246Y15003118D01*
X47155367Y14946801D01*
X47130605Y14902121D01*
X47122861Y14881263D01*
X47108458Y14861670D01*
X47103323Y14860954D01*
X47086100Y14845081D01*
X47083784Y14830959D01*
X47073575Y14795679D01*
X47049318Y14746955D01*
X47020571Y14702484D01*
X47005029Y14685108D01*
X46990953Y14663927D01*
X46964975Y14617887D01*
X46933321Y14558108D01*
X46895801Y14486441D01*
X46859645Y14419199D01*
X46837048Y14378638D01*
X46816027Y14336352D01*
X46809565Y14310845D01*
X45879142Y14310845D01*
X45894387Y14323646D01*
X45863068Y14398170D01*
X45831355Y14461250D01*
X45789248Y14530385D01*
X45773921Y14552525D01*
X45740357Y14603788D01*
X45719492Y14645147D01*
X45716092Y14658731D01*
X45704535Y14682793D01*
X45696553Y14685108D01*
X45679331Y14700980D01*
X45677015Y14715103D01*
X45665549Y14754325D01*
X45636908Y14807675D01*
X45599723Y14859942D01*
X45586042Y14875422D01*
X45566013Y14904989D01*
X45545855Y14941447D01*
X45769262Y14941447D01*
X45769291Y14917399D01*
X45790318Y14880172D01*
X45791519Y14878627D01*
X45825857Y14826957D01*
X45858125Y14766491D01*
X45859754Y14762933D01*
X45887996Y14706623D01*
X45926531Y14637145D01*
X45950212Y14597185D01*
X45986992Y14534427D01*
X46017593Y14477754D01*
X46030206Y14451286D01*
X46053267Y14403211D01*
X46078622Y14377030D01*
X46116898Y14368446D01*
X46178726Y14373161D01*
X46212065Y14377755D01*
X46336143Y14386024D01*
X46467716Y14378959D01*
X46478082Y14377684D01*
X46618541Y14359560D01*
X46664292Y14432034D01*
X46701358Y14496431D01*
X46733891Y14561965D01*
X46738417Y14572417D01*
X46767910Y14630678D01*
X46808555Y14696958D01*
X46824895Y14720537D01*
X46885803Y14813941D01*
X46916217Y14884198D01*
X46916452Y14932192D01*
X46905956Y14947567D01*
X46857938Y14974363D01*
X46778998Y14998531D01*
X46677256Y15019070D01*
X46560832Y15034981D01*
X46437846Y15045266D01*
X46316418Y15048924D01*
X46204669Y15044956D01*
X46155707Y15039899D01*
X46068646Y15025921D01*
X45977804Y15007272D01*
X45892759Y14986393D01*
X45823087Y14965723D01*
X45778365Y14947702D01*
X45769262Y14941447D01*
X45545855Y14941447D01*
X45536645Y14958104D01*
X45507635Y15016367D01*
X45475144Y15078006D01*
X45444612Y15124367D01*
X45424082Y15144405D01*
X45389792Y15141687D01*
X45346545Y15119344D01*
X45345928Y15118891D01*
X45292512Y15087455D01*
X45228940Y15060018D01*
X45222746Y15057908D01*
X45176288Y15038268D01*
X45151015Y15019152D01*
X45149476Y15014776D01*
X44869735Y15014776D01*
X44888080Y15030742D01*
X44924484Y15059077D01*
X44931900Y15063652D01*
X44970492Y15090560D01*
X44983400Y15102998D01*
X45020685Y15134052D01*
X45085099Y15176541D01*
X45161181Y15221725D01*
X45599627Y15221725D01*
X45636726Y15160720D01*
X45673826Y15099715D01*
X45817074Y15146945D01*
X45902253Y15170264D01*
X46008607Y15192588D01*
X46118318Y15210369D01*
X46163342Y15215869D01*
X46388631Y15225295D01*
X46615552Y15207501D01*
X46830149Y15163851D01*
X46894674Y15144403D01*
X46977679Y15120036D01*
X47031935Y15113602D01*
X47064230Y15126786D01*
X47081354Y15161274D01*
X47087074Y15192173D01*
X47087398Y15215455D01*
X47076499Y15233528D01*
X47047626Y15250501D01*
X46994032Y15270481D01*
X46919013Y15294449D01*
X46690619Y15348730D01*
X46448968Y15375721D01*
X46210245Y15373824D01*
X46160097Y15369409D01*
X46029402Y15351725D01*
X45900245Y15326880D01*
X45783198Y15297384D01*
X45688834Y15265747D01*
X45650605Y15248435D01*
X45599627Y15221725D01*
X45161181Y15221725D01*
X45168139Y15225857D01*
X45261304Y15277387D01*
X45356090Y15326523D01*
X45443996Y15368654D01*
X45516520Y15399171D01*
X45550015Y15410232D01*
X45602458Y15424948D01*
X45672702Y15445437D01*
X45716092Y15458394D01*
X45844475Y15492305D01*
X45987034Y15522048D01*
X46130084Y15545316D01*
X46259938Y15559799D01*
X46338902Y15563498D01*
X46416687Y15560883D01*
D16*
%TO.C,U10*%
X10174400Y15077800D02*
X11974400Y15077800D01*
X11974400Y18297800D02*
X9524400Y18297800D01*
%TO.C,D1*%
X4300000Y11550000D02*
X4300000Y9550000D01*
X4300000Y9550000D02*
X8200000Y9550000D01*
X4300000Y11550000D02*
X8200000Y11550000D01*
%TO.C,J3*%
X48500000Y1170000D02*
X47170000Y1170000D01*
X47170000Y1170000D02*
X47170000Y2500000D01*
X47170000Y3770000D02*
X47170000Y6370000D01*
X49830000Y6370000D02*
X47170000Y6370000D01*
X49830000Y3770000D02*
X49830000Y6370000D01*
X49830000Y3770000D02*
X47170000Y3770000D01*
%TO.C,U9*%
X38590000Y12127900D02*
X38590000Y10177900D01*
X38590000Y12127900D02*
X38590000Y14077900D01*
X43710000Y12127900D02*
X43710000Y10177900D01*
X43710000Y12127900D02*
X43710000Y15577900D01*
%TO.C,U8*%
X32857958Y21255513D02*
X32857958Y22595513D01*
X33807958Y21255513D02*
X32857958Y21255513D01*
X33807958Y20305513D02*
X33807958Y21255513D01*
X33807958Y11035513D02*
X32857958Y11035513D01*
X33807958Y11985513D02*
X33807958Y11035513D01*
X23587958Y21255513D02*
X24537958Y21255513D01*
X23587958Y20305513D02*
X23587958Y21255513D01*
X23587958Y11035513D02*
X24537958Y11035513D01*
X23587958Y11985513D02*
X23587958Y11035513D01*
%TO.C,U2*%
X6339000Y30733200D02*
X8789000Y30733200D01*
X8139000Y33953200D02*
X6339000Y33953200D01*
%TO.C,C36*%
X25040000Y24441036D02*
X25040000Y24225364D01*
X25760000Y24441036D02*
X25760000Y24225364D01*
D11*
%TO.C,POS1*%
X46387268Y57661200D02*
G75*
G03*
X46387268Y57661200I-1726268J0D01*
G01*
%TO.C,NEG1*%
X38416868Y57687800D02*
G75*
G03*
X38416868Y57687800I-1726268J0D01*
G01*
D16*
%TO.C,C48*%
X45775200Y40385948D02*
X45775200Y41808452D01*
X47595200Y40385948D02*
X47595200Y41808452D01*
%TO.C,C47*%
X32313200Y40335148D02*
X32313200Y41757652D01*
X34133200Y40335148D02*
X34133200Y41757652D01*
%TO.C,C46*%
X18800400Y40335148D02*
X18800400Y41757652D01*
X20620400Y40335148D02*
X20620400Y41757652D01*
%TO.C,C31*%
X48098000Y40408748D02*
X48098000Y41831252D01*
X49918000Y40408748D02*
X49918000Y41831252D01*
%TO.C,C30*%
X21097600Y40371248D02*
X21097600Y41793752D01*
X22917600Y40371248D02*
X22917600Y41793752D01*
%TO.C,C29*%
X34576400Y40359548D02*
X34576400Y41782052D01*
X36396400Y40359548D02*
X36396400Y41782052D01*
D11*
%TO.C,P4*%
X50845068Y53007800D02*
G75*
G03*
X50845068Y53007800I-1726268J0D01*
G01*
%TO.C,P3*%
X42551268Y53025000D02*
G75*
G03*
X42551268Y53025000I-1726268J0D01*
G01*
%TO.C,P2*%
X34451268Y53025000D02*
G75*
G03*
X34451268Y53025000I-1726268J0D01*
G01*
D16*
%TO.C,R49*%
X54738241Y36361100D02*
X54430959Y36361100D01*
X54738241Y37121100D02*
X54430959Y37121100D01*
%TO.C,R48*%
X48591441Y36411900D02*
X48284159Y36411900D01*
X48591441Y37171900D02*
X48284159Y37171900D01*
%TO.C,R46*%
X45772041Y36361100D02*
X45464759Y36361100D01*
X45772041Y37121100D02*
X45464759Y37121100D01*
%TO.C,R45*%
X39422041Y36411900D02*
X39114759Y36411900D01*
X39422041Y37171900D02*
X39114759Y37171900D01*
%TO.C,R43*%
X36640741Y36348400D02*
X36333459Y36348400D01*
X36640741Y37108400D02*
X36333459Y37108400D01*
%TO.C,R42*%
X30570141Y36424600D02*
X30262859Y36424600D01*
X30570141Y37184600D02*
X30262859Y37184600D01*
%TO.C,U7*%
X54909400Y32349900D02*
X54909400Y34299900D01*
X54909400Y32349900D02*
X54909400Y30399900D01*
X49789400Y32349900D02*
X49789400Y34299900D01*
X49789400Y32349900D02*
X49789400Y28899900D01*
%TO.C,L1*%
X9400000Y34900000D02*
X13400000Y34900000D01*
X9400000Y30700000D02*
X13400000Y30700000D01*
%TO.C,D8*%
X49488600Y35892300D02*
X47488600Y35892300D01*
X47488600Y35892300D02*
X47488600Y31992300D01*
X49488600Y35892300D02*
X49488600Y31992300D01*
%TO.C,D7*%
X40420800Y35943100D02*
X38420800Y35943100D01*
X38420800Y35943100D02*
X38420800Y32043100D01*
X40420800Y35943100D02*
X40420800Y32043100D01*
%TO.C,D6*%
X31264100Y35955800D02*
X29264100Y35955800D01*
X29264100Y35955800D02*
X29264100Y32055800D01*
X31264100Y35955800D02*
X31264100Y32055800D01*
%TO.C,U6*%
X40772400Y32321500D02*
X40772400Y28871500D01*
X40772400Y32321500D02*
X40772400Y34271500D01*
X45892400Y32321500D02*
X45892400Y30371500D01*
X45892400Y32321500D02*
X45892400Y34271500D01*
%TO.C,U5*%
X31564900Y32334200D02*
X31564900Y28884200D01*
X31564900Y32334200D02*
X31564900Y34284200D01*
X36684900Y32334200D02*
X36684900Y30384200D01*
X36684900Y32334200D02*
X36684900Y34284200D01*
%TO.C,U1*%
X50625000Y17876100D02*
X54075000Y17876100D01*
X50625000Y17876100D02*
X48675000Y17876100D01*
X50625000Y26746100D02*
X52575000Y26746100D01*
X50625000Y26746100D02*
X48675000Y26746100D01*
%TO.C,R51*%
X26848800Y26391841D02*
X26848800Y26084559D01*
X27608800Y26391841D02*
X27608800Y26084559D01*
%TO.C,R41*%
X46483000Y29795441D02*
X46483000Y29488159D01*
X47243000Y29795441D02*
X47243000Y29488159D01*
%TO.C,R40*%
X47422800Y29795441D02*
X47422800Y29488159D01*
X48182800Y29795441D02*
X48182800Y29488159D01*
%TO.C,R39*%
X37326300Y29833541D02*
X37326300Y29526259D01*
X38086300Y29833541D02*
X38086300Y29526259D01*
%TO.C,R38*%
X38278800Y29833541D02*
X38278800Y29526259D01*
X39038800Y29833541D02*
X39038800Y29526259D01*
%TO.C,R37*%
X28093400Y29731941D02*
X28093400Y29424659D01*
X28853400Y29731941D02*
X28853400Y29424659D01*
%TO.C,R36*%
X29071300Y29744641D02*
X29071300Y29437359D01*
X29831300Y29744641D02*
X29831300Y29437359D01*
%TO.C,R35*%
X45724041Y23707100D02*
X45416759Y23707100D01*
X45724041Y22947100D02*
X45416759Y22947100D01*
%TO.C,R34*%
X45724041Y24621500D02*
X45416759Y24621500D01*
X45724041Y23861500D02*
X45416759Y23861500D01*
%TO.C,R33*%
X55469559Y23686500D02*
X55776841Y23686500D01*
X55469559Y24446500D02*
X55776841Y24446500D01*
%TO.C,R32*%
X55469559Y24575500D02*
X55776841Y24575500D01*
X55469559Y25335500D02*
X55776841Y25335500D01*
%TO.C,R31*%
X37009041Y17753600D02*
X36701759Y17753600D01*
X37009041Y16993600D02*
X36701759Y16993600D01*
%TO.C,R30*%
X45724041Y22741900D02*
X45416759Y22741900D01*
X45724041Y21981900D02*
X45416759Y21981900D01*
%TO.C,R29*%
X45724041Y25535900D02*
X45416759Y25535900D01*
X45724041Y24775900D02*
X45416759Y24775900D01*
%TO.C,R28*%
X55779641Y23557500D02*
X55472359Y23557500D01*
X55779641Y22797500D02*
X55472359Y22797500D01*
%TO.C,R27*%
X55779641Y26249900D02*
X55472359Y26249900D01*
X55779641Y25489900D02*
X55472359Y25489900D01*
%TO.C,R26*%
X45416759Y25693100D02*
X45724041Y25693100D01*
X45416759Y26453100D02*
X45724041Y26453100D01*
%TO.C,R25*%
X55779641Y27138900D02*
X55472359Y27138900D01*
X55779641Y26378900D02*
X55472359Y26378900D01*
%TO.C,R24*%
X55472359Y20105100D02*
X55779641Y20105100D01*
X55472359Y20865100D02*
X55779641Y20865100D01*
%TO.C,R23*%
X55475159Y19213300D02*
X55782441Y19213300D01*
X55475159Y19973300D02*
X55782441Y19973300D01*
%TO.C,R22*%
X11980000Y37996359D02*
X11980000Y38303641D01*
X11220000Y37996359D02*
X11220000Y38303641D01*
%TO.C,R21*%
X4497041Y32240600D02*
X4189759Y32240600D01*
X4497041Y31480600D02*
X4189759Y31480600D01*
%TO.C,R20*%
X55779641Y21779500D02*
X55472359Y21779500D01*
X55779641Y21019500D02*
X55472359Y21019500D01*
%TO.C,R19*%
X12220000Y38303641D02*
X12220000Y37996359D01*
X12980000Y38303641D02*
X12980000Y37996359D01*
%TO.C,R18*%
X55475159Y18327100D02*
X55782441Y18327100D01*
X55475159Y19087100D02*
X55782441Y19087100D01*
%TO.C,R17*%
X4189759Y32395000D02*
X4497041Y32395000D01*
X4189759Y33155000D02*
X4497041Y33155000D01*
%TO.C,R16*%
X55782441Y18198100D02*
X55475159Y18198100D01*
X55782441Y17438100D02*
X55475159Y17438100D01*
%TO.C,R15*%
X45724041Y19061700D02*
X45416759Y19061700D01*
X45724041Y18301700D02*
X45416759Y18301700D01*
%TO.C,R14*%
X45416759Y20181300D02*
X45724041Y20181300D01*
X45416759Y20941300D02*
X45724041Y20941300D01*
%TO.C,R13*%
X20626041Y21157200D02*
X20318759Y21157200D01*
X20626041Y20397200D02*
X20318759Y20397200D01*
%TO.C,R12*%
X36701759Y16053800D02*
X37009041Y16053800D01*
X36701759Y16813800D02*
X37009041Y16813800D01*
%TO.C,R11*%
X15032200Y12722059D02*
X15032200Y13029341D01*
X14272200Y12722059D02*
X14272200Y13029341D01*
%TO.C,R10*%
X16839000Y12722059D02*
X16839000Y13029341D01*
X16079000Y12722059D02*
X16079000Y13029341D01*
%TO.C,R9*%
X18635601Y12722059D02*
X18635601Y13029341D01*
X17875601Y12722059D02*
X17875601Y13029341D01*
%TO.C,R8*%
X14333641Y16618600D02*
X14026359Y16618600D01*
X14333641Y15858600D02*
X14026359Y15858600D01*
%TO.C,R7*%
X14333641Y17525000D02*
X14026359Y17525000D01*
X14333641Y16765000D02*
X14026359Y16765000D01*
%TO.C,R6*%
X25934400Y24461441D02*
X25934400Y24154159D01*
X26694400Y24461441D02*
X26694400Y24154159D01*
%TO.C,R5*%
X15672800Y38304441D02*
X15672800Y37997159D01*
X16432800Y38304441D02*
X16432800Y37997159D01*
%TO.C,J2*%
X5070000Y21970000D02*
X3270000Y21970000D01*
X-440000Y21970000D02*
X1020000Y21970000D01*
X-440000Y13030000D02*
X1020000Y13030000D01*
X5070000Y13030000D02*
X3270000Y13030000D01*
X-440000Y13030000D02*
X-440000Y21970000D01*
%TO.C,C45*%
X41082564Y16788100D02*
X41298236Y16788100D01*
X41082564Y16068100D02*
X41298236Y16068100D01*
%TO.C,C44*%
X34143836Y22635800D02*
X33928164Y22635800D01*
X34143836Y21915800D02*
X33928164Y21915800D01*
%TO.C,C43*%
X20364564Y18512200D02*
X20580236Y18512200D01*
X20364564Y19232200D02*
X20580236Y19232200D01*
%TO.C,C42*%
X20389964Y11654200D02*
X20605636Y11654200D01*
X20389964Y12374200D02*
X20605636Y12374200D01*
%TO.C,C41*%
X34347036Y10164400D02*
X34131364Y10164400D01*
X34347036Y9444400D02*
X34131364Y9444400D01*
%TO.C,C40*%
X36937836Y20146600D02*
X36722164Y20146600D01*
X36937836Y19426600D02*
X36722164Y19426600D01*
%TO.C,C39*%
X28808000Y26130364D02*
X28808000Y26346036D01*
X28088000Y26130364D02*
X28088000Y26346036D01*
%TO.C,C38*%
X24125600Y24441036D02*
X24125600Y24225364D01*
X24845600Y24441036D02*
X24845600Y24225364D01*
%TO.C,C37*%
X28088000Y24415636D02*
X28088000Y24199964D01*
X28808000Y24415636D02*
X28808000Y24199964D01*
%TO.C,C35*%
X36123200Y26104964D02*
X36123200Y26320636D01*
X35403200Y26104964D02*
X35403200Y26320636D01*
%TO.C,C34*%
X34131364Y8504600D02*
X34347036Y8504600D01*
X34131364Y9224600D02*
X34347036Y9224600D01*
%TO.C,C33*%
X20605793Y13305516D02*
X20390121Y13305516D01*
X20605793Y12585516D02*
X20390121Y12585516D01*
%TO.C,C27*%
X51548420Y36281900D02*
X51829580Y36281900D01*
X51548420Y37301900D02*
X51829580Y37301900D01*
%TO.C,C26*%
X48763600Y29724236D02*
X48763600Y29508564D01*
X49483600Y29724236D02*
X49483600Y29508564D01*
%TO.C,C25*%
X42531420Y36281900D02*
X42812580Y36281900D01*
X42531420Y37301900D02*
X42812580Y37301900D01*
%TO.C,C24*%
X43788000Y23892136D02*
X43788000Y23676464D01*
X44508000Y23892136D02*
X44508000Y23676464D01*
%TO.C,C23*%
X57357600Y24390464D02*
X57357600Y24606136D01*
X56637600Y24390464D02*
X56637600Y24606136D01*
%TO.C,C22*%
X39721200Y29787736D02*
X39721200Y29572064D01*
X40441200Y29787736D02*
X40441200Y29572064D01*
%TO.C,C19*%
X44505200Y25508064D02*
X44505200Y25723736D01*
X43785200Y25508064D02*
X43785200Y25723736D01*
%TO.C,C18*%
X57357600Y26193864D02*
X57357600Y26409536D01*
X56637600Y26193864D02*
X56637600Y26409536D01*
%TO.C,C15*%
X55733836Y22648500D02*
X55518164Y22648500D01*
X55733836Y21928500D02*
X55518164Y21928500D01*
%TO.C,C13*%
X57360400Y19942664D02*
X57360400Y20158336D01*
X56640400Y19942664D02*
X56640400Y20158336D01*
%TO.C,C9*%
X4451236Y31306200D02*
X4235564Y31306200D01*
X4451236Y30586200D02*
X4235564Y30586200D01*
%TO.C,C8*%
X56637600Y18357736D02*
X56637600Y18142064D01*
X57357600Y18357736D02*
X57357600Y18142064D01*
%TO.C,C6*%
X7530220Y34728800D02*
X7811380Y34728800D01*
X7530220Y35748800D02*
X7811380Y35748800D01*
%TO.C,C5*%
X45658236Y19958900D02*
X45442564Y19958900D01*
X45658236Y19238900D02*
X45442564Y19238900D01*
%TO.C,C4*%
X20356164Y15860600D02*
X20571836Y15860600D01*
X20356164Y16580600D02*
X20571836Y16580600D01*
%TO.C,C3*%
X20580236Y20197400D02*
X20364564Y20197400D01*
X20580236Y19477400D02*
X20364564Y19477400D01*
%TO.C,C1*%
X26894200Y24415636D02*
X26894200Y24199964D01*
X27614200Y24415636D02*
X27614200Y24199964D01*
%TO.C,D5*%
X7700000Y47700000D02*
X2300000Y47700000D01*
X7700000Y51000000D02*
X2300000Y51000000D01*
X7700000Y47700000D02*
X7700000Y51000000D01*
D18*
%TO.C,C32*%
X27636600Y59912300D02*
X27636600Y80912300D01*
X27936600Y59912300D02*
X27936600Y80912300D01*
X28236600Y59912300D02*
X28236600Y80912300D01*
X21036600Y57912300D02*
X21036600Y59912300D01*
X26036600Y57912300D02*
X26036600Y59912300D01*
X28836600Y80912300D02*
X28836600Y59912300D01*
X28536600Y59912300D02*
X28536600Y80912300D01*
X18236600Y59912300D02*
X28836600Y59912300D01*
X18236600Y80912300D02*
X18236600Y59912300D01*
X28836600Y80912300D02*
X18236600Y80912300D01*
D19*
X28136600Y56912300D02*
X28136600Y58912300D01*
%TO.C,C28*%
X17013200Y56912300D02*
X17013200Y58912300D01*
D18*
X17713200Y80912300D02*
X7113200Y80912300D01*
X7113200Y80912300D02*
X7113200Y59912300D01*
X7113200Y59912300D02*
X17713200Y59912300D01*
X17413200Y59912300D02*
X17413200Y80912300D01*
X17713200Y80912300D02*
X17713200Y59912300D01*
X14913200Y57912300D02*
X14913200Y59912300D01*
X9913200Y57912300D02*
X9913200Y59912300D01*
X17113200Y59912300D02*
X17113200Y80912300D01*
X16813200Y59912300D02*
X16813200Y80912300D01*
X16513200Y59912300D02*
X16513200Y80912300D01*
D16*
%TO.C,R47*%
X38782736Y42501800D02*
X42886864Y42501800D01*
X38782736Y39081800D02*
X42886864Y39081800D01*
%TO.C,R50*%
X52295536Y42560200D02*
X56399664Y42560200D01*
X52295536Y39140200D02*
X56399664Y39140200D01*
%TO.C,C16*%
X10666000Y25825779D02*
X10666000Y25500221D01*
X11686000Y25825779D02*
X11686000Y25500221D01*
%TO.C,U4*%
X10083800Y23674800D02*
X4073800Y23674800D01*
X7833800Y30494800D02*
X4073800Y30494800D01*
X4073800Y23674800D02*
X4073800Y24934800D01*
X4073800Y30494800D02*
X4073800Y29234800D01*
%TO.C,C11*%
X11686000Y28472021D02*
X11686000Y28797579D01*
X10666000Y28472021D02*
X10666000Y28797579D01*
%TO.C,NTC1*%
X17041400Y45374779D02*
X17041400Y45049221D01*
X18061400Y45374779D02*
X18061400Y45049221D01*
%TO.C,D2*%
X18990601Y8390700D02*
X18990601Y10675700D01*
X17520601Y8390700D02*
X18990601Y8390700D01*
X17520601Y10675700D02*
X17520601Y8390700D01*
%TO.C,L2*%
X1000000Y47300000D02*
X1000000Y39300000D01*
X7200000Y47300000D02*
X7200000Y39300000D01*
%TO.C,D4*%
X15387200Y8390700D02*
X15387200Y10675700D01*
X13917200Y8390700D02*
X15387200Y8390700D01*
X13917200Y10675700D02*
X13917200Y8390700D01*
%TO.C,X1*%
X35173200Y27030800D02*
X29423200Y27030800D01*
X35173200Y23430800D02*
X35173200Y27030800D01*
X29423200Y23430800D02*
X35173200Y23430800D01*
%TO.C,D3*%
X17194000Y8390700D02*
X17194000Y10675700D01*
X15724000Y8390700D02*
X17194000Y8390700D01*
X15724000Y10675700D02*
X15724000Y8390700D01*
%TO.C,R44*%
X25268336Y42495200D02*
X29372464Y42495200D01*
X25268336Y39075200D02*
X29372464Y39075200D01*
%TO.C,C32*%
D20*
X21978571Y64117858D02*
X21978571Y65046429D01*
X22550000Y64546429D01*
X22550000Y64760715D01*
X22621428Y64903572D01*
X22692857Y64975000D01*
X22835714Y65046429D01*
X23192857Y65046429D01*
X23335714Y64975000D01*
X23407142Y64903572D01*
X23478571Y64760715D01*
X23478571Y64332143D01*
X23407142Y64189286D01*
X23335714Y64117858D01*
X21978571Y65546429D02*
X21978571Y66475000D01*
X22550000Y65975000D01*
X22550000Y66189286D01*
X22621428Y66332143D01*
X22692857Y66403572D01*
X22835714Y66475000D01*
X23192857Y66475000D01*
X23335714Y66403572D01*
X23407142Y66332143D01*
X23478571Y66189286D01*
X23478571Y65760715D01*
X23407142Y65617858D01*
X23335714Y65546429D01*
X21978571Y67403572D02*
X21978571Y67546429D01*
X22050000Y67689286D01*
X22121428Y67760715D01*
X22264285Y67832143D01*
X22550000Y67903572D01*
X22907142Y67903572D01*
X23192857Y67832143D01*
X23335714Y67760715D01*
X23407142Y67689286D01*
X23478571Y67546429D01*
X23478571Y67403572D01*
X23407142Y67260715D01*
X23335714Y67189286D01*
X23192857Y67117858D01*
X22907142Y67046429D01*
X22550000Y67046429D01*
X22264285Y67117858D01*
X22121428Y67189286D01*
X22050000Y67260715D01*
X21978571Y67403572D01*
X22478571Y69189286D02*
X23478571Y69189286D01*
X22478571Y68546429D02*
X23264285Y68546429D01*
X23407142Y68617858D01*
X23478571Y68760715D01*
X23478571Y68975000D01*
X23407142Y69117858D01*
X23335714Y69189286D01*
X23407142Y69975000D02*
X23478571Y69975000D01*
X23621428Y69903572D01*
X23692857Y69832143D01*
X21978571Y72403572D02*
X21978571Y72117858D01*
X22050000Y71975000D01*
X22121428Y71903572D01*
X22335714Y71760715D01*
X22621428Y71689286D01*
X23192857Y71689286D01*
X23335714Y71760715D01*
X23407142Y71832143D01*
X23478571Y71975000D01*
X23478571Y72260715D01*
X23407142Y72403572D01*
X23335714Y72475000D01*
X23192857Y72546429D01*
X22835714Y72546429D01*
X22692857Y72475000D01*
X22621428Y72403572D01*
X22550000Y72260715D01*
X22550000Y71975000D01*
X22621428Y71832143D01*
X22692857Y71760715D01*
X22835714Y71689286D01*
X21978571Y73046429D02*
X21978571Y73975000D01*
X22550000Y73475000D01*
X22550000Y73689286D01*
X22621428Y73832143D01*
X22692857Y73903572D01*
X22835714Y73975000D01*
X23192857Y73975000D01*
X23335714Y73903572D01*
X23407142Y73832143D01*
X23478571Y73689286D01*
X23478571Y73260715D01*
X23407142Y73117858D01*
X23335714Y73046429D01*
X21978571Y74403572D02*
X23478571Y74903572D01*
X21978571Y75403572D01*
%TO.C,C28*%
X11255171Y64217858D02*
X11255171Y65146429D01*
X11826600Y64646429D01*
X11826600Y64860715D01*
X11898028Y65003572D01*
X11969457Y65075000D01*
X12112314Y65146429D01*
X12469457Y65146429D01*
X12612314Y65075000D01*
X12683742Y65003572D01*
X12755171Y64860715D01*
X12755171Y64432143D01*
X12683742Y64289286D01*
X12612314Y64217858D01*
X11255171Y65646429D02*
X11255171Y66575000D01*
X11826600Y66075000D01*
X11826600Y66289286D01*
X11898028Y66432143D01*
X11969457Y66503572D01*
X12112314Y66575000D01*
X12469457Y66575000D01*
X12612314Y66503572D01*
X12683742Y66432143D01*
X12755171Y66289286D01*
X12755171Y65860715D01*
X12683742Y65717858D01*
X12612314Y65646429D01*
X11255171Y67503572D02*
X11255171Y67646429D01*
X11326600Y67789286D01*
X11398028Y67860715D01*
X11540885Y67932143D01*
X11826600Y68003572D01*
X12183742Y68003572D01*
X12469457Y67932143D01*
X12612314Y67860715D01*
X12683742Y67789286D01*
X12755171Y67646429D01*
X12755171Y67503572D01*
X12683742Y67360715D01*
X12612314Y67289286D01*
X12469457Y67217858D01*
X12183742Y67146429D01*
X11826600Y67146429D01*
X11540885Y67217858D01*
X11398028Y67289286D01*
X11326600Y67360715D01*
X11255171Y67503572D01*
X11755171Y69289286D02*
X12755171Y69289286D01*
X11755171Y68646429D02*
X12540885Y68646429D01*
X12683742Y68717858D01*
X12755171Y68860715D01*
X12755171Y69075000D01*
X12683742Y69217858D01*
X12612314Y69289286D01*
X12683742Y70075000D02*
X12755171Y70075000D01*
X12898028Y70003572D01*
X12969457Y69932143D01*
X11255171Y72503572D02*
X11255171Y72217858D01*
X11326600Y72075000D01*
X11398028Y72003572D01*
X11612314Y71860715D01*
X11898028Y71789286D01*
X12469457Y71789286D01*
X12612314Y71860715D01*
X12683742Y71932143D01*
X12755171Y72075000D01*
X12755171Y72360715D01*
X12683742Y72503572D01*
X12612314Y72575000D01*
X12469457Y72646429D01*
X12112314Y72646429D01*
X11969457Y72575000D01*
X11898028Y72503572D01*
X11826600Y72360715D01*
X11826600Y72075000D01*
X11898028Y71932143D01*
X11969457Y71860715D01*
X12112314Y71789286D01*
X11255171Y73146429D02*
X11255171Y74075000D01*
X11826600Y73575000D01*
X11826600Y73789286D01*
X11898028Y73932143D01*
X11969457Y74003572D01*
X12112314Y74075000D01*
X12469457Y74075000D01*
X12612314Y74003572D01*
X12683742Y73932143D01*
X12755171Y73789286D01*
X12755171Y73360715D01*
X12683742Y73217858D01*
X12612314Y73146429D01*
X11255171Y74503572D02*
X12755171Y75003572D01*
X11255171Y75503572D01*
%TD*%
M02*
