M48
; DRILL file {KiCad (5.1.6)-1} date 04/30/22 17:47:53
; FORMAT={-:-/ absolute / metric / decimal}
; #@! TF.CreationDate,2022-04-30T17:47:53+08:00
; #@! TF.GenerationSoftware,Kicad,Pcbnew,(5.1.6)-1
; #@! TF.FileFunction,Plated,1,2,PTH
FMAT,2
METRIC
T1C0.200
T2C0.300
T3C0.350
T4C0.500
T5C0.600
T6C0.650
T7C0.750
T8C0.800
T9C1.000
T10C2.000
T11C3.200
%
G90
G05
T1
X1.5Y50.5
X2.5Y50.5
X3.5Y50.0
X3.5Y49.0
X6.756Y35.366
X7.214Y35.594
X7.239Y35.086
X7.95Y18.237
X8.001Y31.378
X8.001Y30.819
X8.475Y17.238
X8.712Y31.378
X8.712Y30.845
X9.5Y10.5
X9.5Y9.0
X9.65Y35.775
X10.5Y49.0
X10.5Y48.0
X10.5Y47.0
X10.617Y28.076
X10.846Y16.688
X11.0Y10.5
X11.0Y9.0
X11.5Y49.0
X11.5Y48.0
X11.5Y47.0
X11.6Y37.0
X12.014Y27.568
X12.5Y49.0
X12.5Y48.0
X12.5Y47.0
X12.5Y10.5
X12.5Y9.0
X12.7Y27.543
X12.8Y37.325
X13.5Y37.3
X14.427Y35.112
X14.427Y34.629
X14.523Y37.973
X14.901Y13.198
X15.05Y35.124
X15.075Y34.591
X16.0Y30.85
X16.0Y29.85
X16.0Y28.85
X16.0Y27.85
X16.0Y26.85
X16.383Y45.923
X16.5Y51.5
X17.0Y31.85
X17.0Y30.85
X17.0Y26.85
X17.343Y9.088
X17.602Y40.894
X17.867Y41.389
X18.0Y30.85
X18.0Y26.85
X18.076Y15.713
X18.559Y16.119
X19.396Y24.73
X20.143Y24.74
X20.574Y8.484
X20.982Y20.777
X21.133Y10.008
X21.26Y12.014
X21.717Y28.829
X21.717Y28.194
X22.454Y10.211
X22.914Y8.484
X23.36Y24.78
X24.765Y26.543
X24.917Y23.139
X25.298Y24.943
X25.39Y20.628
X25.4Y19.075
X25.705Y26.213
X25.823Y20.183
X26.162Y23.952
X26.238Y26.797
X26.948Y20.649
X27.0Y18.212
X27.026Y40.691
X27.286Y18.793
X27.457Y15.138
X27.469Y27.592
X27.559Y30.734
X27.686Y40.691
X27.996Y18.793
X28.258Y27.635
X28.319Y20.189
X28.448Y30.734
X28.448Y27.076
X28.575Y20.701
X28.677Y24.689
X28.753Y18.793
X28.905Y17.221
X28.948Y14.308
X29.134Y20.422
X29.439Y18.771
X30.353Y28.956
X30.448Y11.879
X30.594Y16.523
X30.632Y17.221
X30.954Y12.233
X31.153Y28.956
X33.045Y21.641
X33.249Y19.38
X33.926Y10.048
X34.773Y21.641
X34.891Y9.845
X34.942Y8.88
X35.365Y21.924
X35.763Y27.178
X35.771Y19.896
X35.839Y4.775
X35.941Y22.206
X37.177Y17.846
X37.694Y31.064
X37.821Y19.787
X38.0Y26.0
X38.5Y26.5
X38.803Y9.845
X38.837Y21.869
X39.0Y27.0
X39.307Y22.212
X39.5Y27.5
X39.742Y23.232
X40.437Y40.792
X41.0Y12.0
X41.199Y40.792
X41.683Y15.907
X42.0Y12.0
X43.0Y12.0
X43.07Y10.963
X43.688Y25.108
X44.59Y23.304
X44.612Y24.241
X44.619Y20.704
X44.679Y18.86
X44.755Y19.545
X45.0Y16.0
X46.5Y16.0
X46.85Y30.594
X48.0Y16.0
X48.641Y28.702
X48.946Y22.314
X49.403Y28.702
X49.5Y16.0
X49.657Y24.041
X49.924Y24.727
X50.013Y20.13
X51.0Y16.0
X51.384Y20.764
X52.5Y16.0
X54.0Y16.0
X54.0Y40.843
X54.572Y33.388
X54.661Y32.817
X54.737Y32.207
X54.762Y40.843
X55.448Y32.258
X55.474Y31.388
X55.5Y16.0
X55.516Y30.764
X56.236Y22.288
X56.693Y21.387
X57.0Y16.0
X57.099Y25.933
X57.112Y18.631
X57.5Y32.5
X58.5Y32.5
X58.5Y16.0
T2
X1.5Y32.0
X2.5Y32.0
X4.5Y37.5
X4.5Y36.5
X4.5Y35.5
X5.5Y37.5
X5.5Y36.5
X6.5Y37.5
X6.5Y36.5
X14.216Y8.778
X17.64Y36.91
X19.6Y16.195
X19.905Y21.224
X24.002Y24.026
X24.045Y22.291
X24.299Y19.497
X25.544Y14.265
X28.423Y31.979
X29.87Y31.979
X30.56Y13.922
X35.281Y32.055
X38.837Y32.067
X44.424Y32.043
X47.854Y32.017
T3
X19.397Y43.994
X19.4Y43.174
X19.4Y42.374
X19.555Y40.85
X19.555Y40.088
X20.317Y40.85
X20.32Y40.088
X20.397Y43.994
X20.4Y43.174
X20.4Y42.374
X21.079Y40.85
X21.082Y40.088
X21.397Y43.994
X21.4Y43.174
X21.4Y42.374
X21.841Y40.85
X21.844Y40.088
X22.397Y43.994
X22.4Y43.174
X22.4Y42.374
X22.552Y40.85
X22.555Y40.088
X24.127Y42.07
X24.127Y41.308
X24.127Y40.444
X24.127Y39.631
X24.894Y42.019
X24.894Y41.206
X24.894Y40.393
X24.894Y39.631
X25.694Y42.062
X25.694Y41.25
X25.694Y40.437
X25.694Y39.631
X32.817Y40.582
X32.82Y39.82
X33.0Y44.474
X33.0Y43.574
X33.0Y42.774
X33.528Y40.582
X33.531Y39.82
X34.0Y44.474
X34.0Y43.574
X34.0Y42.774
X34.29Y40.582
X34.293Y39.82
X35.0Y44.474
X35.0Y43.574
X35.0Y42.774
X35.052Y40.582
X35.055Y39.82
X35.817Y40.582
X35.817Y39.82
X36.0Y44.474
X36.0Y43.574
X36.0Y42.774
X37.589Y41.968
X37.589Y41.206
X37.589Y40.342
X37.589Y39.53
X38.356Y41.917
X38.356Y41.104
X38.356Y40.292
X38.356Y39.53
X39.094Y41.962
X39.094Y41.15
X39.094Y40.337
X39.094Y39.531
X46.33Y40.684
X46.332Y39.922
X46.8Y44.674
X46.8Y43.774
X46.8Y42.974
X47.041Y40.684
X47.044Y39.922
X47.8Y44.674
X47.8Y43.774
X47.8Y42.974
X47.803Y40.684
X47.806Y39.922
X48.565Y40.684
X48.568Y39.922
X48.8Y44.674
X48.8Y43.774
X48.8Y42.974
X49.33Y40.684
X49.33Y39.922
X49.8Y44.674
X49.8Y43.774
X49.8Y42.974
X51.127Y42.07
X51.127Y41.308
X51.127Y40.444
X51.127Y39.631
X51.894Y42.062
X51.894Y41.25
X51.894Y40.437
X51.894Y39.631
X52.694Y42.062
X52.694Y41.25
X52.694Y40.437
X52.694Y39.631
T4
X2.6Y55.0
X3.303Y56.697
X3.303Y53.303
X5.0Y57.4
X5.0Y52.6
X6.697Y56.697
X6.697Y53.303
X7.4Y55.0
X2.6Y5.0
X3.303Y6.697
X3.303Y3.303
X5.0Y7.4
X5.0Y2.6
X6.697Y6.697
X6.697Y3.303
X7.4Y5.0
X52.6Y55.0
X53.303Y56.697
X53.303Y53.303
X55.0Y57.4
X55.0Y52.6
X56.697Y56.697
X56.697Y53.303
X57.4Y55.0
X52.6Y5.0
X53.303Y6.697
X53.303Y3.303
X55.0Y7.4
X55.0Y2.6
X56.697Y6.697
X56.697Y3.303
X57.4Y5.0
T6
X16.942Y25.578
X16.942Y24.308
X16.942Y23.038
X16.942Y21.768
X16.942Y20.498
X16.942Y19.228
T7
X14.0Y3.0
X16.0Y3.0
X18.0Y3.0
X20.0Y3.0
X22.0Y3.0
X24.0Y3.0
X29.0Y3.0
X31.0Y3.0
X33.0Y3.0
X35.0Y3.0
T8
X21.037Y57.912
X26.037Y57.912
X9.913Y57.912
X14.913Y57.912
T9
X48.5Y5.04
X48.5Y2.5
X39.5Y3.0
X42.04Y3.0
X44.58Y3.0
T10
X36.691Y57.688
X44.661Y57.661
X49.119Y53.008
X40.825Y53.025
X32.725Y53.025
T11
X5.0Y55.0
X5.0Y5.0
X55.0Y55.0
X55.0Y5.0
T5
G00X1.76Y21.82
M15
G01X2.56Y21.82
M16
G05
G00X1.76Y13.18
M15
G01X2.56Y13.18
M16
G05
G00X5.78Y21.82
M15
G01X6.88Y21.82
M16
G05
G00X5.78Y13.18
M15
G01X6.88Y13.18
M16
G05
T0
M30
