M48
; DRILL file {KiCad (5.1.6)-1} date 01/16/22 14:30:20
; FORMAT={-:-/ absolute / metric / decimal}
; #@! TF.CreationDate,2022-01-16T14:30:20+08:00
; #@! TF.GenerationSoftware,Kicad,Pcbnew,(5.1.6)-1
; #@! TF.FileFunction,Plated,1,2,PTH
FMAT,2
METRIC
T1C0.200
T2C0.300
T3C0.350
T4C0.500
T5C0.600
T6C0.750
T7C0.800
T8C1.000
T9C2.000
T10C3.200
%
G90
G05
T1
X2.0Y36.0
X2.0Y35.0
X2.0Y34.0
X3.5Y37.668
X3.5Y36.779
X6.299Y49.378
X6.299Y48.565
X6.756Y37.516
X7.036Y49.352
X7.163Y48.59
X7.214Y37.744
X7.239Y37.236
X7.595Y42.52
X7.798Y27.483
X7.798Y26.975
X7.798Y26.441
X7.925Y49.327
X7.95Y18.237
X7.976Y48.59
X7.976Y43.104
X8.001Y33.528
X8.001Y32.969
X8.331Y42.443
X8.475Y17.238
X8.5Y24.374
X8.712Y33.528
X8.712Y32.995
X9.5Y10.5
X9.5Y9.0
X10.0Y24.374
X10.617Y30.226
X10.846Y16.688
X11.0Y10.5
X11.0Y9.0
X11.5Y24.374
X11.506Y47.574
X11.557Y48.768
X12.014Y29.718
X12.09Y39.065
X12.116Y39.802
X12.5Y10.5
X12.5Y9.0
X12.7Y29.693
X12.852Y39.827
X12.852Y38.964
X13.0Y24.374
X13.233Y46.05
X13.233Y44.806
X13.233Y43.51
X13.259Y42.24
X13.386Y48.666
X13.411Y47.574
X14.427Y37.262
X14.427Y36.779
X14.5Y24.374
X14.901Y13.198
X15.05Y37.274
X15.075Y36.741
X16.0Y33.0
X16.0Y32.0
X16.0Y31.0
X16.0Y30.0
X16.0Y29.0
X17.0Y34.0
X17.0Y33.0
X17.0Y29.0
X17.343Y9.088
X18.0Y33.0
X18.0Y29.0
X18.076Y15.713
X18.559Y16.119
X19.396Y24.73
X20.143Y24.74
X20.5Y9.0
X20.982Y20.777
X21.0Y32.4
X21.0Y31.374
X21.0Y28.374
X21.0Y27.374
X21.26Y12.014
X21.946Y31.394
X21.996Y10.008
X22.0Y28.374
X22.0Y27.374
X22.0Y9.0
X23.0Y28.374
X23.0Y27.374
X24.232Y29.337
X24.917Y23.139
X25.298Y24.943
X25.39Y20.628
X25.705Y26.213
X25.823Y20.183
X26.162Y23.952
X26.238Y26.797
X26.948Y20.649
X27.026Y40.691
X27.286Y18.793
X27.432Y27.534
X27.457Y15.138
X27.686Y40.691
X27.915Y28.016
X27.996Y18.793
X28.319Y20.189
X28.448Y27.076
X28.575Y20.701
X28.677Y24.689
X28.753Y18.793
X28.905Y17.221
X28.948Y14.308
X29.134Y20.422
X29.439Y18.771
X30.448Y11.879
X30.632Y17.221
X30.954Y12.233
X32.0Y31.374
X32.0Y28.374
X32.0Y27.374
X33.0Y31.374
X33.0Y28.374
X33.0Y27.374
X33.045Y21.641
X33.249Y19.38
X33.926Y10.048
X34.0Y28.374
X34.0Y27.374
X34.265Y31.445
X34.773Y21.641
X34.891Y9.845
X34.942Y8.88
X35.365Y21.924
X35.763Y27.178
X35.771Y19.896
X35.941Y22.206
X36.652Y29.337
X37.177Y17.846
X37.821Y19.787
X38.803Y9.845
X38.837Y21.869
X39.307Y22.212
X39.742Y23.232
X40.437Y40.792
X41.0Y12.0
X41.199Y40.792
X41.683Y15.907
X42.0Y12.0
X43.0Y12.0
X43.07Y10.963
X43.688Y25.552
X44.0Y31.374
X44.59Y23.749
X44.612Y24.686
X44.619Y21.148
X44.679Y19.304
X44.755Y19.99
X45.0Y31.374
X46.0Y31.374
X46.736Y31.344
X48.946Y22.758
X49.098Y29.312
X49.657Y24.486
X49.924Y25.171
X50.013Y20.574
X51.384Y21.209
X54.0Y40.843
X54.585Y33.858
X54.673Y33.287
X54.75Y32.677
X54.762Y40.843
X55.461Y32.728
X55.486Y31.858
X55.529Y31.234
X56.236Y22.733
X56.693Y21.831
X57.099Y26.378
X57.112Y19.075
X58.0Y31.874
X58.5Y16.374
X58.5Y15.0
X58.5Y13.5
X58.5Y12.0
X58.5Y10.5
X59.0Y31.874
T2
X14.216Y8.778
X15.443Y37.998
X17.428Y37.953
X19.6Y16.195
X19.905Y21.224
X22.301Y33.884
X23.089Y32.766
X24.002Y24.026
X24.045Y22.291
X24.299Y19.497
X25.544Y14.265
X28.652Y32.792
X29.997Y32.791
X30.56Y13.922
X34.239Y32.791
X35.408Y32.766
X40.995Y32.742
X42.697Y32.715
X46.482Y32.715
X47.854Y32.715
T3
X19.397Y43.994
X19.4Y43.174
X19.4Y42.374
X19.555Y40.85
X19.555Y40.088
X20.317Y40.85
X20.32Y40.088
X20.397Y43.994
X20.4Y43.174
X20.4Y42.374
X21.079Y40.85
X21.082Y40.088
X21.397Y43.994
X21.4Y43.174
X21.4Y42.374
X21.841Y40.85
X21.844Y40.088
X22.397Y43.994
X22.4Y43.174
X22.4Y42.374
X22.552Y40.85
X22.555Y40.088
X24.127Y42.07
X24.127Y41.308
X24.127Y40.444
X24.127Y39.631
X24.894Y42.019
X24.894Y41.206
X24.894Y40.393
X24.894Y39.631
X25.694Y42.062
X25.694Y41.25
X25.694Y40.437
X25.694Y39.631
X32.817Y40.582
X32.82Y39.82
X33.0Y44.474
X33.0Y43.574
X33.0Y42.774
X33.528Y40.582
X33.531Y39.82
X34.0Y44.474
X34.0Y43.574
X34.0Y42.774
X34.29Y40.582
X34.293Y39.82
X35.0Y44.474
X35.0Y43.574
X35.0Y42.774
X35.052Y40.582
X35.055Y39.82
X35.817Y40.582
X35.817Y39.82
X36.0Y44.474
X36.0Y43.574
X36.0Y42.774
X37.589Y41.968
X37.589Y41.206
X37.589Y40.342
X37.589Y39.53
X38.356Y41.917
X38.356Y41.104
X38.356Y40.292
X38.356Y39.53
X39.094Y41.962
X39.094Y41.15
X39.094Y40.337
X39.094Y39.531
X46.33Y40.684
X46.332Y39.922
X46.8Y44.674
X46.8Y43.774
X46.8Y42.974
X47.041Y40.684
X47.044Y39.922
X47.8Y44.674
X47.8Y43.774
X47.8Y42.974
X47.803Y40.684
X47.806Y39.922
X48.565Y40.684
X48.568Y39.922
X48.8Y44.674
X48.8Y43.774
X48.8Y42.974
X49.33Y40.684
X49.33Y39.922
X49.8Y44.674
X49.8Y43.774
X49.8Y42.974
X51.127Y42.07
X51.127Y41.308
X51.127Y40.444
X51.127Y39.631
X51.894Y42.062
X51.894Y41.25
X51.894Y40.437
X51.894Y39.631
X52.694Y42.062
X52.694Y41.25
X52.694Y40.437
X52.694Y39.631
T4
X2.6Y55.0
X3.303Y56.697
X3.303Y53.303
X5.0Y57.4
X5.0Y52.6
X6.697Y56.697
X6.697Y53.303
X7.4Y55.0
X52.6Y5.0
X53.303Y6.697
X53.303Y3.303
X55.0Y7.4
X55.0Y2.6
X56.697Y6.697
X56.697Y3.303
X57.4Y5.0
X16.883Y20.259
X16.883Y24.323
X52.6Y55.0
X53.303Y56.697
X53.303Y53.303
X55.0Y57.4
X55.0Y52.6
X56.697Y56.697
X56.697Y53.303
X57.4Y55.0
X38.981Y16.856
X16.883Y25.679
X16.883Y21.631
X2.6Y5.0
X3.303Y6.697
X3.303Y3.303
X5.0Y7.4
X5.0Y2.6
X6.697Y6.697
X6.697Y3.303
X7.4Y5.0
X16.883Y18.913
X16.883Y22.977
T6
X16.0Y3.0
X18.0Y3.0
X20.0Y3.0
X22.0Y3.0
X24.0Y3.0
X26.0Y3.0
X31.0Y3.0
X33.0Y3.0
X35.0Y3.0
X37.0Y3.0
T7
X11.338Y58.006
X16.338Y58.006
X43.338Y58.056
X48.338Y58.056
T8
X48.0Y6.0
X48.0Y3.46
T9
X34.036Y57.861
X48.819Y52.883
X23.216Y57.963
X39.065Y52.883
X29.312Y52.883
T10
X5.0Y55.0
X55.0Y5.0
X55.0Y55.0
X5.0Y5.0
T5
G00X1.805Y21.808
M15
G01X2.605Y21.808
M16
G05
G00X1.805Y13.168
M15
G01X2.605Y13.168
M16
G05
G00X5.825Y21.808
M15
G01X6.925Y21.808
M16
G05
G00X5.825Y13.168
M15
G01X6.925Y13.168
M16
G05
T0
M30
