%TF.GenerationSoftware,KiCad,Pcbnew,(5.1.6)-1*%
%TF.CreationDate,2022-01-16T14:30:20+08:00*%
%TF.ProjectId,simple_bldc,73696d70-6c65-45f6-926c-64632e6b6963,1*%
%TF.SameCoordinates,PX6979f40PYa1135a0*%
%TF.FileFunction,Soldermask,Bot*%
%TF.FilePolarity,Negative*%
%FSLAX46Y46*%
G04 Gerber Fmt 4.6, Leading zero omitted, Abs format (unit mm)*
G04 Created by KiCad (PCBNEW (5.1.6)-1) date 2022-01-16 14:30:20*
%MOMM*%
%LPD*%
G01*
G04 APERTURE LIST*
%ADD10C,0.350000*%
G04 APERTURE END LIST*
D10*
G36*
X55933404Y8077026D02*
G01*
X56515767Y7835804D01*
X56515768Y7835803D01*
X57039881Y7485602D01*
X57485602Y7039881D01*
X57612476Y6850000D01*
X57835804Y6515767D01*
X58077026Y5933404D01*
X58200000Y5315174D01*
X58200000Y4684826D01*
X58077026Y4066596D01*
X57835804Y3484233D01*
X57719599Y3310321D01*
X57485602Y2960119D01*
X57039881Y2514398D01*
X56786381Y2345015D01*
X56515767Y2164196D01*
X55933404Y1922974D01*
X55315174Y1800000D01*
X54684826Y1800000D01*
X54066596Y1922974D01*
X53484233Y2164196D01*
X53213619Y2345015D01*
X52960119Y2514398D01*
X52514398Y2960119D01*
X52280401Y3310321D01*
X52164196Y3484233D01*
X51922974Y4066596D01*
X51800000Y4684826D01*
X51800000Y5315174D01*
X51922974Y5933404D01*
X52164196Y6515767D01*
X52387524Y6850000D01*
X52514398Y7039881D01*
X52960119Y7485602D01*
X53484232Y7835803D01*
X53484233Y7835804D01*
X54066596Y8077026D01*
X54684826Y8200000D01*
X55315174Y8200000D01*
X55933404Y8077026D01*
G37*
G36*
X5933404Y8077026D02*
G01*
X6515767Y7835804D01*
X6515768Y7835803D01*
X7039881Y7485602D01*
X7485602Y7039881D01*
X7612476Y6850000D01*
X7835804Y6515767D01*
X8077026Y5933404D01*
X8200000Y5315174D01*
X8200000Y4684826D01*
X8077026Y4066596D01*
X7835804Y3484233D01*
X7719599Y3310321D01*
X7485602Y2960119D01*
X7039881Y2514398D01*
X6786381Y2345015D01*
X6515767Y2164196D01*
X5933404Y1922974D01*
X5315174Y1800000D01*
X4684826Y1800000D01*
X4066596Y1922974D01*
X3484233Y2164196D01*
X3213619Y2345015D01*
X2960119Y2514398D01*
X2514398Y2960119D01*
X2280401Y3310321D01*
X2164196Y3484233D01*
X1922974Y4066596D01*
X1800000Y4684826D01*
X1800000Y5315174D01*
X1922974Y5933404D01*
X2164196Y6515767D01*
X2387524Y6850000D01*
X2514398Y7039881D01*
X2960119Y7485602D01*
X3484232Y7835803D01*
X3484233Y7835804D01*
X4066596Y8077026D01*
X4684826Y8200000D01*
X5315174Y8200000D01*
X5933404Y8077026D01*
G37*
G36*
X33117621Y3866318D02*
G01*
X33230721Y3832010D01*
X33334955Y3776296D01*
X33426317Y3701317D01*
X33501296Y3609955D01*
X33557010Y3505721D01*
X33591318Y3392621D01*
X33600000Y3304474D01*
X33600000Y2695526D01*
X33591318Y2607379D01*
X33557010Y2494279D01*
X33501296Y2390045D01*
X33426317Y2298683D01*
X33334954Y2223704D01*
X33230720Y2167990D01*
X33117620Y2133682D01*
X33000000Y2122097D01*
X32882379Y2133682D01*
X32769279Y2167990D01*
X32665045Y2223704D01*
X32573683Y2298683D01*
X32498704Y2390046D01*
X32442990Y2494280D01*
X32408682Y2607380D01*
X32400000Y2695527D01*
X32400000Y3304474D01*
X32408682Y3392621D01*
X32442990Y3505721D01*
X32498705Y3609955D01*
X32573684Y3701317D01*
X32665046Y3776296D01*
X32769280Y3832010D01*
X32882380Y3866318D01*
X33000000Y3877903D01*
X33117621Y3866318D01*
G37*
G36*
X31117621Y3866318D02*
G01*
X31230721Y3832010D01*
X31334955Y3776296D01*
X31426317Y3701317D01*
X31501296Y3609955D01*
X31557010Y3505721D01*
X31591318Y3392621D01*
X31600000Y3304474D01*
X31600000Y2695526D01*
X31591318Y2607379D01*
X31557010Y2494279D01*
X31501296Y2390045D01*
X31426317Y2298683D01*
X31334954Y2223704D01*
X31230720Y2167990D01*
X31117620Y2133682D01*
X31000000Y2122097D01*
X30882379Y2133682D01*
X30769279Y2167990D01*
X30665045Y2223704D01*
X30573683Y2298683D01*
X30498704Y2390046D01*
X30442990Y2494280D01*
X30408682Y2607380D01*
X30400000Y2695527D01*
X30400000Y3304474D01*
X30408682Y3392621D01*
X30442990Y3505721D01*
X30498705Y3609955D01*
X30573684Y3701317D01*
X30665046Y3776296D01*
X30769280Y3832010D01*
X30882380Y3866318D01*
X31000000Y3877903D01*
X31117621Y3866318D01*
G37*
G36*
X16117621Y3866318D02*
G01*
X16230721Y3832010D01*
X16334955Y3776296D01*
X16426317Y3701317D01*
X16501296Y3609955D01*
X16557010Y3505721D01*
X16591318Y3392621D01*
X16600000Y3304474D01*
X16600000Y2695526D01*
X16591318Y2607379D01*
X16557010Y2494279D01*
X16501296Y2390045D01*
X16426317Y2298683D01*
X16334954Y2223704D01*
X16230720Y2167990D01*
X16117620Y2133682D01*
X16000000Y2122097D01*
X15882379Y2133682D01*
X15769279Y2167990D01*
X15665045Y2223704D01*
X15573683Y2298683D01*
X15498704Y2390046D01*
X15442990Y2494280D01*
X15408682Y2607380D01*
X15400000Y2695527D01*
X15400000Y3304474D01*
X15408682Y3392621D01*
X15442990Y3505721D01*
X15498705Y3609955D01*
X15573684Y3701317D01*
X15665046Y3776296D01*
X15769280Y3832010D01*
X15882380Y3866318D01*
X16000000Y3877903D01*
X16117621Y3866318D01*
G37*
G36*
X24117621Y3866318D02*
G01*
X24230721Y3832010D01*
X24334955Y3776296D01*
X24426317Y3701317D01*
X24501296Y3609955D01*
X24557010Y3505721D01*
X24591318Y3392621D01*
X24600000Y3304474D01*
X24600000Y2695526D01*
X24591318Y2607379D01*
X24557010Y2494279D01*
X24501296Y2390045D01*
X24426317Y2298683D01*
X24334954Y2223704D01*
X24230720Y2167990D01*
X24117620Y2133682D01*
X24000000Y2122097D01*
X23882379Y2133682D01*
X23769279Y2167990D01*
X23665045Y2223704D01*
X23573683Y2298683D01*
X23498704Y2390046D01*
X23442990Y2494280D01*
X23408682Y2607380D01*
X23400000Y2695527D01*
X23400000Y3304474D01*
X23408682Y3392621D01*
X23442990Y3505721D01*
X23498705Y3609955D01*
X23573684Y3701317D01*
X23665046Y3776296D01*
X23769280Y3832010D01*
X23882380Y3866318D01*
X24000000Y3877903D01*
X24117621Y3866318D01*
G37*
G36*
X22117621Y3866318D02*
G01*
X22230721Y3832010D01*
X22334955Y3776296D01*
X22426317Y3701317D01*
X22501296Y3609955D01*
X22557010Y3505721D01*
X22591318Y3392621D01*
X22600000Y3304474D01*
X22600000Y2695526D01*
X22591318Y2607379D01*
X22557010Y2494279D01*
X22501296Y2390045D01*
X22426317Y2298683D01*
X22334954Y2223704D01*
X22230720Y2167990D01*
X22117620Y2133682D01*
X22000000Y2122097D01*
X21882379Y2133682D01*
X21769279Y2167990D01*
X21665045Y2223704D01*
X21573683Y2298683D01*
X21498704Y2390046D01*
X21442990Y2494280D01*
X21408682Y2607380D01*
X21400000Y2695527D01*
X21400000Y3304474D01*
X21408682Y3392621D01*
X21442990Y3505721D01*
X21498705Y3609955D01*
X21573684Y3701317D01*
X21665046Y3776296D01*
X21769280Y3832010D01*
X21882380Y3866318D01*
X22000000Y3877903D01*
X22117621Y3866318D01*
G37*
G36*
X20117621Y3866318D02*
G01*
X20230721Y3832010D01*
X20334955Y3776296D01*
X20426317Y3701317D01*
X20501296Y3609955D01*
X20557010Y3505721D01*
X20591318Y3392621D01*
X20600000Y3304474D01*
X20600000Y2695526D01*
X20591318Y2607379D01*
X20557010Y2494279D01*
X20501296Y2390045D01*
X20426317Y2298683D01*
X20334954Y2223704D01*
X20230720Y2167990D01*
X20117620Y2133682D01*
X20000000Y2122097D01*
X19882379Y2133682D01*
X19769279Y2167990D01*
X19665045Y2223704D01*
X19573683Y2298683D01*
X19498704Y2390046D01*
X19442990Y2494280D01*
X19408682Y2607380D01*
X19400000Y2695527D01*
X19400000Y3304474D01*
X19408682Y3392621D01*
X19442990Y3505721D01*
X19498705Y3609955D01*
X19573684Y3701317D01*
X19665046Y3776296D01*
X19769280Y3832010D01*
X19882380Y3866318D01*
X20000000Y3877903D01*
X20117621Y3866318D01*
G37*
G36*
X18117621Y3866318D02*
G01*
X18230721Y3832010D01*
X18334955Y3776296D01*
X18426317Y3701317D01*
X18501296Y3609955D01*
X18557010Y3505721D01*
X18591318Y3392621D01*
X18600000Y3304474D01*
X18600000Y2695526D01*
X18591318Y2607379D01*
X18557010Y2494279D01*
X18501296Y2390045D01*
X18426317Y2298683D01*
X18334954Y2223704D01*
X18230720Y2167990D01*
X18117620Y2133682D01*
X18000000Y2122097D01*
X17882379Y2133682D01*
X17769279Y2167990D01*
X17665045Y2223704D01*
X17573683Y2298683D01*
X17498704Y2390046D01*
X17442990Y2494280D01*
X17408682Y2607380D01*
X17400000Y2695527D01*
X17400000Y3304474D01*
X17408682Y3392621D01*
X17442990Y3505721D01*
X17498705Y3609955D01*
X17573684Y3701317D01*
X17665046Y3776296D01*
X17769280Y3832010D01*
X17882380Y3866318D01*
X18000000Y3877903D01*
X18117621Y3866318D01*
G37*
G36*
X35117621Y3866318D02*
G01*
X35230721Y3832010D01*
X35334955Y3776296D01*
X35426317Y3701317D01*
X35501296Y3609955D01*
X35557010Y3505721D01*
X35591318Y3392621D01*
X35600000Y3304474D01*
X35600000Y2695526D01*
X35591318Y2607379D01*
X35557010Y2494279D01*
X35501296Y2390045D01*
X35426317Y2298683D01*
X35334954Y2223704D01*
X35230720Y2167990D01*
X35117620Y2133682D01*
X35000000Y2122097D01*
X34882379Y2133682D01*
X34769279Y2167990D01*
X34665045Y2223704D01*
X34573683Y2298683D01*
X34498704Y2390046D01*
X34442990Y2494280D01*
X34408682Y2607380D01*
X34400000Y2695527D01*
X34400000Y3304474D01*
X34408682Y3392621D01*
X34442990Y3505721D01*
X34498705Y3609955D01*
X34573684Y3701317D01*
X34665046Y3776296D01*
X34769280Y3832010D01*
X34882380Y3866318D01*
X35000000Y3877903D01*
X35117621Y3866318D01*
G37*
G36*
X37457345Y3871005D02*
G01*
X37490451Y3860962D01*
X37520964Y3844653D01*
X37547706Y3822706D01*
X37569653Y3795964D01*
X37585962Y3765451D01*
X37596005Y3732345D01*
X37600000Y3691779D01*
X37600000Y2308221D01*
X37596005Y2267655D01*
X37585962Y2234549D01*
X37569653Y2204036D01*
X37547706Y2177294D01*
X37520964Y2155347D01*
X37490451Y2139038D01*
X37457345Y2128995D01*
X37416779Y2125000D01*
X36583221Y2125000D01*
X36542655Y2128995D01*
X36509549Y2139038D01*
X36479036Y2155347D01*
X36452294Y2177294D01*
X36430347Y2204036D01*
X36414038Y2234549D01*
X36403995Y2267655D01*
X36400000Y2308221D01*
X36400000Y3691779D01*
X36403995Y3732345D01*
X36414038Y3765451D01*
X36430347Y3795964D01*
X36452294Y3822706D01*
X36479036Y3844653D01*
X36509549Y3860962D01*
X36542655Y3871005D01*
X36583221Y3875000D01*
X37416779Y3875000D01*
X37457345Y3871005D01*
G37*
G36*
X26457346Y3871005D02*
G01*
X26490451Y3860962D01*
X26520964Y3844653D01*
X26547706Y3822706D01*
X26569653Y3795964D01*
X26585962Y3765451D01*
X26596005Y3732346D01*
X26600000Y3691780D01*
X26600000Y2308220D01*
X26596005Y2267654D01*
X26585962Y2234549D01*
X26569653Y2204036D01*
X26547706Y2177294D01*
X26520964Y2155347D01*
X26490451Y2139038D01*
X26457346Y2128995D01*
X26416780Y2125000D01*
X25583220Y2125000D01*
X25542654Y2128995D01*
X25509549Y2139038D01*
X25479036Y2155347D01*
X25452294Y2177294D01*
X25430347Y2204036D01*
X25414038Y2234549D01*
X25403995Y2267654D01*
X25400000Y2308220D01*
X25400000Y3691780D01*
X25403995Y3732346D01*
X25414038Y3765451D01*
X25430347Y3795964D01*
X25452294Y3822706D01*
X25479036Y3844653D01*
X25509549Y3860962D01*
X25542654Y3871005D01*
X25583220Y3875000D01*
X26416780Y3875000D01*
X26457346Y3871005D01*
G37*
G36*
X48850000Y2610000D02*
G01*
X47150000Y2610000D01*
X47150000Y4310000D01*
X48850000Y4310000D01*
X48850000Y2610000D01*
G37*
G36*
X48247935Y6817336D02*
G01*
X48402624Y6753261D01*
X48402626Y6753260D01*
X48541844Y6660238D01*
X48660238Y6541844D01*
X48753260Y6402626D01*
X48753261Y6402624D01*
X48817336Y6247935D01*
X48850000Y6083719D01*
X48850000Y5916281D01*
X48817336Y5752065D01*
X48753261Y5597376D01*
X48753260Y5597374D01*
X48660238Y5458156D01*
X48541844Y5339762D01*
X48402626Y5246740D01*
X48402625Y5246739D01*
X48402624Y5246739D01*
X48247935Y5182664D01*
X48083719Y5150000D01*
X47916281Y5150000D01*
X47752065Y5182664D01*
X47597376Y5246739D01*
X47597375Y5246739D01*
X47597374Y5246740D01*
X47458156Y5339762D01*
X47339762Y5458156D01*
X47246740Y5597374D01*
X47246739Y5597376D01*
X47182664Y5752065D01*
X47150000Y5916281D01*
X47150000Y6083719D01*
X47182664Y6247935D01*
X47246739Y6402624D01*
X47246740Y6402626D01*
X47339762Y6541844D01*
X47458156Y6660238D01*
X47597374Y6753260D01*
X47597376Y6753261D01*
X47752065Y6817336D01*
X47916281Y6850000D01*
X48083719Y6850000D01*
X48247935Y6817336D01*
G37*
G36*
X6969142Y13615730D02*
G01*
X7013215Y13611389D01*
X7098041Y13585657D01*
X7098043Y13585656D01*
X7176215Y13543872D01*
X7244738Y13487638D01*
X7300971Y13419116D01*
X7342757Y13340941D01*
X7368489Y13256115D01*
X7377177Y13167900D01*
X7368489Y13079685D01*
X7342757Y12994859D01*
X7342756Y12994857D01*
X7300972Y12916685D01*
X7244738Y12848162D01*
X7176215Y12791928D01*
X7098043Y12750144D01*
X7098041Y12750143D01*
X7013215Y12724411D01*
X6969142Y12720070D01*
X6947106Y12717900D01*
X5802894Y12717900D01*
X5780858Y12720070D01*
X5736785Y12724411D01*
X5651959Y12750143D01*
X5651957Y12750144D01*
X5573785Y12791928D01*
X5505262Y12848162D01*
X5449028Y12916685D01*
X5407244Y12994857D01*
X5407243Y12994859D01*
X5381511Y13079685D01*
X5372823Y13167900D01*
X5381511Y13256115D01*
X5407243Y13340941D01*
X5449029Y13419116D01*
X5505262Y13487638D01*
X5573785Y13543872D01*
X5651957Y13585656D01*
X5651959Y13585657D01*
X5736785Y13611389D01*
X5780858Y13615730D01*
X5802894Y13617900D01*
X6947106Y13617900D01*
X6969142Y13615730D01*
G37*
G36*
X2649142Y13615730D02*
G01*
X2693215Y13611389D01*
X2778041Y13585657D01*
X2778043Y13585656D01*
X2856215Y13543872D01*
X2924738Y13487638D01*
X2980971Y13419116D01*
X3022757Y13340941D01*
X3048489Y13256115D01*
X3057177Y13167900D01*
X3048489Y13079685D01*
X3022757Y12994859D01*
X3022756Y12994857D01*
X2980972Y12916685D01*
X2924738Y12848162D01*
X2856215Y12791928D01*
X2778043Y12750144D01*
X2778041Y12750143D01*
X2693215Y12724411D01*
X2649142Y12720070D01*
X2627106Y12717900D01*
X1782894Y12717900D01*
X1760858Y12720070D01*
X1716785Y12724411D01*
X1631959Y12750143D01*
X1631957Y12750144D01*
X1553785Y12791928D01*
X1485262Y12848162D01*
X1429028Y12916685D01*
X1387244Y12994857D01*
X1387243Y12994859D01*
X1361511Y13079685D01*
X1352823Y13167900D01*
X1361511Y13256115D01*
X1387243Y13340941D01*
X1429029Y13419116D01*
X1485262Y13487638D01*
X1553785Y13543872D01*
X1631957Y13585656D01*
X1631959Y13585657D01*
X1716785Y13611389D01*
X1760858Y13615730D01*
X1782894Y13617900D01*
X2627106Y13617900D01*
X2649142Y13615730D01*
G37*
G36*
X5982507Y14886372D02*
G01*
X6037103Y14863757D01*
X6086239Y14830926D01*
X6128026Y14789139D01*
X6160857Y14740003D01*
X6183472Y14685407D01*
X6195000Y14627447D01*
X6195000Y14568353D01*
X6183472Y14510393D01*
X6160857Y14455797D01*
X6128026Y14406661D01*
X6086239Y14364874D01*
X6037103Y14332043D01*
X5982507Y14309428D01*
X5924547Y14297900D01*
X5865453Y14297900D01*
X5807493Y14309428D01*
X5752897Y14332043D01*
X5703761Y14364874D01*
X5661974Y14406661D01*
X5629143Y14455797D01*
X5606528Y14510393D01*
X5595000Y14568353D01*
X5595000Y14627447D01*
X5606528Y14685407D01*
X5629143Y14740003D01*
X5661974Y14789139D01*
X5703761Y14830926D01*
X5752897Y14863757D01*
X5807493Y14886372D01*
X5865453Y14897900D01*
X5924547Y14897900D01*
X5982507Y14886372D01*
G37*
G36*
X39480600Y16355600D02*
G01*
X38480600Y16355600D01*
X38480600Y17355600D01*
X39480600Y17355600D01*
X39480600Y16355600D01*
G37*
G36*
X17382600Y18413000D02*
G01*
X16382600Y18413000D01*
X16382600Y19413000D01*
X17382600Y19413000D01*
X17382600Y18413000D01*
G37*
G36*
X17382600Y19759200D02*
G01*
X16382600Y19759200D01*
X16382600Y20759200D01*
X17382600Y20759200D01*
X17382600Y19759200D01*
G37*
G36*
X5982507Y20666372D02*
G01*
X6037103Y20643757D01*
X6086239Y20610926D01*
X6128026Y20569139D01*
X6160857Y20520003D01*
X6183472Y20465407D01*
X6195000Y20407447D01*
X6195000Y20348353D01*
X6183472Y20290393D01*
X6160857Y20235797D01*
X6128026Y20186661D01*
X6086239Y20144874D01*
X6037103Y20112043D01*
X5982507Y20089428D01*
X5924547Y20077900D01*
X5865453Y20077900D01*
X5807493Y20089428D01*
X5752897Y20112043D01*
X5703761Y20144874D01*
X5661974Y20186661D01*
X5629143Y20235797D01*
X5606528Y20290393D01*
X5595000Y20348353D01*
X5595000Y20407447D01*
X5606528Y20465407D01*
X5629143Y20520003D01*
X5661974Y20569139D01*
X5703761Y20610926D01*
X5752897Y20643757D01*
X5807493Y20666372D01*
X5865453Y20677900D01*
X5924547Y20677900D01*
X5982507Y20666372D01*
G37*
G36*
X17382600Y21130800D02*
G01*
X16382600Y21130800D01*
X16382600Y22130800D01*
X17382600Y22130800D01*
X17382600Y21130800D01*
G37*
G36*
X2649142Y22255730D02*
G01*
X2693215Y22251389D01*
X2778041Y22225657D01*
X2778043Y22225656D01*
X2856215Y22183872D01*
X2924738Y22127638D01*
X2980971Y22059116D01*
X3022757Y21980941D01*
X3048489Y21896115D01*
X3057177Y21807900D01*
X3048489Y21719685D01*
X3022757Y21634859D01*
X3022756Y21634857D01*
X2980972Y21556685D01*
X2924738Y21488162D01*
X2856215Y21431928D01*
X2778043Y21390144D01*
X2778041Y21390143D01*
X2693215Y21364411D01*
X2649142Y21360070D01*
X2627106Y21357900D01*
X1782894Y21357900D01*
X1760858Y21360070D01*
X1716785Y21364411D01*
X1631959Y21390143D01*
X1631957Y21390144D01*
X1553785Y21431928D01*
X1485262Y21488162D01*
X1429028Y21556685D01*
X1387244Y21634857D01*
X1387243Y21634859D01*
X1361511Y21719685D01*
X1352823Y21807900D01*
X1361511Y21896115D01*
X1387243Y21980941D01*
X1429029Y22059116D01*
X1485262Y22127638D01*
X1553785Y22183872D01*
X1631957Y22225656D01*
X1631959Y22225657D01*
X1716785Y22251389D01*
X1760858Y22255730D01*
X1782894Y22257900D01*
X2627106Y22257900D01*
X2649142Y22255730D01*
G37*
G36*
X6969142Y22255730D02*
G01*
X7013215Y22251389D01*
X7098041Y22225657D01*
X7098043Y22225656D01*
X7176215Y22183872D01*
X7244738Y22127638D01*
X7300971Y22059116D01*
X7342757Y21980941D01*
X7368489Y21896115D01*
X7377177Y21807900D01*
X7368489Y21719685D01*
X7342757Y21634859D01*
X7342756Y21634857D01*
X7300972Y21556685D01*
X7244738Y21488162D01*
X7176215Y21431928D01*
X7098043Y21390144D01*
X7098041Y21390143D01*
X7013215Y21364411D01*
X6969142Y21360070D01*
X6947106Y21357900D01*
X5802894Y21357900D01*
X5780858Y21360070D01*
X5736785Y21364411D01*
X5651959Y21390143D01*
X5651957Y21390144D01*
X5573785Y21431928D01*
X5505262Y21488162D01*
X5449028Y21556685D01*
X5407244Y21634857D01*
X5407243Y21634859D01*
X5381511Y21719685D01*
X5372823Y21807900D01*
X5381511Y21896115D01*
X5407243Y21980941D01*
X5449029Y22059116D01*
X5505262Y22127638D01*
X5573785Y22183872D01*
X5651957Y22225656D01*
X5651959Y22225657D01*
X5736785Y22251389D01*
X5780858Y22255730D01*
X5802894Y22257900D01*
X6947106Y22257900D01*
X6969142Y22255730D01*
G37*
G36*
X17382600Y22477000D02*
G01*
X16382600Y22477000D01*
X16382600Y23477000D01*
X17382600Y23477000D01*
X17382600Y22477000D01*
G37*
G36*
X17382600Y23823200D02*
G01*
X16382600Y23823200D01*
X16382600Y24823200D01*
X17382600Y24823200D01*
X17382600Y23823200D01*
G37*
G36*
X17382600Y25179400D02*
G01*
X16382600Y25179400D01*
X16382600Y26179400D01*
X17382600Y26179400D01*
X17382600Y25179400D01*
G37*
G36*
X25181922Y44348761D02*
G01*
X25215457Y44338588D01*
X25246356Y44322072D01*
X25273443Y44299843D01*
X25295672Y44272756D01*
X25312188Y44241857D01*
X25322361Y44208322D01*
X25326400Y44167313D01*
X25326400Y43388287D01*
X25322361Y43347278D01*
X25312188Y43313743D01*
X25295672Y43282844D01*
X25273443Y43255757D01*
X25246356Y43233528D01*
X25215457Y43217012D01*
X25181922Y43206839D01*
X25140913Y43202800D01*
X23711887Y43202800D01*
X23670878Y43206839D01*
X23637343Y43217012D01*
X23606444Y43233528D01*
X23579357Y43255757D01*
X23557128Y43282844D01*
X23540612Y43313743D01*
X23530439Y43347278D01*
X23526400Y43388287D01*
X23526400Y44167313D01*
X23530439Y44208322D01*
X23540612Y44241857D01*
X23557128Y44272756D01*
X23579357Y44299843D01*
X23606444Y44322072D01*
X23637343Y44338588D01*
X23670878Y44348761D01*
X23711887Y44352800D01*
X25140913Y44352800D01*
X25181922Y44348761D01*
G37*
G36*
X31684320Y44348761D02*
G01*
X31717855Y44338588D01*
X31748754Y44322072D01*
X31775841Y44299843D01*
X31798070Y44272756D01*
X31814586Y44241857D01*
X31824759Y44208322D01*
X31828798Y44167313D01*
X31828798Y43388287D01*
X31824759Y43347278D01*
X31814586Y43313743D01*
X31798070Y43282844D01*
X31775841Y43255757D01*
X31748754Y43233528D01*
X31717855Y43217012D01*
X31684320Y43206839D01*
X31643311Y43202800D01*
X30214285Y43202800D01*
X30173276Y43206839D01*
X30139741Y43217012D01*
X30108842Y43233528D01*
X30081755Y43255757D01*
X30059526Y43282844D01*
X30043010Y43313743D01*
X30032837Y43347278D01*
X30028798Y43388287D01*
X30028798Y44167313D01*
X30032837Y44208322D01*
X30043010Y44241857D01*
X30059526Y44272756D01*
X30081755Y44299843D01*
X30108842Y44322072D01*
X30139741Y44338588D01*
X30173276Y44348761D01*
X30214285Y44352800D01*
X31643311Y44352800D01*
X31684320Y44348761D01*
G37*
G36*
X38643922Y44348761D02*
G01*
X38677457Y44338588D01*
X38708356Y44322072D01*
X38735443Y44299843D01*
X38757672Y44272756D01*
X38774188Y44241857D01*
X38784361Y44208322D01*
X38788400Y44167313D01*
X38788400Y43388287D01*
X38784361Y43347278D01*
X38774188Y43313743D01*
X38757672Y43282844D01*
X38735443Y43255757D01*
X38708356Y43233528D01*
X38677457Y43217012D01*
X38643922Y43206839D01*
X38602913Y43202800D01*
X37173887Y43202800D01*
X37132878Y43206839D01*
X37099343Y43217012D01*
X37068444Y43233528D01*
X37041357Y43255757D01*
X37019128Y43282844D01*
X37002612Y43313743D01*
X36992439Y43347278D01*
X36988400Y43388287D01*
X36988400Y44167313D01*
X36992439Y44208322D01*
X37002612Y44241857D01*
X37019128Y44272756D01*
X37041357Y44299843D01*
X37068444Y44322072D01*
X37099343Y44338588D01*
X37132878Y44348761D01*
X37173887Y44352800D01*
X38602913Y44352800D01*
X38643922Y44348761D01*
G37*
G36*
X45146320Y44348761D02*
G01*
X45179855Y44338588D01*
X45210754Y44322072D01*
X45237841Y44299843D01*
X45260070Y44272756D01*
X45276586Y44241857D01*
X45286759Y44208322D01*
X45290798Y44167313D01*
X45290798Y43388287D01*
X45286759Y43347278D01*
X45276586Y43313743D01*
X45260070Y43282844D01*
X45237841Y43255757D01*
X45210754Y43233528D01*
X45179855Y43217012D01*
X45146320Y43206839D01*
X45105311Y43202800D01*
X43676285Y43202800D01*
X43635276Y43206839D01*
X43601741Y43217012D01*
X43570842Y43233528D01*
X43543755Y43255757D01*
X43521526Y43282844D01*
X43505010Y43313743D01*
X43494837Y43347278D01*
X43490798Y43388287D01*
X43490798Y44167313D01*
X43494837Y44208322D01*
X43505010Y44241857D01*
X43521526Y44272756D01*
X43543755Y44299843D01*
X43570842Y44322072D01*
X43601741Y44338588D01*
X43635276Y44348761D01*
X43676285Y44352800D01*
X45105311Y44352800D01*
X45146320Y44348761D01*
G37*
G36*
X27349388Y44348761D02*
G01*
X27382923Y44338588D01*
X27413822Y44322072D01*
X27440909Y44299843D01*
X27463138Y44272756D01*
X27479654Y44241857D01*
X27489827Y44208322D01*
X27493866Y44167313D01*
X27493866Y43388287D01*
X27489827Y43347278D01*
X27479654Y43313743D01*
X27463138Y43282844D01*
X27440909Y43255757D01*
X27413822Y43233528D01*
X27382923Y43217012D01*
X27349388Y43206839D01*
X27308379Y43202800D01*
X25879353Y43202800D01*
X25838344Y43206839D01*
X25804809Y43217012D01*
X25773910Y43233528D01*
X25746823Y43255757D01*
X25724594Y43282844D01*
X25708078Y43313743D01*
X25697905Y43347278D01*
X25693866Y43388287D01*
X25693866Y44167313D01*
X25697905Y44208322D01*
X25708078Y44241857D01*
X25724594Y44272756D01*
X25746823Y44299843D01*
X25773910Y44322072D01*
X25804809Y44338588D01*
X25838344Y44348761D01*
X25879353Y44352800D01*
X27308379Y44352800D01*
X27349388Y44348761D01*
G37*
G36*
X42978854Y44348761D02*
G01*
X43012389Y44338588D01*
X43043288Y44322072D01*
X43070375Y44299843D01*
X43092604Y44272756D01*
X43109120Y44241857D01*
X43119293Y44208322D01*
X43123332Y44167313D01*
X43123332Y43388287D01*
X43119293Y43347278D01*
X43109120Y43313743D01*
X43092604Y43282844D01*
X43070375Y43255757D01*
X43043288Y43233528D01*
X43012389Y43217012D01*
X42978854Y43206839D01*
X42937845Y43202800D01*
X41508819Y43202800D01*
X41467810Y43206839D01*
X41434275Y43217012D01*
X41403376Y43233528D01*
X41376289Y43255757D01*
X41354060Y43282844D01*
X41337544Y43313743D01*
X41327371Y43347278D01*
X41323332Y43388287D01*
X41323332Y44167313D01*
X41327371Y44208322D01*
X41337544Y44241857D01*
X41354060Y44272756D01*
X41376289Y44299843D01*
X41403376Y44322072D01*
X41434275Y44338588D01*
X41467810Y44348761D01*
X41508819Y44352800D01*
X42937845Y44352800D01*
X42978854Y44348761D01*
G37*
G36*
X29516854Y44348761D02*
G01*
X29550389Y44338588D01*
X29581288Y44322072D01*
X29608375Y44299843D01*
X29630604Y44272756D01*
X29647120Y44241857D01*
X29657293Y44208322D01*
X29661332Y44167313D01*
X29661332Y43388287D01*
X29657293Y43347278D01*
X29647120Y43313743D01*
X29630604Y43282844D01*
X29608375Y43255757D01*
X29581288Y43233528D01*
X29550389Y43217012D01*
X29516854Y43206839D01*
X29475845Y43202800D01*
X28046819Y43202800D01*
X28005810Y43206839D01*
X27972275Y43217012D01*
X27941376Y43233528D01*
X27914289Y43255757D01*
X27892060Y43282844D01*
X27875544Y43313743D01*
X27865371Y43347278D01*
X27861332Y43388287D01*
X27861332Y44167313D01*
X27865371Y44208322D01*
X27875544Y44241857D01*
X27892060Y44272756D01*
X27914289Y44299843D01*
X27941376Y44322072D01*
X27972275Y44338588D01*
X28005810Y44348761D01*
X28046819Y44352800D01*
X29475845Y44352800D01*
X29516854Y44348761D01*
G37*
G36*
X40811388Y44348761D02*
G01*
X40844923Y44338588D01*
X40875822Y44322072D01*
X40902909Y44299843D01*
X40925138Y44272756D01*
X40941654Y44241857D01*
X40951827Y44208322D01*
X40955866Y44167313D01*
X40955866Y43388287D01*
X40951827Y43347278D01*
X40941654Y43313743D01*
X40925138Y43282844D01*
X40902909Y43255757D01*
X40875822Y43233528D01*
X40844923Y43217012D01*
X40811388Y43206839D01*
X40770379Y43202800D01*
X39341353Y43202800D01*
X39300344Y43206839D01*
X39266809Y43217012D01*
X39235910Y43233528D01*
X39208823Y43255757D01*
X39186594Y43282844D01*
X39170078Y43313743D01*
X39159905Y43347278D01*
X39155866Y43388287D01*
X39155866Y44167313D01*
X39159905Y44208322D01*
X39170078Y44241857D01*
X39186594Y44272756D01*
X39208823Y44299843D01*
X39235910Y44322072D01*
X39266809Y44338588D01*
X39300344Y44348761D01*
X39341353Y44352800D01*
X40770379Y44352800D01*
X40811388Y44348761D01*
G37*
G36*
X20134322Y45031161D02*
G01*
X20167857Y45020988D01*
X20198756Y45004472D01*
X20225843Y44982243D01*
X20248072Y44955156D01*
X20264588Y44924257D01*
X20274761Y44890722D01*
X20278800Y44849713D01*
X20278800Y43420687D01*
X20274761Y43379678D01*
X20264588Y43346143D01*
X20248072Y43315244D01*
X20225843Y43288157D01*
X20198756Y43265928D01*
X20167857Y43249412D01*
X20134322Y43239239D01*
X20093313Y43235200D01*
X19314287Y43235200D01*
X19273278Y43239239D01*
X19239743Y43249412D01*
X19208844Y43265928D01*
X19181757Y43288157D01*
X19159528Y43315244D01*
X19143012Y43346143D01*
X19132839Y43379678D01*
X19128800Y43420687D01*
X19128800Y44849713D01*
X19132839Y44890722D01*
X19143012Y44924257D01*
X19159528Y44955156D01*
X19181757Y44982243D01*
X19208844Y45004472D01*
X19239743Y45020988D01*
X19273278Y45031161D01*
X19314287Y45035200D01*
X20093313Y45035200D01*
X20134322Y45031161D01*
G37*
G36*
X17184322Y45031161D02*
G01*
X17217857Y45020988D01*
X17248756Y45004472D01*
X17275843Y44982243D01*
X17298072Y44955156D01*
X17314588Y44924257D01*
X17324761Y44890722D01*
X17328800Y44849713D01*
X17328800Y43420687D01*
X17324761Y43379678D01*
X17314588Y43346143D01*
X17298072Y43315244D01*
X17275843Y43288157D01*
X17248756Y43265928D01*
X17217857Y43249412D01*
X17184322Y43239239D01*
X17143313Y43235200D01*
X16364287Y43235200D01*
X16323278Y43239239D01*
X16289743Y43249412D01*
X16258844Y43265928D01*
X16231757Y43288157D01*
X16209528Y43315244D01*
X16193012Y43346143D01*
X16182839Y43379678D01*
X16178800Y43420687D01*
X16178800Y44849713D01*
X16182839Y44890722D01*
X16193012Y44924257D01*
X16209528Y44955156D01*
X16231757Y44982243D01*
X16258844Y45004472D01*
X16289743Y45020988D01*
X16323278Y45031161D01*
X16364287Y45035200D01*
X17143313Y45035200D01*
X17184322Y45031161D01*
G37*
G36*
X53001922Y45031161D02*
G01*
X53035457Y45020988D01*
X53066356Y45004472D01*
X53093443Y44982243D01*
X53115672Y44955156D01*
X53132188Y44924257D01*
X53142361Y44890722D01*
X53146400Y44849713D01*
X53146400Y43420687D01*
X53142361Y43379678D01*
X53132188Y43346143D01*
X53115672Y43315244D01*
X53093443Y43288157D01*
X53066356Y43265928D01*
X53035457Y43249412D01*
X53001922Y43239239D01*
X52960913Y43235200D01*
X52181887Y43235200D01*
X52140878Y43239239D01*
X52107343Y43249412D01*
X52076444Y43265928D01*
X52049357Y43288157D01*
X52027128Y43315244D01*
X52010612Y43346143D01*
X52000439Y43379678D01*
X51996400Y43420687D01*
X51996400Y44849713D01*
X52000439Y44890722D01*
X52010612Y44924257D01*
X52027128Y44955156D01*
X52049357Y44982243D01*
X52076444Y45004472D01*
X52107343Y45020988D01*
X52140878Y45031161D01*
X52181887Y45035200D01*
X52960913Y45035200D01*
X53001922Y45031161D01*
G37*
G36*
X50051922Y45031161D02*
G01*
X50085457Y45020988D01*
X50116356Y45004472D01*
X50143443Y44982243D01*
X50165672Y44955156D01*
X50182188Y44924257D01*
X50192361Y44890722D01*
X50196400Y44849713D01*
X50196400Y43420687D01*
X50192361Y43379678D01*
X50182188Y43346143D01*
X50165672Y43315244D01*
X50143443Y43288157D01*
X50116356Y43265928D01*
X50085457Y43249412D01*
X50051922Y43239239D01*
X50010913Y43235200D01*
X49231887Y43235200D01*
X49190878Y43239239D01*
X49157343Y43249412D01*
X49126444Y43265928D01*
X49099357Y43288157D01*
X49077128Y43315244D01*
X49060612Y43346143D01*
X49050439Y43379678D01*
X49046400Y43420687D01*
X49046400Y44849713D01*
X49050439Y44890722D01*
X49060612Y44924257D01*
X49077128Y44955156D01*
X49099357Y44982243D01*
X49126444Y45004472D01*
X49157343Y45020988D01*
X49190878Y45031161D01*
X49231887Y45035200D01*
X50010913Y45035200D01*
X50051922Y45031161D01*
G37*
G36*
X53001922Y47266361D02*
G01*
X53035457Y47256188D01*
X53066356Y47239672D01*
X53093443Y47217443D01*
X53115672Y47190356D01*
X53132188Y47159457D01*
X53142361Y47125922D01*
X53146400Y47084913D01*
X53146400Y45655887D01*
X53142361Y45614878D01*
X53132188Y45581343D01*
X53115672Y45550444D01*
X53093443Y45523357D01*
X53066356Y45501128D01*
X53035457Y45484612D01*
X53001922Y45474439D01*
X52960913Y45470400D01*
X52181887Y45470400D01*
X52140878Y45474439D01*
X52107343Y45484612D01*
X52076444Y45501128D01*
X52049357Y45523357D01*
X52027128Y45550444D01*
X52010612Y45581343D01*
X52000439Y45614878D01*
X51996400Y45655887D01*
X51996400Y47084913D01*
X52000439Y47125922D01*
X52010612Y47159457D01*
X52027128Y47190356D01*
X52049357Y47217443D01*
X52076444Y47239672D01*
X52107343Y47256188D01*
X52140878Y47266361D01*
X52181887Y47270400D01*
X52960913Y47270400D01*
X53001922Y47266361D01*
G37*
G36*
X50051922Y47266361D02*
G01*
X50085457Y47256188D01*
X50116356Y47239672D01*
X50143443Y47217443D01*
X50165672Y47190356D01*
X50182188Y47159457D01*
X50192361Y47125922D01*
X50196400Y47084913D01*
X50196400Y45655887D01*
X50192361Y45614878D01*
X50182188Y45581343D01*
X50165672Y45550444D01*
X50143443Y45523357D01*
X50116356Y45501128D01*
X50085457Y45484612D01*
X50051922Y45474439D01*
X50010913Y45470400D01*
X49231887Y45470400D01*
X49190878Y45474439D01*
X49157343Y45484612D01*
X49126444Y45501128D01*
X49099357Y45523357D01*
X49077128Y45550444D01*
X49060612Y45581343D01*
X49050439Y45614878D01*
X49046400Y45655887D01*
X49046400Y47084913D01*
X49050439Y47125922D01*
X49060612Y47159457D01*
X49077128Y47190356D01*
X49099357Y47217443D01*
X49126444Y47239672D01*
X49157343Y47256188D01*
X49190878Y47266361D01*
X49231887Y47270400D01*
X50010913Y47270400D01*
X50051922Y47266361D01*
G37*
G36*
X17184322Y47266361D02*
G01*
X17217857Y47256188D01*
X17248756Y47239672D01*
X17275843Y47217443D01*
X17298072Y47190356D01*
X17314588Y47159457D01*
X17324761Y47125922D01*
X17328800Y47084913D01*
X17328800Y45655887D01*
X17324761Y45614878D01*
X17314588Y45581343D01*
X17298072Y45550444D01*
X17275843Y45523357D01*
X17248756Y45501128D01*
X17217857Y45484612D01*
X17184322Y45474439D01*
X17143313Y45470400D01*
X16364287Y45470400D01*
X16323278Y45474439D01*
X16289743Y45484612D01*
X16258844Y45501128D01*
X16231757Y45523357D01*
X16209528Y45550444D01*
X16193012Y45581343D01*
X16182839Y45614878D01*
X16178800Y45655887D01*
X16178800Y47084913D01*
X16182839Y47125922D01*
X16193012Y47159457D01*
X16209528Y47190356D01*
X16231757Y47217443D01*
X16258844Y47239672D01*
X16289743Y47256188D01*
X16323278Y47266361D01*
X16364287Y47270400D01*
X17143313Y47270400D01*
X17184322Y47266361D01*
G37*
G36*
X20134322Y47266361D02*
G01*
X20167857Y47256188D01*
X20198756Y47239672D01*
X20225843Y47217443D01*
X20248072Y47190356D01*
X20264588Y47159457D01*
X20274761Y47125922D01*
X20278800Y47084913D01*
X20278800Y45655887D01*
X20274761Y45614878D01*
X20264588Y45581343D01*
X20248072Y45550444D01*
X20225843Y45523357D01*
X20198756Y45501128D01*
X20167857Y45484612D01*
X20134322Y45474439D01*
X20093313Y45470400D01*
X19314287Y45470400D01*
X19273278Y45474439D01*
X19239743Y45484612D01*
X19208844Y45501128D01*
X19181757Y45523357D01*
X19159528Y45550444D01*
X19143012Y45581343D01*
X19132839Y45614878D01*
X19128800Y45655887D01*
X19128800Y47084913D01*
X19132839Y47125922D01*
X19143012Y47159457D01*
X19159528Y47190356D01*
X19181757Y47217443D01*
X19208844Y47239672D01*
X19239743Y47256188D01*
X19273278Y47266361D01*
X19314287Y47270400D01*
X20093313Y47270400D01*
X20134322Y47266361D01*
G37*
G36*
X31684320Y47298761D02*
G01*
X31717855Y47288588D01*
X31748754Y47272072D01*
X31775841Y47249843D01*
X31798070Y47222756D01*
X31814586Y47191857D01*
X31824759Y47158322D01*
X31828798Y47117313D01*
X31828798Y46338287D01*
X31824759Y46297278D01*
X31814586Y46263743D01*
X31798070Y46232844D01*
X31775841Y46205757D01*
X31748754Y46183528D01*
X31717855Y46167012D01*
X31684320Y46156839D01*
X31643311Y46152800D01*
X30214285Y46152800D01*
X30173276Y46156839D01*
X30139741Y46167012D01*
X30108842Y46183528D01*
X30081755Y46205757D01*
X30059526Y46232844D01*
X30043010Y46263743D01*
X30032837Y46297278D01*
X30028798Y46338287D01*
X30028798Y47117313D01*
X30032837Y47158322D01*
X30043010Y47191857D01*
X30059526Y47222756D01*
X30081755Y47249843D01*
X30108842Y47272072D01*
X30139741Y47288588D01*
X30173276Y47298761D01*
X30214285Y47302800D01*
X31643311Y47302800D01*
X31684320Y47298761D01*
G37*
G36*
X27349388Y47298761D02*
G01*
X27382923Y47288588D01*
X27413822Y47272072D01*
X27440909Y47249843D01*
X27463138Y47222756D01*
X27479654Y47191857D01*
X27489827Y47158322D01*
X27493866Y47117313D01*
X27493866Y46338287D01*
X27489827Y46297278D01*
X27479654Y46263743D01*
X27463138Y46232844D01*
X27440909Y46205757D01*
X27413822Y46183528D01*
X27382923Y46167012D01*
X27349388Y46156839D01*
X27308379Y46152800D01*
X25879353Y46152800D01*
X25838344Y46156839D01*
X25804809Y46167012D01*
X25773910Y46183528D01*
X25746823Y46205757D01*
X25724594Y46232844D01*
X25708078Y46263743D01*
X25697905Y46297278D01*
X25693866Y46338287D01*
X25693866Y47117313D01*
X25697905Y47158322D01*
X25708078Y47191857D01*
X25724594Y47222756D01*
X25746823Y47249843D01*
X25773910Y47272072D01*
X25804809Y47288588D01*
X25838344Y47298761D01*
X25879353Y47302800D01*
X27308379Y47302800D01*
X27349388Y47298761D01*
G37*
G36*
X38643922Y47298761D02*
G01*
X38677457Y47288588D01*
X38708356Y47272072D01*
X38735443Y47249843D01*
X38757672Y47222756D01*
X38774188Y47191857D01*
X38784361Y47158322D01*
X38788400Y47117313D01*
X38788400Y46338287D01*
X38784361Y46297278D01*
X38774188Y46263743D01*
X38757672Y46232844D01*
X38735443Y46205757D01*
X38708356Y46183528D01*
X38677457Y46167012D01*
X38643922Y46156839D01*
X38602913Y46152800D01*
X37173887Y46152800D01*
X37132878Y46156839D01*
X37099343Y46167012D01*
X37068444Y46183528D01*
X37041357Y46205757D01*
X37019128Y46232844D01*
X37002612Y46263743D01*
X36992439Y46297278D01*
X36988400Y46338287D01*
X36988400Y47117313D01*
X36992439Y47158322D01*
X37002612Y47191857D01*
X37019128Y47222756D01*
X37041357Y47249843D01*
X37068444Y47272072D01*
X37099343Y47288588D01*
X37132878Y47298761D01*
X37173887Y47302800D01*
X38602913Y47302800D01*
X38643922Y47298761D01*
G37*
G36*
X45146320Y47298761D02*
G01*
X45179855Y47288588D01*
X45210754Y47272072D01*
X45237841Y47249843D01*
X45260070Y47222756D01*
X45276586Y47191857D01*
X45286759Y47158322D01*
X45290798Y47117313D01*
X45290798Y46338287D01*
X45286759Y46297278D01*
X45276586Y46263743D01*
X45260070Y46232844D01*
X45237841Y46205757D01*
X45210754Y46183528D01*
X45179855Y46167012D01*
X45146320Y46156839D01*
X45105311Y46152800D01*
X43676285Y46152800D01*
X43635276Y46156839D01*
X43601741Y46167012D01*
X43570842Y46183528D01*
X43543755Y46205757D01*
X43521526Y46232844D01*
X43505010Y46263743D01*
X43494837Y46297278D01*
X43490798Y46338287D01*
X43490798Y47117313D01*
X43494837Y47158322D01*
X43505010Y47191857D01*
X43521526Y47222756D01*
X43543755Y47249843D01*
X43570842Y47272072D01*
X43601741Y47288588D01*
X43635276Y47298761D01*
X43676285Y47302800D01*
X45105311Y47302800D01*
X45146320Y47298761D01*
G37*
G36*
X40811388Y47298761D02*
G01*
X40844923Y47288588D01*
X40875822Y47272072D01*
X40902909Y47249843D01*
X40925138Y47222756D01*
X40941654Y47191857D01*
X40951827Y47158322D01*
X40955866Y47117313D01*
X40955866Y46338287D01*
X40951827Y46297278D01*
X40941654Y46263743D01*
X40925138Y46232844D01*
X40902909Y46205757D01*
X40875822Y46183528D01*
X40844923Y46167012D01*
X40811388Y46156839D01*
X40770379Y46152800D01*
X39341353Y46152800D01*
X39300344Y46156839D01*
X39266809Y46167012D01*
X39235910Y46183528D01*
X39208823Y46205757D01*
X39186594Y46232844D01*
X39170078Y46263743D01*
X39159905Y46297278D01*
X39155866Y46338287D01*
X39155866Y47117313D01*
X39159905Y47158322D01*
X39170078Y47191857D01*
X39186594Y47222756D01*
X39208823Y47249843D01*
X39235910Y47272072D01*
X39266809Y47288588D01*
X39300344Y47298761D01*
X39341353Y47302800D01*
X40770379Y47302800D01*
X40811388Y47298761D01*
G37*
G36*
X25181922Y47298761D02*
G01*
X25215457Y47288588D01*
X25246356Y47272072D01*
X25273443Y47249843D01*
X25295672Y47222756D01*
X25312188Y47191857D01*
X25322361Y47158322D01*
X25326400Y47117313D01*
X25326400Y46338287D01*
X25322361Y46297278D01*
X25312188Y46263743D01*
X25295672Y46232844D01*
X25273443Y46205757D01*
X25246356Y46183528D01*
X25215457Y46167012D01*
X25181922Y46156839D01*
X25140913Y46152800D01*
X23711887Y46152800D01*
X23670878Y46156839D01*
X23637343Y46167012D01*
X23606444Y46183528D01*
X23579357Y46205757D01*
X23557128Y46232844D01*
X23540612Y46263743D01*
X23530439Y46297278D01*
X23526400Y46338287D01*
X23526400Y47117313D01*
X23530439Y47158322D01*
X23540612Y47191857D01*
X23557128Y47222756D01*
X23579357Y47249843D01*
X23606444Y47272072D01*
X23637343Y47288588D01*
X23670878Y47298761D01*
X23711887Y47302800D01*
X25140913Y47302800D01*
X25181922Y47298761D01*
G37*
G36*
X29516854Y47298761D02*
G01*
X29550389Y47288588D01*
X29581288Y47272072D01*
X29608375Y47249843D01*
X29630604Y47222756D01*
X29647120Y47191857D01*
X29657293Y47158322D01*
X29661332Y47117313D01*
X29661332Y46338287D01*
X29657293Y46297278D01*
X29647120Y46263743D01*
X29630604Y46232844D01*
X29608375Y46205757D01*
X29581288Y46183528D01*
X29550389Y46167012D01*
X29516854Y46156839D01*
X29475845Y46152800D01*
X28046819Y46152800D01*
X28005810Y46156839D01*
X27972275Y46167012D01*
X27941376Y46183528D01*
X27914289Y46205757D01*
X27892060Y46232844D01*
X27875544Y46263743D01*
X27865371Y46297278D01*
X27861332Y46338287D01*
X27861332Y47117313D01*
X27865371Y47158322D01*
X27875544Y47191857D01*
X27892060Y47222756D01*
X27914289Y47249843D01*
X27941376Y47272072D01*
X27972275Y47288588D01*
X28005810Y47298761D01*
X28046819Y47302800D01*
X29475845Y47302800D01*
X29516854Y47298761D01*
G37*
G36*
X42978854Y47298761D02*
G01*
X43012389Y47288588D01*
X43043288Y47272072D01*
X43070375Y47249843D01*
X43092604Y47222756D01*
X43109120Y47191857D01*
X43119293Y47158322D01*
X43123332Y47117313D01*
X43123332Y46338287D01*
X43119293Y46297278D01*
X43109120Y46263743D01*
X43092604Y46232844D01*
X43070375Y46205757D01*
X43043288Y46183528D01*
X43012389Y46167012D01*
X42978854Y46156839D01*
X42937845Y46152800D01*
X41508819Y46152800D01*
X41467810Y46156839D01*
X41434275Y46167012D01*
X41403376Y46183528D01*
X41376289Y46205757D01*
X41354060Y46232844D01*
X41337544Y46263743D01*
X41327371Y46297278D01*
X41323332Y46338287D01*
X41323332Y47117313D01*
X41327371Y47158322D01*
X41337544Y47191857D01*
X41354060Y47222756D01*
X41376289Y47249843D01*
X41403376Y47272072D01*
X41434275Y47288588D01*
X41467810Y47298761D01*
X41508819Y47302800D01*
X42937845Y47302800D01*
X42978854Y47298761D01*
G37*
G36*
X39338326Y54255900D02*
G01*
X39473565Y54228999D01*
X39728349Y54123464D01*
X39957648Y53970251D01*
X40152651Y53775248D01*
X40305864Y53545949D01*
X40411399Y53291165D01*
X40432264Y53186268D01*
X40459776Y53047959D01*
X40465200Y53020688D01*
X40465200Y52744912D01*
X40411399Y52474435D01*
X40305864Y52219651D01*
X40152651Y51990352D01*
X39957648Y51795349D01*
X39728349Y51642136D01*
X39473565Y51536601D01*
X39338326Y51509700D01*
X39203089Y51482800D01*
X38927311Y51482800D01*
X38792074Y51509700D01*
X38656835Y51536601D01*
X38402051Y51642136D01*
X38172752Y51795349D01*
X37977749Y51990352D01*
X37824536Y52219651D01*
X37719001Y52474435D01*
X37665200Y52744912D01*
X37665200Y53020688D01*
X37670625Y53047959D01*
X37698136Y53186268D01*
X37719001Y53291165D01*
X37824536Y53545949D01*
X37977749Y53775248D01*
X38172752Y53970251D01*
X38402051Y54123464D01*
X38656835Y54228999D01*
X38792074Y54255900D01*
X38927311Y54282800D01*
X39203089Y54282800D01*
X39338326Y54255900D01*
G37*
G36*
X49091926Y54255900D02*
G01*
X49227165Y54228999D01*
X49481949Y54123464D01*
X49711248Y53970251D01*
X49906251Y53775248D01*
X50059464Y53545949D01*
X50164999Y53291165D01*
X50185864Y53186268D01*
X50213376Y53047959D01*
X50218800Y53020688D01*
X50218800Y52744912D01*
X50164999Y52474435D01*
X50059464Y52219651D01*
X49906251Y51990352D01*
X49711248Y51795349D01*
X49481949Y51642136D01*
X49227165Y51536601D01*
X49091926Y51509700D01*
X48956689Y51482800D01*
X48680911Y51482800D01*
X48545674Y51509700D01*
X48410435Y51536601D01*
X48155651Y51642136D01*
X47926352Y51795349D01*
X47731349Y51990352D01*
X47578136Y52219651D01*
X47472601Y52474435D01*
X47418800Y52744912D01*
X47418800Y53020688D01*
X47424225Y53047959D01*
X47451736Y53186268D01*
X47472601Y53291165D01*
X47578136Y53545949D01*
X47731349Y53775248D01*
X47926352Y53970251D01*
X48155651Y54123464D01*
X48410435Y54228999D01*
X48545674Y54255900D01*
X48680911Y54282800D01*
X48956689Y54282800D01*
X49091926Y54255900D01*
G37*
G36*
X29584726Y54255900D02*
G01*
X29719965Y54228999D01*
X29974749Y54123464D01*
X30204048Y53970251D01*
X30399051Y53775248D01*
X30552264Y53545949D01*
X30657799Y53291165D01*
X30678664Y53186268D01*
X30706176Y53047959D01*
X30711600Y53020688D01*
X30711600Y52744912D01*
X30657799Y52474435D01*
X30552264Y52219651D01*
X30399051Y51990352D01*
X30204048Y51795349D01*
X29974749Y51642136D01*
X29719965Y51536601D01*
X29584726Y51509700D01*
X29449489Y51482800D01*
X29173711Y51482800D01*
X29038474Y51509700D01*
X28903235Y51536601D01*
X28648451Y51642136D01*
X28419152Y51795349D01*
X28224149Y51990352D01*
X28070936Y52219651D01*
X27965401Y52474435D01*
X27911600Y52744912D01*
X27911600Y53020688D01*
X27917025Y53047959D01*
X27944536Y53186268D01*
X27965401Y53291165D01*
X28070936Y53545949D01*
X28224149Y53775248D01*
X28419152Y53970251D01*
X28648451Y54123464D01*
X28903235Y54228999D01*
X29038474Y54255900D01*
X29173711Y54282800D01*
X29449489Y54282800D01*
X29584726Y54255900D01*
G37*
G36*
X5933404Y58077026D02*
G01*
X6515767Y57835804D01*
X6592357Y57784628D01*
X7039881Y57485602D01*
X7485602Y57039881D01*
X7595539Y56875348D01*
X7835804Y56515767D01*
X8077026Y55933404D01*
X8200000Y55315174D01*
X8200000Y54684826D01*
X8077026Y54066596D01*
X7835804Y53484233D01*
X7719599Y53310321D01*
X7485602Y52960119D01*
X7039881Y52514398D01*
X6786381Y52345015D01*
X6515767Y52164196D01*
X5933404Y51922974D01*
X5315174Y51800000D01*
X4684826Y51800000D01*
X4066596Y51922974D01*
X3484233Y52164196D01*
X3213619Y52345015D01*
X2960119Y52514398D01*
X2514398Y52960119D01*
X2280401Y53310321D01*
X2164196Y53484233D01*
X1922974Y54066596D01*
X1800000Y54684826D01*
X1800000Y55315174D01*
X1922974Y55933404D01*
X2164196Y56515767D01*
X2404461Y56875348D01*
X2514398Y57039881D01*
X2960119Y57485602D01*
X3407643Y57784628D01*
X3484233Y57835804D01*
X4066596Y58077026D01*
X4684826Y58200000D01*
X5315174Y58200000D01*
X5933404Y58077026D01*
G37*
G36*
X55933404Y58077026D02*
G01*
X56515767Y57835804D01*
X56592357Y57784628D01*
X57039881Y57485602D01*
X57485602Y57039881D01*
X57595539Y56875348D01*
X57835804Y56515767D01*
X58077026Y55933404D01*
X58200000Y55315174D01*
X58200000Y54684826D01*
X58077026Y54066596D01*
X57835804Y53484233D01*
X57719599Y53310321D01*
X57485602Y52960119D01*
X57039881Y52514398D01*
X56786381Y52345015D01*
X56515767Y52164196D01*
X55933404Y51922974D01*
X55315174Y51800000D01*
X54684826Y51800000D01*
X54066596Y51922974D01*
X53484233Y52164196D01*
X53213619Y52345015D01*
X52960119Y52514398D01*
X52514398Y52960119D01*
X52280401Y53310321D01*
X52164196Y53484233D01*
X51922974Y54066596D01*
X51800000Y54684826D01*
X51800000Y55315174D01*
X51922974Y55933404D01*
X52164196Y56515767D01*
X52404461Y56875348D01*
X52514398Y57039881D01*
X52960119Y57485602D01*
X53407643Y57784628D01*
X53484233Y57835804D01*
X54066596Y58077026D01*
X54684826Y58200000D01*
X55315174Y58200000D01*
X55933404Y58077026D01*
G37*
G36*
X34309126Y59234300D02*
G01*
X34444365Y59207399D01*
X34699149Y59101864D01*
X34928448Y58948651D01*
X35123451Y58753648D01*
X35276664Y58524349D01*
X35361880Y58318620D01*
X35382199Y58269564D01*
X35436000Y57999089D01*
X35436000Y57723311D01*
X35422409Y57654985D01*
X35382199Y57452835D01*
X35276664Y57198051D01*
X35123451Y56968752D01*
X34928448Y56773749D01*
X34699149Y56620536D01*
X34444365Y56515001D01*
X34309126Y56488100D01*
X34173889Y56461200D01*
X33898111Y56461200D01*
X33762874Y56488100D01*
X33627635Y56515001D01*
X33372851Y56620536D01*
X33143552Y56773749D01*
X32948549Y56968752D01*
X32795336Y57198051D01*
X32689801Y57452835D01*
X32649591Y57654985D01*
X32636000Y57723311D01*
X32636000Y57999089D01*
X32689801Y58269564D01*
X32710121Y58318620D01*
X32795336Y58524349D01*
X32948549Y58753648D01*
X33143552Y58948651D01*
X33372851Y59101864D01*
X33627635Y59207399D01*
X33762874Y59234300D01*
X33898111Y59261200D01*
X34173889Y59261200D01*
X34309126Y59234300D01*
G37*
G36*
X23488726Y59335900D02*
G01*
X23623965Y59308999D01*
X23878749Y59203464D01*
X24108048Y59050251D01*
X24303051Y58855248D01*
X24456264Y58625949D01*
X24561799Y58371165D01*
X24615600Y58100688D01*
X24615600Y57824912D01*
X24561799Y57554435D01*
X24456264Y57299651D01*
X24303051Y57070352D01*
X24108048Y56875349D01*
X23878749Y56722136D01*
X23623965Y56616601D01*
X23488726Y56589700D01*
X23353489Y56562800D01*
X23077711Y56562800D01*
X22942474Y56589700D01*
X22807235Y56616601D01*
X22552451Y56722136D01*
X22323152Y56875349D01*
X22128149Y57070352D01*
X21974936Y57299651D01*
X21869401Y57554435D01*
X21815600Y57824912D01*
X21815600Y58100688D01*
X21869401Y58371165D01*
X21974936Y58625949D01*
X22128149Y58855248D01*
X22323152Y59050251D01*
X22552451Y59203464D01*
X22807235Y59308999D01*
X22942474Y59335900D01*
X23077711Y59362800D01*
X23353489Y59362800D01*
X23488726Y59335900D01*
G37*
G36*
X16600720Y58871514D02*
G01*
X16639995Y58855246D01*
X16764510Y58803670D01*
X16911917Y58705176D01*
X17037276Y58579817D01*
X17102361Y58482410D01*
X17135771Y58432408D01*
X17203614Y58268620D01*
X17238200Y58094744D01*
X17238200Y57917456D01*
X17203614Y57743580D01*
X17156482Y57629792D01*
X17135770Y57579790D01*
X17037276Y57432383D01*
X16911917Y57307024D01*
X16764510Y57208530D01*
X16764509Y57208529D01*
X16764508Y57208529D01*
X16600720Y57140686D01*
X16426844Y57106100D01*
X16249556Y57106100D01*
X16075680Y57140686D01*
X15911892Y57208529D01*
X15911891Y57208529D01*
X15911890Y57208530D01*
X15764483Y57307024D01*
X15639124Y57432383D01*
X15540630Y57579790D01*
X15519919Y57629792D01*
X15472786Y57743580D01*
X15438200Y57917456D01*
X15438200Y58094744D01*
X15472786Y58268620D01*
X15540629Y58432408D01*
X15574039Y58482410D01*
X15639124Y58579817D01*
X15764483Y58705176D01*
X15911890Y58803670D01*
X16036406Y58855246D01*
X16075680Y58871514D01*
X16249556Y58906100D01*
X16426844Y58906100D01*
X16600720Y58871514D01*
G37*
G36*
X12238200Y57106100D02*
G01*
X10438200Y57106100D01*
X10438200Y58906100D01*
X12238200Y58906100D01*
X12238200Y57106100D01*
G37*
G36*
X48600720Y58921514D02*
G01*
X48760706Y58855246D01*
X48764510Y58853670D01*
X48911917Y58755176D01*
X49037276Y58629817D01*
X49135770Y58482410D01*
X49135771Y58482408D01*
X49203614Y58318620D01*
X49213560Y58268620D01*
X49238200Y58144742D01*
X49238200Y57967458D01*
X49203614Y57793580D01*
X49135770Y57629790D01*
X49037276Y57482383D01*
X48911917Y57357024D01*
X48764510Y57258530D01*
X48764509Y57258529D01*
X48764508Y57258529D01*
X48600720Y57190686D01*
X48426844Y57156100D01*
X48249556Y57156100D01*
X48075680Y57190686D01*
X47911892Y57258529D01*
X47911891Y57258529D01*
X47911890Y57258530D01*
X47764483Y57357024D01*
X47639124Y57482383D01*
X47540630Y57629790D01*
X47472786Y57793580D01*
X47438200Y57967458D01*
X47438200Y58144742D01*
X47462841Y58268620D01*
X47472786Y58318620D01*
X47540629Y58482408D01*
X47540630Y58482410D01*
X47639124Y58629817D01*
X47764483Y58755176D01*
X47911890Y58853670D01*
X47915695Y58855246D01*
X48075680Y58921514D01*
X48249556Y58956100D01*
X48426844Y58956100D01*
X48600720Y58921514D01*
G37*
G36*
X44238200Y57156100D02*
G01*
X42438200Y57156100D01*
X42438200Y58956100D01*
X44238200Y58956100D01*
X44238200Y57156100D01*
G37*
M02*
