%TF.GenerationSoftware,KiCad,Pcbnew,(5.1.6)-1*%
%TF.CreationDate,2022-04-30T17:47:53+08:00*%
%TF.ProjectId,simple_bldc,73696d70-6c65-45f6-926c-64632e6b6963,1*%
%TF.SameCoordinates,PX6979f40PYa1135a0*%
%TF.FileFunction,Soldermask,Bot*%
%TF.FilePolarity,Negative*%
%FSLAX46Y46*%
G04 Gerber Fmt 4.6, Leading zero omitted, Abs format (unit mm)*
G04 Created by KiCad (PCBNEW (5.1.6)-1) date 2022-04-30 17:47:53*
%MOMM*%
%LPD*%
G01*
G04 APERTURE LIST*
%ADD10C,0.350000*%
G04 APERTURE END LIST*
D10*
G36*
X49350000Y1650000D02*
G01*
X47650000Y1650000D01*
X47650000Y3350000D01*
X49350000Y3350000D01*
X49350000Y1650000D01*
G37*
G36*
X55933404Y8077026D02*
G01*
X56515767Y7835804D01*
X56515768Y7835803D01*
X57039881Y7485602D01*
X57485602Y7039881D01*
X57636710Y6813732D01*
X57835804Y6515767D01*
X58077026Y5933404D01*
X58200000Y5315174D01*
X58200000Y4684826D01*
X58077026Y4066596D01*
X57835804Y3484233D01*
X57719599Y3310321D01*
X57485602Y2960119D01*
X57039881Y2514398D01*
X56758263Y2326227D01*
X56515767Y2164196D01*
X55933404Y1922974D01*
X55315174Y1800000D01*
X54684826Y1800000D01*
X54066596Y1922974D01*
X53484233Y2164196D01*
X53241737Y2326227D01*
X52960119Y2514398D01*
X52514398Y2960119D01*
X52280401Y3310321D01*
X52164196Y3484233D01*
X51922974Y4066596D01*
X51800000Y4684826D01*
X51800000Y5315174D01*
X51922974Y5933404D01*
X52164196Y6515767D01*
X52363290Y6813732D01*
X52514398Y7039881D01*
X52960119Y7485602D01*
X53484232Y7835803D01*
X53484233Y7835804D01*
X54066596Y8077026D01*
X54684826Y8200000D01*
X55315174Y8200000D01*
X55933404Y8077026D01*
G37*
G36*
X5933404Y8077026D02*
G01*
X6515767Y7835804D01*
X6515768Y7835803D01*
X7039881Y7485602D01*
X7485602Y7039881D01*
X7636710Y6813732D01*
X7835804Y6515767D01*
X8077026Y5933404D01*
X8200000Y5315174D01*
X8200000Y4684826D01*
X8077026Y4066596D01*
X7835804Y3484233D01*
X7719599Y3310321D01*
X7485602Y2960119D01*
X7039881Y2514398D01*
X6758263Y2326227D01*
X6515767Y2164196D01*
X5933404Y1922974D01*
X5315174Y1800000D01*
X4684826Y1800000D01*
X4066596Y1922974D01*
X3484233Y2164196D01*
X3241737Y2326227D01*
X2960119Y2514398D01*
X2514398Y2960119D01*
X2280401Y3310321D01*
X2164196Y3484233D01*
X1922974Y4066596D01*
X1800000Y4684826D01*
X1800000Y5315174D01*
X1922974Y5933404D01*
X2164196Y6515767D01*
X2363290Y6813732D01*
X2514398Y7039881D01*
X2960119Y7485602D01*
X3484232Y7835803D01*
X3484233Y7835804D01*
X4066596Y8077026D01*
X4684826Y8200000D01*
X5315174Y8200000D01*
X5933404Y8077026D01*
G37*
G36*
X29117621Y3866318D02*
G01*
X29230721Y3832010D01*
X29334955Y3776296D01*
X29426317Y3701317D01*
X29501296Y3609955D01*
X29557010Y3505721D01*
X29591318Y3392621D01*
X29600000Y3304474D01*
X29600000Y2695526D01*
X29591318Y2607379D01*
X29557010Y2494279D01*
X29501296Y2390045D01*
X29426317Y2298683D01*
X29334954Y2223704D01*
X29230720Y2167990D01*
X29117620Y2133682D01*
X29000000Y2122097D01*
X28882379Y2133682D01*
X28769279Y2167990D01*
X28665045Y2223704D01*
X28573683Y2298683D01*
X28498704Y2390046D01*
X28442990Y2494280D01*
X28408682Y2607380D01*
X28400000Y2695527D01*
X28400000Y3304474D01*
X28408682Y3392621D01*
X28442990Y3505721D01*
X28498705Y3609955D01*
X28573684Y3701317D01*
X28665046Y3776296D01*
X28769280Y3832010D01*
X28882380Y3866318D01*
X29000000Y3877903D01*
X29117621Y3866318D01*
G37*
G36*
X31117621Y3866318D02*
G01*
X31230721Y3832010D01*
X31334955Y3776296D01*
X31426317Y3701317D01*
X31501296Y3609955D01*
X31557010Y3505721D01*
X31591318Y3392621D01*
X31600000Y3304474D01*
X31600000Y2695526D01*
X31591318Y2607379D01*
X31557010Y2494279D01*
X31501296Y2390045D01*
X31426317Y2298683D01*
X31334954Y2223704D01*
X31230720Y2167990D01*
X31117620Y2133682D01*
X31000000Y2122097D01*
X30882379Y2133682D01*
X30769279Y2167990D01*
X30665045Y2223704D01*
X30573683Y2298683D01*
X30498704Y2390046D01*
X30442990Y2494280D01*
X30408682Y2607380D01*
X30400000Y2695527D01*
X30400000Y3304474D01*
X30408682Y3392621D01*
X30442990Y3505721D01*
X30498705Y3609955D01*
X30573684Y3701317D01*
X30665046Y3776296D01*
X30769280Y3832010D01*
X30882380Y3866318D01*
X31000000Y3877903D01*
X31117621Y3866318D01*
G37*
G36*
X33117621Y3866318D02*
G01*
X33230721Y3832010D01*
X33334955Y3776296D01*
X33426317Y3701317D01*
X33501296Y3609955D01*
X33557010Y3505721D01*
X33591318Y3392621D01*
X33600000Y3304474D01*
X33600000Y2695526D01*
X33591318Y2607379D01*
X33557010Y2494279D01*
X33501296Y2390045D01*
X33426317Y2298683D01*
X33334954Y2223704D01*
X33230720Y2167990D01*
X33117620Y2133682D01*
X33000000Y2122097D01*
X32882379Y2133682D01*
X32769279Y2167990D01*
X32665045Y2223704D01*
X32573683Y2298683D01*
X32498704Y2390046D01*
X32442990Y2494280D01*
X32408682Y2607380D01*
X32400000Y2695527D01*
X32400000Y3304474D01*
X32408682Y3392621D01*
X32442990Y3505721D01*
X32498705Y3609955D01*
X32573684Y3701317D01*
X32665046Y3776296D01*
X32769280Y3832010D01*
X32882380Y3866318D01*
X33000000Y3877903D01*
X33117621Y3866318D01*
G37*
G36*
X22117621Y3866318D02*
G01*
X22230721Y3832010D01*
X22334955Y3776296D01*
X22426317Y3701317D01*
X22501296Y3609955D01*
X22557010Y3505721D01*
X22591318Y3392621D01*
X22600000Y3304474D01*
X22600000Y2695526D01*
X22591318Y2607379D01*
X22557010Y2494279D01*
X22501296Y2390045D01*
X22426317Y2298683D01*
X22334954Y2223704D01*
X22230720Y2167990D01*
X22117620Y2133682D01*
X22000000Y2122097D01*
X21882379Y2133682D01*
X21769279Y2167990D01*
X21665045Y2223704D01*
X21573683Y2298683D01*
X21498704Y2390046D01*
X21442990Y2494280D01*
X21408682Y2607380D01*
X21400000Y2695527D01*
X21400000Y3304474D01*
X21408682Y3392621D01*
X21442990Y3505721D01*
X21498705Y3609955D01*
X21573684Y3701317D01*
X21665046Y3776296D01*
X21769280Y3832010D01*
X21882380Y3866318D01*
X22000000Y3877903D01*
X22117621Y3866318D01*
G37*
G36*
X14117621Y3866318D02*
G01*
X14230721Y3832010D01*
X14334955Y3776296D01*
X14426317Y3701317D01*
X14501296Y3609955D01*
X14557010Y3505721D01*
X14591318Y3392621D01*
X14600000Y3304474D01*
X14600000Y2695526D01*
X14591318Y2607379D01*
X14557010Y2494279D01*
X14501296Y2390045D01*
X14426317Y2298683D01*
X14334954Y2223704D01*
X14230720Y2167990D01*
X14117620Y2133682D01*
X14000000Y2122097D01*
X13882379Y2133682D01*
X13769279Y2167990D01*
X13665045Y2223704D01*
X13573683Y2298683D01*
X13498704Y2390046D01*
X13442990Y2494280D01*
X13408682Y2607380D01*
X13400000Y2695527D01*
X13400000Y3304474D01*
X13408682Y3392621D01*
X13442990Y3505721D01*
X13498705Y3609955D01*
X13573684Y3701317D01*
X13665046Y3776296D01*
X13769280Y3832010D01*
X13882380Y3866318D01*
X14000000Y3877903D01*
X14117621Y3866318D01*
G37*
G36*
X16117621Y3866318D02*
G01*
X16230721Y3832010D01*
X16334955Y3776296D01*
X16426317Y3701317D01*
X16501296Y3609955D01*
X16557010Y3505721D01*
X16591318Y3392621D01*
X16600000Y3304474D01*
X16600000Y2695526D01*
X16591318Y2607379D01*
X16557010Y2494279D01*
X16501296Y2390045D01*
X16426317Y2298683D01*
X16334954Y2223704D01*
X16230720Y2167990D01*
X16117620Y2133682D01*
X16000000Y2122097D01*
X15882379Y2133682D01*
X15769279Y2167990D01*
X15665045Y2223704D01*
X15573683Y2298683D01*
X15498704Y2390046D01*
X15442990Y2494280D01*
X15408682Y2607380D01*
X15400000Y2695527D01*
X15400000Y3304474D01*
X15408682Y3392621D01*
X15442990Y3505721D01*
X15498705Y3609955D01*
X15573684Y3701317D01*
X15665046Y3776296D01*
X15769280Y3832010D01*
X15882380Y3866318D01*
X16000000Y3877903D01*
X16117621Y3866318D01*
G37*
G36*
X18117621Y3866318D02*
G01*
X18230721Y3832010D01*
X18334955Y3776296D01*
X18426317Y3701317D01*
X18501296Y3609955D01*
X18557010Y3505721D01*
X18591318Y3392621D01*
X18600000Y3304474D01*
X18600000Y2695526D01*
X18591318Y2607379D01*
X18557010Y2494279D01*
X18501296Y2390045D01*
X18426317Y2298683D01*
X18334954Y2223704D01*
X18230720Y2167990D01*
X18117620Y2133682D01*
X18000000Y2122097D01*
X17882379Y2133682D01*
X17769279Y2167990D01*
X17665045Y2223704D01*
X17573683Y2298683D01*
X17498704Y2390046D01*
X17442990Y2494280D01*
X17408682Y2607380D01*
X17400000Y2695527D01*
X17400000Y3304474D01*
X17408682Y3392621D01*
X17442990Y3505721D01*
X17498705Y3609955D01*
X17573684Y3701317D01*
X17665046Y3776296D01*
X17769280Y3832010D01*
X17882380Y3866318D01*
X18000000Y3877903D01*
X18117621Y3866318D01*
G37*
G36*
X20117621Y3866318D02*
G01*
X20230721Y3832010D01*
X20334955Y3776296D01*
X20426317Y3701317D01*
X20501296Y3609955D01*
X20557010Y3505721D01*
X20591318Y3392621D01*
X20600000Y3304474D01*
X20600000Y2695526D01*
X20591318Y2607379D01*
X20557010Y2494279D01*
X20501296Y2390045D01*
X20426317Y2298683D01*
X20334954Y2223704D01*
X20230720Y2167990D01*
X20117620Y2133682D01*
X20000000Y2122097D01*
X19882379Y2133682D01*
X19769279Y2167990D01*
X19665045Y2223704D01*
X19573683Y2298683D01*
X19498704Y2390046D01*
X19442990Y2494280D01*
X19408682Y2607380D01*
X19400000Y2695527D01*
X19400000Y3304474D01*
X19408682Y3392621D01*
X19442990Y3505721D01*
X19498705Y3609955D01*
X19573684Y3701317D01*
X19665046Y3776296D01*
X19769280Y3832010D01*
X19882380Y3866318D01*
X20000000Y3877903D01*
X20117621Y3866318D01*
G37*
G36*
X24457346Y3871005D02*
G01*
X24490451Y3860962D01*
X24520964Y3844653D01*
X24547706Y3822706D01*
X24569653Y3795964D01*
X24585962Y3765451D01*
X24596005Y3732346D01*
X24600000Y3691780D01*
X24600000Y2308220D01*
X24596005Y2267654D01*
X24585962Y2234549D01*
X24569653Y2204036D01*
X24547706Y2177294D01*
X24520964Y2155347D01*
X24490451Y2139038D01*
X24457346Y2128995D01*
X24416780Y2125000D01*
X23583220Y2125000D01*
X23542654Y2128995D01*
X23509549Y2139038D01*
X23479036Y2155347D01*
X23452294Y2177294D01*
X23430347Y2204036D01*
X23414038Y2234549D01*
X23403995Y2267654D01*
X23400000Y2308220D01*
X23400000Y3691780D01*
X23403995Y3732346D01*
X23414038Y3765451D01*
X23430347Y3795964D01*
X23452294Y3822706D01*
X23479036Y3844653D01*
X23509549Y3860962D01*
X23542654Y3871005D01*
X23583220Y3875000D01*
X24416780Y3875000D01*
X24457346Y3871005D01*
G37*
G36*
X35457345Y3871005D02*
G01*
X35490451Y3860962D01*
X35520964Y3844653D01*
X35547706Y3822706D01*
X35569653Y3795964D01*
X35585962Y3765451D01*
X35596005Y3732345D01*
X35600000Y3691779D01*
X35600000Y2308221D01*
X35596005Y2267655D01*
X35585962Y2234549D01*
X35569653Y2204036D01*
X35547706Y2177294D01*
X35520964Y2155347D01*
X35490451Y2139038D01*
X35457345Y2128995D01*
X35416779Y2125000D01*
X34583221Y2125000D01*
X34542655Y2128995D01*
X34509549Y2139038D01*
X34479036Y2155347D01*
X34452294Y2177294D01*
X34430347Y2204036D01*
X34414038Y2234549D01*
X34403995Y2267655D01*
X34400000Y2308221D01*
X34400000Y3691779D01*
X34403995Y3732345D01*
X34414038Y3765451D01*
X34430347Y3795964D01*
X34452294Y3822706D01*
X34479036Y3844653D01*
X34509549Y3860962D01*
X34542655Y3871005D01*
X34583221Y3875000D01*
X35416779Y3875000D01*
X35457345Y3871005D01*
G37*
G36*
X42287935Y3817336D02*
G01*
X42416956Y3763893D01*
X42442626Y3753260D01*
X42581844Y3660238D01*
X42700238Y3541844D01*
X42781905Y3419620D01*
X42793261Y3402624D01*
X42857336Y3247935D01*
X42890000Y3083719D01*
X42890000Y2916281D01*
X42857336Y2752065D01*
X42797405Y2607380D01*
X42793260Y2597374D01*
X42700238Y2458156D01*
X42581844Y2339762D01*
X42442626Y2246740D01*
X42442625Y2246739D01*
X42442624Y2246739D01*
X42287935Y2182664D01*
X42123719Y2150000D01*
X41956281Y2150000D01*
X41792065Y2182664D01*
X41637376Y2246739D01*
X41637375Y2246739D01*
X41637374Y2246740D01*
X41498156Y2339762D01*
X41379762Y2458156D01*
X41286740Y2597374D01*
X41282595Y2607380D01*
X41222664Y2752065D01*
X41190000Y2916281D01*
X41190000Y3083719D01*
X41222664Y3247935D01*
X41286739Y3402624D01*
X41298095Y3419620D01*
X41379762Y3541844D01*
X41498156Y3660238D01*
X41637374Y3753260D01*
X41663044Y3763893D01*
X41792065Y3817336D01*
X41956281Y3850000D01*
X42123719Y3850000D01*
X42287935Y3817336D01*
G37*
G36*
X44827935Y3817336D02*
G01*
X44956956Y3763893D01*
X44982626Y3753260D01*
X45121844Y3660238D01*
X45240238Y3541844D01*
X45321905Y3419620D01*
X45333261Y3402624D01*
X45397336Y3247935D01*
X45430000Y3083719D01*
X45430000Y2916281D01*
X45397336Y2752065D01*
X45337405Y2607380D01*
X45333260Y2597374D01*
X45240238Y2458156D01*
X45121844Y2339762D01*
X44982626Y2246740D01*
X44982625Y2246739D01*
X44982624Y2246739D01*
X44827935Y2182664D01*
X44663719Y2150000D01*
X44496281Y2150000D01*
X44332065Y2182664D01*
X44177376Y2246739D01*
X44177375Y2246739D01*
X44177374Y2246740D01*
X44038156Y2339762D01*
X43919762Y2458156D01*
X43826740Y2597374D01*
X43822595Y2607380D01*
X43762664Y2752065D01*
X43730000Y2916281D01*
X43730000Y3083719D01*
X43762664Y3247935D01*
X43826739Y3402624D01*
X43838095Y3419620D01*
X43919762Y3541844D01*
X44038156Y3660238D01*
X44177374Y3753260D01*
X44203044Y3763893D01*
X44332065Y3817336D01*
X44496281Y3850000D01*
X44663719Y3850000D01*
X44827935Y3817336D01*
G37*
G36*
X40350000Y2150000D02*
G01*
X38650000Y2150000D01*
X38650000Y3850000D01*
X40350000Y3850000D01*
X40350000Y2150000D01*
G37*
G36*
X48747935Y5857336D02*
G01*
X48902624Y5793261D01*
X48902626Y5793260D01*
X49041844Y5700238D01*
X49160238Y5581844D01*
X49253260Y5442626D01*
X49253261Y5442624D01*
X49317336Y5287935D01*
X49350000Y5123719D01*
X49350000Y4956281D01*
X49317336Y4792065D01*
X49256636Y4645525D01*
X49253260Y4637374D01*
X49160238Y4498156D01*
X49041844Y4379762D01*
X48902626Y4286740D01*
X48902625Y4286739D01*
X48902624Y4286739D01*
X48747935Y4222664D01*
X48583719Y4190000D01*
X48416281Y4190000D01*
X48252065Y4222664D01*
X48097376Y4286739D01*
X48097375Y4286739D01*
X48097374Y4286740D01*
X47958156Y4379762D01*
X47839762Y4498156D01*
X47746740Y4637374D01*
X47743364Y4645525D01*
X47682664Y4792065D01*
X47650000Y4956281D01*
X47650000Y5123719D01*
X47682664Y5287935D01*
X47746739Y5442624D01*
X47746740Y5442626D01*
X47839762Y5581844D01*
X47958156Y5700238D01*
X48097374Y5793260D01*
X48097376Y5793261D01*
X48252065Y5857336D01*
X48416281Y5890000D01*
X48583719Y5890000D01*
X48747935Y5857336D01*
G37*
G36*
X2604142Y13627830D02*
G01*
X2648215Y13623489D01*
X2733041Y13597757D01*
X2733043Y13597756D01*
X2811215Y13555972D01*
X2879738Y13499738D01*
X2935971Y13431216D01*
X2977757Y13353041D01*
X3003489Y13268215D01*
X3012177Y13180000D01*
X3003489Y13091785D01*
X2977757Y13006959D01*
X2977756Y13006957D01*
X2935972Y12928785D01*
X2879738Y12860262D01*
X2811215Y12804028D01*
X2733043Y12762244D01*
X2733041Y12762243D01*
X2648215Y12736511D01*
X2604142Y12732170D01*
X2582106Y12730000D01*
X1737894Y12730000D01*
X1715858Y12732170D01*
X1671785Y12736511D01*
X1586959Y12762243D01*
X1586957Y12762244D01*
X1508785Y12804028D01*
X1440262Y12860262D01*
X1384028Y12928785D01*
X1342244Y13006957D01*
X1342243Y13006959D01*
X1316511Y13091785D01*
X1307823Y13180000D01*
X1316511Y13268215D01*
X1342243Y13353041D01*
X1384029Y13431216D01*
X1440262Y13499738D01*
X1508785Y13555972D01*
X1586957Y13597756D01*
X1586959Y13597757D01*
X1671785Y13623489D01*
X1715858Y13627830D01*
X1737894Y13630000D01*
X2582106Y13630000D01*
X2604142Y13627830D01*
G37*
G36*
X6924142Y13627830D02*
G01*
X6968215Y13623489D01*
X7053041Y13597757D01*
X7053043Y13597756D01*
X7131215Y13555972D01*
X7199738Y13499738D01*
X7255971Y13431216D01*
X7297757Y13353041D01*
X7323489Y13268215D01*
X7332177Y13180000D01*
X7323489Y13091785D01*
X7297757Y13006959D01*
X7297756Y13006957D01*
X7255972Y12928785D01*
X7199738Y12860262D01*
X7131215Y12804028D01*
X7053043Y12762244D01*
X7053041Y12762243D01*
X6968215Y12736511D01*
X6924142Y12732170D01*
X6902106Y12730000D01*
X5757894Y12730000D01*
X5735858Y12732170D01*
X5691785Y12736511D01*
X5606959Y12762243D01*
X5606957Y12762244D01*
X5528785Y12804028D01*
X5460262Y12860262D01*
X5404028Y12928785D01*
X5362244Y13006957D01*
X5362243Y13006959D01*
X5336511Y13091785D01*
X5327823Y13180000D01*
X5336511Y13268215D01*
X5362243Y13353041D01*
X5404029Y13431216D01*
X5460262Y13499738D01*
X5528785Y13555972D01*
X5606957Y13597756D01*
X5606959Y13597757D01*
X5691785Y13623489D01*
X5735858Y13627830D01*
X5757894Y13630000D01*
X6902106Y13630000D01*
X6924142Y13627830D01*
G37*
G36*
X5937507Y14898472D02*
G01*
X5992103Y14875857D01*
X6041239Y14843026D01*
X6083026Y14801239D01*
X6115857Y14752103D01*
X6138472Y14697507D01*
X6150000Y14639547D01*
X6150000Y14580453D01*
X6138472Y14522493D01*
X6115857Y14467897D01*
X6083026Y14418761D01*
X6041239Y14376974D01*
X5992103Y14344143D01*
X5937507Y14321528D01*
X5879547Y14310000D01*
X5820453Y14310000D01*
X5762493Y14321528D01*
X5707897Y14344143D01*
X5658761Y14376974D01*
X5616974Y14418761D01*
X5584143Y14467897D01*
X5561528Y14522493D01*
X5550000Y14580453D01*
X5550000Y14639547D01*
X5561528Y14697507D01*
X5584143Y14752103D01*
X5616974Y14801239D01*
X5658761Y14843026D01*
X5707897Y14875857D01*
X5762493Y14898472D01*
X5820453Y14910000D01*
X5879547Y14910000D01*
X5937507Y14898472D01*
G37*
G36*
X17087643Y19708586D02*
G01*
X17087646Y19708585D01*
X17087645Y19708585D01*
X17178639Y19670894D01*
X17219863Y19643349D01*
X17260530Y19616176D01*
X17330176Y19546530D01*
X17384895Y19464637D01*
X17422586Y19373643D01*
X17441800Y19277047D01*
X17441800Y19178553D01*
X17422586Y19081957D01*
X17422585Y19081955D01*
X17384894Y18990961D01*
X17330175Y18909069D01*
X17260531Y18839425D01*
X17178639Y18784706D01*
X17178638Y18784705D01*
X17178637Y18784705D01*
X17087643Y18747014D01*
X16991047Y18727800D01*
X16892553Y18727800D01*
X16795957Y18747014D01*
X16704963Y18784705D01*
X16704962Y18784705D01*
X16704961Y18784706D01*
X16623069Y18839425D01*
X16553425Y18909069D01*
X16498706Y18990961D01*
X16461015Y19081955D01*
X16461014Y19081957D01*
X16441800Y19178553D01*
X16441800Y19277047D01*
X16461014Y19373643D01*
X16498705Y19464637D01*
X16553424Y19546530D01*
X16623070Y19616176D01*
X16663737Y19643349D01*
X16704961Y19670894D01*
X16795955Y19708585D01*
X16795954Y19708585D01*
X16795957Y19708586D01*
X16892553Y19727800D01*
X16991047Y19727800D01*
X17087643Y19708586D01*
G37*
G36*
X17087643Y20978586D02*
G01*
X17087646Y20978585D01*
X17087645Y20978585D01*
X17178639Y20940894D01*
X17219863Y20913349D01*
X17260530Y20886176D01*
X17330176Y20816530D01*
X17384895Y20734637D01*
X17422586Y20643643D01*
X17441800Y20547047D01*
X17441800Y20448553D01*
X17422586Y20351957D01*
X17384895Y20260963D01*
X17330176Y20179070D01*
X17260530Y20109424D01*
X17231460Y20090000D01*
X17178639Y20054706D01*
X17178638Y20054705D01*
X17178637Y20054705D01*
X17087643Y20017014D01*
X16991047Y19997800D01*
X16892553Y19997800D01*
X16795957Y20017014D01*
X16704963Y20054705D01*
X16704962Y20054705D01*
X16704961Y20054706D01*
X16652140Y20090000D01*
X16623070Y20109424D01*
X16553424Y20179070D01*
X16498705Y20260963D01*
X16461014Y20351957D01*
X16441800Y20448553D01*
X16441800Y20547047D01*
X16461014Y20643643D01*
X16498705Y20734637D01*
X16553424Y20816530D01*
X16623070Y20886176D01*
X16663737Y20913349D01*
X16704961Y20940894D01*
X16795955Y20978585D01*
X16795954Y20978585D01*
X16795957Y20978586D01*
X16892553Y20997800D01*
X16991047Y20997800D01*
X17087643Y20978586D01*
G37*
G36*
X5937507Y20678472D02*
G01*
X5992103Y20655857D01*
X6041239Y20623026D01*
X6083026Y20581239D01*
X6115857Y20532103D01*
X6138472Y20477507D01*
X6150000Y20419547D01*
X6150000Y20360453D01*
X6138472Y20302493D01*
X6115857Y20247897D01*
X6083026Y20198761D01*
X6041239Y20156974D01*
X5992103Y20124143D01*
X5937507Y20101528D01*
X5879547Y20090000D01*
X5820453Y20090000D01*
X5762493Y20101528D01*
X5707897Y20124143D01*
X5658761Y20156974D01*
X5616974Y20198761D01*
X5584143Y20247897D01*
X5561528Y20302493D01*
X5550000Y20360453D01*
X5550000Y20419547D01*
X5561528Y20477507D01*
X5584143Y20532103D01*
X5616974Y20581239D01*
X5658761Y20623026D01*
X5707897Y20655857D01*
X5762493Y20678472D01*
X5820453Y20690000D01*
X5879547Y20690000D01*
X5937507Y20678472D01*
G37*
G36*
X17087643Y22248586D02*
G01*
X17178637Y22210895D01*
X17178639Y22210894D01*
X17219863Y22183349D01*
X17260530Y22156176D01*
X17330176Y22086530D01*
X17384895Y22004637D01*
X17422586Y21913643D01*
X17441800Y21817047D01*
X17441800Y21718553D01*
X17422586Y21621957D01*
X17422585Y21621955D01*
X17384894Y21530961D01*
X17330175Y21449069D01*
X17260531Y21379425D01*
X17178639Y21324706D01*
X17178638Y21324705D01*
X17178637Y21324705D01*
X17087643Y21287014D01*
X16991047Y21267800D01*
X16892553Y21267800D01*
X16795957Y21287014D01*
X16704963Y21324705D01*
X16704962Y21324705D01*
X16704961Y21324706D01*
X16623069Y21379425D01*
X16553425Y21449069D01*
X16498706Y21530961D01*
X16461015Y21621955D01*
X16461014Y21621957D01*
X16441800Y21718553D01*
X16441800Y21817047D01*
X16461014Y21913643D01*
X16498705Y22004637D01*
X16553424Y22086530D01*
X16623070Y22156176D01*
X16663737Y22183349D01*
X16704961Y22210894D01*
X16704963Y22210895D01*
X16795957Y22248586D01*
X16892553Y22267800D01*
X16991047Y22267800D01*
X17087643Y22248586D01*
G37*
G36*
X6924142Y22267830D02*
G01*
X6968215Y22263489D01*
X7053041Y22237757D01*
X7053043Y22237756D01*
X7131215Y22195972D01*
X7199738Y22139738D01*
X7255971Y22071216D01*
X7297757Y21993041D01*
X7323489Y21908215D01*
X7332177Y21820000D01*
X7323489Y21731785D01*
X7297757Y21646959D01*
X7297756Y21646957D01*
X7255972Y21568785D01*
X7199738Y21500262D01*
X7131215Y21444028D01*
X7053043Y21402244D01*
X7053041Y21402243D01*
X6968215Y21376511D01*
X6924142Y21372170D01*
X6902106Y21370000D01*
X5757894Y21370000D01*
X5735858Y21372170D01*
X5691785Y21376511D01*
X5606959Y21402243D01*
X5606957Y21402244D01*
X5528785Y21444028D01*
X5460262Y21500262D01*
X5404028Y21568785D01*
X5362244Y21646957D01*
X5362243Y21646959D01*
X5336511Y21731785D01*
X5327823Y21820000D01*
X5336511Y21908215D01*
X5362243Y21993041D01*
X5404029Y22071216D01*
X5460262Y22139738D01*
X5528785Y22195972D01*
X5606957Y22237756D01*
X5606959Y22237757D01*
X5691785Y22263489D01*
X5735858Y22267830D01*
X5757894Y22270000D01*
X6902106Y22270000D01*
X6924142Y22267830D01*
G37*
G36*
X2604142Y22267830D02*
G01*
X2648215Y22263489D01*
X2733041Y22237757D01*
X2733043Y22237756D01*
X2811215Y22195972D01*
X2879738Y22139738D01*
X2935971Y22071216D01*
X2977757Y21993041D01*
X3003489Y21908215D01*
X3012177Y21820000D01*
X3003489Y21731785D01*
X2977757Y21646959D01*
X2977756Y21646957D01*
X2935972Y21568785D01*
X2879738Y21500262D01*
X2811215Y21444028D01*
X2733043Y21402244D01*
X2733041Y21402243D01*
X2648215Y21376511D01*
X2604142Y21372170D01*
X2582106Y21370000D01*
X1737894Y21370000D01*
X1715858Y21372170D01*
X1671785Y21376511D01*
X1586959Y21402243D01*
X1586957Y21402244D01*
X1508785Y21444028D01*
X1440262Y21500262D01*
X1384028Y21568785D01*
X1342244Y21646957D01*
X1342243Y21646959D01*
X1316511Y21731785D01*
X1307823Y21820000D01*
X1316511Y21908215D01*
X1342243Y21993041D01*
X1384029Y22071216D01*
X1440262Y22139738D01*
X1508785Y22195972D01*
X1586957Y22237756D01*
X1586959Y22237757D01*
X1671785Y22263489D01*
X1715858Y22267830D01*
X1737894Y22270000D01*
X2582106Y22270000D01*
X2604142Y22267830D01*
G37*
G36*
X17087643Y23518586D02*
G01*
X17087646Y23518585D01*
X17087645Y23518585D01*
X17178639Y23480894D01*
X17219863Y23453349D01*
X17260530Y23426176D01*
X17330176Y23356530D01*
X17384895Y23274637D01*
X17422586Y23183643D01*
X17441800Y23087047D01*
X17441800Y22988553D01*
X17422586Y22891957D01*
X17422585Y22891955D01*
X17384894Y22800961D01*
X17330175Y22719069D01*
X17260531Y22649425D01*
X17178639Y22594706D01*
X17178638Y22594705D01*
X17178637Y22594705D01*
X17087643Y22557014D01*
X16991047Y22537800D01*
X16892553Y22537800D01*
X16795957Y22557014D01*
X16704963Y22594705D01*
X16704962Y22594705D01*
X16704961Y22594706D01*
X16623069Y22649425D01*
X16553425Y22719069D01*
X16498706Y22800961D01*
X16461015Y22891955D01*
X16461014Y22891957D01*
X16441800Y22988553D01*
X16441800Y23087047D01*
X16461014Y23183643D01*
X16498705Y23274637D01*
X16553424Y23356530D01*
X16623070Y23426176D01*
X16663737Y23453349D01*
X16704961Y23480894D01*
X16795955Y23518585D01*
X16795954Y23518585D01*
X16795957Y23518586D01*
X16892553Y23537800D01*
X16991047Y23537800D01*
X17087643Y23518586D01*
G37*
G36*
X17087643Y24788586D02*
G01*
X17087646Y24788585D01*
X17087645Y24788585D01*
X17178639Y24750894D01*
X17219863Y24723349D01*
X17260530Y24696176D01*
X17330176Y24626530D01*
X17384895Y24544637D01*
X17422586Y24453643D01*
X17441800Y24357047D01*
X17441800Y24258553D01*
X17422586Y24161957D01*
X17422585Y24161955D01*
X17384894Y24070961D01*
X17330175Y23989069D01*
X17260531Y23919425D01*
X17178639Y23864706D01*
X17178638Y23864705D01*
X17178637Y23864705D01*
X17087643Y23827014D01*
X16991047Y23807800D01*
X16892553Y23807800D01*
X16795957Y23827014D01*
X16704963Y23864705D01*
X16704962Y23864705D01*
X16704961Y23864706D01*
X16623069Y23919425D01*
X16553425Y23989069D01*
X16498706Y24070961D01*
X16461015Y24161955D01*
X16461014Y24161957D01*
X16441800Y24258553D01*
X16441800Y24357047D01*
X16461014Y24453643D01*
X16498705Y24544637D01*
X16553424Y24626530D01*
X16623070Y24696176D01*
X16663737Y24723349D01*
X16704961Y24750894D01*
X16795955Y24788585D01*
X16795954Y24788585D01*
X16795957Y24788586D01*
X16892553Y24807800D01*
X16991047Y24807800D01*
X17087643Y24788586D01*
G37*
G36*
X17441800Y25077800D02*
G01*
X16441800Y25077800D01*
X16441800Y26077800D01*
X17441800Y26077800D01*
X17441800Y25077800D01*
G37*
G36*
X18073800Y47032799D02*
G01*
X18076202Y47008413D01*
X18083315Y46984964D01*
X18094866Y46963353D01*
X18110411Y46944411D01*
X18129353Y46928866D01*
X18150964Y46917315D01*
X18174413Y46910202D01*
X18198799Y46907800D01*
X21471300Y46907800D01*
X21471300Y46157800D01*
X20796299Y46157800D01*
X20771913Y46155398D01*
X20748464Y46148285D01*
X20726853Y46136734D01*
X20707911Y46121189D01*
X20692366Y46102247D01*
X20680815Y46080636D01*
X20673702Y46057187D01*
X20671300Y46032801D01*
X20671300Y45762799D01*
X20673702Y45738413D01*
X20680815Y45714964D01*
X20692366Y45693353D01*
X20707911Y45674411D01*
X20726853Y45658866D01*
X20748464Y45647315D01*
X20771913Y45640202D01*
X20796299Y45637800D01*
X21471300Y45637800D01*
X21471300Y44887800D01*
X20796299Y44887800D01*
X20771913Y44885398D01*
X20748464Y44878285D01*
X20726853Y44866734D01*
X20707911Y44851189D01*
X20692366Y44832247D01*
X20680815Y44810636D01*
X20673702Y44787187D01*
X20671300Y44762801D01*
X20671300Y44492799D01*
X20673702Y44468413D01*
X20680815Y44444964D01*
X20692366Y44423353D01*
X20707911Y44404411D01*
X20726853Y44388866D01*
X20748464Y44377315D01*
X20771913Y44370202D01*
X20796299Y44367800D01*
X21471300Y44367800D01*
X21471300Y43617800D01*
X20796299Y43617800D01*
X20771913Y43615398D01*
X20748464Y43608285D01*
X20726853Y43596734D01*
X20707911Y43581189D01*
X20692366Y43562247D01*
X20680815Y43540636D01*
X20673702Y43517187D01*
X20671300Y43492801D01*
X20671300Y43222799D01*
X20673702Y43198413D01*
X20680815Y43174964D01*
X20692366Y43153353D01*
X20707911Y43134411D01*
X20726853Y43118866D01*
X20748464Y43107315D01*
X20771913Y43100202D01*
X20796299Y43097800D01*
X21471300Y43097800D01*
X21471300Y42347800D01*
X18198799Y42347800D01*
X18174413Y42345398D01*
X18150964Y42338285D01*
X18129353Y42326734D01*
X18110411Y42311189D01*
X18094866Y42292247D01*
X18083315Y42270636D01*
X18076202Y42247187D01*
X18073800Y42222801D01*
X18073800Y41847800D01*
X17168800Y41847800D01*
X17168800Y42222801D01*
X17166398Y42247187D01*
X17159285Y42270636D01*
X17147734Y42292247D01*
X17132189Y42311189D01*
X17113247Y42326734D01*
X17091636Y42338285D01*
X17068187Y42345398D01*
X17043801Y42347800D01*
X16971300Y42347800D01*
X16971300Y46907800D01*
X17043801Y46907800D01*
X17068187Y46910202D01*
X17091636Y46917315D01*
X17113247Y46928866D01*
X17132189Y46944411D01*
X17147734Y46963353D01*
X17159285Y46984964D01*
X17166398Y47008413D01*
X17168800Y47032799D01*
X17168800Y47407800D01*
X18073800Y47407800D01*
X18073800Y47032799D01*
G37*
G36*
X15671300Y42347800D02*
G01*
X14571300Y42347800D01*
X14571300Y43097800D01*
X15671300Y43097800D01*
X15671300Y42347800D01*
G37*
G36*
X45146320Y44348761D02*
G01*
X45179855Y44338588D01*
X45210754Y44322072D01*
X45237841Y44299843D01*
X45260070Y44272756D01*
X45276586Y44241857D01*
X45286759Y44208322D01*
X45290798Y44167313D01*
X45290798Y43388287D01*
X45286759Y43347278D01*
X45276586Y43313743D01*
X45260070Y43282844D01*
X45237841Y43255757D01*
X45210754Y43233528D01*
X45179855Y43217012D01*
X45146320Y43206839D01*
X45105311Y43202800D01*
X43676285Y43202800D01*
X43635276Y43206839D01*
X43601741Y43217012D01*
X43570842Y43233528D01*
X43543755Y43255757D01*
X43521526Y43282844D01*
X43505010Y43313743D01*
X43494837Y43347278D01*
X43490798Y43388287D01*
X43490798Y44167313D01*
X43494837Y44208322D01*
X43505010Y44241857D01*
X43521526Y44272756D01*
X43543755Y44299843D01*
X43570842Y44322072D01*
X43601741Y44338588D01*
X43635276Y44348761D01*
X43676285Y44352800D01*
X45105311Y44352800D01*
X45146320Y44348761D01*
G37*
G36*
X40811388Y44348761D02*
G01*
X40844923Y44338588D01*
X40875822Y44322072D01*
X40902909Y44299843D01*
X40925138Y44272756D01*
X40941654Y44241857D01*
X40951827Y44208322D01*
X40955866Y44167313D01*
X40955866Y43388287D01*
X40951827Y43347278D01*
X40941654Y43313743D01*
X40925138Y43282844D01*
X40902909Y43255757D01*
X40875822Y43233528D01*
X40844923Y43217012D01*
X40811388Y43206839D01*
X40770379Y43202800D01*
X39341353Y43202800D01*
X39300344Y43206839D01*
X39266809Y43217012D01*
X39235910Y43233528D01*
X39208823Y43255757D01*
X39186594Y43282844D01*
X39170078Y43313743D01*
X39159905Y43347278D01*
X39155866Y43388287D01*
X39155866Y44167313D01*
X39159905Y44208322D01*
X39170078Y44241857D01*
X39186594Y44272756D01*
X39208823Y44299843D01*
X39235910Y44322072D01*
X39266809Y44338588D01*
X39300344Y44348761D01*
X39341353Y44352800D01*
X40770379Y44352800D01*
X40811388Y44348761D01*
G37*
G36*
X25181922Y44348761D02*
G01*
X25215457Y44338588D01*
X25246356Y44322072D01*
X25273443Y44299843D01*
X25295672Y44272756D01*
X25312188Y44241857D01*
X25322361Y44208322D01*
X25326400Y44167313D01*
X25326400Y43388287D01*
X25322361Y43347278D01*
X25312188Y43313743D01*
X25295672Y43282844D01*
X25273443Y43255757D01*
X25246356Y43233528D01*
X25215457Y43217012D01*
X25181922Y43206839D01*
X25140913Y43202800D01*
X23711887Y43202800D01*
X23670878Y43206839D01*
X23637343Y43217012D01*
X23606444Y43233528D01*
X23579357Y43255757D01*
X23557128Y43282844D01*
X23540612Y43313743D01*
X23530439Y43347278D01*
X23526400Y43388287D01*
X23526400Y44167313D01*
X23530439Y44208322D01*
X23540612Y44241857D01*
X23557128Y44272756D01*
X23579357Y44299843D01*
X23606444Y44322072D01*
X23637343Y44338588D01*
X23670878Y44348761D01*
X23711887Y44352800D01*
X25140913Y44352800D01*
X25181922Y44348761D01*
G37*
G36*
X38643922Y44348761D02*
G01*
X38677457Y44338588D01*
X38708356Y44322072D01*
X38735443Y44299843D01*
X38757672Y44272756D01*
X38774188Y44241857D01*
X38784361Y44208322D01*
X38788400Y44167313D01*
X38788400Y43388287D01*
X38784361Y43347278D01*
X38774188Y43313743D01*
X38757672Y43282844D01*
X38735443Y43255757D01*
X38708356Y43233528D01*
X38677457Y43217012D01*
X38643922Y43206839D01*
X38602913Y43202800D01*
X37173887Y43202800D01*
X37132878Y43206839D01*
X37099343Y43217012D01*
X37068444Y43233528D01*
X37041357Y43255757D01*
X37019128Y43282844D01*
X37002612Y43313743D01*
X36992439Y43347278D01*
X36988400Y43388287D01*
X36988400Y44167313D01*
X36992439Y44208322D01*
X37002612Y44241857D01*
X37019128Y44272756D01*
X37041357Y44299843D01*
X37068444Y44322072D01*
X37099343Y44338588D01*
X37132878Y44348761D01*
X37173887Y44352800D01*
X38602913Y44352800D01*
X38643922Y44348761D01*
G37*
G36*
X42978854Y44348761D02*
G01*
X43012389Y44338588D01*
X43043288Y44322072D01*
X43070375Y44299843D01*
X43092604Y44272756D01*
X43109120Y44241857D01*
X43119293Y44208322D01*
X43123332Y44167313D01*
X43123332Y43388287D01*
X43119293Y43347278D01*
X43109120Y43313743D01*
X43092604Y43282844D01*
X43070375Y43255757D01*
X43043288Y43233528D01*
X43012389Y43217012D01*
X42978854Y43206839D01*
X42937845Y43202800D01*
X41508819Y43202800D01*
X41467810Y43206839D01*
X41434275Y43217012D01*
X41403376Y43233528D01*
X41376289Y43255757D01*
X41354060Y43282844D01*
X41337544Y43313743D01*
X41327371Y43347278D01*
X41323332Y43388287D01*
X41323332Y44167313D01*
X41327371Y44208322D01*
X41337544Y44241857D01*
X41354060Y44272756D01*
X41376289Y44299843D01*
X41403376Y44322072D01*
X41434275Y44338588D01*
X41467810Y44348761D01*
X41508819Y44352800D01*
X42937845Y44352800D01*
X42978854Y44348761D01*
G37*
G36*
X27349388Y44348761D02*
G01*
X27382923Y44338588D01*
X27413822Y44322072D01*
X27440909Y44299843D01*
X27463138Y44272756D01*
X27479654Y44241857D01*
X27489827Y44208322D01*
X27493866Y44167313D01*
X27493866Y43388287D01*
X27489827Y43347278D01*
X27479654Y43313743D01*
X27463138Y43282844D01*
X27440909Y43255757D01*
X27413822Y43233528D01*
X27382923Y43217012D01*
X27349388Y43206839D01*
X27308379Y43202800D01*
X25879353Y43202800D01*
X25838344Y43206839D01*
X25804809Y43217012D01*
X25773910Y43233528D01*
X25746823Y43255757D01*
X25724594Y43282844D01*
X25708078Y43313743D01*
X25697905Y43347278D01*
X25693866Y43388287D01*
X25693866Y44167313D01*
X25697905Y44208322D01*
X25708078Y44241857D01*
X25724594Y44272756D01*
X25746823Y44299843D01*
X25773910Y44322072D01*
X25804809Y44338588D01*
X25838344Y44348761D01*
X25879353Y44352800D01*
X27308379Y44352800D01*
X27349388Y44348761D01*
G37*
G36*
X31684320Y44348761D02*
G01*
X31717855Y44338588D01*
X31748754Y44322072D01*
X31775841Y44299843D01*
X31798070Y44272756D01*
X31814586Y44241857D01*
X31824759Y44208322D01*
X31828798Y44167313D01*
X31828798Y43388287D01*
X31824759Y43347278D01*
X31814586Y43313743D01*
X31798070Y43282844D01*
X31775841Y43255757D01*
X31748754Y43233528D01*
X31717855Y43217012D01*
X31684320Y43206839D01*
X31643311Y43202800D01*
X30214285Y43202800D01*
X30173276Y43206839D01*
X30139741Y43217012D01*
X30108842Y43233528D01*
X30081755Y43255757D01*
X30059526Y43282844D01*
X30043010Y43313743D01*
X30032837Y43347278D01*
X30028798Y43388287D01*
X30028798Y44167313D01*
X30032837Y44208322D01*
X30043010Y44241857D01*
X30059526Y44272756D01*
X30081755Y44299843D01*
X30108842Y44322072D01*
X30139741Y44338588D01*
X30173276Y44348761D01*
X30214285Y44352800D01*
X31643311Y44352800D01*
X31684320Y44348761D01*
G37*
G36*
X29516854Y44348761D02*
G01*
X29550389Y44338588D01*
X29581288Y44322072D01*
X29608375Y44299843D01*
X29630604Y44272756D01*
X29647120Y44241857D01*
X29657293Y44208322D01*
X29661332Y44167313D01*
X29661332Y43388287D01*
X29657293Y43347278D01*
X29647120Y43313743D01*
X29630604Y43282844D01*
X29608375Y43255757D01*
X29581288Y43233528D01*
X29550389Y43217012D01*
X29516854Y43206839D01*
X29475845Y43202800D01*
X28046819Y43202800D01*
X28005810Y43206839D01*
X27972275Y43217012D01*
X27941376Y43233528D01*
X27914289Y43255757D01*
X27892060Y43282844D01*
X27875544Y43313743D01*
X27865371Y43347278D01*
X27861332Y43388287D01*
X27861332Y44167313D01*
X27865371Y44208322D01*
X27875544Y44241857D01*
X27892060Y44272756D01*
X27914289Y44299843D01*
X27941376Y44322072D01*
X27972275Y44338588D01*
X28005810Y44348761D01*
X28046819Y44352800D01*
X29475845Y44352800D01*
X29516854Y44348761D01*
G37*
G36*
X50051922Y45031161D02*
G01*
X50085457Y45020988D01*
X50116356Y45004472D01*
X50143443Y44982243D01*
X50165672Y44955156D01*
X50182188Y44924257D01*
X50192361Y44890722D01*
X50196400Y44849713D01*
X50196400Y43420687D01*
X50192361Y43379678D01*
X50182188Y43346143D01*
X50165672Y43315244D01*
X50143443Y43288157D01*
X50116356Y43265928D01*
X50085457Y43249412D01*
X50051922Y43239239D01*
X50010913Y43235200D01*
X49231887Y43235200D01*
X49190878Y43239239D01*
X49157343Y43249412D01*
X49126444Y43265928D01*
X49099357Y43288157D01*
X49077128Y43315244D01*
X49060612Y43346143D01*
X49050439Y43379678D01*
X49046400Y43420687D01*
X49046400Y44849713D01*
X49050439Y44890722D01*
X49060612Y44924257D01*
X49077128Y44955156D01*
X49099357Y44982243D01*
X49126444Y45004472D01*
X49157343Y45020988D01*
X49190878Y45031161D01*
X49231887Y45035200D01*
X50010913Y45035200D01*
X50051922Y45031161D01*
G37*
G36*
X53001922Y45031161D02*
G01*
X53035457Y45020988D01*
X53066356Y45004472D01*
X53093443Y44982243D01*
X53115672Y44955156D01*
X53132188Y44924257D01*
X53142361Y44890722D01*
X53146400Y44849713D01*
X53146400Y43420687D01*
X53142361Y43379678D01*
X53132188Y43346143D01*
X53115672Y43315244D01*
X53093443Y43288157D01*
X53066356Y43265928D01*
X53035457Y43249412D01*
X53001922Y43239239D01*
X52960913Y43235200D01*
X52181887Y43235200D01*
X52140878Y43239239D01*
X52107343Y43249412D01*
X52076444Y43265928D01*
X52049357Y43288157D01*
X52027128Y43315244D01*
X52010612Y43346143D01*
X52000439Y43379678D01*
X51996400Y43420687D01*
X51996400Y44849713D01*
X52000439Y44890722D01*
X52010612Y44924257D01*
X52027128Y44955156D01*
X52049357Y44982243D01*
X52076444Y45004472D01*
X52107343Y45020988D01*
X52140878Y45031161D01*
X52181887Y45035200D01*
X52960913Y45035200D01*
X53001922Y45031161D01*
G37*
G36*
X15671300Y43617800D02*
G01*
X14571300Y43617800D01*
X14571300Y44367800D01*
X15671300Y44367800D01*
X15671300Y43617800D01*
G37*
G36*
X15671300Y44887800D02*
G01*
X14571300Y44887800D01*
X14571300Y45637800D01*
X15671300Y45637800D01*
X15671300Y44887800D01*
G37*
G36*
X53001922Y47266361D02*
G01*
X53035457Y47256188D01*
X53066356Y47239672D01*
X53093443Y47217443D01*
X53115672Y47190356D01*
X53132188Y47159457D01*
X53142361Y47125922D01*
X53146400Y47084913D01*
X53146400Y45655887D01*
X53142361Y45614878D01*
X53132188Y45581343D01*
X53115672Y45550444D01*
X53093443Y45523357D01*
X53066356Y45501128D01*
X53035457Y45484612D01*
X53001922Y45474439D01*
X52960913Y45470400D01*
X52181887Y45470400D01*
X52140878Y45474439D01*
X52107343Y45484612D01*
X52076444Y45501128D01*
X52049357Y45523357D01*
X52027128Y45550444D01*
X52010612Y45581343D01*
X52000439Y45614878D01*
X51996400Y45655887D01*
X51996400Y47084913D01*
X52000439Y47125922D01*
X52010612Y47159457D01*
X52027128Y47190356D01*
X52049357Y47217443D01*
X52076444Y47239672D01*
X52107343Y47256188D01*
X52140878Y47266361D01*
X52181887Y47270400D01*
X52960913Y47270400D01*
X53001922Y47266361D01*
G37*
G36*
X50051922Y47266361D02*
G01*
X50085457Y47256188D01*
X50116356Y47239672D01*
X50143443Y47217443D01*
X50165672Y47190356D01*
X50182188Y47159457D01*
X50192361Y47125922D01*
X50196400Y47084913D01*
X50196400Y45655887D01*
X50192361Y45614878D01*
X50182188Y45581343D01*
X50165672Y45550444D01*
X50143443Y45523357D01*
X50116356Y45501128D01*
X50085457Y45484612D01*
X50051922Y45474439D01*
X50010913Y45470400D01*
X49231887Y45470400D01*
X49190878Y45474439D01*
X49157343Y45484612D01*
X49126444Y45501128D01*
X49099357Y45523357D01*
X49077128Y45550444D01*
X49060612Y45581343D01*
X49050439Y45614878D01*
X49046400Y45655887D01*
X49046400Y47084913D01*
X49050439Y47125922D01*
X49060612Y47159457D01*
X49077128Y47190356D01*
X49099357Y47217443D01*
X49126444Y47239672D01*
X49157343Y47256188D01*
X49190878Y47266361D01*
X49231887Y47270400D01*
X50010913Y47270400D01*
X50051922Y47266361D01*
G37*
G36*
X40811388Y47298761D02*
G01*
X40844923Y47288588D01*
X40875822Y47272072D01*
X40902909Y47249843D01*
X40925138Y47222756D01*
X40941654Y47191857D01*
X40951827Y47158322D01*
X40955866Y47117313D01*
X40955866Y46338287D01*
X40951827Y46297278D01*
X40941654Y46263743D01*
X40925138Y46232844D01*
X40902909Y46205757D01*
X40875822Y46183528D01*
X40844923Y46167012D01*
X40811388Y46156839D01*
X40770379Y46152800D01*
X39341353Y46152800D01*
X39300344Y46156839D01*
X39266809Y46167012D01*
X39235910Y46183528D01*
X39208823Y46205757D01*
X39186594Y46232844D01*
X39170078Y46263743D01*
X39159905Y46297278D01*
X39155866Y46338287D01*
X39155866Y47117313D01*
X39159905Y47158322D01*
X39170078Y47191857D01*
X39186594Y47222756D01*
X39208823Y47249843D01*
X39235910Y47272072D01*
X39266809Y47288588D01*
X39300344Y47298761D01*
X39341353Y47302800D01*
X40770379Y47302800D01*
X40811388Y47298761D01*
G37*
G36*
X45146320Y47298761D02*
G01*
X45179855Y47288588D01*
X45210754Y47272072D01*
X45237841Y47249843D01*
X45260070Y47222756D01*
X45276586Y47191857D01*
X45286759Y47158322D01*
X45290798Y47117313D01*
X45290798Y46338287D01*
X45286759Y46297278D01*
X45276586Y46263743D01*
X45260070Y46232844D01*
X45237841Y46205757D01*
X45210754Y46183528D01*
X45179855Y46167012D01*
X45146320Y46156839D01*
X45105311Y46152800D01*
X43676285Y46152800D01*
X43635276Y46156839D01*
X43601741Y46167012D01*
X43570842Y46183528D01*
X43543755Y46205757D01*
X43521526Y46232844D01*
X43505010Y46263743D01*
X43494837Y46297278D01*
X43490798Y46338287D01*
X43490798Y47117313D01*
X43494837Y47158322D01*
X43505010Y47191857D01*
X43521526Y47222756D01*
X43543755Y47249843D01*
X43570842Y47272072D01*
X43601741Y47288588D01*
X43635276Y47298761D01*
X43676285Y47302800D01*
X45105311Y47302800D01*
X45146320Y47298761D01*
G37*
G36*
X29516854Y47298761D02*
G01*
X29550389Y47288588D01*
X29581288Y47272072D01*
X29608375Y47249843D01*
X29630604Y47222756D01*
X29647120Y47191857D01*
X29657293Y47158322D01*
X29661332Y47117313D01*
X29661332Y46338287D01*
X29657293Y46297278D01*
X29647120Y46263743D01*
X29630604Y46232844D01*
X29608375Y46205757D01*
X29581288Y46183528D01*
X29550389Y46167012D01*
X29516854Y46156839D01*
X29475845Y46152800D01*
X28046819Y46152800D01*
X28005810Y46156839D01*
X27972275Y46167012D01*
X27941376Y46183528D01*
X27914289Y46205757D01*
X27892060Y46232844D01*
X27875544Y46263743D01*
X27865371Y46297278D01*
X27861332Y46338287D01*
X27861332Y47117313D01*
X27865371Y47158322D01*
X27875544Y47191857D01*
X27892060Y47222756D01*
X27914289Y47249843D01*
X27941376Y47272072D01*
X27972275Y47288588D01*
X28005810Y47298761D01*
X28046819Y47302800D01*
X29475845Y47302800D01*
X29516854Y47298761D01*
G37*
G36*
X42978854Y47298761D02*
G01*
X43012389Y47288588D01*
X43043288Y47272072D01*
X43070375Y47249843D01*
X43092604Y47222756D01*
X43109120Y47191857D01*
X43119293Y47158322D01*
X43123332Y47117313D01*
X43123332Y46338287D01*
X43119293Y46297278D01*
X43109120Y46263743D01*
X43092604Y46232844D01*
X43070375Y46205757D01*
X43043288Y46183528D01*
X43012389Y46167012D01*
X42978854Y46156839D01*
X42937845Y46152800D01*
X41508819Y46152800D01*
X41467810Y46156839D01*
X41434275Y46167012D01*
X41403376Y46183528D01*
X41376289Y46205757D01*
X41354060Y46232844D01*
X41337544Y46263743D01*
X41327371Y46297278D01*
X41323332Y46338287D01*
X41323332Y47117313D01*
X41327371Y47158322D01*
X41337544Y47191857D01*
X41354060Y47222756D01*
X41376289Y47249843D01*
X41403376Y47272072D01*
X41434275Y47288588D01*
X41467810Y47298761D01*
X41508819Y47302800D01*
X42937845Y47302800D01*
X42978854Y47298761D01*
G37*
G36*
X31684320Y47298761D02*
G01*
X31717855Y47288588D01*
X31748754Y47272072D01*
X31775841Y47249843D01*
X31798070Y47222756D01*
X31814586Y47191857D01*
X31824759Y47158322D01*
X31828798Y47117313D01*
X31828798Y46338287D01*
X31824759Y46297278D01*
X31814586Y46263743D01*
X31798070Y46232844D01*
X31775841Y46205757D01*
X31748754Y46183528D01*
X31717855Y46167012D01*
X31684320Y46156839D01*
X31643311Y46152800D01*
X30214285Y46152800D01*
X30173276Y46156839D01*
X30139741Y46167012D01*
X30108842Y46183528D01*
X30081755Y46205757D01*
X30059526Y46232844D01*
X30043010Y46263743D01*
X30032837Y46297278D01*
X30028798Y46338287D01*
X30028798Y47117313D01*
X30032837Y47158322D01*
X30043010Y47191857D01*
X30059526Y47222756D01*
X30081755Y47249843D01*
X30108842Y47272072D01*
X30139741Y47288588D01*
X30173276Y47298761D01*
X30214285Y47302800D01*
X31643311Y47302800D01*
X31684320Y47298761D01*
G37*
G36*
X27349388Y47298761D02*
G01*
X27382923Y47288588D01*
X27413822Y47272072D01*
X27440909Y47249843D01*
X27463138Y47222756D01*
X27479654Y47191857D01*
X27489827Y47158322D01*
X27493866Y47117313D01*
X27493866Y46338287D01*
X27489827Y46297278D01*
X27479654Y46263743D01*
X27463138Y46232844D01*
X27440909Y46205757D01*
X27413822Y46183528D01*
X27382923Y46167012D01*
X27349388Y46156839D01*
X27308379Y46152800D01*
X25879353Y46152800D01*
X25838344Y46156839D01*
X25804809Y46167012D01*
X25773910Y46183528D01*
X25746823Y46205757D01*
X25724594Y46232844D01*
X25708078Y46263743D01*
X25697905Y46297278D01*
X25693866Y46338287D01*
X25693866Y47117313D01*
X25697905Y47158322D01*
X25708078Y47191857D01*
X25724594Y47222756D01*
X25746823Y47249843D01*
X25773910Y47272072D01*
X25804809Y47288588D01*
X25838344Y47298761D01*
X25879353Y47302800D01*
X27308379Y47302800D01*
X27349388Y47298761D01*
G37*
G36*
X38643922Y47298761D02*
G01*
X38677457Y47288588D01*
X38708356Y47272072D01*
X38735443Y47249843D01*
X38757672Y47222756D01*
X38774188Y47191857D01*
X38784361Y47158322D01*
X38788400Y47117313D01*
X38788400Y46338287D01*
X38784361Y46297278D01*
X38774188Y46263743D01*
X38757672Y46232844D01*
X38735443Y46205757D01*
X38708356Y46183528D01*
X38677457Y46167012D01*
X38643922Y46156839D01*
X38602913Y46152800D01*
X37173887Y46152800D01*
X37132878Y46156839D01*
X37099343Y46167012D01*
X37068444Y46183528D01*
X37041357Y46205757D01*
X37019128Y46232844D01*
X37002612Y46263743D01*
X36992439Y46297278D01*
X36988400Y46338287D01*
X36988400Y47117313D01*
X36992439Y47158322D01*
X37002612Y47191857D01*
X37019128Y47222756D01*
X37041357Y47249843D01*
X37068444Y47272072D01*
X37099343Y47288588D01*
X37132878Y47298761D01*
X37173887Y47302800D01*
X38602913Y47302800D01*
X38643922Y47298761D01*
G37*
G36*
X25181922Y47298761D02*
G01*
X25215457Y47288588D01*
X25246356Y47272072D01*
X25273443Y47249843D01*
X25295672Y47222756D01*
X25312188Y47191857D01*
X25322361Y47158322D01*
X25326400Y47117313D01*
X25326400Y46338287D01*
X25322361Y46297278D01*
X25312188Y46263743D01*
X25295672Y46232844D01*
X25273443Y46205757D01*
X25246356Y46183528D01*
X25215457Y46167012D01*
X25181922Y46156839D01*
X25140913Y46152800D01*
X23711887Y46152800D01*
X23670878Y46156839D01*
X23637343Y46167012D01*
X23606444Y46183528D01*
X23579357Y46205757D01*
X23557128Y46232844D01*
X23540612Y46263743D01*
X23530439Y46297278D01*
X23526400Y46338287D01*
X23526400Y47117313D01*
X23530439Y47158322D01*
X23540612Y47191857D01*
X23557128Y47222756D01*
X23579357Y47249843D01*
X23606444Y47272072D01*
X23637343Y47288588D01*
X23670878Y47298761D01*
X23711887Y47302800D01*
X25140913Y47302800D01*
X25181922Y47298761D01*
G37*
G36*
X15671300Y46157800D02*
G01*
X14571300Y46157800D01*
X14571300Y46907800D01*
X15671300Y46907800D01*
X15671300Y46157800D01*
G37*
G36*
X57641610Y50173164D02*
G01*
X57869095Y50078936D01*
X57869097Y50078935D01*
X58073828Y49942138D01*
X58247938Y49768028D01*
X58384736Y49563295D01*
X58478964Y49335810D01*
X58527000Y49094316D01*
X58527000Y48848084D01*
X58478964Y48606590D01*
X58384736Y48379105D01*
X58384735Y48379103D01*
X58247938Y48174372D01*
X58073828Y48000262D01*
X57869097Y47863465D01*
X57869096Y47863464D01*
X57869095Y47863464D01*
X57641610Y47769236D01*
X57400116Y47721200D01*
X57153884Y47721200D01*
X56912390Y47769236D01*
X56684905Y47863464D01*
X56684904Y47863464D01*
X56684903Y47863465D01*
X56480172Y48000262D01*
X56306062Y48174372D01*
X56169265Y48379103D01*
X56169264Y48379105D01*
X56075036Y48606590D01*
X56027000Y48848084D01*
X56027000Y49094316D01*
X56075036Y49335810D01*
X56169264Y49563295D01*
X56306062Y49768028D01*
X56480172Y49942138D01*
X56684903Y50078935D01*
X56684905Y50078936D01*
X56912390Y50173164D01*
X57153884Y50221200D01*
X57400116Y50221200D01*
X57641610Y50173164D01*
G37*
G36*
X16315810Y50173164D02*
G01*
X16543295Y50078936D01*
X16543297Y50078935D01*
X16748028Y49942138D01*
X16922138Y49768028D01*
X17058936Y49563295D01*
X17153164Y49335810D01*
X17201200Y49094316D01*
X17201200Y48848084D01*
X17153164Y48606590D01*
X17058936Y48379105D01*
X17058935Y48379103D01*
X16922138Y48174372D01*
X16748028Y48000262D01*
X16543297Y47863465D01*
X16543296Y47863464D01*
X16543295Y47863464D01*
X16315810Y47769236D01*
X16074316Y47721200D01*
X15828084Y47721200D01*
X15586590Y47769236D01*
X15359105Y47863464D01*
X15359104Y47863464D01*
X15359103Y47863465D01*
X15154372Y48000262D01*
X14980262Y48174372D01*
X14843465Y48379103D01*
X14843464Y48379105D01*
X14749236Y48606590D01*
X14701200Y48848084D01*
X14701200Y49094316D01*
X14749236Y49335810D01*
X14843464Y49563295D01*
X14980262Y49768028D01*
X15154372Y49942138D01*
X15359103Y50078935D01*
X15359105Y50078936D01*
X15586590Y50173164D01*
X15828084Y50221200D01*
X16074316Y50221200D01*
X16315810Y50173164D01*
G37*
G36*
X49391926Y54380900D02*
G01*
X49527165Y54353999D01*
X49781949Y54248464D01*
X50011248Y54095251D01*
X50206251Y53900248D01*
X50359464Y53670949D01*
X50463568Y53419620D01*
X50464999Y53416164D01*
X50495357Y53263547D01*
X50518800Y53145688D01*
X50518800Y52869912D01*
X50464999Y52599435D01*
X50416904Y52483324D01*
X50366589Y52361851D01*
X50359464Y52344651D01*
X50206251Y52115352D01*
X50011248Y51920349D01*
X49781949Y51767136D01*
X49527165Y51661601D01*
X49391927Y51634701D01*
X49256689Y51607800D01*
X48980911Y51607800D01*
X48845673Y51634701D01*
X48710435Y51661601D01*
X48455651Y51767136D01*
X48226352Y51920349D01*
X48031349Y52115352D01*
X47878136Y52344651D01*
X47871012Y52361851D01*
X47820696Y52483324D01*
X47772601Y52599435D01*
X47718800Y52869912D01*
X47718800Y53145688D01*
X47742244Y53263547D01*
X47772601Y53416164D01*
X47774033Y53419620D01*
X47878136Y53670949D01*
X48031349Y53900248D01*
X48226352Y54095251D01*
X48455651Y54248464D01*
X48710435Y54353999D01*
X48845674Y54380900D01*
X48980911Y54407800D01*
X49256689Y54407800D01*
X49391926Y54380900D01*
G37*
G36*
X32949359Y54407800D02*
G01*
X33133365Y54371199D01*
X33388149Y54265664D01*
X33617448Y54112451D01*
X33812451Y53917448D01*
X33823945Y53900246D01*
X33965665Y53688147D01*
X33972789Y53670947D01*
X34050129Y53484233D01*
X34071199Y53433364D01*
X34120350Y53186268D01*
X34125000Y53162888D01*
X34125000Y52887112D01*
X34071199Y52616635D01*
X33965664Y52361851D01*
X33812451Y52132552D01*
X33617448Y51937549D01*
X33388149Y51784336D01*
X33133365Y51678801D01*
X33046894Y51661601D01*
X32862889Y51625000D01*
X32587111Y51625000D01*
X32403106Y51661601D01*
X32316635Y51678801D01*
X32061851Y51784336D01*
X31832552Y51937549D01*
X31637549Y52132552D01*
X31484336Y52361851D01*
X31378801Y52616635D01*
X31325000Y52887112D01*
X31325000Y53162888D01*
X31329651Y53186268D01*
X31378801Y53433364D01*
X31399872Y53484233D01*
X31477211Y53670947D01*
X31484335Y53688147D01*
X31626055Y53900246D01*
X31637549Y53917448D01*
X31832552Y54112451D01*
X32061851Y54265664D01*
X32316635Y54371199D01*
X32500641Y54407800D01*
X32587111Y54425000D01*
X32862889Y54425000D01*
X32949359Y54407800D01*
G37*
G36*
X41049359Y54407800D02*
G01*
X41233365Y54371199D01*
X41488149Y54265664D01*
X41717448Y54112451D01*
X41912451Y53917448D01*
X41923945Y53900246D01*
X42065665Y53688147D01*
X42072789Y53670947D01*
X42150129Y53484233D01*
X42171199Y53433364D01*
X42220350Y53186268D01*
X42225000Y53162888D01*
X42225000Y52887112D01*
X42171199Y52616635D01*
X42065664Y52361851D01*
X41912451Y52132552D01*
X41717448Y51937549D01*
X41488149Y51784336D01*
X41233365Y51678801D01*
X41146894Y51661601D01*
X40962889Y51625000D01*
X40687111Y51625000D01*
X40503106Y51661601D01*
X40416635Y51678801D01*
X40161851Y51784336D01*
X39932552Y51937549D01*
X39737549Y52132552D01*
X39584336Y52361851D01*
X39478801Y52616635D01*
X39425000Y52887112D01*
X39425000Y53162888D01*
X39429651Y53186268D01*
X39478801Y53433364D01*
X39499872Y53484233D01*
X39577211Y53670947D01*
X39584335Y53688147D01*
X39726055Y53900246D01*
X39737549Y53917448D01*
X39932552Y54112451D01*
X40161851Y54265664D01*
X40416635Y54371199D01*
X40600641Y54407800D01*
X40687111Y54425000D01*
X40962889Y54425000D01*
X41049359Y54407800D01*
G37*
G36*
X55933404Y58077026D02*
G01*
X56515767Y57835804D01*
X56570716Y57799088D01*
X57039881Y57485602D01*
X57485602Y57039881D01*
X57688346Y56736453D01*
X57835804Y56515767D01*
X58077026Y55933404D01*
X58200000Y55315174D01*
X58200000Y54684826D01*
X58077026Y54066596D01*
X57835804Y53484233D01*
X57719599Y53310321D01*
X57485602Y52960119D01*
X57039881Y52514398D01*
X56702998Y52289300D01*
X56515767Y52164196D01*
X55933404Y51922974D01*
X55315174Y51800000D01*
X54684826Y51800000D01*
X54066596Y51922974D01*
X53484233Y52164196D01*
X53297002Y52289300D01*
X52960119Y52514398D01*
X52514398Y52960119D01*
X52280401Y53310321D01*
X52164196Y53484233D01*
X51922974Y54066596D01*
X51800000Y54684826D01*
X51800000Y55315174D01*
X51922974Y55933404D01*
X52164196Y56515767D01*
X52311654Y56736453D01*
X52514398Y57039881D01*
X52960119Y57485602D01*
X53429284Y57799088D01*
X53484233Y57835804D01*
X54066596Y58077026D01*
X54684826Y58200000D01*
X55315174Y58200000D01*
X55933404Y58077026D01*
G37*
G36*
X5933404Y58077026D02*
G01*
X6515767Y57835804D01*
X6570716Y57799088D01*
X7039881Y57485602D01*
X7485602Y57039881D01*
X7688346Y56736453D01*
X7835804Y56515767D01*
X8077026Y55933404D01*
X8200000Y55315174D01*
X8200000Y54684826D01*
X8077026Y54066596D01*
X7835804Y53484233D01*
X7719599Y53310321D01*
X7485602Y52960119D01*
X7039881Y52514398D01*
X6702998Y52289300D01*
X6515767Y52164196D01*
X5933404Y51922974D01*
X5315174Y51800000D01*
X4684826Y51800000D01*
X4066596Y51922974D01*
X3484233Y52164196D01*
X3297002Y52289300D01*
X2960119Y52514398D01*
X2514398Y52960119D01*
X2280401Y53310321D01*
X2164196Y53484233D01*
X1922974Y54066596D01*
X1800000Y54684826D01*
X1800000Y55315174D01*
X1922974Y55933404D01*
X2164196Y56515767D01*
X2311654Y56736453D01*
X2514398Y57039881D01*
X2960119Y57485602D01*
X3429284Y57799088D01*
X3484233Y57835804D01*
X4066596Y58077026D01*
X4684826Y58200000D01*
X5315174Y58200000D01*
X5933404Y58077026D01*
G37*
G36*
X44934127Y59034299D02*
G01*
X45069365Y59007399D01*
X45324149Y58901864D01*
X45553448Y58748651D01*
X45748451Y58553648D01*
X45901664Y58324349D01*
X46007199Y58069565D01*
X46061000Y57799088D01*
X46061000Y57523312D01*
X46007199Y57252835D01*
X45901664Y56998051D01*
X45748451Y56768752D01*
X45553448Y56573749D01*
X45324149Y56420536D01*
X45069365Y56315001D01*
X44979149Y56297056D01*
X44798889Y56261200D01*
X44523111Y56261200D01*
X44342851Y56297056D01*
X44252635Y56315001D01*
X43997851Y56420536D01*
X43768552Y56573749D01*
X43573549Y56768752D01*
X43420336Y56998051D01*
X43314801Y57252835D01*
X43261000Y57523312D01*
X43261000Y57799088D01*
X43314801Y58069565D01*
X43420336Y58324349D01*
X43573549Y58553648D01*
X43768552Y58748651D01*
X43997851Y58901864D01*
X44252635Y59007399D01*
X44387873Y59034299D01*
X44523111Y59061200D01*
X44798889Y59061200D01*
X44934127Y59034299D01*
G37*
G36*
X36962216Y59061200D02*
G01*
X37098965Y59033999D01*
X37353749Y58928464D01*
X37583048Y58775251D01*
X37778051Y58580248D01*
X37931264Y58350949D01*
X38036799Y58096165D01*
X38090600Y57825688D01*
X38090600Y57549912D01*
X38036799Y57279435D01*
X37962175Y57099277D01*
X37937573Y57039881D01*
X37931264Y57024651D01*
X37778051Y56795352D01*
X37583048Y56600349D01*
X37353749Y56447136D01*
X37098965Y56341601D01*
X36965237Y56315001D01*
X36828489Y56287800D01*
X36552711Y56287800D01*
X36415963Y56315001D01*
X36282235Y56341601D01*
X36027451Y56447136D01*
X35798152Y56600349D01*
X35603149Y56795352D01*
X35449936Y57024651D01*
X35443628Y57039881D01*
X35419025Y57099277D01*
X35344401Y57279435D01*
X35290600Y57549912D01*
X35290600Y57825688D01*
X35344401Y58096165D01*
X35449936Y58350949D01*
X35603149Y58580248D01*
X35798152Y58775251D01*
X36027451Y58928464D01*
X36282235Y59033999D01*
X36418984Y59061200D01*
X36552711Y59087800D01*
X36828489Y59087800D01*
X36962216Y59061200D01*
G37*
G36*
X26299120Y58777714D02*
G01*
X26369285Y58748651D01*
X26462910Y58709870D01*
X26610317Y58611376D01*
X26735676Y58486017D01*
X26834170Y58338610D01*
X26834171Y58338608D01*
X26902014Y58174820D01*
X26936600Y58000944D01*
X26936600Y57823656D01*
X26931713Y57799089D01*
X26902014Y57649780D01*
X26834170Y57485990D01*
X26735676Y57338583D01*
X26610317Y57213224D01*
X26462910Y57114730D01*
X26462909Y57114729D01*
X26462908Y57114729D01*
X26299120Y57046886D01*
X26125244Y57012300D01*
X25947956Y57012300D01*
X25774080Y57046886D01*
X25610292Y57114729D01*
X25610291Y57114729D01*
X25610290Y57114730D01*
X25462883Y57213224D01*
X25337524Y57338583D01*
X25239030Y57485990D01*
X25171186Y57649780D01*
X25141487Y57799089D01*
X25136600Y57823656D01*
X25136600Y58000944D01*
X25171186Y58174820D01*
X25239029Y58338608D01*
X25239030Y58338610D01*
X25337524Y58486017D01*
X25462883Y58611376D01*
X25610290Y58709870D01*
X25703916Y58748651D01*
X25774080Y58777714D01*
X25947956Y58812300D01*
X26125244Y58812300D01*
X26299120Y58777714D01*
G37*
G36*
X21936600Y57012300D02*
G01*
X20136600Y57012300D01*
X20136600Y58812300D01*
X21936600Y58812300D01*
X21936600Y57012300D01*
G37*
G36*
X10813200Y57012300D02*
G01*
X9013200Y57012300D01*
X9013200Y58812300D01*
X10813200Y58812300D01*
X10813200Y57012300D01*
G37*
G36*
X15175720Y58777714D02*
G01*
X15245885Y58748651D01*
X15339510Y58709870D01*
X15486917Y58611376D01*
X15612276Y58486017D01*
X15710770Y58338610D01*
X15710771Y58338608D01*
X15778614Y58174820D01*
X15813200Y58000944D01*
X15813200Y57823656D01*
X15808313Y57799089D01*
X15778614Y57649780D01*
X15710770Y57485990D01*
X15612276Y57338583D01*
X15486917Y57213224D01*
X15339510Y57114730D01*
X15339509Y57114729D01*
X15339508Y57114729D01*
X15175720Y57046886D01*
X15001844Y57012300D01*
X14824556Y57012300D01*
X14650680Y57046886D01*
X14486892Y57114729D01*
X14486891Y57114729D01*
X14486890Y57114730D01*
X14339483Y57213224D01*
X14214124Y57338583D01*
X14115630Y57485990D01*
X14047786Y57649780D01*
X14018087Y57799089D01*
X14013200Y57823656D01*
X14013200Y58000944D01*
X14047786Y58174820D01*
X14115629Y58338608D01*
X14115630Y58338610D01*
X14214124Y58486017D01*
X14339483Y58611376D01*
X14486890Y58709870D01*
X14580516Y58748651D01*
X14650680Y58777714D01*
X14824556Y58812300D01*
X15001844Y58812300D01*
X15175720Y58777714D01*
G37*
M02*
